<?xml version="1.0" encoding="UTF-8" standalone="no"?>
<!DOCTYPE svg PUBLIC "-//W3C//DTD SVG 1.1//EN"
 "http://www.w3.org/Graphics/SVG/1.1/DTD/svg11.dtd">
<!-- Generated by graphviz version 14.1.5 (20260411.2331)
 -->
<!-- Title: G Pages: 1 -->
<svg width="946pt" height="421pt"
 viewBox="0.00 0.00 946.00 421.00" xmlns="http://www.w3.org/2000/svg" xmlns:xlink="http://www.w3.org/1999/xlink">
<g id="graph0" class="graph" transform="scale(1 1) rotate(0) translate(4 417.46)">
<title>G</title>
<polygon fill="white" stroke="none" points="-4,4 -4,-417.46 941.75,-417.46 941.75,4 -4,4"/>
<text xml:space="preserve" text-anchor="middle" x="92" y="-390.46" font-family="Helvetica,sans-Serif" font-size="20.00">Module&#45;Level Flow</text>
<!-- scripts_run_solver -->
<g id="node1" class="node">
<title>scripts_run_solver</title>
<path fill="#eff6ff" stroke="#1d4ed8" d="M97.75,-179.19C97.75,-179.19 12,-179.19 12,-179.19 6,-179.19 0,-173.19 0,-167.19 0,-167.19 0,-155.19 0,-155.19 0,-149.19 6,-143.19 12,-143.19 12,-143.19 97.75,-143.19 97.75,-143.19 103.75,-143.19 109.75,-149.19 109.75,-155.19 109.75,-155.19 109.75,-167.19 109.75,-167.19 109.75,-173.19 103.75,-179.19 97.75,-179.19"/>
<text xml:space="preserve" text-anchor="middle" x="54.88" y="-156.16" font-family="Helvetica,sans-Serif" font-size="12.00">scripts.run_solver</text>
</g>
<!-- src_experiments -->
<g id="node5" class="node">
<title>src_experiments</title>
<path fill="#eff6ff" stroke="#1d4ed8" d="M233.75,-240.19C233.75,-240.19 157.75,-240.19 157.75,-240.19 151.75,-240.19 145.75,-234.19 145.75,-228.19 145.75,-228.19 145.75,-216.19 145.75,-216.19 145.75,-210.19 151.75,-204.19 157.75,-204.19 157.75,-204.19 233.75,-204.19 233.75,-204.19 239.75,-204.19 245.75,-210.19 245.75,-216.19 245.75,-216.19 245.75,-228.19 245.75,-228.19 245.75,-234.19 239.75,-240.19 233.75,-240.19"/>
<text xml:space="preserve" text-anchor="middle" x="195.75" y="-217.16" font-family="Helvetica,sans-Serif" font-size="12.00">src.experiments</text>
</g>
<!-- scripts_run_solver&#45;&gt;src_experiments -->
<g id="edge1" class="edge">
<title>scripts_run_solver&#45;&gt;src_experiments</title>
<path fill="none" stroke="#64748b" d="M97.92,-179.66C112.6,-186.11 129.23,-193.41 144.52,-200.12"/>
<polygon fill="#64748b" stroke="#64748b" points="143.01,-202.52 151.46,-203.18 145.26,-197.39 143.01,-202.52"/>
</g>
<!-- tests_test_solver -->
<g id="node11" class="node">
<title>tests_test_solver</title>
<path fill="#eff6ff" stroke="#1d4ed8" d="M371.25,-95.19C371.25,-95.19 293.75,-95.19 293.75,-95.19 287.75,-95.19 281.75,-89.19 281.75,-83.19 281.75,-83.19 281.75,-71.19 281.75,-71.19 281.75,-65.19 287.75,-59.19 293.75,-59.19 293.75,-59.19 371.25,-59.19 371.25,-59.19 377.25,-59.19 383.25,-65.19 383.25,-71.19 383.25,-71.19 383.25,-83.19 383.25,-83.19 383.25,-89.19 377.25,-95.19 371.25,-95.19"/>
<text xml:space="preserve" text-anchor="middle" x="332.5" y="-72.16" font-family="Helvetica,sans-Serif" font-size="12.00">tests.test_solver</text>
</g>
<!-- scripts_run_solver&#45;&gt;tests_test_solver -->
<g id="edge2" class="edge">
<title>scripts_run_solver&#45;&gt;tests_test_solver</title>
<path fill="none" stroke="#64748b" d="M110,-144.69C156.84,-130.42 224.43,-109.82 272.61,-95.14"/>
<polygon fill="#64748b" stroke="#64748b" points="273.39,-97.83 280.22,-92.82 271.75,-92.47 273.39,-97.83"/>
</g>
<!-- src_RK4_harmonic_oscillator -->
<g id="node2" class="node">
<title>src_RK4_harmonic_oscillator</title>
<path fill="#eff6ff" stroke="#1d4ed8" d="M577,-217.19C577,-217.19 431.25,-217.19 431.25,-217.19 425.25,-217.19 419.25,-211.19 419.25,-205.19 419.25,-205.19 419.25,-193.19 419.25,-193.19 419.25,-187.19 425.25,-181.19 431.25,-181.19 431.25,-181.19 577,-181.19 577,-181.19 583,-181.19 589,-187.19 589,-193.19 589,-193.19 589,-205.19 589,-205.19 589,-211.19 583,-217.19 577,-217.19"/>
<text xml:space="preserve" text-anchor="middle" x="504.12" y="-194.16" font-family="Helvetica,sans-Serif" font-size="12.00">src.RK4_harmonic_oscillator</text>
</g>
<!-- src_analysis -->
<g id="node3" class="node">
<title>src_analysis</title>
<path fill="#eff6ff" stroke="#1d4ed8" d="M692,-217.19C692,-217.19 637,-217.19 637,-217.19 631,-217.19 625,-211.19 625,-205.19 625,-205.19 625,-193.19 625,-193.19 625,-187.19 631,-181.19 637,-181.19 637,-181.19 692,-181.19 692,-181.19 698,-181.19 704,-187.19 704,-193.19 704,-193.19 704,-205.19 704,-205.19 704,-211.19 698,-217.19 692,-217.19"/>
<text xml:space="preserve" text-anchor="middle" x="664.5" y="-194.16" font-family="Helvetica,sans-Serif" font-size="12.00">src.analysis</text>
</g>
<!-- src_RK4_harmonic_oscillator&#45;&gt;src_analysis -->
<g id="edge3" class="edge">
<title>src_RK4_harmonic_oscillator&#45;&gt;src_analysis</title>
<path fill="none" stroke="#64748b" d="M589.41,-199.19C598.23,-199.19 606.96,-199.19 615.16,-199.19"/>
<polygon fill="#64748b" stroke="#64748b" points="615.01,-201.99 623.01,-199.19 615.01,-196.39 615.01,-201.99"/>
</g>
<!-- src_shooting -->
<g id="node10" class="node">
<title>src_shooting</title>
<path fill="#eff6ff" stroke="#1d4ed8" d="M808.5,-217.19C808.5,-217.19 752,-217.19 752,-217.19 746,-217.19 740,-211.19 740,-205.19 740,-205.19 740,-193.19 740,-193.19 740,-187.19 746,-181.19 752,-181.19 752,-181.19 808.5,-181.19 808.5,-181.19 814.5,-181.19 820.5,-187.19 820.5,-193.19 820.5,-193.19 820.5,-205.19 820.5,-205.19 820.5,-211.19 814.5,-217.19 808.5,-217.19"/>
<text xml:space="preserve" text-anchor="middle" x="780.25" y="-194.16" font-family="Helvetica,sans-Serif" font-size="12.00">src.shooting</text>
</g>
<!-- src_analysis&#45;&gt;src_shooting -->
<g id="edge4" class="edge">
<title>src_analysis&#45;&gt;src_shooting</title>
<path fill="none" stroke="#64748b" d="M704.33,-199.19C712.74,-199.19 721.74,-199.19 730.48,-199.19"/>
<polygon fill="#64748b" stroke="#64748b" points="730.31,-201.99 738.31,-199.19 730.31,-196.39 730.31,-201.99"/>
</g>
<!-- src_diagnostics -->
<g id="node4" class="node">
<title>src_diagnostics</title>
<path fill="#eff6ff" stroke="#1d4ed8" d="M368.25,-263.19C368.25,-263.19 296.75,-263.19 296.75,-263.19 290.75,-263.19 284.75,-257.19 284.75,-251.19 284.75,-251.19 284.75,-239.19 284.75,-239.19 284.75,-233.19 290.75,-227.19 296.75,-227.19 296.75,-227.19 368.25,-227.19 368.25,-227.19 374.25,-227.19 380.25,-233.19 380.25,-239.19 380.25,-239.19 380.25,-251.19 380.25,-251.19 380.25,-257.19 374.25,-263.19 368.25,-263.19"/>
<text xml:space="preserve" text-anchor="middle" x="332.5" y="-240.16" font-family="Helvetica,sans-Serif" font-size="12.00">src.diagnostics</text>
</g>
<!-- src_diagnostics&#45;&gt;src_RK4_harmonic_oscillator -->
<g id="edge5" class="edge">
<title>src_diagnostics&#45;&gt;src_RK4_harmonic_oscillator</title>
<path fill="none" stroke="#64748b" d="M380.3,-232.5C394.48,-228.65 410.45,-224.32 426.07,-220.09"/>
<polygon fill="#64748b" stroke="#64748b" points="426.75,-222.8 433.74,-218 425.29,-217.4 426.75,-222.8"/>
</g>
<!-- src_plotting -->
<g id="node7" class="node">
<title>src_plotting</title>
<path fill="#eff6ff" stroke="#1d4ed8" d="M529,-309.19C529,-309.19 479.25,-309.19 479.25,-309.19 473.25,-309.19 467.25,-303.19 467.25,-297.19 467.25,-297.19 467.25,-285.19 467.25,-285.19 467.25,-279.19 473.25,-273.19 479.25,-273.19 479.25,-273.19 529,-273.19 529,-273.19 535,-273.19 541,-279.19 541,-285.19 541,-285.19 541,-297.19 541,-297.19 541,-303.19 535,-309.19 529,-309.19"/>
<text xml:space="preserve" text-anchor="middle" x="504.12" y="-286.16" font-family="Helvetica,sans-Serif" font-size="12.00">src.plotting</text>
</g>
<!-- src_diagnostics&#45;&gt;src_plotting -->
<g id="edge6" class="edge">
<title>src_diagnostics&#45;&gt;src_plotting</title>
<path fill="none" stroke="#64748b" d="M380.3,-257.88C404.56,-264.46 434.05,-272.46 458.06,-278.97"/>
<polygon fill="#64748b" stroke="#64748b" points="457.05,-281.6 465.5,-280.99 458.52,-276.19 457.05,-281.6"/>
</g>
<!-- src_potentials -->
<g id="node8" class="node">
<title>src_potentials</title>
<path fill="#eff6ff" stroke="#1d4ed8" d="M535.38,-163.19C535.38,-163.19 472.88,-163.19 472.88,-163.19 466.88,-163.19 460.88,-157.19 460.88,-151.19 460.88,-151.19 460.88,-139.19 460.88,-139.19 460.88,-133.19 466.88,-127.19 472.88,-127.19 472.88,-127.19 535.38,-127.19 535.38,-127.19 541.38,-127.19 547.38,-133.19 547.38,-139.19 547.38,-139.19 547.38,-151.19 547.38,-151.19 547.38,-157.19 541.38,-163.19 535.38,-163.19"/>
<text xml:space="preserve" text-anchor="middle" x="504.12" y="-140.16" font-family="Helvetica,sans-Serif" font-size="12.00">src.potentials</text>
</g>
<!-- src_diagnostics&#45;&gt;src_potentials -->
<g id="edge7" class="edge">
<title>src_diagnostics&#45;&gt;src_potentials</title>
<path fill="none" stroke="#64748b" d="M350.65,-226.95C366.93,-210.59 392.78,-186.94 419.25,-172.19 429.27,-166.61 440.61,-161.98 451.64,-158.23"/>
<polygon fill="#64748b" stroke="#64748b" points="452.2,-160.99 458.95,-155.87 450.48,-155.66 452.2,-160.99"/>
</g>
<!-- src_diagnostics&#45;&gt;src_shooting -->
<g id="edge8" class="edge">
<title>src_diagnostics&#45;&gt;src_shooting</title>
<path fill="none" stroke="#64748b" d="M380.54,-247.15C451.43,-249.11 589.54,-249.14 704,-226.19 712.79,-224.43 721.93,-221.84 730.69,-218.95"/>
<polygon fill="#64748b" stroke="#64748b" points="731.57,-221.61 738.21,-216.34 729.74,-216.31 731.57,-221.61"/>
</g>
<!-- src_experiments&#45;&gt;src_RK4_harmonic_oscillator -->
<g id="edge9" class="edge">
<title>src_experiments&#45;&gt;src_RK4_harmonic_oscillator</title>
<path fill="none" stroke="#64748b" d="M245.97,-218.49C290.03,-215.19 355.8,-210.25 409.79,-206.2"/>
<polygon fill="#64748b" stroke="#64748b" points="409.76,-209.01 417.53,-205.61 409.34,-203.42 409.76,-209.01"/>
</g>
<!-- src_experiments&#45;&gt;src_analysis -->
<g id="edge10" class="edge">
<title>src_experiments&#45;&gt;src_analysis</title>
<path fill="none" stroke="#64748b" d="M212.34,-240.37C228.06,-257.41 253.91,-282.16 281.75,-295.19 405.78,-353.23 469.2,-384.53 589,-318.19 624.21,-298.69 644.99,-254.83 655.31,-226.16"/>
<polygon fill="#64748b" stroke="#64748b" points="657.87,-227.34 657.81,-218.86 652.57,-225.52 657.87,-227.34"/>
</g>
<!-- src_experiments&#45;&gt;src_diagnostics -->
<g id="edge11" class="edge">
<title>src_experiments&#45;&gt;src_diagnostics</title>
<path fill="none" stroke="#64748b" d="M246.16,-230.62C255.61,-232.24 265.57,-233.94 275.21,-235.58"/>
<polygon fill="#64748b" stroke="#64748b" points="274.49,-238.3 282.85,-236.88 275.43,-232.78 274.49,-238.3"/>
</g>
<!-- src_experiments&#45;&gt;src_plotting -->
<g id="edge12" class="edge">
<title>src_experiments&#45;&gt;src_plotting</title>
<path fill="none" stroke="#64748b" d="M221.37,-240.68C237.63,-251.85 259.89,-265.22 281.75,-272.19 340.42,-290.9 412.01,-293.66 457.58,-293.09"/>
<polygon fill="#64748b" stroke="#64748b" points="457.44,-295.89 465.39,-292.95 457.34,-290.3 457.44,-295.89"/>
</g>
<!-- src_experiments&#45;&gt;src_potentials -->
<g id="edge13" class="edge">
<title>src_experiments&#45;&gt;src_potentials</title>
<path fill="none" stroke="#64748b" d="M245.97,-209.82C302.33,-195.65 394.23,-172.56 451.55,-158.15"/>
<polygon fill="#64748b" stroke="#64748b" points="451.9,-160.95 458.98,-156.28 450.54,-155.52 451.9,-160.95"/>
</g>
<!-- src_scattering -->
<g id="node9" class="node">
<title>src_scattering</title>
<path fill="#eff6ff" stroke="#1d4ed8" d="M535.38,-109.19C535.38,-109.19 472.88,-109.19 472.88,-109.19 466.88,-109.19 460.88,-103.19 460.88,-97.19 460.88,-97.19 460.88,-85.19 460.88,-85.19 460.88,-79.19 466.88,-73.19 472.88,-73.19 472.88,-73.19 535.38,-73.19 535.38,-73.19 541.38,-73.19 547.38,-79.19 547.38,-85.19 547.38,-85.19 547.38,-97.19 547.38,-97.19 547.38,-103.19 541.38,-109.19 535.38,-109.19"/>
<text xml:space="preserve" text-anchor="middle" x="504.12" y="-86.16" font-family="Helvetica,sans-Serif" font-size="12.00">src.scattering</text>
</g>
<!-- src_experiments&#45;&gt;src_scattering -->
<g id="edge14" class="edge">
<title>src_experiments&#45;&gt;src_scattering</title>
<path fill="none" stroke="#64748b" d="M226.08,-203.89C242.21,-194.19 262.75,-182.41 281.75,-173.19 340.97,-144.46 357.33,-140.51 419.25,-118.19 429.71,-114.42 440.98,-110.62 451.77,-107.1"/>
<polygon fill="#64748b" stroke="#64748b" points="452.5,-109.81 459.25,-104.69 450.78,-104.48 452.5,-109.81"/>
</g>
<!-- src_experiments&#45;&gt;src_shooting -->
<g id="edge15" class="edge">
<title>src_experiments&#45;&gt;src_shooting</title>
<path fill="none" stroke="#64748b" d="M205.33,-240.4C218.15,-265.41 244.82,-309.73 281.75,-331.19 400.06,-399.95 459.86,-396.44 589,-351.19 661,-325.96 726.04,-260.76 758.14,-224.49"/>
<polygon fill="#64748b" stroke="#64748b" points="759.97,-226.65 763.12,-218.78 755.75,-222.97 759.97,-226.65"/>
</g>
<!-- src_numerov -->
<g id="node6" class="node">
<title>src_numerov</title>
<path fill="#eff6ff" stroke="#1d4ed8" d="M925.75,-109.19C925.75,-109.19 868.5,-109.19 868.5,-109.19 862.5,-109.19 856.5,-103.19 856.5,-97.19 856.5,-97.19 856.5,-85.19 856.5,-85.19 856.5,-79.19 862.5,-73.19 868.5,-73.19 868.5,-73.19 925.75,-73.19 925.75,-73.19 931.75,-73.19 937.75,-79.19 937.75,-85.19 937.75,-85.19 937.75,-97.19 937.75,-97.19 937.75,-103.19 931.75,-109.19 925.75,-109.19"/>
<text xml:space="preserve" text-anchor="middle" x="897.12" y="-86.16" font-family="Helvetica,sans-Serif" font-size="12.00">src.numerov</text>
</g>
<!-- src_scattering&#45;&gt;src_numerov -->
<g id="edge16" class="edge">
<title>src_scattering&#45;&gt;src_numerov</title>
<path fill="none" stroke="#64748b" d="M547.71,-91.19C620.84,-91.19 769.87,-91.19 847.16,-91.19"/>
<polygon fill="#64748b" stroke="#64748b" points="846.71,-93.99 854.71,-91.19 846.71,-88.39 846.71,-93.99"/>
</g>
<!-- src_shooting&#45;&gt;src_numerov -->
<g id="edge17" class="edge">
<title>src_shooting&#45;&gt;src_numerov</title>
<path fill="none" stroke="#64748b" d="M800.74,-180.87C819.72,-163.03 848.7,-135.78 869.74,-116"/>
<polygon fill="#64748b" stroke="#64748b" points="871.53,-118.16 875.44,-110.64 867.69,-114.08 871.53,-118.16"/>
</g>
<!-- tests_test_solver&#45;&gt;src_RK4_harmonic_oscillator -->
<g id="edge18" class="edge">
<title>tests_test_solver&#45;&gt;src_RK4_harmonic_oscillator</title>
<path fill="none" stroke="#64748b" d="M345.55,-95.58C360.45,-116.93 387.72,-151.8 419.25,-172.19 421.68,-173.76 424.2,-175.24 426.8,-176.65"/>
<polygon fill="#64748b" stroke="#64748b" points="425.53,-179.14 433.94,-180.19 428.02,-174.13 425.53,-179.14"/>
</g>
<!-- tests_test_solver&#45;&gt;src_analysis -->
<g id="edge19" class="edge">
<title>tests_test_solver&#45;&gt;src_analysis</title>
<path fill="none" stroke="#64748b" d="M383.48,-59.31C437.99,-43.1 525.89,-26.93 589,-64.19 628.45,-87.47 648.44,-139.94 657.37,-172.18"/>
<polygon fill="#64748b" stroke="#64748b" points="654.58,-172.59 659.31,-179.62 660,-171.18 654.58,-172.59"/>
</g>
<!-- tests_test_solver&#45;&gt;src_numerov -->
<g id="edge20" class="edge">
<title>tests_test_solver&#45;&gt;src_numerov</title>
<path fill="none" stroke="#64748b" d="M352.39,-58.77C368.62,-44.32 393.43,-25.33 419.25,-17.19 571.06,30.65 760.17,-33.27 847.62,-69.42"/>
<polygon fill="#64748b" stroke="#64748b" points="846.41,-71.94 854.87,-72.45 848.57,-66.78 846.41,-71.94"/>
</g>
<!-- tests_test_solver&#45;&gt;src_potentials -->
<g id="edge21" class="edge">
<title>tests_test_solver&#45;&gt;src_potentials</title>
<path fill="none" stroke="#64748b" d="M369.32,-95.64C384.51,-103.12 402.54,-111.54 419.25,-118.19 429.58,-122.3 440.8,-126.25 451.57,-129.8"/>
<polygon fill="#64748b" stroke="#64748b" points="450.58,-132.42 459.05,-132.22 452.3,-127.1 450.58,-132.42"/>
</g>
<!-- tests_test_solver&#45;&gt;src_scattering -->
<g id="edge22" class="edge">
<title>tests_test_solver&#45;&gt;src_scattering</title>
<path fill="none" stroke="#64748b" d="M383.48,-81.31C404.76,-83.07 429.58,-85.12 451.08,-86.89"/>
<polygon fill="#64748b" stroke="#64748b" points="450.68,-89.67 458.88,-87.54 451.14,-84.09 450.68,-89.67"/>
</g>
<!-- tests_test_solver&#45;&gt;src_shooting -->
<g id="edge23" class="edge">
<title>tests_test_solver&#45;&gt;src_shooting</title>
<path fill="none" stroke="#64748b" d="M364.49,-58.72C380.29,-50.36 400.17,-41.42 419.25,-37.19 492.91,-20.86 518.2,-11.13 589,-37.19 663.43,-64.58 728.57,-135.47 759.74,-173.75"/>
<polygon fill="#64748b" stroke="#64748b" points="757.38,-175.28 764.57,-179.77 761.75,-171.78 757.38,-175.28"/>
</g>
</g>
</svg>
