<?xml version="1.0" encoding="UTF-8" standalone="no"?>
<!DOCTYPE svg PUBLIC "-//W3C//DTD SVG 1.1//EN"
 "http://www.w3.org/Graphics/SVG/1.1/DTD/svg11.dtd">
<!-- Generated by graphviz version 14.1.5 (20260411.2331)
 -->
<!-- Title: G Pages: 1 -->
<svg width="1631pt" height="577pt"
 viewBox="0.00 0.00 1631.00 577.00" xmlns="http://www.w3.org/2000/svg" xmlns:xlink="http://www.w3.org/1999/xlink">
<g id="graph0" class="graph" transform="scale(1 1) rotate(0) translate(4 573)">
<title>G</title>
<polygon fill="white" stroke="none" points="-4,4 -4,-573 1627.25,-573 1627.25,4 -4,4"/>
<text xml:space="preserve" text-anchor="middle" x="143" y="-546" font-family="Helvetica,sans-Serif" font-size="20.00">Finite Square Well Experiment</text>
<!-- src_analysis_convergence_vs_grid -->
<g id="node1" class="node">
<title>src_analysis_convergence_vs_grid</title>
<path fill="#f8fafc" stroke="#334155" d="M106.75,-468C106.75,-468 12.75,-468 12.75,-468 6.75,-468 0.75,-462 0.75,-456 0.75,-456 0.75,-444 0.75,-444 0.75,-438 6.75,-432 12.75,-432 12.75,-432 106.75,-432 106.75,-432 112.75,-432 118.75,-438 118.75,-444 118.75,-444 118.75,-456 118.75,-456 118.75,-462 112.75,-468 106.75,-468"/>
<text xml:space="preserve" text-anchor="middle" x="59.75" y="-445.55" font-family="Helvetica,sans-Serif" font-size="11.00">convergence_vs_grid</text>
</g>
<!-- src_analysis_energies_from_states -->
<g id="node2" class="node">
<title>src_analysis_energies_from_states</title>
<path fill="#f8fafc" stroke="#334155" d="M107.5,-396C107.5,-396 12,-396 12,-396 6,-396 0,-390 0,-384 0,-384 0,-372 0,-372 0,-366 6,-360 12,-360 12,-360 107.5,-360 107.5,-360 113.5,-360 119.5,-366 119.5,-372 119.5,-372 119.5,-384 119.5,-384 119.5,-390 113.5,-396 107.5,-396"/>
<text xml:space="preserve" text-anchor="middle" x="59.75" y="-373.55" font-family="Helvetica,sans-Serif" font-size="11.00">energies_from_states</text>
</g>
<!-- src_analysis_convergence_vs_grid&#45;&gt;src_analysis_energies_from_states -->
<g id="edge1" class="edge">
<title>src_analysis_convergence_vs_grid&#45;&gt;src_analysis_energies_from_states</title>
<path fill="none" stroke="#64748b" d="M59.75,-431.7C59.75,-423.47 59.75,-413.48 59.75,-404.42"/>
<polygon fill="#64748b" stroke="#64748b" points="62.2,-404.62 59.75,-397.62 57.3,-404.62 62.2,-404.62"/>
</g>
<!-- src_analysis_estimate_convergence_slopes -->
<g id="node3" class="node">
<title>src_analysis_estimate_convergence_slopes</title>
<path fill="#f8fafc" stroke="#334155" d="M285.12,-468C285.12,-468 148.38,-468 148.38,-468 142.38,-468 136.38,-462 136.38,-456 136.38,-456 136.38,-444 136.38,-444 136.38,-438 142.38,-432 148.38,-432 148.38,-432 285.12,-432 285.12,-432 291.12,-432 297.12,-438 297.12,-444 297.12,-444 297.12,-456 297.12,-456 297.12,-462 291.12,-468 285.12,-468"/>
<text xml:space="preserve" text-anchor="middle" x="216.75" y="-445.55" font-family="Helvetica,sans-Serif" font-size="11.00">estimate_convergence_slopes</text>
</g>
<!-- src_analysis_save_csv_rows -->
<g id="node4" class="node">
<title>src_analysis_save_csv_rows</title>
<path fill="#f8fafc" stroke="#334155" d="M392.5,-468C392.5,-468 327,-468 327,-468 321,-468 315,-462 315,-456 315,-456 315,-444 315,-444 315,-438 321,-432 327,-432 327,-432 392.5,-432 392.5,-432 398.5,-432 404.5,-438 404.5,-444 404.5,-444 404.5,-456 404.5,-456 404.5,-462 398.5,-468 392.5,-468"/>
<text xml:space="preserve" text-anchor="middle" x="359.75" y="-445.55" font-family="Helvetica,sans-Serif" font-size="11.00">save_csv_rows</text>
</g>
<!-- src_diagnostics__diagnostic_label_slug -->
<g id="node5" class="node">
<title>src_diagnostics__diagnostic_label_slug</title>
<path fill="#f8fafc" stroke="#334155" d="M506.75,-324C506.75,-324 406.75,-324 406.75,-324 400.75,-324 394.75,-318 394.75,-312 394.75,-312 394.75,-300 394.75,-300 394.75,-294 400.75,-288 406.75,-288 406.75,-288 506.75,-288 506.75,-288 512.75,-288 518.75,-294 518.75,-300 518.75,-300 518.75,-312 518.75,-312 518.75,-318 512.75,-324 506.75,-324"/>
<text xml:space="preserve" text-anchor="middle" x="456.75" y="-301.55" font-family="Helvetica,sans-Serif" font-size="11.00">_diagnostic_label_slug</text>
</g>
<!-- src_diagnostics__plot_outward_root_diagnostics -->
<g id="node6" class="node">
<title>src_diagnostics__plot_outward_root_diagnostics</title>
<path fill="#f8fafc" stroke="#334155" d="M713.88,-396C713.88,-396 569.62,-396 569.62,-396 563.62,-396 557.62,-390 557.62,-384 557.62,-384 557.62,-372 557.62,-372 557.62,-366 563.62,-360 569.62,-360 569.62,-360 713.88,-360 713.88,-360 719.88,-360 725.88,-366 725.88,-372 725.88,-372 725.88,-384 725.88,-384 725.88,-390 719.88,-396 713.88,-396"/>
<text xml:space="preserve" text-anchor="middle" x="641.75" y="-373.55" font-family="Helvetica,sans-Serif" font-size="11.00">_plot_outward_root_diagnostics</text>
</g>
<!-- src_diagnostics__plot_outward_root_diagnostics&#45;&gt;src_diagnostics__diagnostic_label_slug -->
<g id="edge2" class="edge">
<title>src_diagnostics__plot_outward_root_diagnostics&#45;&gt;src_diagnostics__diagnostic_label_slug</title>
<path fill="none" stroke="#64748b" d="M595.54,-359.52C569.73,-349.75 537.44,-337.53 510.5,-327.34"/>
<polygon fill="#64748b" stroke="#64748b" points="511.52,-325.1 504.1,-324.92 509.78,-329.69 511.52,-325.1"/>
</g>
<!-- src_plotting_plot_root_finding_diagnostic -->
<g id="node19" class="node">
<title>src_plotting_plot_root_finding_diagnostic</title>
<path fill="#f8fafc" stroke="#334155" d="M820.5,-324C820.5,-324 695,-324 695,-324 689,-324 683,-318 683,-312 683,-312 683,-300 683,-300 683,-294 689,-288 695,-288 695,-288 820.5,-288 820.5,-288 826.5,-288 832.5,-294 832.5,-300 832.5,-300 832.5,-312 832.5,-312 832.5,-318 826.5,-324 820.5,-324"/>
<text xml:space="preserve" text-anchor="middle" x="757.75" y="-301.55" font-family="Helvetica,sans-Serif" font-size="11.00">plot_root_finding_diagnostic</text>
</g>
<!-- src_diagnostics__plot_outward_root_diagnostics&#45;&gt;src_plotting_plot_root_finding_diagnostic -->
<g id="edge3" class="edge">
<title>src_diagnostics__plot_outward_root_diagnostics&#45;&gt;src_plotting_plot_root_finding_diagnostic</title>
<path fill="none" stroke="#64748b" d="M670.72,-359.52C686.34,-350.09 705.74,-338.38 722.26,-328.41"/>
<polygon fill="#64748b" stroke="#64748b" points="723.12,-330.76 727.85,-325.04 720.59,-326.56 723.12,-330.76"/>
</g>
<!-- src_plotting_plot_root_finding_zoom -->
<g id="node20" class="node">
<title>src_plotting_plot_root_finding_zoom</title>
<path fill="#f8fafc" stroke="#334155" d="M652.62,-324C652.62,-324 548.88,-324 548.88,-324 542.88,-324 536.88,-318 536.88,-312 536.88,-312 536.88,-300 536.88,-300 536.88,-294 542.88,-288 548.88,-288 548.88,-288 652.62,-288 652.62,-288 658.62,-288 664.62,-294 664.62,-300 664.62,-300 664.62,-312 664.62,-312 664.62,-318 658.62,-324 652.62,-324"/>
<text xml:space="preserve" text-anchor="middle" x="600.75" y="-301.55" font-family="Helvetica,sans-Serif" font-size="11.00">plot_root_finding_zoom</text>
</g>
<!-- src_diagnostics__plot_outward_root_diagnostics&#45;&gt;src_plotting_plot_root_finding_zoom -->
<g id="edge4" class="edge">
<title>src_diagnostics__plot_outward_root_diagnostics&#45;&gt;src_plotting_plot_root_finding_zoom</title>
<path fill="none" stroke="#64748b" d="M631.62,-359.7C626.6,-351.14 620.46,-340.66 614.99,-331.3"/>
<polygon fill="#64748b" stroke="#64748b" points="617.19,-330.21 611.53,-325.41 612.96,-332.69 617.19,-330.21"/>
</g>
<!-- src_shooting_bisection_history_outward_shooting -->
<g id="node23" class="node">
<title>src_shooting_bisection_history_outward_shooting</title>
<path fill="#f8fafc" stroke="#334155" d="M875.25,-252C875.25,-252 712.25,-252 712.25,-252 706.25,-252 700.25,-246 700.25,-240 700.25,-240 700.25,-228 700.25,-228 700.25,-222 706.25,-216 712.25,-216 712.25,-216 875.25,-216 875.25,-216 881.25,-216 887.25,-222 887.25,-228 887.25,-228 887.25,-240 887.25,-240 887.25,-246 881.25,-252 875.25,-252"/>
<text xml:space="preserve" text-anchor="middle" x="793.75" y="-229.55" font-family="Helvetica,sans-Serif" font-size="11.00">bisection_history_outward_shooting</text>
</g>
<!-- src_diagnostics__plot_outward_root_diagnostics&#45;&gt;src_shooting_bisection_history_outward_shooting -->
<g id="edge5" class="edge">
<title>src_diagnostics__plot_outward_root_diagnostics&#45;&gt;src_shooting_bisection_history_outward_shooting</title>
<path fill="none" stroke="#64748b" d="M726.36,-359.61C777.5,-348.24 834.25,-333.75 841.75,-324 857.66,-303.32 838.92,-276.66 820.4,-257.92"/>
<polygon fill="#64748b" stroke="#64748b" points="822.51,-256.56 815.78,-253.44 819.09,-260.07 822.51,-256.56"/>
</g>
<!-- src_shooting_find_brackets_outward_shooting -->
<g id="node27" class="node">
<title>src_shooting_find_brackets_outward_shooting</title>
<path fill="#f8fafc" stroke="#334155" d="M1086.38,-324C1086.38,-324 939.12,-324 939.12,-324 933.12,-324 927.12,-318 927.12,-312 927.12,-312 927.12,-300 927.12,-300 927.12,-294 933.12,-288 939.12,-288 939.12,-288 1086.38,-288 1086.38,-288 1092.38,-288 1098.38,-294 1098.38,-300 1098.38,-300 1098.38,-312 1098.38,-312 1098.38,-318 1092.38,-324 1086.38,-324"/>
<text xml:space="preserve" text-anchor="middle" x="1012.75" y="-301.55" font-family="Helvetica,sans-Serif" font-size="11.00">find_brackets_outward_shooting</text>
</g>
<!-- src_diagnostics__plot_outward_root_diagnostics&#45;&gt;src_shooting_find_brackets_outward_shooting -->
<g id="edge6" class="edge">
<title>src_diagnostics__plot_outward_root_diagnostics&#45;&gt;src_shooting_find_brackets_outward_shooting</title>
<path fill="none" stroke="#64748b" d="M725.94,-361.12C783.21,-350.31 859.07,-336 918.39,-324.8"/>
<polygon fill="#64748b" stroke="#64748b" points="918.73,-327.23 925.16,-323.53 917.83,-322.42 918.73,-327.23"/>
</g>
<!-- src_shooting_sample_mismatch_outward_shooting -->
<g id="node30" class="node">
<title>src_shooting_sample_mismatch_outward_shooting</title>
<path fill="#f8fafc" stroke="#334155" d="M1086.62,-252C1086.62,-252 916.88,-252 916.88,-252 910.88,-252 904.88,-246 904.88,-240 904.88,-240 904.88,-228 904.88,-228 904.88,-222 910.88,-216 916.88,-216 916.88,-216 1086.62,-216 1086.62,-216 1092.62,-216 1098.62,-222 1098.62,-228 1098.62,-228 1098.62,-240 1098.62,-240 1098.62,-246 1092.62,-252 1086.62,-252"/>
<text xml:space="preserve" text-anchor="middle" x="1001.75" y="-229.55" font-family="Helvetica,sans-Serif" font-size="11.00">sample_mismatch_outward_shooting</text>
</g>
<!-- src_diagnostics__plot_outward_root_diagnostics&#45;&gt;src_shooting_sample_mismatch_outward_shooting -->
<g id="edge7" class="edge">
<title>src_diagnostics__plot_outward_root_diagnostics&#45;&gt;src_shooting_sample_mismatch_outward_shooting</title>
<path fill="none" stroke="#64748b" d="M724.91,-359.54C775.38,-348.39 834.58,-334.17 858.75,-324 864.53,-321.57 926.88,-282.37 967.32,-256.81"/>
<polygon fill="#64748b" stroke="#64748b" points="968.46,-258.98 973.07,-253.17 965.84,-254.84 968.46,-258.98"/>
</g>
<!-- src_diagnostics_plot_finite_square_well_root_diagnostics -->
<g id="node7" class="node">
<title>src_diagnostics_plot_finite_square_well_root_diagnostics</title>
<path fill="#f8fafc" stroke="#334155" d="M734.5,-468C734.5,-468 549,-468 549,-468 543,-468 537,-462 537,-456 537,-456 537,-444 537,-444 537,-438 543,-432 549,-432 549,-432 734.5,-432 734.5,-432 740.5,-432 746.5,-438 746.5,-444 746.5,-444 746.5,-456 746.5,-456 746.5,-462 740.5,-468 734.5,-468"/>
<text xml:space="preserve" text-anchor="middle" x="641.75" y="-445.55" font-family="Helvetica,sans-Serif" font-size="11.00">plot_finite_square_well_root_diagnostics</text>
</g>
<!-- src_diagnostics_plot_finite_square_well_root_diagnostics&#45;&gt;src_diagnostics__plot_outward_root_diagnostics -->
<g id="edge8" class="edge">
<title>src_diagnostics_plot_finite_square_well_root_diagnostics&#45;&gt;src_diagnostics__plot_outward_root_diagnostics</title>
<path fill="none" stroke="#64748b" d="M641.75,-431.7C641.75,-423.47 641.75,-413.48 641.75,-404.42"/>
<polygon fill="#64748b" stroke="#64748b" points="644.2,-404.62 641.75,-397.62 639.3,-404.62 644.2,-404.62"/>
</g>
<!-- src_potentials_finite_square_well -->
<g id="node21" class="node">
<title>src_potentials_finite_square_well</title>
<path fill="#f8fafc" stroke="#334155" d="M833.88,-396C833.88,-396 755.62,-396 755.62,-396 749.62,-396 743.62,-390 743.62,-384 743.62,-384 743.62,-372 743.62,-372 743.62,-366 749.62,-360 755.62,-360 755.62,-360 833.88,-360 833.88,-360 839.88,-360 845.88,-366 845.88,-372 845.88,-372 845.88,-384 845.88,-384 845.88,-390 839.88,-396 833.88,-396"/>
<text xml:space="preserve" text-anchor="middle" x="794.75" y="-373.55" font-family="Helvetica,sans-Serif" font-size="11.00">finite_square_well</text>
</g>
<!-- src_diagnostics_plot_finite_square_well_root_diagnostics&#45;&gt;src_potentials_finite_square_well -->
<g id="edge9" class="edge">
<title>src_diagnostics_plot_finite_square_well_root_diagnostics&#45;&gt;src_potentials_finite_square_well</title>
<path fill="none" stroke="#64748b" d="M679.96,-431.52C700.95,-421.92 727.1,-409.95 749.15,-399.86"/>
<polygon fill="#64748b" stroke="#64748b" points="750.04,-402.15 755.38,-397.01 748,-397.7 750.04,-402.15"/>
</g>
<!-- src_experiments__experiment_results_dir -->
<g id="node8" class="node">
<title>src_experiments__experiment_results_dir</title>
<path fill="#f8fafc" stroke="#334155" d="M959.12,-468C959.12,-468 852.38,-468 852.38,-468 846.38,-468 840.38,-462 840.38,-456 840.38,-456 840.38,-444 840.38,-444 840.38,-438 846.38,-432 852.38,-432 852.38,-432 959.12,-432 959.12,-432 965.12,-432 971.12,-438 971.12,-444 971.12,-444 971.12,-456 971.12,-456 971.12,-462 965.12,-468 959.12,-468"/>
<text xml:space="preserve" text-anchor="middle" x="905.75" y="-445.55" font-family="Helvetica,sans-Serif" font-size="11.00">_experiment_results_dir</text>
</g>
<!-- src_experiments_run_finite_square_well -->
<g id="node9" class="node">
<title>src_experiments_run_finite_square_well</title>
<path fill="#f8fafc" stroke="#334155" d="M539.75,-540C539.75,-540 439.75,-540 439.75,-540 433.75,-540 427.75,-534 427.75,-528 427.75,-528 427.75,-516 427.75,-516 427.75,-510 433.75,-504 439.75,-504 439.75,-504 539.75,-504 539.75,-504 545.75,-504 551.75,-510 551.75,-516 551.75,-516 551.75,-528 551.75,-528 551.75,-534 545.75,-540 539.75,-540"/>
<text xml:space="preserve" text-anchor="middle" x="489.75" y="-517.55" font-family="Helvetica,sans-Serif" font-size="11.00">run_finite_square_well</text>
</g>
<!-- src_experiments_run_finite_square_well&#45;&gt;src_analysis_convergence_vs_grid -->
<g id="edge10" class="edge">
<title>src_experiments_run_finite_square_well&#45;&gt;src_analysis_convergence_vs_grid</title>
<path fill="none" stroke="#64748b" d="M427.29,-513.78C354.89,-504.96 232.12,-488.63 127.75,-468 127.57,-467.96 127.39,-467.93 127.21,-467.89"/>
<polygon fill="#64748b" stroke="#64748b" points="127.84,-465.52 120.49,-466.49 126.84,-470.32 127.84,-465.52"/>
</g>
<!-- src_experiments_run_finite_square_well&#45;&gt;src_analysis_estimate_convergence_slopes -->
<g id="edge11" class="edge">
<title>src_experiments_run_finite_square_well&#45;&gt;src_analysis_estimate_convergence_slopes</title>
<path fill="none" stroke="#64748b" d="M427.46,-505.03C387.54,-494.79 335.46,-481.44 293.06,-470.57"/>
<polygon fill="#64748b" stroke="#64748b" points="293.85,-468.24 286.46,-468.87 292.63,-472.99 293.85,-468.24"/>
</g>
<!-- src_experiments_run_finite_square_well&#45;&gt;src_analysis_save_csv_rows -->
<g id="edge12" class="edge">
<title>src_experiments_run_finite_square_well&#45;&gt;src_analysis_save_csv_rows</title>
<path fill="none" stroke="#64748b" d="M457.28,-503.52C439.62,-494.01 417.64,-482.17 399.02,-472.15"/>
<polygon fill="#64748b" stroke="#64748b" points="400.46,-470.14 393.14,-468.98 398.14,-474.45 400.46,-470.14"/>
</g>
<!-- src_experiments_run_finite_square_well&#45;&gt;src_diagnostics_plot_finite_square_well_root_diagnostics -->
<g id="edge13" class="edge">
<title>src_experiments_run_finite_square_well&#45;&gt;src_diagnostics_plot_finite_square_well_root_diagnostics</title>
<path fill="none" stroke="#64748b" d="M527.71,-503.52C548.56,-493.92 574.55,-481.95 596.45,-471.86"/>
<polygon fill="#64748b" stroke="#64748b" points="597.3,-474.17 602.63,-469.01 595.25,-469.72 597.3,-474.17"/>
</g>
<!-- src_experiments_run_finite_square_well&#45;&gt;src_experiments__experiment_results_dir -->
<g id="edge14" class="edge">
<title>src_experiments_run_finite_square_well&#45;&gt;src_experiments__experiment_results_dir</title>
<path fill="none" stroke="#64748b" d="M552.04,-512.27C619.81,-502.52 731.26,-485.77 826.75,-468 828.54,-467.67 830.36,-467.32 832.19,-466.97"/>
<polygon fill="#64748b" stroke="#64748b" points="832.4,-469.43 838.8,-465.67 831.46,-464.62 832.4,-469.43"/>
</g>
<!-- src_plotting_plot_error_curve -->
<g id="node16" class="node">
<title>src_plotting_plot_error_curve</title>
<path fill="#f8fafc" stroke="#334155" d="M243.12,-396C243.12,-396 172.38,-396 172.38,-396 166.38,-396 160.38,-390 160.38,-384 160.38,-384 160.38,-372 160.38,-372 160.38,-366 166.38,-360 172.38,-360 172.38,-360 243.12,-360 243.12,-360 249.12,-360 255.12,-366 255.12,-372 255.12,-372 255.12,-384 255.12,-384 255.12,-390 249.12,-396 243.12,-396"/>
<text xml:space="preserve" text-anchor="middle" x="207.75" y="-373.55" font-family="Helvetica,sans-Serif" font-size="11.00">plot_error_curve</text>
</g>
<!-- src_experiments_run_finite_square_well&#45;&gt;src_plotting_plot_error_curve -->
<g id="edge15" class="edge">
<title>src_experiments_run_finite_square_well&#45;&gt;src_plotting_plot_error_curve</title>
<path fill="none" stroke="#64748b" d="M476.01,-503.81C456.31,-479.34 421.55,-436.87 413.75,-432 388.84,-416.46 315.42,-399.78 263.34,-389.37"/>
<polygon fill="#64748b" stroke="#64748b" points="264.01,-387 256.66,-388.05 263.05,-391.81 264.01,-387"/>
</g>
<!-- src_plotting_plot_potential_and_states -->
<g id="node17" class="node">
<title>src_plotting_plot_potential_and_states</title>
<path fill="#f8fafc" stroke="#334155" d="M445.88,-396C445.88,-396 331.62,-396 331.62,-396 325.62,-396 319.62,-390 319.62,-384 319.62,-384 319.62,-372 319.62,-372 319.62,-366 325.62,-360 331.62,-360 331.62,-360 445.88,-360 445.88,-360 451.88,-360 457.88,-366 457.88,-372 457.88,-372 457.88,-384 457.88,-384 457.88,-390 451.88,-396 445.88,-396"/>
<text xml:space="preserve" text-anchor="middle" x="388.75" y="-373.55" font-family="Helvetica,sans-Serif" font-size="11.00">plot_potential_and_states</text>
</g>
<!-- src_experiments_run_finite_square_well&#45;&gt;src_plotting_plot_potential_and_states -->
<g id="edge16" class="edge">
<title>src_experiments_run_finite_square_well&#45;&gt;src_plotting_plot_potential_and_states</title>
<path fill="none" stroke="#64748b" d="M483.6,-503.52C476.48,-484.75 463.56,-454.57 446.75,-432 438.6,-421.05 427.95,-410.56 418.01,-401.85"/>
<polygon fill="#64748b" stroke="#64748b" points="419.68,-400.05 412.77,-397.37 416.5,-403.78 419.68,-400.05"/>
</g>
<!-- src_plotting_plot_probability_densities -->
<g id="node18" class="node">
<title>src_plotting_plot_probability_densities</title>
<path fill="#f8fafc" stroke="#334155" d="M364.75,-324C364.75,-324 252.75,-324 252.75,-324 246.75,-324 240.75,-318 240.75,-312 240.75,-312 240.75,-300 240.75,-300 240.75,-294 246.75,-288 252.75,-288 252.75,-288 364.75,-288 364.75,-288 370.75,-288 376.75,-294 376.75,-300 376.75,-300 376.75,-312 376.75,-312 376.75,-318 370.75,-324 364.75,-324"/>
<text xml:space="preserve" text-anchor="middle" x="308.75" y="-301.55" font-family="Helvetica,sans-Serif" font-size="11.00">plot_probability_densities</text>
</g>
<!-- src_experiments_run_finite_square_well&#45;&gt;src_plotting_plot_probability_densities -->
<g id="edge17" class="edge">
<title>src_experiments_run_finite_square_well&#45;&gt;src_plotting_plot_probability_densities</title>
<path fill="none" stroke="#64748b" d="M492.66,-503.65C497.04,-471.39 501.45,-401.65 466.75,-360 455.56,-346.57 419.72,-334 385,-324.48"/>
<polygon fill="#64748b" stroke="#64748b" points="386.01,-322.22 378.61,-322.77 384.74,-326.95 386.01,-322.22"/>
</g>
<!-- src_experiments_run_finite_square_well&#45;&gt;src_potentials_finite_square_well -->
<g id="edge18" class="edge">
<title>src_experiments_run_finite_square_well&#45;&gt;src_potentials_finite_square_well</title>
<path fill="none" stroke="#64748b" d="M552.12,-515.24C620.63,-507.78 725.02,-492.71 755.75,-468 775.31,-452.28 785.3,-424.78 790.25,-404.49"/>
<polygon fill="#64748b" stroke="#64748b" points="792.61,-405.14 791.74,-397.78 787.83,-404.08 792.61,-405.14"/>
</g>
<!-- src_shooting_solve_symmetric_potential_outward_shooting -->
<g id="node32" class="node">
<title>src_shooting_solve_symmetric_potential_outward_shooting</title>
<path fill="#f8fafc" stroke="#334155" d="M1117.5,-396C1117.5,-396 908,-396 908,-396 902,-396 896,-390 896,-384 896,-384 896,-372 896,-372 896,-366 902,-360 908,-360 908,-360 1117.5,-360 1117.5,-360 1123.5,-360 1129.5,-366 1129.5,-372 1129.5,-372 1129.5,-384 1129.5,-384 1129.5,-390 1123.5,-396 1117.5,-396"/>
<text xml:space="preserve" text-anchor="middle" x="1012.75" y="-373.55" font-family="Helvetica,sans-Serif" font-size="11.00">solve_symmetric_potential_outward_shooting</text>
</g>
<!-- src_experiments_run_finite_square_well&#45;&gt;src_shooting_solve_symmetric_potential_outward_shooting -->
<g id="edge19" class="edge">
<title>src_experiments_run_finite_square_well&#45;&gt;src_shooting_solve_symmetric_potential_outward_shooting</title>
<path fill="none" stroke="#64748b" d="M552.13,-517.88C613.1,-512.98 707.49,-500.38 782.75,-468 807.57,-457.32 807.53,-443.98 831.75,-432 860.31,-417.88 893.31,-406.83 923.24,-398.57"/>
<polygon fill="#64748b" stroke="#64748b" points="923.61,-401.01 929.73,-396.81 922.33,-396.28 923.61,-401.01"/>
</g>
<!-- src_numerov_derivative_at_right_edge -->
<g id="node10" class="node">
<title>src_numerov_derivative_at_right_edge</title>
<path fill="#f8fafc" stroke="#334155" d="M1259.62,-108C1259.62,-108 1149.88,-108 1149.88,-108 1143.88,-108 1137.88,-102 1137.88,-96 1137.88,-96 1137.88,-84 1137.88,-84 1137.88,-78 1143.88,-72 1149.88,-72 1149.88,-72 1259.62,-72 1259.62,-72 1265.62,-72 1271.62,-78 1271.62,-84 1271.62,-84 1271.62,-96 1271.62,-96 1271.62,-102 1265.62,-108 1259.62,-108"/>
<text xml:space="preserve" text-anchor="middle" x="1204.75" y="-85.55" font-family="Helvetica,sans-Serif" font-size="11.00">derivative_at_right_edge</text>
</g>
<!-- src_numerov_normalize_wavefunction -->
<g id="node11" class="node">
<title>src_numerov_normalize_wavefunction</title>
<path fill="#f8fafc" stroke="#334155" d="M1466.5,-252C1466.5,-252 1359,-252 1359,-252 1353,-252 1347,-246 1347,-240 1347,-240 1347,-228 1347,-228 1347,-222 1353,-216 1359,-216 1359,-216 1466.5,-216 1466.5,-216 1472.5,-216 1478.5,-222 1478.5,-228 1478.5,-228 1478.5,-240 1478.5,-240 1478.5,-246 1472.5,-252 1466.5,-252"/>
<text xml:space="preserve" text-anchor="middle" x="1412.75" y="-229.55" font-family="Helvetica,sans-Serif" font-size="11.00">normalize_wavefunction</text>
</g>
<!-- src_numerov_numerov_march -->
<g id="node12" class="node">
<title>src_numerov_numerov_march</title>
<path fill="#f8fafc" stroke="#334155" d="M928.75,-36C928.75,-36 858.75,-36 858.75,-36 852.75,-36 846.75,-30 846.75,-24 846.75,-24 846.75,-12 846.75,-12 846.75,-6 852.75,0 858.75,0 858.75,0 928.75,0 928.75,0 934.75,0 940.75,-6 940.75,-12 940.75,-12 940.75,-24 940.75,-24 940.75,-30 934.75,-36 928.75,-36"/>
<text xml:space="preserve" text-anchor="middle" x="893.75" y="-13.55" font-family="Helvetica,sans-Serif" font-size="11.00">numerov_march</text>
</g>
<!-- src_numerov_q_from_energy -->
<g id="node13" class="node">
<title>src_numerov_q_from_energy</title>
<path fill="#f8fafc" stroke="#334155" d="M1035.12,-36C1035.12,-36 970.38,-36 970.38,-36 964.38,-36 958.38,-30 958.38,-24 958.38,-24 958.38,-12 958.38,-12 958.38,-6 964.38,0 970.38,0 970.38,0 1035.12,0 1035.12,0 1041.12,0 1047.12,-6 1047.12,-12 1047.12,-12 1047.12,-24 1047.12,-24 1047.12,-30 1041.12,-36 1035.12,-36"/>
<text xml:space="preserve" text-anchor="middle" x="1002.75" y="-13.55" font-family="Helvetica,sans-Serif" font-size="11.00">q_from_energy</text>
</g>
<!-- src_plotting__ensure_parent -->
<g id="node14" class="node">
<title>src_plotting__ensure_parent</title>
<path fill="#f8fafc" stroke="#334155" d="M342.62,-252C342.62,-252 274.88,-252 274.88,-252 268.88,-252 262.88,-246 262.88,-240 262.88,-240 262.88,-228 262.88,-228 262.88,-222 268.88,-216 274.88,-216 274.88,-216 342.62,-216 342.62,-216 348.62,-216 354.62,-222 354.62,-228 354.62,-228 354.62,-240 354.62,-240 354.62,-246 348.62,-252 342.62,-252"/>
<text xml:space="preserve" text-anchor="middle" x="308.75" y="-229.55" font-family="Helvetica,sans-Serif" font-size="11.00">_ensure_parent</text>
</g>
<!-- src_plotting__symlog_linthresh -->
<g id="node15" class="node">
<title>src_plotting__symlog_linthresh</title>
<path fill="#f8fafc" stroke="#334155" d="M649.88,-252C649.88,-252 571.62,-252 571.62,-252 565.62,-252 559.62,-246 559.62,-240 559.62,-240 559.62,-228 559.62,-228 559.62,-222 565.62,-216 571.62,-216 571.62,-216 649.88,-216 649.88,-216 655.88,-216 661.88,-222 661.88,-228 661.88,-228 661.88,-240 661.88,-240 661.88,-246 655.88,-252 649.88,-252"/>
<text xml:space="preserve" text-anchor="middle" x="610.75" y="-229.55" font-family="Helvetica,sans-Serif" font-size="11.00">_symlog_linthresh</text>
</g>
<!-- src_plotting_plot_error_curve&#45;&gt;src_plotting__ensure_parent -->
<g id="edge20" class="edge">
<title>src_plotting_plot_error_curve&#45;&gt;src_plotting__ensure_parent</title>
<path fill="none" stroke="#64748b" d="M206.37,-359.73C205.71,-340.59 207.31,-309.58 221.75,-288 230.55,-274.86 243.81,-264.43 257.35,-256.43"/>
<polygon fill="#64748b" stroke="#64748b" points="258.2,-258.76 263.11,-253.2 255.81,-254.48 258.2,-258.76"/>
</g>
<!-- src_plotting_plot_potential_and_states&#45;&gt;src_plotting__ensure_parent -->
<g id="edge21" class="edge">
<title>src_plotting_plot_potential_and_states&#45;&gt;src_plotting__ensure_parent</title>
<path fill="none" stroke="#64748b" d="M319.14,-371.6C287.04,-365.22 251.71,-351.81 231.75,-324 222.42,-311 224.31,-302.16 231.75,-288 238.5,-275.15 249.94,-264.81 261.96,-256.79"/>
<polygon fill="#64748b" stroke="#64748b" points="263.16,-258.94 267.79,-253.15 260.56,-254.78 263.16,-258.94"/>
</g>
<!-- src_plotting_plot_probability_densities&#45;&gt;src_plotting__ensure_parent -->
<g id="edge22" class="edge">
<title>src_plotting_plot_probability_densities&#45;&gt;src_plotting__ensure_parent</title>
<path fill="none" stroke="#64748b" d="M308.75,-287.7C308.75,-279.47 308.75,-269.48 308.75,-260.42"/>
<polygon fill="#64748b" stroke="#64748b" points="311.2,-260.62 308.75,-253.62 306.3,-260.62 311.2,-260.62"/>
</g>
<!-- src_plotting_plot_root_finding_diagnostic&#45;&gt;src_plotting__ensure_parent -->
<g id="edge23" class="edge">
<title>src_plotting_plot_root_finding_diagnostic&#45;&gt;src_plotting__ensure_parent</title>
<path fill="none" stroke="#64748b" d="M682.68,-289.59C679.67,-289.04 676.68,-288.51 673.75,-288 564.02,-268.94 434.91,-251.32 363.4,-241.97"/>
<polygon fill="#64748b" stroke="#64748b" points="363.73,-239.55 356.48,-241.07 363.1,-244.4 363.73,-239.55"/>
</g>
<!-- src_plotting_plot_root_finding_diagnostic&#45;&gt;src_plotting__symlog_linthresh -->
<g id="edge24" class="edge">
<title>src_plotting_plot_root_finding_diagnostic&#45;&gt;src_plotting__symlog_linthresh</title>
<path fill="none" stroke="#64748b" d="M721.03,-287.52C700.96,-277.96 675.96,-266.05 654.84,-256"/>
<polygon fill="#64748b" stroke="#64748b" points="655.99,-253.83 648.62,-253.03 653.88,-258.25 655.99,-253.83"/>
</g>
<!-- src_plotting_plot_root_finding_zoom&#45;&gt;src_plotting__ensure_parent -->
<g id="edge25" class="edge">
<title>src_plotting_plot_root_finding_zoom&#45;&gt;src_plotting__ensure_parent</title>
<path fill="none" stroke="#64748b" d="M536.67,-289.64C484.67,-277.17 412.16,-259.79 363,-248.01"/>
<polygon fill="#64748b" stroke="#64748b" points="363.86,-245.69 356.49,-246.44 362.72,-250.46 363.86,-245.69"/>
</g>
<!-- src_plotting_plot_root_finding_zoom&#45;&gt;src_plotting__symlog_linthresh -->
<g id="edge26" class="edge">
<title>src_plotting_plot_root_finding_zoom&#45;&gt;src_plotting__symlog_linthresh</title>
<path fill="none" stroke="#64748b" d="M603.22,-287.7C604.4,-279.47 605.82,-269.48 607.12,-260.42"/>
<polygon fill="#64748b" stroke="#64748b" points="609.53,-260.88 608.09,-253.6 604.68,-260.19 609.53,-260.88"/>
</g>
<!-- src_shooting_bisect_energy_outward_shooting -->
<g id="node22" class="node">
<title>src_shooting_bisect_energy_outward_shooting</title>
<path fill="#f8fafc" stroke="#334155" d="M1278.88,-252C1278.88,-252 1128.62,-252 1128.62,-252 1122.62,-252 1116.62,-246 1116.62,-240 1116.62,-240 1116.62,-228 1116.62,-228 1116.62,-222 1122.62,-216 1128.62,-216 1128.62,-216 1278.88,-216 1278.88,-216 1284.88,-216 1290.88,-222 1290.88,-228 1290.88,-228 1290.88,-240 1290.88,-240 1290.88,-246 1284.88,-252 1278.88,-252"/>
<text xml:space="preserve" text-anchor="middle" x="1203.75" y="-229.55" font-family="Helvetica,sans-Serif" font-size="11.00">bisect_energy_outward_shooting</text>
</g>
<!-- src_shooting_boundary_mismatch_outward_shooting -->
<g id="node24" class="node">
<title>src_shooting_boundary_mismatch_outward_shooting</title>
<path fill="#f8fafc" stroke="#334155" d="M1193.88,-180C1193.88,-180 1013.62,-180 1013.62,-180 1007.62,-180 1001.62,-174 1001.62,-168 1001.62,-168 1001.62,-156 1001.62,-156 1001.62,-150 1007.62,-144 1013.62,-144 1013.62,-144 1193.88,-144 1193.88,-144 1199.88,-144 1205.88,-150 1205.88,-156 1205.88,-156 1205.88,-168 1205.88,-168 1205.88,-174 1199.88,-180 1193.88,-180"/>
<text xml:space="preserve" text-anchor="middle" x="1103.75" y="-157.55" font-family="Helvetica,sans-Serif" font-size="11.00">boundary_mismatch_outward_shooting</text>
</g>
<!-- src_shooting_bisect_energy_outward_shooting&#45;&gt;src_shooting_boundary_mismatch_outward_shooting -->
<g id="edge27" class="edge">
<title>src_shooting_bisect_energy_outward_shooting&#45;&gt;src_shooting_boundary_mismatch_outward_shooting</title>
<path fill="none" stroke="#64748b" d="M1178.77,-215.52C1165.55,-206.26 1149.18,-194.8 1135.11,-184.95"/>
<polygon fill="#64748b" stroke="#64748b" points="1136.79,-183.14 1129.65,-181.13 1133.98,-187.15 1136.79,-183.14"/>
</g>
<!-- src_shooting_bisection_history_outward_shooting&#45;&gt;src_shooting_boundary_mismatch_outward_shooting -->
<g id="edge28" class="edge">
<title>src_shooting_bisection_history_outward_shooting&#45;&gt;src_shooting_boundary_mismatch_outward_shooting</title>
<path fill="none" stroke="#64748b" d="M871.18,-215.52C915.92,-205.41 972.29,-192.68 1018.33,-182.29"/>
<polygon fill="#64748b" stroke="#64748b" points="1018.74,-184.71 1025.03,-180.78 1017.66,-179.93 1018.74,-184.71"/>
</g>
<!-- src_shooting_diagnostic_mismatch_outward_shooting -->
<g id="node26" class="node">
<title>src_shooting_diagnostic_mismatch_outward_shooting</title>
<path fill="#f8fafc" stroke="#334155" d="M971.38,-180C971.38,-180 788.12,-180 788.12,-180 782.12,-180 776.12,-174 776.12,-168 776.12,-168 776.12,-156 776.12,-156 776.12,-150 782.12,-144 788.12,-144 788.12,-144 971.38,-144 971.38,-144 977.38,-144 983.38,-150 983.38,-156 983.38,-156 983.38,-168 983.38,-168 983.38,-174 977.38,-180 971.38,-180"/>
<text xml:space="preserve" text-anchor="middle" x="879.75" y="-157.55" font-family="Helvetica,sans-Serif" font-size="11.00">diagnostic_mismatch_outward_shooting</text>
</g>
<!-- src_shooting_bisection_history_outward_shooting&#45;&gt;src_shooting_diagnostic_mismatch_outward_shooting -->
<g id="edge29" class="edge">
<title>src_shooting_bisection_history_outward_shooting&#45;&gt;src_shooting_diagnostic_mismatch_outward_shooting</title>
<path fill="none" stroke="#64748b" d="M815.01,-215.7C826.17,-206.61 839.99,-195.36 851.99,-185.6"/>
<polygon fill="#64748b" stroke="#64748b" points="853.38,-187.62 857.26,-181.3 850.29,-183.82 853.38,-187.62"/>
</g>
<!-- src_shooting_boundary_mismatch_outward_shooting&#45;&gt;src_numerov_derivative_at_right_edge -->
<g id="edge30" class="edge">
<title>src_shooting_boundary_mismatch_outward_shooting&#45;&gt;src_numerov_derivative_at_right_edge</title>
<path fill="none" stroke="#64748b" d="M1128.98,-143.52C1142.33,-134.26 1158.87,-122.8 1173.08,-112.95"/>
<polygon fill="#64748b" stroke="#64748b" points="1174.24,-115.12 1178.6,-109.12 1171.45,-111.1 1174.24,-115.12"/>
</g>
<!-- src_shooting_half_domain_wavefunction_outward_shooting -->
<g id="node28" class="node">
<title>src_shooting_half_domain_wavefunction_outward_shooting</title>
<path fill="#f8fafc" stroke="#334155" d="M1108.25,-108C1108.25,-108 897.25,-108 897.25,-108 891.25,-108 885.25,-102 885.25,-96 885.25,-96 885.25,-84 885.25,-84 885.25,-78 891.25,-72 897.25,-72 897.25,-72 1108.25,-72 1108.25,-72 1114.25,-72 1120.25,-78 1120.25,-84 1120.25,-84 1120.25,-96 1120.25,-96 1120.25,-102 1114.25,-108 1108.25,-108"/>
<text xml:space="preserve" text-anchor="middle" x="1002.75" y="-85.55" font-family="Helvetica,sans-Serif" font-size="11.00">half_domain_wavefunction_outward_shooting</text>
</g>
<!-- src_shooting_boundary_mismatch_outward_shooting&#45;&gt;src_shooting_half_domain_wavefunction_outward_shooting -->
<g id="edge31" class="edge">
<title>src_shooting_boundary_mismatch_outward_shooting&#45;&gt;src_shooting_half_domain_wavefunction_outward_shooting</title>
<path fill="none" stroke="#64748b" d="M1078.52,-143.52C1065.17,-134.26 1048.63,-122.8 1034.42,-112.95"/>
<polygon fill="#64748b" stroke="#64748b" points="1036.05,-111.1 1028.9,-109.12 1033.26,-115.12 1036.05,-111.1"/>
</g>
<!-- src_shooting_build_full_wavefunction -->
<g id="node25" class="node">
<title>src_shooting_build_full_wavefunction</title>
<path fill="#f8fafc" stroke="#334155" d="M1611.25,-252C1611.25,-252 1508.25,-252 1508.25,-252 1502.25,-252 1496.25,-246 1496.25,-240 1496.25,-240 1496.25,-228 1496.25,-228 1496.25,-222 1502.25,-216 1508.25,-216 1508.25,-216 1611.25,-216 1611.25,-216 1617.25,-216 1623.25,-222 1623.25,-228 1623.25,-228 1623.25,-240 1623.25,-240 1623.25,-246 1617.25,-252 1611.25,-252"/>
<text xml:space="preserve" text-anchor="middle" x="1559.75" y="-229.55" font-family="Helvetica,sans-Serif" font-size="11.00">build_full_wavefunction</text>
</g>
<!-- src_shooting_diagnostic_mismatch_outward_shooting&#45;&gt;src_shooting_half_domain_wavefunction_outward_shooting -->
<g id="edge32" class="edge">
<title>src_shooting_diagnostic_mismatch_outward_shooting&#45;&gt;src_shooting_half_domain_wavefunction_outward_shooting</title>
<path fill="none" stroke="#64748b" d="M910.47,-143.52C927.03,-134.09 947.61,-122.38 965.12,-112.41"/>
<polygon fill="#64748b" stroke="#64748b" points="966.23,-114.6 971.11,-109.01 963.81,-110.34 966.23,-114.6"/>
</g>
<!-- src_shooting_find_brackets_outward_shooting&#45;&gt;src_shooting_sample_mismatch_outward_shooting -->
<g id="edge33" class="edge">
<title>src_shooting_find_brackets_outward_shooting&#45;&gt;src_shooting_sample_mismatch_outward_shooting</title>
<path fill="none" stroke="#64748b" d="M1010.03,-287.7C1008.74,-279.47 1007.17,-269.48 1005.74,-260.42"/>
<polygon fill="#64748b" stroke="#64748b" points="1008.18,-260.13 1004.67,-253.6 1003.34,-260.9 1008.18,-260.13"/>
</g>
<!-- src_shooting_half_domain_wavefunction_outward_shooting&#45;&gt;src_numerov_numerov_march -->
<g id="edge34" class="edge">
<title>src_shooting_half_domain_wavefunction_outward_shooting&#45;&gt;src_numerov_numerov_march</title>
<path fill="none" stroke="#64748b" d="M975.53,-71.52C960.98,-62.18 942.94,-50.59 927.51,-40.68"/>
<polygon fill="#64748b" stroke="#64748b" points="929.11,-38.8 921.9,-37.08 926.47,-42.92 929.11,-38.8"/>
</g>
<!-- src_shooting_half_domain_wavefunction_outward_shooting&#45;&gt;src_numerov_q_from_energy -->
<g id="edge35" class="edge">
<title>src_shooting_half_domain_wavefunction_outward_shooting&#45;&gt;src_numerov_q_from_energy</title>
<path fill="none" stroke="#64748b" d="M1002.75,-71.7C1002.75,-63.47 1002.75,-53.48 1002.75,-44.42"/>
<polygon fill="#64748b" stroke="#64748b" points="1005.2,-44.62 1002.75,-37.62 1000.3,-44.62 1005.2,-44.62"/>
</g>
<!-- src_shooting_initial_conditions_outward_shooting -->
<g id="node29" class="node">
<title>src_shooting_initial_conditions_outward_shooting</title>
<path fill="#f8fafc" stroke="#334155" d="M1238.5,-36C1238.5,-36 1077,-36 1077,-36 1071,-36 1065,-30 1065,-24 1065,-24 1065,-12 1065,-12 1065,-6 1071,0 1077,0 1077,0 1238.5,0 1238.5,0 1244.5,0 1250.5,-6 1250.5,-12 1250.5,-12 1250.5,-24 1250.5,-24 1250.5,-30 1244.5,-36 1238.5,-36"/>
<text xml:space="preserve" text-anchor="middle" x="1157.75" y="-13.55" font-family="Helvetica,sans-Serif" font-size="11.00">initial_conditions_outward_shooting</text>
</g>
<!-- src_shooting_half_domain_wavefunction_outward_shooting&#45;&gt;src_shooting_initial_conditions_outward_shooting -->
<g id="edge36" class="edge">
<title>src_shooting_half_domain_wavefunction_outward_shooting&#45;&gt;src_shooting_initial_conditions_outward_shooting</title>
<path fill="none" stroke="#64748b" d="M1041.46,-71.52C1062.72,-61.92 1089.22,-49.95 1111.55,-39.86"/>
<polygon fill="#64748b" stroke="#64748b" points="1112.51,-42.12 1117.88,-37 1110.49,-37.65 1112.51,-42.12"/>
</g>
<!-- src_shooting_sample_mismatch_outward_shooting&#45;&gt;src_shooting_boundary_mismatch_outward_shooting -->
<g id="edge37" class="edge">
<title>src_shooting_sample_mismatch_outward_shooting&#45;&gt;src_shooting_boundary_mismatch_outward_shooting</title>
<path fill="none" stroke="#64748b" d="M1027.23,-215.52C1040.71,-206.26 1057.41,-194.8 1071.77,-184.95"/>
<polygon fill="#64748b" stroke="#64748b" points="1072.97,-187.1 1077.35,-181.12 1070.19,-183.06 1072.97,-187.1"/>
</g>
<!-- src_shooting_sample_mismatch_outward_shooting&#45;&gt;src_shooting_diagnostic_mismatch_outward_shooting -->
<g id="edge38" class="edge">
<title>src_shooting_sample_mismatch_outward_shooting&#45;&gt;src_shooting_diagnostic_mismatch_outward_shooting</title>
<path fill="none" stroke="#64748b" d="M971.28,-215.52C954.85,-206.09 934.45,-194.38 917.07,-184.41"/>
<polygon fill="#64748b" stroke="#64748b" points="918.44,-182.37 911.15,-181.01 916,-186.62 918.44,-182.37"/>
</g>
<!-- src_shooting_solve_state_from_bracket_outward_shooting -->
<g id="node31" class="node">
<title>src_shooting_solve_state_from_bracket_outward_shooting</title>
<path fill="#f8fafc" stroke="#334155" d="M1422,-324C1422,-324 1215.5,-324 1215.5,-324 1209.5,-324 1203.5,-318 1203.5,-312 1203.5,-312 1203.5,-300 1203.5,-300 1203.5,-294 1209.5,-288 1215.5,-288 1215.5,-288 1422,-288 1422,-288 1428,-288 1434,-294 1434,-300 1434,-300 1434,-312 1434,-312 1434,-318 1428,-324 1422,-324"/>
<text xml:space="preserve" text-anchor="middle" x="1318.75" y="-301.55" font-family="Helvetica,sans-Serif" font-size="11.00">solve_state_from_bracket_outward_shooting</text>
</g>
<!-- src_shooting_solve_state_from_bracket_outward_shooting&#45;&gt;src_numerov_normalize_wavefunction -->
<g id="edge39" class="edge">
<title>src_shooting_solve_state_from_bracket_outward_shooting&#45;&gt;src_numerov_normalize_wavefunction</title>
<path fill="none" stroke="#64748b" d="M1341.99,-287.7C1354.3,-278.53 1369.57,-267.16 1382.77,-257.33"/>
<polygon fill="#64748b" stroke="#64748b" points="1384.09,-259.4 1388.24,-253.25 1381.16,-255.47 1384.09,-259.4"/>
</g>
<!-- src_shooting_solve_state_from_bracket_outward_shooting&#45;&gt;src_shooting_bisect_energy_outward_shooting -->
<g id="edge40" class="edge">
<title>src_shooting_solve_state_from_bracket_outward_shooting&#45;&gt;src_shooting_bisect_energy_outward_shooting</title>
<path fill="none" stroke="#64748b" d="M1290.03,-287.52C1274.68,-278.18 1255.65,-266.59 1239.37,-256.68"/>
<polygon fill="#64748b" stroke="#64748b" points="1240.65,-254.59 1233.4,-253.05 1238.11,-258.78 1240.65,-254.59"/>
</g>
<!-- src_shooting_solve_state_from_bracket_outward_shooting&#45;&gt;src_shooting_build_full_wavefunction -->
<g id="edge41" class="edge">
<title>src_shooting_solve_state_from_bracket_outward_shooting&#45;&gt;src_shooting_build_full_wavefunction</title>
<path fill="none" stroke="#64748b" d="M1378.94,-287.52C1413.29,-277.54 1456.45,-265 1491.98,-254.68"/>
<polygon fill="#64748b" stroke="#64748b" points="1492.41,-257.11 1498.45,-252.8 1491.05,-252.4 1492.41,-257.11"/>
</g>
<!-- src_shooting_solve_state_from_bracket_outward_shooting&#45;&gt;src_shooting_half_domain_wavefunction_outward_shooting -->
<g id="edge42" class="edge">
<title>src_shooting_solve_state_from_bracket_outward_shooting&#45;&gt;src_shooting_half_domain_wavefunction_outward_shooting</title>
<path fill="none" stroke="#64748b" d="M1318.33,-287.74C1317.16,-268.88 1313.13,-238.37 1299.75,-216 1274.33,-173.51 1258.8,-166.59 1214.75,-144 1185.73,-129.12 1152.29,-118.25 1120.68,-110.39"/>
<polygon fill="#64748b" stroke="#64748b" points="1121.54,-108.07 1114.16,-108.81 1120.38,-112.84 1121.54,-108.07"/>
</g>
<!-- src_shooting_solve_symmetric_potential_outward_shooting&#45;&gt;src_shooting_find_brackets_outward_shooting -->
<g id="edge43" class="edge">
<title>src_shooting_solve_symmetric_potential_outward_shooting&#45;&gt;src_shooting_find_brackets_outward_shooting</title>
<path fill="none" stroke="#64748b" d="M1012.75,-359.7C1012.75,-351.47 1012.75,-341.48 1012.75,-332.42"/>
<polygon fill="#64748b" stroke="#64748b" points="1015.2,-332.62 1012.75,-325.62 1010.3,-332.62 1015.2,-332.62"/>
</g>
<!-- src_shooting_solve_symmetric_potential_outward_shooting&#45;&gt;src_shooting_solve_state_from_bracket_outward_shooting -->
<g id="edge44" class="edge">
<title>src_shooting_solve_symmetric_potential_outward_shooting&#45;&gt;src_shooting_solve_state_from_bracket_outward_shooting</title>
<path fill="none" stroke="#64748b" d="M1089.18,-359.52C1133.35,-349.41 1188.99,-336.68 1234.43,-326.29"/>
<polygon fill="#64748b" stroke="#64748b" points="1234.75,-328.73 1241.03,-324.78 1233.66,-323.95 1234.75,-328.73"/>
</g>
</g>
</svg>
