<?xml version="1.0" encoding="UTF-8" standalone="no"?>
<!DOCTYPE svg PUBLIC "-//W3C//DTD SVG 1.1//EN"
 "http://www.w3.org/Graphics/SVG/1.1/DTD/svg11.dtd">
<!-- Generated by graphviz version 14.1.5 (20260411.2331)
 -->
<!-- Title: G Pages: 1 -->
<svg width="1240pt" height="361pt"
 viewBox="0.00 0.00 1240.00 361.00" xmlns="http://www.w3.org/2000/svg" xmlns:xlink="http://www.w3.org/1999/xlink">
<g id="graph0" class="graph" transform="scale(1 1) rotate(0) translate(4 357)">
<title>G</title>
<polygon fill="white" stroke="none" points="-4,4 -4,-357 1236.12,-357 1236.12,4 -4,4"/>
<text xml:space="preserve" text-anchor="middle" x="209.75" y="-330" font-family="Helvetica,sans-Serif" font-size="20.00">Double Square&#45;Barrier Scattering Experiment</text>
<!-- src_analysis_save_csv_rows -->
<g id="node1" class="node">
<title>src_analysis_save_csv_rows</title>
<path fill="#f8fafc" stroke="#334155" d="M77.5,-252C77.5,-252 12,-252 12,-252 6,-252 0,-246 0,-240 0,-240 0,-228 0,-228 0,-222 6,-216 12,-216 12,-216 77.5,-216 77.5,-216 83.5,-216 89.5,-222 89.5,-228 89.5,-228 89.5,-240 89.5,-240 89.5,-246 83.5,-252 77.5,-252"/>
<text xml:space="preserve" text-anchor="middle" x="44.75" y="-229.55" font-family="Helvetica,sans-Serif" font-size="11.00">save_csv_rows</text>
</g>
<!-- src_experiments__experiment_results_dir -->
<g id="node2" class="node">
<title>src_experiments__experiment_results_dir</title>
<path fill="#f8fafc" stroke="#334155" d="M226.12,-252C226.12,-252 119.38,-252 119.38,-252 113.38,-252 107.38,-246 107.38,-240 107.38,-240 107.38,-228 107.38,-228 107.38,-222 113.38,-216 119.38,-216 119.38,-216 226.12,-216 226.12,-216 232.12,-216 238.12,-222 238.12,-228 238.12,-228 238.12,-240 238.12,-240 238.12,-246 232.12,-252 226.12,-252"/>
<text xml:space="preserve" text-anchor="middle" x="172.75" y="-229.55" font-family="Helvetica,sans-Serif" font-size="11.00">_experiment_results_dir</text>
</g>
<!-- src_experiments_run_scattering -->
<g id="node3" class="node">
<title>src_experiments_run_scattering</title>
<path fill="#f8fafc" stroke="#334155" d="M647.88,-324C647.88,-324 587.62,-324 587.62,-324 581.62,-324 575.62,-318 575.62,-312 575.62,-312 575.62,-300 575.62,-300 575.62,-294 581.62,-288 587.62,-288 587.62,-288 647.88,-288 647.88,-288 653.88,-288 659.88,-294 659.88,-300 659.88,-300 659.88,-312 659.88,-312 659.88,-318 653.88,-324 647.88,-324"/>
<text xml:space="preserve" text-anchor="middle" x="617.75" y="-301.55" font-family="Helvetica,sans-Serif" font-size="11.00">run_scattering</text>
</g>
<!-- src_experiments_run_scattering&#45;&gt;src_analysis_save_csv_rows -->
<g id="edge1" class="edge">
<title>src_experiments_run_scattering&#45;&gt;src_analysis_save_csv_rows</title>
<path fill="none" stroke="#64748b" d="M575.26,-303.58C486.1,-299.97 273.28,-287.99 98.75,-252 98.57,-251.96 98.39,-251.93 98.21,-251.89"/>
<polygon fill="#64748b" stroke="#64748b" points="98.79,-249.51 91.42,-250.31 97.68,-254.28 98.79,-249.51"/>
</g>
<!-- src_experiments_run_scattering&#45;&gt;src_experiments__experiment_results_dir -->
<g id="edge2" class="edge">
<title>src_experiments_run_scattering&#45;&gt;src_experiments__experiment_results_dir</title>
<path fill="none" stroke="#64748b" d="M575.28,-300.11C507.62,-292.06 371.12,-274.77 246.64,-251.91"/>
<polygon fill="#64748b" stroke="#64748b" points="247.28,-249.54 239.95,-250.67 246.38,-254.35 247.28,-249.54"/>
</g>
<!-- src_plotting_plot_scattering_coefficients -->
<g id="node6" class="node">
<title>src_plotting_plot_scattering_coefficients</title>
<path fill="#f8fafc" stroke="#334155" d="M389.25,-252C389.25,-252 268.25,-252 268.25,-252 262.25,-252 256.25,-246 256.25,-240 256.25,-240 256.25,-228 256.25,-228 256.25,-222 262.25,-216 268.25,-216 268.25,-216 389.25,-216 389.25,-216 395.25,-216 401.25,-222 401.25,-228 401.25,-228 401.25,-240 401.25,-240 401.25,-246 395.25,-252 389.25,-252"/>
<text xml:space="preserve" text-anchor="middle" x="328.75" y="-229.55" font-family="Helvetica,sans-Serif" font-size="11.00">plot_scattering_coefficients</text>
</g>
<!-- src_experiments_run_scattering&#45;&gt;src_plotting_plot_scattering_coefficients -->
<g id="edge3" class="edge">
<title>src_experiments_run_scattering&#45;&gt;src_plotting_plot_scattering_coefficients</title>
<path fill="none" stroke="#64748b" d="M575.42,-294.75C531.87,-284.2 462.98,-267.51 409.06,-254.45"/>
<polygon fill="#64748b" stroke="#64748b" points="409.73,-252.09 402.35,-252.83 408.58,-256.86 409.73,-252.09"/>
</g>
<!-- src_plotting_plot_scattering_potential_and_probability -->
<g id="node7" class="node">
<title>src_plotting_plot_scattering_potential_and_probability</title>
<path fill="#f8fafc" stroke="#334155" d="M618.25,-252C618.25,-252 431.25,-252 431.25,-252 425.25,-252 419.25,-246 419.25,-240 419.25,-240 419.25,-228 419.25,-228 419.25,-222 425.25,-216 431.25,-216 431.25,-216 618.25,-216 618.25,-216 624.25,-216 630.25,-222 630.25,-228 630.25,-228 630.25,-240 630.25,-240 630.25,-246 624.25,-252 618.25,-252"/>
<text xml:space="preserve" text-anchor="middle" x="524.75" y="-229.55" font-family="Helvetica,sans-Serif" font-size="11.00">plot_scattering_potential_and_probability</text>
</g>
<!-- src_experiments_run_scattering&#45;&gt;src_plotting_plot_scattering_potential_and_probability -->
<g id="edge4" class="edge">
<title>src_experiments_run_scattering&#45;&gt;src_plotting_plot_scattering_potential_and_probability</title>
<path fill="none" stroke="#64748b" d="M594.76,-287.7C582.58,-278.53 567.47,-267.16 554.41,-257.33"/>
<polygon fill="#64748b" stroke="#64748b" points="556.07,-255.51 549.01,-253.26 553.13,-259.42 556.07,-255.51"/>
</g>
<!-- src_potentials_double_square_barrier -->
<g id="node8" class="node">
<title>src_potentials_double_square_barrier</title>
<path fill="#f8fafc" stroke="#334155" d="M761.12,-252C761.12,-252 660.38,-252 660.38,-252 654.38,-252 648.38,-246 648.38,-240 648.38,-240 648.38,-228 648.38,-228 648.38,-222 654.38,-216 660.38,-216 660.38,-216 761.12,-216 761.12,-216 767.12,-216 773.12,-222 773.12,-228 773.12,-228 773.12,-240 773.12,-240 773.12,-246 767.12,-252 761.12,-252"/>
<text xml:space="preserve" text-anchor="middle" x="710.75" y="-229.55" font-family="Helvetica,sans-Serif" font-size="11.00">double_square_barrier</text>
</g>
<!-- src_experiments_run_scattering&#45;&gt;src_potentials_double_square_barrier -->
<g id="edge5" class="edge">
<title>src_experiments_run_scattering&#45;&gt;src_potentials_double_square_barrier</title>
<path fill="none" stroke="#64748b" d="M640.74,-287.7C652.92,-278.53 668.03,-267.16 681.09,-257.33"/>
<polygon fill="#64748b" stroke="#64748b" points="682.37,-259.42 686.49,-253.26 679.43,-255.51 682.37,-259.42"/>
</g>
<!-- src_scattering_find_transmission_peaks -->
<g id="node10" class="node">
<title>src_scattering_find_transmission_peaks</title>
<path fill="#f8fafc" stroke="#334155" d="M912.62,-252C912.62,-252 802.88,-252 802.88,-252 796.88,-252 790.88,-246 790.88,-240 790.88,-240 790.88,-228 790.88,-228 790.88,-222 796.88,-216 802.88,-216 802.88,-216 912.62,-216 912.62,-216 918.62,-216 924.62,-222 924.62,-228 924.62,-228 924.62,-240 924.62,-240 924.62,-246 918.62,-252 912.62,-252"/>
<text xml:space="preserve" text-anchor="middle" x="857.75" y="-229.55" font-family="Helvetica,sans-Serif" font-size="11.00">find_transmission_peaks</text>
</g>
<!-- src_experiments_run_scattering&#45;&gt;src_scattering_find_transmission_peaks -->
<g id="edge6" class="edge">
<title>src_experiments_run_scattering&#45;&gt;src_scattering_find_transmission_peaks</title>
<path fill="none" stroke="#64748b" d="M660.1,-292.65C696.01,-282.17 748.16,-266.96 789.88,-254.79"/>
<polygon fill="#64748b" stroke="#64748b" points="790.32,-257.22 796.36,-252.91 788.95,-252.51 790.32,-257.22"/>
</g>
<!-- src_scattering_scattering_wavefunction -->
<g id="node13" class="node">
<title>src_scattering_scattering_wavefunction</title>
<path fill="#f8fafc" stroke="#334155" d="M1062.5,-252C1062.5,-252 955,-252 955,-252 949,-252 943,-246 943,-240 943,-240 943,-228 943,-228 943,-222 949,-216 955,-216 955,-216 1062.5,-216 1062.5,-216 1068.5,-216 1074.5,-222 1074.5,-228 1074.5,-228 1074.5,-240 1074.5,-240 1074.5,-246 1068.5,-252 1062.5,-252"/>
<text xml:space="preserve" text-anchor="middle" x="1008.75" y="-229.55" font-family="Helvetica,sans-Serif" font-size="11.00">scattering_wavefunction</text>
</g>
<!-- src_experiments_run_scattering&#45;&gt;src_scattering_scattering_wavefunction -->
<g id="edge7" class="edge">
<title>src_experiments_run_scattering&#45;&gt;src_scattering_scattering_wavefunction</title>
<path fill="none" stroke="#64748b" d="M660.31,-298.65C721.13,-289.39 836.33,-271.19 933.75,-252 933.93,-251.96 934.11,-251.93 934.29,-251.89"/>
<polygon fill="#64748b" stroke="#64748b" points="934.68,-254.31 941.06,-250.52 933.71,-249.51 934.68,-254.31"/>
</g>
<!-- src_scattering_sweep_scattering -->
<g id="node15" class="node">
<title>src_scattering_sweep_scattering</title>
<path fill="#f8fafc" stroke="#334155" d="M1180.75,-252C1180.75,-252 1104.75,-252 1104.75,-252 1098.75,-252 1092.75,-246 1092.75,-240 1092.75,-240 1092.75,-228 1092.75,-228 1092.75,-222 1098.75,-216 1104.75,-216 1104.75,-216 1180.75,-216 1180.75,-216 1186.75,-216 1192.75,-222 1192.75,-228 1192.75,-228 1192.75,-240 1192.75,-240 1192.75,-246 1186.75,-252 1180.75,-252"/>
<text xml:space="preserve" text-anchor="middle" x="1142.75" y="-229.55" font-family="Helvetica,sans-Serif" font-size="11.00">sweep_scattering</text>
</g>
<!-- src_experiments_run_scattering&#45;&gt;src_scattering_sweep_scattering -->
<g id="edge8" class="edge">
<title>src_experiments_run_scattering&#45;&gt;src_scattering_sweep_scattering</title>
<path fill="none" stroke="#64748b" d="M660.21,-302.56C742.55,-297.29 929.44,-282.78 1083.75,-252 1083.93,-251.96 1084.1,-251.93 1084.28,-251.89"/>
<polygon fill="#64748b" stroke="#64748b" points="1084.57,-254.34 1090.88,-250.45 1083.52,-249.55 1084.57,-254.34"/>
</g>
<!-- src_numerov_q_from_energy -->
<g id="node4" class="node">
<title>src_numerov_q_from_energy</title>
<path fill="#f8fafc" stroke="#334155" d="M973.12,-36C973.12,-36 908.38,-36 908.38,-36 902.38,-36 896.38,-30 896.38,-24 896.38,-24 896.38,-12 896.38,-12 896.38,-6 902.38,0 908.38,0 908.38,0 973.12,0 973.12,0 979.12,0 985.12,-6 985.12,-12 985.12,-12 985.12,-24 985.12,-24 985.12,-30 979.12,-36 973.12,-36"/>
<text xml:space="preserve" text-anchor="middle" x="940.75" y="-13.55" font-family="Helvetica,sans-Serif" font-size="11.00">q_from_energy</text>
</g>
<!-- src_plotting__ensure_parent -->
<g id="node5" class="node">
<title>src_plotting__ensure_parent</title>
<path fill="#f8fafc" stroke="#334155" d="M460.62,-180C460.62,-180 392.88,-180 392.88,-180 386.88,-180 380.88,-174 380.88,-168 380.88,-168 380.88,-156 380.88,-156 380.88,-150 386.88,-144 392.88,-144 392.88,-144 460.62,-144 460.62,-144 466.62,-144 472.62,-150 472.62,-156 472.62,-156 472.62,-168 472.62,-168 472.62,-174 466.62,-180 460.62,-180"/>
<text xml:space="preserve" text-anchor="middle" x="426.75" y="-157.55" font-family="Helvetica,sans-Serif" font-size="11.00">_ensure_parent</text>
</g>
<!-- src_plotting_plot_scattering_coefficients&#45;&gt;src_plotting__ensure_parent -->
<g id="edge9" class="edge">
<title>src_plotting_plot_scattering_coefficients&#45;&gt;src_plotting__ensure_parent</title>
<path fill="none" stroke="#64748b" d="M353.23,-215.52C366.19,-206.26 382.23,-194.8 396.02,-184.95"/>
<polygon fill="#64748b" stroke="#64748b" points="397.08,-187.2 401.35,-181.14 394.23,-183.22 397.08,-187.2"/>
</g>
<!-- src_plotting_plot_scattering_potential_and_probability&#45;&gt;src_plotting__ensure_parent -->
<g id="edge10" class="edge">
<title>src_plotting_plot_scattering_potential_and_probability&#45;&gt;src_plotting__ensure_parent</title>
<path fill="none" stroke="#64748b" d="M500.27,-215.52C487.31,-206.26 471.27,-194.8 457.48,-184.95"/>
<polygon fill="#64748b" stroke="#64748b" points="459.27,-183.22 452.15,-181.14 456.42,-187.2 459.27,-183.22"/>
</g>
<!-- src_scattering_decompose_left_asymptotic -->
<g id="node9" class="node">
<title>src_scattering_decompose_left_asymptotic</title>
<path fill="#f8fafc" stroke="#334155" d="M1220.12,-108C1220.12,-108 1095.38,-108 1095.38,-108 1089.38,-108 1083.38,-102 1083.38,-96 1083.38,-96 1083.38,-84 1083.38,-84 1083.38,-78 1089.38,-72 1095.38,-72 1095.38,-72 1220.12,-72 1220.12,-72 1226.12,-72 1232.12,-78 1232.12,-84 1232.12,-84 1232.12,-96 1232.12,-96 1232.12,-102 1226.12,-108 1220.12,-108"/>
<text xml:space="preserve" text-anchor="middle" x="1157.75" y="-85.55" font-family="Helvetica,sans-Serif" font-size="11.00">decompose_left_asymptotic</text>
</g>
<!-- src_scattering_integrate_from_right -->
<g id="node11" class="node">
<title>src_scattering_integrate_from_right</title>
<path fill="#f8fafc" stroke="#334155" d="M1053.12,-108C1053.12,-108 964.38,-108 964.38,-108 958.38,-108 952.38,-102 952.38,-96 952.38,-96 952.38,-84 952.38,-84 952.38,-78 958.38,-72 964.38,-72 964.38,-72 1053.12,-72 1053.12,-72 1059.12,-72 1065.12,-78 1065.12,-84 1065.12,-84 1065.12,-96 1065.12,-96 1065.12,-102 1059.12,-108 1053.12,-108"/>
<text xml:space="preserve" text-anchor="middle" x="1008.75" y="-85.55" font-family="Helvetica,sans-Serif" font-size="11.00">integrate_from_right</text>
</g>
<!-- src_scattering_integrate_from_right&#45;&gt;src_numerov_q_from_energy -->
<g id="edge11" class="edge">
<title>src_scattering_integrate_from_right&#45;&gt;src_numerov_q_from_energy</title>
<path fill="none" stroke="#64748b" d="M991.94,-71.7C983.29,-62.8 972.64,-51.82 963.29,-42.2"/>
<polygon fill="#64748b" stroke="#64748b" points="965.06,-40.5 958.42,-37.19 961.54,-43.92 965.06,-40.5"/>
</g>
<!-- src_scattering_numerov_outward_complex -->
<g id="node12" class="node">
<title>src_scattering_numerov_outward_complex</title>
<path fill="#f8fafc" stroke="#334155" d="M1140.12,-36C1140.12,-36 1015.38,-36 1015.38,-36 1009.38,-36 1003.38,-30 1003.38,-24 1003.38,-24 1003.38,-12 1003.38,-12 1003.38,-6 1009.38,0 1015.38,0 1015.38,0 1140.12,0 1140.12,0 1146.12,0 1152.12,-6 1152.12,-12 1152.12,-12 1152.12,-24 1152.12,-24 1152.12,-30 1146.12,-36 1140.12,-36"/>
<text xml:space="preserve" text-anchor="middle" x="1077.75" y="-13.55" font-family="Helvetica,sans-Serif" font-size="11.00">numerov_outward_complex</text>
</g>
<!-- src_scattering_integrate_from_right&#45;&gt;src_scattering_numerov_outward_complex -->
<g id="edge12" class="edge">
<title>src_scattering_integrate_from_right&#45;&gt;src_scattering_numerov_outward_complex</title>
<path fill="none" stroke="#64748b" d="M1025.81,-71.7C1034.66,-62.71 1045.6,-51.61 1055.15,-41.92"/>
<polygon fill="#64748b" stroke="#64748b" points="1056.66,-43.89 1059.83,-37.18 1053.17,-40.45 1056.66,-43.89"/>
</g>
<!-- src_scattering_scattering_wavefunction&#45;&gt;src_scattering_integrate_from_right -->
<g id="edge13" class="edge">
<title>src_scattering_scattering_wavefunction&#45;&gt;src_scattering_integrate_from_right</title>
<path fill="none" stroke="#64748b" d="M1008.75,-215.59C1008.75,-190.76 1008.75,-145.01 1008.75,-116.4"/>
<polygon fill="#64748b" stroke="#64748b" points="1011.2,-116.62 1008.75,-109.62 1006.3,-116.62 1011.2,-116.62"/>
</g>
<!-- src_scattering_solve_scattering -->
<g id="node14" class="node">
<title>src_scattering_solve_scattering</title>
<path fill="#f8fafc" stroke="#334155" d="M1148.38,-180C1148.38,-180 1079.12,-180 1079.12,-180 1073.12,-180 1067.12,-174 1067.12,-168 1067.12,-168 1067.12,-156 1067.12,-156 1067.12,-150 1073.12,-144 1079.12,-144 1079.12,-144 1148.38,-144 1148.38,-144 1154.38,-144 1160.38,-150 1160.38,-156 1160.38,-156 1160.38,-168 1160.38,-168 1160.38,-174 1154.38,-180 1148.38,-180"/>
<text xml:space="preserve" text-anchor="middle" x="1113.75" y="-157.55" font-family="Helvetica,sans-Serif" font-size="11.00">solve_scattering</text>
</g>
<!-- src_scattering_scattering_wavefunction&#45;&gt;src_scattering_solve_scattering -->
<g id="edge14" class="edge">
<title>src_scattering_scattering_wavefunction&#45;&gt;src_scattering_solve_scattering</title>
<path fill="none" stroke="#64748b" d="M1034.98,-215.52C1048.86,-206.26 1066.05,-194.8 1080.82,-184.95"/>
<polygon fill="#64748b" stroke="#64748b" points="1082.13,-187.02 1086.6,-181.1 1079.42,-182.94 1082.13,-187.02"/>
</g>
<!-- src_scattering_solve_scattering&#45;&gt;src_scattering_decompose_left_asymptotic -->
<g id="edge15" class="edge">
<title>src_scattering_solve_scattering&#45;&gt;src_scattering_decompose_left_asymptotic</title>
<path fill="none" stroke="#64748b" d="M1124.63,-143.7C1130.01,-135.14 1136.59,-124.66 1142.47,-115.3"/>
<polygon fill="#64748b" stroke="#64748b" points="1144.54,-116.62 1146.19,-109.39 1140.39,-114.01 1144.54,-116.62"/>
</g>
<!-- src_scattering_solve_scattering&#45;&gt;src_scattering_integrate_from_right -->
<g id="edge16" class="edge">
<title>src_scattering_solve_scattering&#45;&gt;src_scattering_integrate_from_right</title>
<path fill="none" stroke="#64748b" d="M1087.52,-143.52C1073.64,-134.26 1056.45,-122.8 1041.68,-112.95"/>
<polygon fill="#64748b" stroke="#64748b" points="1043.08,-110.94 1035.9,-109.1 1040.37,-115.02 1043.08,-110.94"/>
</g>
<!-- src_scattering_sweep_scattering&#45;&gt;src_scattering_solve_scattering -->
<g id="edge17" class="edge">
<title>src_scattering_sweep_scattering&#45;&gt;src_scattering_solve_scattering</title>
<path fill="none" stroke="#64748b" d="M1135.58,-215.7C1132.1,-207.3 1127.86,-197.07 1124.05,-187.86"/>
<polygon fill="#64748b" stroke="#64748b" points="1126.36,-187.03 1121.42,-181.5 1121.83,-188.91 1126.36,-187.03"/>
</g>
</g>
</svg>
