<?xml version="1.0" encoding="UTF-8" standalone="no"?>
<!DOCTYPE svg PUBLIC "-//W3C//DTD SVG 1.1//EN"
 "http://www.w3.org/Graphics/SVG/1.1/DTD/svg11.dtd">
<!-- Generated by graphviz version 14.1.5 (20260411.2331)
 -->
<!-- Title: G Pages: 1 -->
<svg width="2097pt" height="505pt"
 viewBox="0.00 0.00 2097.00 505.00" xmlns="http://www.w3.org/2000/svg" xmlns:xlink="http://www.w3.org/1999/xlink">
<g id="graph0" class="graph" transform="scale(1 1) rotate(0) translate(4 501)">
<title>G</title>
<polygon fill="white" stroke="none" points="-4,4 -4,-501 2093.25,-501 2093.25,4 -4,4"/>
<text xml:space="preserve" text-anchor="middle" x="147.88" y="-474" font-family="Helvetica,sans-Serif" font-size="20.00">Infinite Square Well Experiment</text>
<!-- src_analysis_convergence_vs_grid -->
<g id="node1" class="node">
<title>src_analysis_convergence_vs_grid</title>
<path fill="#f8fafc" stroke="#334155" d="M106.75,-396C106.75,-396 12.75,-396 12.75,-396 6.75,-396 0.75,-390 0.75,-384 0.75,-384 0.75,-372 0.75,-372 0.75,-366 6.75,-360 12.75,-360 12.75,-360 106.75,-360 106.75,-360 112.75,-360 118.75,-366 118.75,-372 118.75,-372 118.75,-384 118.75,-384 118.75,-390 112.75,-396 106.75,-396"/>
<text xml:space="preserve" text-anchor="middle" x="59.75" y="-373.55" font-family="Helvetica,sans-Serif" font-size="11.00">convergence_vs_grid</text>
</g>
<!-- src_analysis_energies_from_states -->
<g id="node2" class="node">
<title>src_analysis_energies_from_states</title>
<path fill="#f8fafc" stroke="#334155" d="M107.5,-324C107.5,-324 12,-324 12,-324 6,-324 0,-318 0,-312 0,-312 0,-300 0,-300 0,-294 6,-288 12,-288 12,-288 107.5,-288 107.5,-288 113.5,-288 119.5,-294 119.5,-300 119.5,-300 119.5,-312 119.5,-312 119.5,-318 113.5,-324 107.5,-324"/>
<text xml:space="preserve" text-anchor="middle" x="59.75" y="-301.55" font-family="Helvetica,sans-Serif" font-size="11.00">energies_from_states</text>
</g>
<!-- src_analysis_convergence_vs_grid&#45;&gt;src_analysis_energies_from_states -->
<g id="edge1" class="edge">
<title>src_analysis_convergence_vs_grid&#45;&gt;src_analysis_energies_from_states</title>
<path fill="none" stroke="#64748b" d="M59.75,-359.7C59.75,-351.47 59.75,-341.48 59.75,-332.42"/>
<polygon fill="#64748b" stroke="#64748b" points="62.2,-332.62 59.75,-325.62 57.3,-332.62 62.2,-332.62"/>
</g>
<!-- src_analysis_estimate_convergence_slopes -->
<g id="node3" class="node">
<title>src_analysis_estimate_convergence_slopes</title>
<path fill="#f8fafc" stroke="#334155" d="M285.12,-396C285.12,-396 148.38,-396 148.38,-396 142.38,-396 136.38,-390 136.38,-384 136.38,-384 136.38,-372 136.38,-372 136.38,-366 142.38,-360 148.38,-360 148.38,-360 285.12,-360 285.12,-360 291.12,-360 297.12,-366 297.12,-372 297.12,-372 297.12,-384 297.12,-384 297.12,-390 291.12,-396 285.12,-396"/>
<text xml:space="preserve" text-anchor="middle" x="216.75" y="-373.55" font-family="Helvetica,sans-Serif" font-size="11.00">estimate_convergence_slopes</text>
</g>
<!-- src_analysis_exact_square_well_energies -->
<g id="node4" class="node">
<title>src_analysis_exact_square_well_energies</title>
<path fill="#f8fafc" stroke="#334155" d="M456,-396C456,-396 327.5,-396 327.5,-396 321.5,-396 315.5,-390 315.5,-384 315.5,-384 315.5,-372 315.5,-372 315.5,-366 321.5,-360 327.5,-360 327.5,-360 456,-360 456,-360 462,-360 468,-366 468,-372 468,-372 468,-384 468,-384 468,-390 462,-396 456,-396"/>
<text xml:space="preserve" text-anchor="middle" x="391.75" y="-373.55" font-family="Helvetica,sans-Serif" font-size="11.00">exact_square_well_energies</text>
</g>
<!-- src_analysis_save_csv_rows -->
<g id="node5" class="node">
<title>src_analysis_save_csv_rows</title>
<path fill="#f8fafc" stroke="#334155" d="M563.5,-396C563.5,-396 498,-396 498,-396 492,-396 486,-390 486,-384 486,-384 486,-372 486,-372 486,-366 492,-360 498,-360 498,-360 563.5,-360 563.5,-360 569.5,-360 575.5,-366 575.5,-372 575.5,-372 575.5,-384 575.5,-384 575.5,-390 569.5,-396 563.5,-396"/>
<text xml:space="preserve" text-anchor="middle" x="530.75" y="-373.55" font-family="Helvetica,sans-Serif" font-size="11.00">save_csv_rows</text>
</g>
<!-- src_experiments__experiment_results_dir -->
<g id="node6" class="node">
<title>src_experiments__experiment_results_dir</title>
<path fill="#f8fafc" stroke="#334155" d="M712.12,-396C712.12,-396 605.38,-396 605.38,-396 599.38,-396 593.38,-390 593.38,-384 593.38,-384 593.38,-372 593.38,-372 593.38,-366 599.38,-360 605.38,-360 605.38,-360 712.12,-360 712.12,-360 718.12,-360 724.12,-366 724.12,-372 724.12,-372 724.12,-384 724.12,-384 724.12,-390 718.12,-396 712.12,-396"/>
<text xml:space="preserve" text-anchor="middle" x="658.75" y="-373.55" font-family="Helvetica,sans-Serif" font-size="11.00">_experiment_results_dir</text>
</g>
<!-- src_experiments_plot_infinite_well_root_diagnostics -->
<g id="node7" class="node">
<title>src_experiments_plot_infinite_well_root_diagnostics</title>
<path fill="#f8fafc" stroke="#334155" d="M1389.12,-396C1389.12,-396 1234.38,-396 1234.38,-396 1228.38,-396 1222.38,-390 1222.38,-384 1222.38,-384 1222.38,-372 1222.38,-372 1222.38,-366 1228.38,-360 1234.38,-360 1234.38,-360 1389.12,-360 1389.12,-360 1395.12,-360 1401.12,-366 1401.12,-372 1401.12,-372 1401.12,-384 1401.12,-384 1401.12,-390 1395.12,-396 1389.12,-396"/>
<text xml:space="preserve" text-anchor="middle" x="1311.75" y="-373.55" font-family="Helvetica,sans-Serif" font-size="11.00">plot_infinite_well_root_diagnostics</text>
</g>
<!-- src_plotting_plot_root_finding_diagnostic -->
<g id="node18" class="node">
<title>src_plotting_plot_root_finding_diagnostic</title>
<path fill="#f8fafc" stroke="#334155" d="M1356.5,-324C1356.5,-324 1231,-324 1231,-324 1225,-324 1219,-318 1219,-312 1219,-312 1219,-300 1219,-300 1219,-294 1225,-288 1231,-288 1231,-288 1356.5,-288 1356.5,-288 1362.5,-288 1368.5,-294 1368.5,-300 1368.5,-300 1368.5,-312 1368.5,-312 1368.5,-318 1362.5,-324 1356.5,-324"/>
<text xml:space="preserve" text-anchor="middle" x="1293.75" y="-301.55" font-family="Helvetica,sans-Serif" font-size="11.00">plot_root_finding_diagnostic</text>
</g>
<!-- src_experiments_plot_infinite_well_root_diagnostics&#45;&gt;src_plotting_plot_root_finding_diagnostic -->
<g id="edge2" class="edge">
<title>src_experiments_plot_infinite_well_root_diagnostics&#45;&gt;src_plotting_plot_root_finding_diagnostic</title>
<path fill="none" stroke="#64748b" d="M1307.3,-359.7C1305.16,-351.39 1302.56,-341.28 1300.21,-332.14"/>
<polygon fill="#64748b" stroke="#64748b" points="1302.64,-331.74 1298.53,-325.57 1297.9,-332.96 1302.64,-331.74"/>
</g>
<!-- src_potentials_infinite_square_well_numeric -->
<g id="node19" class="node">
<title>src_potentials_infinite_square_well_numeric</title>
<path fill="#f8fafc" stroke="#334155" d="M1189.12,-324C1189.12,-324 1058.38,-324 1058.38,-324 1052.38,-324 1046.38,-318 1046.38,-312 1046.38,-312 1046.38,-300 1046.38,-300 1046.38,-294 1052.38,-288 1058.38,-288 1058.38,-288 1189.12,-288 1189.12,-288 1195.12,-288 1201.12,-294 1201.12,-300 1201.12,-300 1201.12,-312 1201.12,-312 1201.12,-318 1195.12,-324 1189.12,-324"/>
<text xml:space="preserve" text-anchor="middle" x="1123.75" y="-301.55" font-family="Helvetica,sans-Serif" font-size="11.00">infinite_square_well_numeric</text>
</g>
<!-- src_experiments_plot_infinite_well_root_diagnostics&#45;&gt;src_potentials_infinite_square_well_numeric -->
<g id="edge3" class="edge">
<title>src_experiments_plot_infinite_well_root_diagnostics&#45;&gt;src_potentials_infinite_square_well_numeric</title>
<path fill="none" stroke="#64748b" d="M1264.79,-359.52C1238.56,-349.75 1205.75,-337.53 1178.37,-327.34"/>
<polygon fill="#64748b" stroke="#64748b" points="1179.27,-325.06 1171.85,-324.91 1177.56,-329.65 1179.27,-325.06"/>
</g>
<!-- src_shooting_bisection_history_outward_shooting -->
<g id="node21" class="node">
<title>src_shooting_bisection_history_outward_shooting</title>
<path fill="#f8fafc" stroke="#334155" d="M1514.25,-252C1514.25,-252 1351.25,-252 1351.25,-252 1345.25,-252 1339.25,-246 1339.25,-240 1339.25,-240 1339.25,-228 1339.25,-228 1339.25,-222 1345.25,-216 1351.25,-216 1351.25,-216 1514.25,-216 1514.25,-216 1520.25,-216 1526.25,-222 1526.25,-228 1526.25,-228 1526.25,-240 1526.25,-240 1526.25,-246 1520.25,-252 1514.25,-252"/>
<text xml:space="preserve" text-anchor="middle" x="1432.75" y="-229.55" font-family="Helvetica,sans-Serif" font-size="11.00">bisection_history_outward_shooting</text>
</g>
<!-- src_experiments_plot_infinite_well_root_diagnostics&#45;&gt;src_shooting_bisection_history_outward_shooting -->
<g id="edge4" class="edge">
<title>src_experiments_plot_infinite_well_root_diagnostics&#45;&gt;src_shooting_bisection_history_outward_shooting</title>
<path fill="none" stroke="#64748b" d="M1348.82,-359.66C1364.62,-350.79 1382.26,-338.74 1394.75,-324 1410.46,-305.47 1420.54,-279.47 1426.35,-260.36"/>
<polygon fill="#64748b" stroke="#64748b" points="1428.65,-261.24 1428.23,-253.83 1423.94,-259.88 1428.65,-261.24"/>
</g>
<!-- src_shooting_find_brackets_outward_shooting -->
<g id="node24" class="node">
<title>src_shooting_find_brackets_outward_shooting</title>
<path fill="#f8fafc" stroke="#334155" d="M1626.38,-324C1626.38,-324 1479.12,-324 1479.12,-324 1473.12,-324 1467.12,-318 1467.12,-312 1467.12,-312 1467.12,-300 1467.12,-300 1467.12,-294 1473.12,-288 1479.12,-288 1479.12,-288 1626.38,-288 1626.38,-288 1632.38,-288 1638.38,-294 1638.38,-300 1638.38,-300 1638.38,-312 1638.38,-312 1638.38,-318 1632.38,-324 1626.38,-324"/>
<text xml:space="preserve" text-anchor="middle" x="1552.75" y="-301.55" font-family="Helvetica,sans-Serif" font-size="11.00">find_brackets_outward_shooting</text>
</g>
<!-- src_experiments_plot_infinite_well_root_diagnostics&#45;&gt;src_shooting_find_brackets_outward_shooting -->
<g id="edge5" class="edge">
<title>src_experiments_plot_infinite_well_root_diagnostics&#45;&gt;src_shooting_find_brackets_outward_shooting</title>
<path fill="none" stroke="#64748b" d="M1371.94,-359.52C1406.29,-349.54 1449.45,-337 1484.98,-326.68"/>
<polygon fill="#64748b" stroke="#64748b" points="1485.41,-329.11 1491.45,-324.8 1484.05,-324.4 1485.41,-329.11"/>
</g>
<!-- src_shooting_sample_boundary_mismatch_outward_shooting -->
<g id="node27" class="node">
<title>src_shooting_sample_boundary_mismatch_outward_shooting</title>
<path fill="#f8fafc" stroke="#334155" d="M1309.12,-252C1309.12,-252 1088.38,-252 1088.38,-252 1082.38,-252 1076.38,-246 1076.38,-240 1076.38,-240 1076.38,-228 1076.38,-228 1076.38,-222 1082.38,-216 1088.38,-216 1088.38,-216 1309.12,-216 1309.12,-216 1315.12,-216 1321.12,-222 1321.12,-228 1321.12,-228 1321.12,-240 1321.12,-240 1321.12,-246 1315.12,-252 1309.12,-252"/>
<text xml:space="preserve" text-anchor="middle" x="1198.75" y="-229.55" font-family="Helvetica,sans-Serif" font-size="11.00">sample_boundary_mismatch_outward_shooting</text>
</g>
<!-- src_experiments_plot_infinite_well_root_diagnostics&#45;&gt;src_shooting_sample_boundary_mismatch_outward_shooting -->
<g id="edge6" class="edge">
<title>src_experiments_plot_infinite_well_root_diagnostics&#45;&gt;src_shooting_sample_boundary_mismatch_outward_shooting</title>
<path fill="none" stroke="#64748b" d="M1344.15,-359.64C1357.11,-350.84 1370.63,-338.84 1377.75,-324 1384.67,-309.57 1387.32,-300.82 1377.75,-288 1367.61,-274.42 1335.86,-263.09 1301.86,-254.43"/>
<polygon fill="#64748b" stroke="#64748b" points="1302.51,-252.07 1295.12,-252.77 1301.33,-256.82 1302.51,-252.07"/>
</g>
<!-- src_experiments_run_square_well -->
<g id="node8" class="node">
<title>src_experiments_run_square_well</title>
<path fill="#f8fafc" stroke="#334155" d="M824.5,-468C824.5,-468 753,-468 753,-468 747,-468 741,-462 741,-456 741,-456 741,-444 741,-444 741,-438 747,-432 753,-432 753,-432 824.5,-432 824.5,-432 830.5,-432 836.5,-438 836.5,-444 836.5,-444 836.5,-456 836.5,-456 836.5,-462 830.5,-468 824.5,-468"/>
<text xml:space="preserve" text-anchor="middle" x="788.75" y="-445.55" font-family="Helvetica,sans-Serif" font-size="11.00">run_square_well</text>
</g>
<!-- src_experiments_run_square_well&#45;&gt;src_analysis_convergence_vs_grid -->
<g id="edge7" class="edge">
<title>src_experiments_run_square_well&#45;&gt;src_analysis_convergence_vs_grid</title>
<path fill="none" stroke="#64748b" d="M740.73,-447.86C631.29,-444.67 355.25,-433.3 127.75,-396 127.57,-395.97 127.39,-395.94 127.21,-395.91"/>
<polygon fill="#64748b" stroke="#64748b" points="127.78,-393.52 120.46,-394.69 126.91,-398.35 127.78,-393.52"/>
</g>
<!-- src_experiments_run_square_well&#45;&gt;src_analysis_estimate_convergence_slopes -->
<g id="edge8" class="edge">
<title>src_experiments_run_square_well&#45;&gt;src_analysis_estimate_convergence_slopes</title>
<path fill="none" stroke="#64748b" d="M740.7,-444.95C653.83,-437.36 464.95,-419.6 306.75,-396 306.36,-395.94 305.96,-395.88 305.57,-395.82"/>
<polygon fill="#64748b" stroke="#64748b" points="305.96,-393.4 298.66,-394.74 305.2,-398.25 305.96,-393.4"/>
</g>
<!-- src_experiments_run_square_well&#45;&gt;src_analysis_exact_square_well_energies -->
<g id="edge9" class="edge">
<title>src_experiments_run_square_well&#45;&gt;src_analysis_exact_square_well_energies</title>
<path fill="none" stroke="#64748b" d="M740.57,-441.26C679.21,-431.31 569.95,-413.23 476.75,-396 476.66,-395.98 476.57,-395.97 476.49,-395.95"/>
<polygon fill="#64748b" stroke="#64748b" points="477,-393.56 469.67,-394.67 476.1,-398.37 477,-393.56"/>
</g>
<!-- src_experiments_run_square_well&#45;&gt;src_analysis_save_csv_rows -->
<g id="edge10" class="edge">
<title>src_experiments_run_square_well&#45;&gt;src_analysis_save_csv_rows</title>
<path fill="none" stroke="#64748b" d="M740.75,-437.26C699.29,-426.95 637.86,-411.25 584.75,-396 584.48,-395.92 584.2,-395.84 583.92,-395.76"/>
<polygon fill="#64748b" stroke="#64748b" points="584.64,-393.42 577.23,-393.79 583.25,-398.12 584.64,-393.42"/>
</g>
<!-- src_experiments_run_square_well&#45;&gt;src_experiments__experiment_results_dir -->
<g id="edge11" class="edge">
<title>src_experiments_run_square_well&#45;&gt;src_experiments__experiment_results_dir</title>
<path fill="none" stroke="#64748b" d="M756.28,-431.52C738.62,-422.01 716.64,-410.17 698.02,-400.15"/>
<polygon fill="#64748b" stroke="#64748b" points="699.46,-398.14 692.14,-396.98 697.14,-402.45 699.46,-398.14"/>
</g>
<!-- src_experiments_run_square_well&#45;&gt;src_experiments_plot_infinite_well_root_diagnostics -->
<g id="edge12" class="edge">
<title>src_experiments_run_square_well&#45;&gt;src_experiments_plot_infinite_well_root_diagnostics</title>
<path fill="none" stroke="#64748b" d="M836.55,-442.6C921.79,-431.19 1101.62,-407.12 1213.98,-392.09"/>
<polygon fill="#64748b" stroke="#64748b" points="1214.17,-394.53 1220.78,-391.18 1213.52,-389.68 1214.17,-394.53"/>
</g>
<!-- src_plotting_plot_energy_comparison -->
<g id="node14" class="node">
<title>src_plotting_plot_energy_comparison</title>
<path fill="#f8fafc" stroke="#334155" d="M786.62,-324C786.62,-324 676.88,-324 676.88,-324 670.88,-324 664.88,-318 664.88,-312 664.88,-312 664.88,-300 664.88,-300 664.88,-294 670.88,-288 676.88,-288 676.88,-288 786.62,-288 786.62,-288 792.62,-288 798.62,-294 798.62,-300 798.62,-300 798.62,-312 798.62,-312 798.62,-318 792.62,-324 786.62,-324"/>
<text xml:space="preserve" text-anchor="middle" x="731.75" y="-301.55" font-family="Helvetica,sans-Serif" font-size="11.00">plot_energy_comparison</text>
</g>
<!-- src_experiments_run_square_well&#45;&gt;src_plotting_plot_energy_comparison -->
<g id="edge13" class="edge">
<title>src_experiments_run_square_well&#45;&gt;src_plotting_plot_energy_comparison</title>
<path fill="none" stroke="#64748b" d="M781.76,-431.59C771.71,-406.54 753.11,-360.22 741.65,-331.66"/>
<polygon fill="#64748b" stroke="#64748b" points="744.06,-331.1 739.18,-325.52 739.52,-332.92 744.06,-331.1"/>
</g>
<!-- src_plotting_plot_error_curve -->
<g id="node15" class="node">
<title>src_plotting_plot_error_curve</title>
<path fill="#f8fafc" stroke="#334155" d="M862.12,-396C862.12,-396 791.38,-396 791.38,-396 785.38,-396 779.38,-390 779.38,-384 779.38,-384 779.38,-372 779.38,-372 779.38,-366 785.38,-360 791.38,-360 791.38,-360 862.12,-360 862.12,-360 868.12,-360 874.12,-366 874.12,-372 874.12,-372 874.12,-384 874.12,-384 874.12,-390 868.12,-396 862.12,-396"/>
<text xml:space="preserve" text-anchor="middle" x="826.75" y="-373.55" font-family="Helvetica,sans-Serif" font-size="11.00">plot_error_curve</text>
</g>
<!-- src_experiments_run_square_well&#45;&gt;src_plotting_plot_error_curve -->
<g id="edge14" class="edge">
<title>src_experiments_run_square_well&#45;&gt;src_plotting_plot_error_curve</title>
<path fill="none" stroke="#64748b" d="M798.14,-431.7C802.74,-423.22 808.37,-412.86 813.41,-403.58"/>
<polygon fill="#64748b" stroke="#64748b" points="815.56,-404.76 816.74,-397.43 811.25,-402.42 815.56,-404.76"/>
</g>
<!-- src_plotting_plot_potential_and_states -->
<g id="node16" class="node">
<title>src_plotting_plot_potential_and_states</title>
<path fill="#f8fafc" stroke="#334155" d="M1018.88,-396C1018.88,-396 904.62,-396 904.62,-396 898.62,-396 892.62,-390 892.62,-384 892.62,-384 892.62,-372 892.62,-372 892.62,-366 898.62,-360 904.62,-360 904.62,-360 1018.88,-360 1018.88,-360 1024.88,-360 1030.88,-366 1030.88,-372 1030.88,-372 1030.88,-384 1030.88,-384 1030.88,-390 1024.88,-396 1018.88,-396"/>
<text xml:space="preserve" text-anchor="middle" x="961.75" y="-373.55" font-family="Helvetica,sans-Serif" font-size="11.00">plot_potential_and_states</text>
</g>
<!-- src_experiments_run_square_well&#45;&gt;src_plotting_plot_potential_and_states -->
<g id="edge15" class="edge">
<title>src_experiments_run_square_well&#45;&gt;src_plotting_plot_potential_and_states</title>
<path fill="none" stroke="#64748b" d="M831.96,-431.52C855.99,-421.79 886.04,-409.64 911.16,-399.47"/>
<polygon fill="#64748b" stroke="#64748b" points="911.82,-401.85 917.39,-396.95 909.98,-397.3 911.82,-401.85"/>
</g>
<!-- src_plotting_plot_probability_densities -->
<g id="node17" class="node">
<title>src_plotting_plot_probability_densities</title>
<path fill="#f8fafc" stroke="#334155" d="M1016.75,-324C1016.75,-324 904.75,-324 904.75,-324 898.75,-324 892.75,-318 892.75,-312 892.75,-312 892.75,-300 892.75,-300 892.75,-294 898.75,-288 904.75,-288 904.75,-288 1016.75,-288 1016.75,-288 1022.75,-288 1028.75,-294 1028.75,-300 1028.75,-300 1028.75,-312 1028.75,-312 1028.75,-318 1022.75,-324 1016.75,-324"/>
<text xml:space="preserve" text-anchor="middle" x="960.75" y="-301.55" font-family="Helvetica,sans-Serif" font-size="11.00">plot_probability_densities</text>
</g>
<!-- src_experiments_run_square_well&#45;&gt;src_plotting_plot_probability_densities -->
<g id="edge16" class="edge">
<title>src_experiments_run_square_well&#45;&gt;src_plotting_plot_probability_densities</title>
<path fill="none" stroke="#64748b" d="M836.95,-445.86C902.56,-440.46 1014.71,-426.87 1039.75,-396 1049.83,-383.57 1047.28,-374.12 1039.75,-360 1032.86,-347.09 1021.28,-336.76 1009.07,-328.78"/>
<polygon fill="#64748b" stroke="#64748b" points="1010.39,-326.71 1003.14,-325.15 1007.83,-330.89 1010.39,-326.71"/>
</g>
<!-- src_experiments_run_square_well&#45;&gt;src_potentials_infinite_square_well_numeric -->
<g id="edge17" class="edge">
<title>src_experiments_run_square_well&#45;&gt;src_potentials_infinite_square_well_numeric</title>
<path fill="none" stroke="#64748b" d="M836.79,-449.56C893.52,-448.08 988.75,-438.67 1056.75,-396 1081.45,-380.5 1100.29,-352.4 1111.61,-331.91"/>
<polygon fill="#64748b" stroke="#64748b" points="1113.73,-333.13 1114.86,-325.8 1109.41,-330.83 1113.73,-333.13"/>
</g>
<!-- src_shooting_solve_symmetric_potential_outward_shooting -->
<g id="node29" class="node">
<title>src_shooting_solve_symmetric_potential_outward_shooting</title>
<path fill="#f8fafc" stroke="#334155" d="M1657.5,-396C1657.5,-396 1448,-396 1448,-396 1442,-396 1436,-390 1436,-384 1436,-384 1436,-372 1436,-372 1436,-366 1442,-360 1448,-360 1448,-360 1657.5,-360 1657.5,-360 1663.5,-360 1669.5,-366 1669.5,-372 1669.5,-372 1669.5,-384 1669.5,-384 1669.5,-390 1663.5,-396 1657.5,-396"/>
<text xml:space="preserve" text-anchor="middle" x="1552.75" y="-373.55" font-family="Helvetica,sans-Serif" font-size="11.00">solve_symmetric_potential_outward_shooting</text>
</g>
<!-- src_experiments_run_square_well&#45;&gt;src_shooting_solve_symmetric_potential_outward_shooting -->
<g id="edge18" class="edge">
<title>src_experiments_run_square_well&#45;&gt;src_shooting_solve_symmetric_potential_outward_shooting</title>
<path fill="none" stroke="#64748b" d="M836.72,-445.45C941.04,-437.61 1196.34,-417.79 1409.75,-396 1415.56,-395.41 1421.51,-394.78 1427.51,-394.13"/>
<polygon fill="#64748b" stroke="#64748b" points="1427.53,-396.59 1434.22,-393.4 1427,-391.72 1427.53,-396.59"/>
</g>
<!-- src_numerov_derivative_at_right_edge -->
<g id="node9" class="node">
<title>src_numerov_derivative_at_right_edge</title>
<path fill="#f8fafc" stroke="#334155" d="M1609.62,-108C1609.62,-108 1499.88,-108 1499.88,-108 1493.88,-108 1487.88,-102 1487.88,-96 1487.88,-96 1487.88,-84 1487.88,-84 1487.88,-78 1493.88,-72 1499.88,-72 1499.88,-72 1609.62,-72 1609.62,-72 1615.62,-72 1621.62,-78 1621.62,-84 1621.62,-84 1621.62,-96 1621.62,-96 1621.62,-102 1615.62,-108 1609.62,-108"/>
<text xml:space="preserve" text-anchor="middle" x="1554.75" y="-85.55" font-family="Helvetica,sans-Serif" font-size="11.00">derivative_at_right_edge</text>
</g>
<!-- src_numerov_normalize_wavefunction -->
<g id="node10" class="node">
<title>src_numerov_normalize_wavefunction</title>
<path fill="#f8fafc" stroke="#334155" d="M1932.5,-252C1932.5,-252 1825,-252 1825,-252 1819,-252 1813,-246 1813,-240 1813,-240 1813,-228 1813,-228 1813,-222 1819,-216 1825,-216 1825,-216 1932.5,-216 1932.5,-216 1938.5,-216 1944.5,-222 1944.5,-228 1944.5,-228 1944.5,-240 1944.5,-240 1944.5,-246 1938.5,-252 1932.5,-252"/>
<text xml:space="preserve" text-anchor="middle" x="1878.75" y="-229.55" font-family="Helvetica,sans-Serif" font-size="11.00">normalize_wavefunction</text>
</g>
<!-- src_numerov_numerov_outward -->
<g id="node11" class="node">
<title>src_numerov_numerov_outward</title>
<path fill="#f8fafc" stroke="#334155" d="M1696.25,-36C1696.25,-36 1617.25,-36 1617.25,-36 1611.25,-36 1605.25,-30 1605.25,-24 1605.25,-24 1605.25,-12 1605.25,-12 1605.25,-6 1611.25,0 1617.25,0 1617.25,0 1696.25,0 1696.25,0 1702.25,0 1708.25,-6 1708.25,-12 1708.25,-12 1708.25,-24 1708.25,-24 1708.25,-30 1702.25,-36 1696.25,-36"/>
<text xml:space="preserve" text-anchor="middle" x="1656.75" y="-13.55" font-family="Helvetica,sans-Serif" font-size="11.00">numerov_outward</text>
</g>
<!-- src_numerov_q_from_energy -->
<g id="node12" class="node">
<title>src_numerov_q_from_energy</title>
<path fill="#f8fafc" stroke="#334155" d="M1803.12,-36C1803.12,-36 1738.38,-36 1738.38,-36 1732.38,-36 1726.38,-30 1726.38,-24 1726.38,-24 1726.38,-12 1726.38,-12 1726.38,-6 1732.38,0 1738.38,0 1738.38,0 1803.12,0 1803.12,0 1809.12,0 1815.12,-6 1815.12,-12 1815.12,-12 1815.12,-24 1815.12,-24 1815.12,-30 1809.12,-36 1803.12,-36"/>
<text xml:space="preserve" text-anchor="middle" x="1770.75" y="-13.55" font-family="Helvetica,sans-Serif" font-size="11.00">q_from_energy</text>
</g>
<!-- src_plotting__ensure_parent -->
<g id="node13" class="node">
<title>src_plotting__ensure_parent</title>
<path fill="#f8fafc" stroke="#334155" d="M898.62,-252C898.62,-252 830.88,-252 830.88,-252 824.88,-252 818.88,-246 818.88,-240 818.88,-240 818.88,-228 818.88,-228 818.88,-222 824.88,-216 830.88,-216 830.88,-216 898.62,-216 898.62,-216 904.62,-216 910.62,-222 910.62,-228 910.62,-228 910.62,-240 910.62,-240 910.62,-246 904.62,-252 898.62,-252"/>
<text xml:space="preserve" text-anchor="middle" x="864.75" y="-229.55" font-family="Helvetica,sans-Serif" font-size="11.00">_ensure_parent</text>
</g>
<!-- src_plotting_plot_energy_comparison&#45;&gt;src_plotting__ensure_parent -->
<g id="edge19" class="edge">
<title>src_plotting_plot_energy_comparison&#45;&gt;src_plotting__ensure_parent</title>
<path fill="none" stroke="#64748b" d="M764.97,-287.52C783.04,-278.01 805.52,-266.17 824.57,-256.15"/>
<polygon fill="#64748b" stroke="#64748b" points="825.56,-258.39 830.62,-252.97 823.28,-254.06 825.56,-258.39"/>
</g>
<!-- src_plotting_plot_error_curve&#45;&gt;src_plotting__ensure_parent -->
<g id="edge20" class="edge">
<title>src_plotting_plot_error_curve&#45;&gt;src_plotting__ensure_parent</title>
<path fill="none" stroke="#64748b" d="M831.41,-359.59C838.08,-334.65 850.4,-288.62 858.05,-260.03"/>
<polygon fill="#64748b" stroke="#64748b" points="860.34,-260.97 859.78,-253.57 855.6,-259.7 860.34,-260.97"/>
</g>
<!-- src_plotting_plot_potential_and_states&#45;&gt;src_plotting__ensure_parent -->
<g id="edge21" class="edge">
<title>src_plotting_plot_potential_and_states&#45;&gt;src_plotting__ensure_parent</title>
<path fill="none" stroke="#64748b" d="M924.39,-359.53C909.62,-350.83 893.8,-338.94 883.75,-324 871.11,-305.21 866.67,-279.57 865.21,-260.63"/>
<polygon fill="#64748b" stroke="#64748b" points="867.66,-260.55 864.8,-253.71 862.77,-260.84 867.66,-260.55"/>
</g>
<!-- src_plotting_plot_probability_densities&#45;&gt;src_plotting__ensure_parent -->
<g id="edge22" class="edge">
<title>src_plotting_plot_probability_densities&#45;&gt;src_plotting__ensure_parent</title>
<path fill="none" stroke="#64748b" d="M937.02,-287.7C924.44,-278.53 908.85,-267.16 895.37,-257.33"/>
<polygon fill="#64748b" stroke="#64748b" points="896.86,-255.38 889.76,-253.24 893.98,-259.34 896.86,-255.38"/>
</g>
<!-- src_plotting_plot_root_finding_diagnostic&#45;&gt;src_plotting__ensure_parent -->
<g id="edge23" class="edge">
<title>src_plotting_plot_root_finding_diagnostic&#45;&gt;src_plotting__ensure_parent</title>
<path fill="none" stroke="#64748b" d="M1218.68,-289.62C1215.66,-289.06 1212.68,-288.52 1209.75,-288 1107.27,-269.77 986.99,-252.14 918.94,-242.52"/>
<polygon fill="#64748b" stroke="#64748b" points="919.68,-240.15 912.4,-241.59 918.99,-245 919.68,-240.15"/>
</g>
<!-- src_shooting_bisect_energy_outward_shooting -->
<g id="node20" class="node">
<title>src_shooting_bisect_energy_outward_shooting</title>
<path fill="#f8fafc" stroke="#334155" d="M1744.88,-252C1744.88,-252 1594.62,-252 1594.62,-252 1588.62,-252 1582.62,-246 1582.62,-240 1582.62,-240 1582.62,-228 1582.62,-228 1582.62,-222 1588.62,-216 1594.62,-216 1594.62,-216 1744.88,-216 1744.88,-216 1750.88,-216 1756.88,-222 1756.88,-228 1756.88,-228 1756.88,-240 1756.88,-240 1756.88,-246 1750.88,-252 1744.88,-252"/>
<text xml:space="preserve" text-anchor="middle" x="1669.75" y="-229.55" font-family="Helvetica,sans-Serif" font-size="11.00">bisect_energy_outward_shooting</text>
</g>
<!-- src_shooting_boundary_mismatch_outward_shooting -->
<g id="node22" class="node">
<title>src_shooting_boundary_mismatch_outward_shooting</title>
<path fill="#f8fafc" stroke="#334155" d="M1644.88,-180C1644.88,-180 1464.62,-180 1464.62,-180 1458.62,-180 1452.62,-174 1452.62,-168 1452.62,-168 1452.62,-156 1452.62,-156 1452.62,-150 1458.62,-144 1464.62,-144 1464.62,-144 1644.88,-144 1644.88,-144 1650.88,-144 1656.88,-150 1656.88,-156 1656.88,-156 1656.88,-168 1656.88,-168 1656.88,-174 1650.88,-180 1644.88,-180"/>
<text xml:space="preserve" text-anchor="middle" x="1554.75" y="-157.55" font-family="Helvetica,sans-Serif" font-size="11.00">boundary_mismatch_outward_shooting</text>
</g>
<!-- src_shooting_bisect_energy_outward_shooting&#45;&gt;src_shooting_boundary_mismatch_outward_shooting -->
<g id="edge24" class="edge">
<title>src_shooting_bisect_energy_outward_shooting&#45;&gt;src_shooting_boundary_mismatch_outward_shooting</title>
<path fill="none" stroke="#64748b" d="M1641.03,-215.52C1625.68,-206.18 1606.65,-194.59 1590.37,-184.68"/>
<polygon fill="#64748b" stroke="#64748b" points="1591.65,-182.59 1584.4,-181.05 1589.11,-186.78 1591.65,-182.59"/>
</g>
<!-- src_shooting_bisection_history_outward_shooting&#45;&gt;src_shooting_boundary_mismatch_outward_shooting -->
<g id="edge25" class="edge">
<title>src_shooting_bisection_history_outward_shooting&#45;&gt;src_shooting_boundary_mismatch_outward_shooting</title>
<path fill="none" stroke="#64748b" d="M1463.22,-215.52C1479.65,-206.09 1500.05,-194.38 1517.43,-184.41"/>
<polygon fill="#64748b" stroke="#64748b" points="1518.5,-186.62 1523.35,-181.01 1516.06,-182.37 1518.5,-186.62"/>
</g>
<!-- src_shooting_boundary_mismatch_outward_shooting&#45;&gt;src_numerov_derivative_at_right_edge -->
<g id="edge26" class="edge">
<title>src_shooting_boundary_mismatch_outward_shooting&#45;&gt;src_numerov_derivative_at_right_edge</title>
<path fill="none" stroke="#64748b" d="M1554.75,-143.7C1554.75,-135.47 1554.75,-125.48 1554.75,-116.42"/>
<polygon fill="#64748b" stroke="#64748b" points="1557.2,-116.62 1554.75,-109.62 1552.3,-116.62 1557.2,-116.62"/>
</g>
<!-- src_shooting_half_domain_wavefunction_outward_shooting -->
<g id="node25" class="node">
<title>src_shooting_half_domain_wavefunction_outward_shooting</title>
<path fill="#f8fafc" stroke="#334155" d="M1876.25,-108C1876.25,-108 1665.25,-108 1665.25,-108 1659.25,-108 1653.25,-102 1653.25,-96 1653.25,-96 1653.25,-84 1653.25,-84 1653.25,-78 1659.25,-72 1665.25,-72 1665.25,-72 1876.25,-72 1876.25,-72 1882.25,-72 1888.25,-78 1888.25,-84 1888.25,-84 1888.25,-96 1888.25,-96 1888.25,-102 1882.25,-108 1876.25,-108"/>
<text xml:space="preserve" text-anchor="middle" x="1770.75" y="-85.55" font-family="Helvetica,sans-Serif" font-size="11.00">half_domain_wavefunction_outward_shooting</text>
</g>
<!-- src_shooting_boundary_mismatch_outward_shooting&#45;&gt;src_shooting_half_domain_wavefunction_outward_shooting -->
<g id="edge27" class="edge">
<title>src_shooting_boundary_mismatch_outward_shooting&#45;&gt;src_shooting_half_domain_wavefunction_outward_shooting</title>
<path fill="none" stroke="#64748b" d="M1608.7,-143.52C1639.23,-133.62 1677.51,-121.22 1709.21,-110.94"/>
<polygon fill="#64748b" stroke="#64748b" points="1709.77,-113.34 1715.68,-108.85 1708.26,-108.68 1709.77,-113.34"/>
</g>
<!-- src_shooting_build_full_wavefunction -->
<g id="node23" class="node">
<title>src_shooting_build_full_wavefunction</title>
<path fill="#f8fafc" stroke="#334155" d="M2077.25,-252C2077.25,-252 1974.25,-252 1974.25,-252 1968.25,-252 1962.25,-246 1962.25,-240 1962.25,-240 1962.25,-228 1962.25,-228 1962.25,-222 1968.25,-216 1974.25,-216 1974.25,-216 2077.25,-216 2077.25,-216 2083.25,-216 2089.25,-222 2089.25,-228 2089.25,-228 2089.25,-240 2089.25,-240 2089.25,-246 2083.25,-252 2077.25,-252"/>
<text xml:space="preserve" text-anchor="middle" x="2025.75" y="-229.55" font-family="Helvetica,sans-Serif" font-size="11.00">build_full_wavefunction</text>
</g>
<!-- src_shooting_find_brackets_outward_shooting&#45;&gt;src_shooting_boundary_mismatch_outward_shooting -->
<g id="edge28" class="edge">
<title>src_shooting_find_brackets_outward_shooting&#45;&gt;src_shooting_boundary_mismatch_outward_shooting</title>
<path fill="none" stroke="#64748b" d="M1553,-287.59C1553.34,-262.76 1553.99,-217.01 1554.39,-188.4"/>
<polygon fill="#64748b" stroke="#64748b" points="1556.84,-188.66 1554.49,-181.62 1551.94,-188.59 1556.84,-188.66"/>
</g>
<!-- src_shooting_half_domain_wavefunction_outward_shooting&#45;&gt;src_numerov_numerov_outward -->
<g id="edge29" class="edge">
<title>src_shooting_half_domain_wavefunction_outward_shooting&#45;&gt;src_numerov_numerov_outward</title>
<path fill="none" stroke="#64748b" d="M1742.28,-71.52C1727.06,-62.18 1708.2,-50.59 1692.06,-40.68"/>
<polygon fill="#64748b" stroke="#64748b" points="1693.4,-38.63 1686.15,-37.05 1690.83,-42.8 1693.4,-38.63"/>
</g>
<!-- src_shooting_half_domain_wavefunction_outward_shooting&#45;&gt;src_numerov_q_from_energy -->
<g id="edge30" class="edge">
<title>src_shooting_half_domain_wavefunction_outward_shooting&#45;&gt;src_numerov_q_from_energy</title>
<path fill="none" stroke="#64748b" d="M1770.75,-71.7C1770.75,-63.47 1770.75,-53.48 1770.75,-44.42"/>
<polygon fill="#64748b" stroke="#64748b" points="1773.2,-44.62 1770.75,-37.62 1768.3,-44.62 1773.2,-44.62"/>
</g>
<!-- src_shooting_initial_conditions_outward_shooting -->
<g id="node26" class="node">
<title>src_shooting_initial_conditions_outward_shooting</title>
<path fill="#f8fafc" stroke="#334155" d="M2006.5,-36C2006.5,-36 1845,-36 1845,-36 1839,-36 1833,-30 1833,-24 1833,-24 1833,-12 1833,-12 1833,-6 1839,0 1845,0 1845,0 2006.5,0 2006.5,0 2012.5,0 2018.5,-6 2018.5,-12 2018.5,-12 2018.5,-24 2018.5,-24 2018.5,-30 2012.5,-36 2006.5,-36"/>
<text xml:space="preserve" text-anchor="middle" x="1925.75" y="-13.55" font-family="Helvetica,sans-Serif" font-size="11.00">initial_conditions_outward_shooting</text>
</g>
<!-- src_shooting_half_domain_wavefunction_outward_shooting&#45;&gt;src_shooting_initial_conditions_outward_shooting -->
<g id="edge31" class="edge">
<title>src_shooting_half_domain_wavefunction_outward_shooting&#45;&gt;src_shooting_initial_conditions_outward_shooting</title>
<path fill="none" stroke="#64748b" d="M1809.46,-71.52C1830.72,-61.92 1857.22,-49.95 1879.55,-39.86"/>
<polygon fill="#64748b" stroke="#64748b" points="1880.51,-42.12 1885.88,-37 1878.49,-37.65 1880.51,-42.12"/>
</g>
<!-- src_shooting_sample_boundary_mismatch_outward_shooting&#45;&gt;src_shooting_boundary_mismatch_outward_shooting -->
<g id="edge32" class="edge">
<title>src_shooting_sample_boundary_mismatch_outward_shooting&#45;&gt;src_shooting_boundary_mismatch_outward_shooting</title>
<path fill="none" stroke="#64748b" d="M1287.67,-215.52C1339.48,-205.33 1404.86,-192.47 1457.97,-182.03"/>
<polygon fill="#64748b" stroke="#64748b" points="1458.16,-184.49 1464.56,-180.73 1457.22,-179.68 1458.16,-184.49"/>
</g>
<!-- src_shooting_solve_state_from_bracket_outward_shooting -->
<g id="node28" class="node">
<title>src_shooting_solve_state_from_bracket_outward_shooting</title>
<path fill="#f8fafc" stroke="#334155" d="M1888,-324C1888,-324 1681.5,-324 1681.5,-324 1675.5,-324 1669.5,-318 1669.5,-312 1669.5,-312 1669.5,-300 1669.5,-300 1669.5,-294 1675.5,-288 1681.5,-288 1681.5,-288 1888,-288 1888,-288 1894,-288 1900,-294 1900,-300 1900,-300 1900,-312 1900,-312 1900,-318 1894,-324 1888,-324"/>
<text xml:space="preserve" text-anchor="middle" x="1784.75" y="-301.55" font-family="Helvetica,sans-Serif" font-size="11.00">solve_state_from_bracket_outward_shooting</text>
</g>
<!-- src_shooting_solve_state_from_bracket_outward_shooting&#45;&gt;src_numerov_normalize_wavefunction -->
<g id="edge33" class="edge">
<title>src_shooting_solve_state_from_bracket_outward_shooting&#45;&gt;src_numerov_normalize_wavefunction</title>
<path fill="none" stroke="#64748b" d="M1807.99,-287.7C1820.3,-278.53 1835.57,-267.16 1848.77,-257.33"/>
<polygon fill="#64748b" stroke="#64748b" points="1850.09,-259.4 1854.24,-253.25 1847.16,-255.47 1850.09,-259.4"/>
</g>
<!-- src_shooting_solve_state_from_bracket_outward_shooting&#45;&gt;src_shooting_bisect_energy_outward_shooting -->
<g id="edge34" class="edge">
<title>src_shooting_solve_state_from_bracket_outward_shooting&#45;&gt;src_shooting_bisect_energy_outward_shooting</title>
<path fill="none" stroke="#64748b" d="M1756.03,-287.52C1740.68,-278.18 1721.65,-266.59 1705.37,-256.68"/>
<polygon fill="#64748b" stroke="#64748b" points="1706.65,-254.59 1699.4,-253.05 1704.11,-258.78 1706.65,-254.59"/>
</g>
<!-- src_shooting_solve_state_from_bracket_outward_shooting&#45;&gt;src_shooting_build_full_wavefunction -->
<g id="edge35" class="edge">
<title>src_shooting_solve_state_from_bracket_outward_shooting&#45;&gt;src_shooting_build_full_wavefunction</title>
<path fill="none" stroke="#64748b" d="M1844.94,-287.52C1879.29,-277.54 1922.45,-265 1957.98,-254.68"/>
<polygon fill="#64748b" stroke="#64748b" points="1958.41,-257.11 1964.45,-252.8 1957.05,-252.4 1958.41,-257.11"/>
</g>
<!-- src_shooting_solve_state_from_bracket_outward_shooting&#45;&gt;src_shooting_half_domain_wavefunction_outward_shooting -->
<g id="edge36" class="edge">
<title>src_shooting_solve_state_from_bracket_outward_shooting&#45;&gt;src_shooting_half_domain_wavefunction_outward_shooting</title>
<path fill="none" stroke="#64748b" d="M1783.63,-287.85C1781.18,-250.36 1775.33,-160.95 1772.43,-116.7"/>
<polygon fill="#64748b" stroke="#64748b" points="1774.88,-116.57 1771.98,-109.74 1769.99,-116.89 1774.88,-116.57"/>
</g>
<!-- src_shooting_solve_symmetric_potential_outward_shooting&#45;&gt;src_shooting_find_brackets_outward_shooting -->
<g id="edge37" class="edge">
<title>src_shooting_solve_symmetric_potential_outward_shooting&#45;&gt;src_shooting_find_brackets_outward_shooting</title>
<path fill="none" stroke="#64748b" d="M1552.75,-359.7C1552.75,-351.47 1552.75,-341.48 1552.75,-332.42"/>
<polygon fill="#64748b" stroke="#64748b" points="1555.2,-332.62 1552.75,-325.62 1550.3,-332.62 1555.2,-332.62"/>
</g>
<!-- src_shooting_solve_symmetric_potential_outward_shooting&#45;&gt;src_shooting_solve_state_from_bracket_outward_shooting -->
<g id="edge38" class="edge">
<title>src_shooting_solve_symmetric_potential_outward_shooting&#45;&gt;src_shooting_solve_state_from_bracket_outward_shooting</title>
<path fill="none" stroke="#64748b" d="M1610.69,-359.52C1643.62,-349.58 1684.96,-337.11 1719.08,-326.81"/>
<polygon fill="#64748b" stroke="#64748b" points="1719.7,-329.19 1725.69,-324.82 1718.28,-324.5 1719.7,-329.19"/>
</g>
</g>
</svg>
