<?xml version="1.0" encoding="UTF-8" standalone="no"?>
<!DOCTYPE svg PUBLIC "-//W3C//DTD SVG 1.1//EN"
 "http://www.w3.org/Graphics/SVG/1.1/DTD/svg11.dtd">
<!-- Generated by graphviz version 14.1.5 (20260411.2331)
 -->
<!-- Title: G Pages: 1 -->
<svg width="2085pt" height="505pt"
 viewBox="0.00 0.00 2085.00 505.00" xmlns="http://www.w3.org/2000/svg" xmlns:xlink="http://www.w3.org/1999/xlink">
<g id="graph0" class="graph" transform="scale(1 1) rotate(0) translate(4 501)">
<title>G</title>
<polygon fill="white" stroke="none" points="-4,4 -4,-501 2081.37,-501 2081.37,4 -4,4"/>
<text xml:space="preserve" text-anchor="middle" x="147.88" y="-474" font-family="Helvetica,sans-Serif" font-size="20.00">Infinite Square Well Experiment</text>
<!-- src_analysis_convergence_vs_grid -->
<g id="node1" class="node">
<title>src_analysis_convergence_vs_grid</title>
<path fill="#f8fafc" stroke="#334155" d="M106.75,-396C106.75,-396 12.75,-396 12.75,-396 6.75,-396 0.75,-390 0.75,-384 0.75,-384 0.75,-372 0.75,-372 0.75,-366 6.75,-360 12.75,-360 12.75,-360 106.75,-360 106.75,-360 112.75,-360 118.75,-366 118.75,-372 118.75,-372 118.75,-384 118.75,-384 118.75,-390 112.75,-396 106.75,-396"/>
<text xml:space="preserve" text-anchor="middle" x="59.75" y="-373.55" font-family="Helvetica,sans-Serif" font-size="11.00">convergence_vs_grid</text>
</g>
<!-- src_analysis_energies_from_states -->
<g id="node2" class="node">
<title>src_analysis_energies_from_states</title>
<path fill="#f8fafc" stroke="#334155" d="M107.5,-324C107.5,-324 12,-324 12,-324 6,-324 0,-318 0,-312 0,-312 0,-300 0,-300 0,-294 6,-288 12,-288 12,-288 107.5,-288 107.5,-288 113.5,-288 119.5,-294 119.5,-300 119.5,-300 119.5,-312 119.5,-312 119.5,-318 113.5,-324 107.5,-324"/>
<text xml:space="preserve" text-anchor="middle" x="59.75" y="-301.55" font-family="Helvetica,sans-Serif" font-size="11.00">energies_from_states</text>
</g>
<!-- src_analysis_convergence_vs_grid&#45;&gt;src_analysis_energies_from_states -->
<g id="edge1" class="edge">
<title>src_analysis_convergence_vs_grid&#45;&gt;src_analysis_energies_from_states</title>
<path fill="none" stroke="#64748b" d="M59.75,-359.7C59.75,-351.47 59.75,-341.48 59.75,-332.42"/>
<polygon fill="#64748b" stroke="#64748b" points="62.2,-332.62 59.75,-325.62 57.3,-332.62 62.2,-332.62"/>
</g>
<!-- src_analysis_estimate_convergence_slopes -->
<g id="node3" class="node">
<title>src_analysis_estimate_convergence_slopes</title>
<path fill="#f8fafc" stroke="#334155" d="M285.12,-396C285.12,-396 148.38,-396 148.38,-396 142.38,-396 136.38,-390 136.38,-384 136.38,-384 136.38,-372 136.38,-372 136.38,-366 142.38,-360 148.38,-360 148.38,-360 285.12,-360 285.12,-360 291.12,-360 297.12,-366 297.12,-372 297.12,-372 297.12,-384 297.12,-384 297.12,-390 291.12,-396 285.12,-396"/>
<text xml:space="preserve" text-anchor="middle" x="216.75" y="-373.55" font-family="Helvetica,sans-Serif" font-size="11.00">estimate_convergence_slopes</text>
</g>
<!-- src_analysis_exact_square_well_energies -->
<g id="node4" class="node">
<title>src_analysis_exact_square_well_energies</title>
<path fill="#f8fafc" stroke="#334155" d="M456,-396C456,-396 327.5,-396 327.5,-396 321.5,-396 315.5,-390 315.5,-384 315.5,-384 315.5,-372 315.5,-372 315.5,-366 321.5,-360 327.5,-360 327.5,-360 456,-360 456,-360 462,-360 468,-366 468,-372 468,-372 468,-384 468,-384 468,-390 462,-396 456,-396"/>
<text xml:space="preserve" text-anchor="middle" x="391.75" y="-373.55" font-family="Helvetica,sans-Serif" font-size="11.00">exact_square_well_energies</text>
</g>
<!-- src_analysis_save_csv_rows -->
<g id="node5" class="node">
<title>src_analysis_save_csv_rows</title>
<path fill="#f8fafc" stroke="#334155" d="M563.5,-396C563.5,-396 498,-396 498,-396 492,-396 486,-390 486,-384 486,-384 486,-372 486,-372 486,-366 492,-360 498,-360 498,-360 563.5,-360 563.5,-360 569.5,-360 575.5,-366 575.5,-372 575.5,-372 575.5,-384 575.5,-384 575.5,-390 569.5,-396 563.5,-396"/>
<text xml:space="preserve" text-anchor="middle" x="530.75" y="-373.55" font-family="Helvetica,sans-Serif" font-size="11.00">save_csv_rows</text>
</g>
<!-- src_diagnostics__diagnostic_label_slug -->
<g id="node6" class="node">
<title>src_diagnostics__diagnostic_label_slug</title>
<path fill="#f8fafc" stroke="#334155" d="M733.75,-252C733.75,-252 633.75,-252 633.75,-252 627.75,-252 621.75,-246 621.75,-240 621.75,-240 621.75,-228 621.75,-228 621.75,-222 627.75,-216 633.75,-216 633.75,-216 733.75,-216 733.75,-216 739.75,-216 745.75,-222 745.75,-228 745.75,-228 745.75,-240 745.75,-240 745.75,-246 739.75,-252 733.75,-252"/>
<text xml:space="preserve" text-anchor="middle" x="683.75" y="-229.55" font-family="Helvetica,sans-Serif" font-size="11.00">_diagnostic_label_slug</text>
</g>
<!-- src_diagnostics__plot_outward_root_diagnostics -->
<g id="node7" class="node">
<title>src_diagnostics__plot_outward_root_diagnostics</title>
<path fill="#f8fafc" stroke="#334155" d="M932.88,-324C932.88,-324 788.62,-324 788.62,-324 782.62,-324 776.62,-318 776.62,-312 776.62,-312 776.62,-300 776.62,-300 776.62,-294 782.62,-288 788.62,-288 788.62,-288 932.88,-288 932.88,-288 938.88,-288 944.88,-294 944.88,-300 944.88,-300 944.88,-312 944.88,-312 944.88,-318 938.88,-324 932.88,-324"/>
<text xml:space="preserve" text-anchor="middle" x="860.75" y="-301.55" font-family="Helvetica,sans-Serif" font-size="11.00">_plot_outward_root_diagnostics</text>
</g>
<!-- src_diagnostics__plot_outward_root_diagnostics&#45;&gt;src_diagnostics__diagnostic_label_slug -->
<g id="edge2" class="edge">
<title>src_diagnostics__plot_outward_root_diagnostics&#45;&gt;src_diagnostics__diagnostic_label_slug</title>
<path fill="none" stroke="#64748b" d="M816.54,-287.52C791.95,-277.79 761.21,-265.64 735.51,-255.47"/>
<polygon fill="#64748b" stroke="#64748b" points="736.52,-253.23 729.11,-252.94 734.72,-257.79 736.52,-253.23"/>
</g>
<!-- src_plotting_plot_root_finding_diagnostic -->
<g id="node21" class="node">
<title>src_plotting_plot_root_finding_diagnostic</title>
<path fill="#f8fafc" stroke="#334155" d="M901.5,-252C901.5,-252 776,-252 776,-252 770,-252 764,-246 764,-240 764,-240 764,-228 764,-228 764,-222 770,-216 776,-216 776,-216 901.5,-216 901.5,-216 907.5,-216 913.5,-222 913.5,-228 913.5,-228 913.5,-240 913.5,-240 913.5,-246 907.5,-252 901.5,-252"/>
<text xml:space="preserve" text-anchor="middle" x="838.75" y="-229.55" font-family="Helvetica,sans-Serif" font-size="11.00">plot_root_finding_diagnostic</text>
</g>
<!-- src_diagnostics__plot_outward_root_diagnostics&#45;&gt;src_plotting_plot_root_finding_diagnostic -->
<g id="edge3" class="edge">
<title>src_diagnostics__plot_outward_root_diagnostics&#45;&gt;src_plotting_plot_root_finding_diagnostic</title>
<path fill="none" stroke="#64748b" d="M855.31,-287.7C852.7,-279.39 849.52,-269.28 846.65,-260.14"/>
<polygon fill="#64748b" stroke="#64748b" points="849.02,-259.49 844.58,-253.55 844.34,-260.96 849.02,-259.49"/>
</g>
<!-- src_plotting_plot_root_finding_zoom -->
<g id="node22" class="node">
<title>src_plotting_plot_root_finding_zoom</title>
<path fill="#f8fafc" stroke="#334155" d="M591.62,-252C591.62,-252 487.88,-252 487.88,-252 481.88,-252 475.88,-246 475.88,-240 475.88,-240 475.88,-228 475.88,-228 475.88,-222 481.88,-216 487.88,-216 487.88,-216 591.62,-216 591.62,-216 597.62,-216 603.62,-222 603.62,-228 603.62,-228 603.62,-240 603.62,-240 603.62,-246 597.62,-252 591.62,-252"/>
<text xml:space="preserve" text-anchor="middle" x="539.75" y="-229.55" font-family="Helvetica,sans-Serif" font-size="11.00">plot_root_finding_zoom</text>
</g>
<!-- src_diagnostics__plot_outward_root_diagnostics&#45;&gt;src_plotting_plot_root_finding_zoom -->
<g id="edge4" class="edge">
<title>src_diagnostics__plot_outward_root_diagnostics&#45;&gt;src_plotting_plot_root_finding_zoom</title>
<path fill="none" stroke="#64748b" d="M777.15,-287.53C729.02,-277.38 667.43,-264.21 612.75,-252 612.48,-251.94 612.2,-251.88 611.93,-251.82"/>
<polygon fill="#64748b" stroke="#64748b" points="612.67,-249.47 605.31,-250.32 611.6,-254.25 612.67,-249.47"/>
</g>
<!-- src_shooting_bisection_history_outward_shooting -->
<g id="node25" class="node">
<title>src_shooting_bisection_history_outward_shooting</title>
<path fill="#f8fafc" stroke="#334155" d="M1106.25,-252C1106.25,-252 943.25,-252 943.25,-252 937.25,-252 931.25,-246 931.25,-240 931.25,-240 931.25,-228 931.25,-228 931.25,-222 937.25,-216 943.25,-216 943.25,-216 1106.25,-216 1106.25,-216 1112.25,-216 1118.25,-222 1118.25,-228 1118.25,-228 1118.25,-240 1118.25,-240 1118.25,-246 1112.25,-252 1106.25,-252"/>
<text xml:space="preserve" text-anchor="middle" x="1024.75" y="-229.55" font-family="Helvetica,sans-Serif" font-size="11.00">bisection_history_outward_shooting</text>
</g>
<!-- src_diagnostics__plot_outward_root_diagnostics&#45;&gt;src_shooting_bisection_history_outward_shooting -->
<g id="edge5" class="edge">
<title>src_diagnostics__plot_outward_root_diagnostics&#45;&gt;src_shooting_bisection_history_outward_shooting</title>
<path fill="none" stroke="#64748b" d="M901.71,-287.52C924.4,-277.83 952.73,-265.74 976.49,-255.6"/>
<polygon fill="#64748b" stroke="#64748b" points="977.16,-257.98 982.64,-252.98 975.24,-253.47 977.16,-257.98"/>
</g>
<!-- src_shooting_find_brackets_outward_shooting -->
<g id="node29" class="node">
<title>src_shooting_find_brackets_outward_shooting</title>
<path fill="#f8fafc" stroke="#334155" d="M1558.38,-252C1558.38,-252 1411.12,-252 1411.12,-252 1405.12,-252 1399.12,-246 1399.12,-240 1399.12,-240 1399.12,-228 1399.12,-228 1399.12,-222 1405.12,-216 1411.12,-216 1411.12,-216 1558.38,-216 1558.38,-216 1564.38,-216 1570.38,-222 1570.38,-228 1570.38,-228 1570.38,-240 1570.38,-240 1570.38,-246 1564.38,-252 1558.38,-252"/>
<text xml:space="preserve" text-anchor="middle" x="1484.75" y="-229.55" font-family="Helvetica,sans-Serif" font-size="11.00">find_brackets_outward_shooting</text>
</g>
<!-- src_diagnostics__plot_outward_root_diagnostics&#45;&gt;src_shooting_find_brackets_outward_shooting -->
<g id="edge6" class="edge">
<title>src_diagnostics__plot_outward_root_diagnostics&#45;&gt;src_shooting_find_brackets_outward_shooting</title>
<path fill="none" stroke="#64748b" d="M945.24,-289.32C948.45,-288.85 951.63,-288.41 954.75,-288 1147.09,-262.71 1197.39,-277.11 1389.75,-252 1390.03,-251.96 1390.31,-251.93 1390.59,-251.89"/>
<polygon fill="#64748b" stroke="#64748b" points="1390.75,-254.34 1397.35,-250.95 1390.08,-249.49 1390.75,-254.34"/>
</g>
<!-- src_shooting_sample_boundary_mismatch_outward_shooting -->
<g id="node32" class="node">
<title>src_shooting_sample_boundary_mismatch_outward_shooting</title>
<path fill="#f8fafc" stroke="#334155" d="M1369.12,-252C1369.12,-252 1148.38,-252 1148.38,-252 1142.38,-252 1136.38,-246 1136.38,-240 1136.38,-240 1136.38,-228 1136.38,-228 1136.38,-222 1142.38,-216 1148.38,-216 1148.38,-216 1369.12,-216 1369.12,-216 1375.12,-216 1381.12,-222 1381.12,-228 1381.12,-228 1381.12,-240 1381.12,-240 1381.12,-246 1375.12,-252 1369.12,-252"/>
<text xml:space="preserve" text-anchor="middle" x="1258.75" y="-229.55" font-family="Helvetica,sans-Serif" font-size="11.00">sample_boundary_mismatch_outward_shooting</text>
</g>
<!-- src_diagnostics__plot_outward_root_diagnostics&#45;&gt;src_shooting_sample_boundary_mismatch_outward_shooting -->
<g id="edge7" class="edge">
<title>src_diagnostics__plot_outward_root_diagnostics&#45;&gt;src_shooting_sample_boundary_mismatch_outward_shooting</title>
<path fill="none" stroke="#64748b" d="M945.3,-289.68C948.49,-289.11 951.65,-288.55 954.75,-288 1019.36,-276.53 1091.74,-263.9 1149.66,-253.85"/>
<polygon fill="#64748b" stroke="#64748b" points="1149.77,-256.32 1156.24,-252.71 1148.93,-251.49 1149.77,-256.32"/>
</g>
<!-- src_diagnostics_plot_infinite_well_root_diagnostics -->
<g id="node8" class="node">
<title>src_diagnostics_plot_infinite_well_root_diagnostics</title>
<path fill="#f8fafc" stroke="#334155" d="M938.12,-396C938.12,-396 783.38,-396 783.38,-396 777.38,-396 771.38,-390 771.38,-384 771.38,-384 771.38,-372 771.38,-372 771.38,-366 777.38,-360 783.38,-360 783.38,-360 938.12,-360 938.12,-360 944.12,-360 950.12,-366 950.12,-372 950.12,-372 950.12,-384 950.12,-384 950.12,-390 944.12,-396 938.12,-396"/>
<text xml:space="preserve" text-anchor="middle" x="860.75" y="-373.55" font-family="Helvetica,sans-Serif" font-size="11.00">plot_infinite_well_root_diagnostics</text>
</g>
<!-- src_diagnostics_plot_infinite_well_root_diagnostics&#45;&gt;src_diagnostics__plot_outward_root_diagnostics -->
<g id="edge8" class="edge">
<title>src_diagnostics_plot_infinite_well_root_diagnostics&#45;&gt;src_diagnostics__plot_outward_root_diagnostics</title>
<path fill="none" stroke="#64748b" d="M860.75,-359.7C860.75,-351.47 860.75,-341.48 860.75,-332.42"/>
<polygon fill="#64748b" stroke="#64748b" points="863.2,-332.62 860.75,-325.62 858.3,-332.62 863.2,-332.62"/>
</g>
<!-- src_potentials_infinite_square_well_numeric -->
<g id="node23" class="node">
<title>src_potentials_infinite_square_well_numeric</title>
<path fill="#f8fafc" stroke="#334155" d="M1106.12,-324C1106.12,-324 975.38,-324 975.38,-324 969.38,-324 963.38,-318 963.38,-312 963.38,-312 963.38,-300 963.38,-300 963.38,-294 969.38,-288 975.38,-288 975.38,-288 1106.12,-288 1106.12,-288 1112.12,-288 1118.12,-294 1118.12,-300 1118.12,-300 1118.12,-312 1118.12,-312 1118.12,-318 1112.12,-324 1106.12,-324"/>
<text xml:space="preserve" text-anchor="middle" x="1040.75" y="-301.55" font-family="Helvetica,sans-Serif" font-size="11.00">infinite_square_well_numeric</text>
</g>
<!-- src_diagnostics_plot_infinite_well_root_diagnostics&#45;&gt;src_potentials_infinite_square_well_numeric -->
<g id="edge9" class="edge">
<title>src_diagnostics_plot_infinite_well_root_diagnostics&#45;&gt;src_potentials_infinite_square_well_numeric</title>
<path fill="none" stroke="#64748b" d="M905.71,-359.52C930.82,-349.75 962.24,-337.53 988.46,-327.34"/>
<polygon fill="#64748b" stroke="#64748b" points="989.01,-329.75 994.64,-324.93 987.23,-325.18 989.01,-329.75"/>
</g>
<!-- src_experiments__experiment_results_dir -->
<g id="node9" class="node">
<title>src_experiments__experiment_results_dir</title>
<path fill="#f8fafc" stroke="#334155" d="M1408.12,-396C1408.12,-396 1301.38,-396 1301.38,-396 1295.38,-396 1289.38,-390 1289.38,-384 1289.38,-384 1289.38,-372 1289.38,-372 1289.38,-366 1295.38,-360 1301.38,-360 1301.38,-360 1408.12,-360 1408.12,-360 1414.12,-360 1420.12,-366 1420.12,-372 1420.12,-372 1420.12,-384 1420.12,-384 1420.12,-390 1414.12,-396 1408.12,-396"/>
<text xml:space="preserve" text-anchor="middle" x="1354.75" y="-373.55" font-family="Helvetica,sans-Serif" font-size="11.00">_experiment_results_dir</text>
</g>
<!-- src_experiments_run_square_well -->
<g id="node10" class="node">
<title>src_experiments_run_square_well</title>
<path fill="#f8fafc" stroke="#334155" d="M696.5,-468C696.5,-468 625,-468 625,-468 619,-468 613,-462 613,-456 613,-456 613,-444 613,-444 613,-438 619,-432 625,-432 625,-432 696.5,-432 696.5,-432 702.5,-432 708.5,-438 708.5,-444 708.5,-444 708.5,-456 708.5,-456 708.5,-462 702.5,-468 696.5,-468"/>
<text xml:space="preserve" text-anchor="middle" x="660.75" y="-445.55" font-family="Helvetica,sans-Serif" font-size="11.00">run_square_well</text>
</g>
<!-- src_experiments_run_square_well&#45;&gt;src_analysis_convergence_vs_grid -->
<g id="edge10" class="edge">
<title>src_experiments_run_square_well&#45;&gt;src_analysis_convergence_vs_grid</title>
<path fill="none" stroke="#64748b" d="M612.65,-446.57C518.83,-441.32 305.03,-426.8 127.75,-396 127.57,-395.97 127.39,-395.94 127.21,-395.91"/>
<polygon fill="#64748b" stroke="#64748b" points="127.8,-393.52 120.47,-394.63 126.89,-398.34 127.8,-393.52"/>
</g>
<!-- src_experiments_run_square_well&#45;&gt;src_analysis_estimate_convergence_slopes -->
<g id="edge11" class="edge">
<title>src_experiments_run_square_well&#45;&gt;src_analysis_estimate_convergence_slopes</title>
<path fill="none" stroke="#64748b" d="M612.56,-442.38C544.36,-432.87 415.81,-414.46 306.75,-396 306.36,-395.93 305.97,-395.87 305.57,-395.8"/>
<polygon fill="#64748b" stroke="#64748b" points="306,-393.39 298.68,-394.61 305.17,-398.22 306,-393.39"/>
</g>
<!-- src_experiments_run_square_well&#45;&gt;src_analysis_exact_square_well_energies -->
<g id="edge12" class="edge">
<title>src_experiments_run_square_well&#45;&gt;src_analysis_exact_square_well_energies</title>
<path fill="none" stroke="#64748b" d="M612.66,-436.49C572.16,-425.95 513.53,-410.69 466.85,-398.54"/>
<polygon fill="#64748b" stroke="#64748b" points="467.73,-396.24 460.34,-396.85 466.5,-400.98 467.73,-396.24"/>
</g>
<!-- src_experiments_run_square_well&#45;&gt;src_analysis_save_csv_rows -->
<g id="edge13" class="edge">
<title>src_experiments_run_square_well&#45;&gt;src_analysis_save_csv_rows</title>
<path fill="none" stroke="#64748b" d="M628.28,-431.52C610.62,-422.01 588.64,-410.17 570.02,-400.15"/>
<polygon fill="#64748b" stroke="#64748b" points="571.46,-398.14 564.14,-396.98 569.14,-402.45 571.46,-398.14"/>
</g>
<!-- src_experiments_run_square_well&#45;&gt;src_diagnostics_plot_infinite_well_root_diagnostics -->
<g id="edge14" class="edge">
<title>src_experiments_run_square_well&#45;&gt;src_diagnostics_plot_infinite_well_root_diagnostics</title>
<path fill="none" stroke="#64748b" d="M708.91,-432.14C737.24,-422.23 773.24,-409.63 803.08,-399.19"/>
<polygon fill="#64748b" stroke="#64748b" points="803.69,-401.57 809.49,-396.94 802.07,-396.94 803.69,-401.57"/>
</g>
<!-- src_experiments_run_square_well&#45;&gt;src_experiments__experiment_results_dir -->
<g id="edge15" class="edge">
<title>src_experiments_run_square_well&#45;&gt;src_experiments__experiment_results_dir</title>
<path fill="none" stroke="#64748b" d="M708.87,-447.19C812.14,-442.81 1062.7,-429.52 1280.68,-395.9"/>
<polygon fill="#64748b" stroke="#64748b" points="1281.04,-398.32 1287.58,-394.82 1280.29,-393.48 1281.04,-398.32"/>
</g>
<!-- src_plotting_plot_energy_comparison -->
<g id="node17" class="node">
<title>src_plotting_plot_energy_comparison</title>
<path fill="#f8fafc" stroke="#334155" d="M323.62,-324C323.62,-324 213.88,-324 213.88,-324 207.88,-324 201.88,-318 201.88,-312 201.88,-312 201.88,-300 201.88,-300 201.88,-294 207.88,-288 213.88,-288 213.88,-288 323.62,-288 323.62,-288 329.62,-288 335.62,-294 335.62,-300 335.62,-300 335.62,-312 335.62,-312 335.62,-318 329.62,-324 323.62,-324"/>
<text xml:space="preserve" text-anchor="middle" x="268.75" y="-301.55" font-family="Helvetica,sans-Serif" font-size="11.00">plot_energy_comparison</text>
</g>
<!-- src_experiments_run_square_well&#45;&gt;src_plotting_plot_energy_comparison -->
<g id="edge16" class="edge">
<title>src_experiments_run_square_well&#45;&gt;src_plotting_plot_energy_comparison</title>
<path fill="none" stroke="#64748b" d="M646.38,-431.55C625.5,-406.28 588.79,-362.24 584.75,-360 490.43,-307.68 450.78,-343.78 344.75,-324 344.48,-323.95 344.2,-323.9 343.93,-323.85"/>
<polygon fill="#64748b" stroke="#64748b" points="344.66,-321.49 337.32,-322.57 343.73,-326.3 344.66,-321.49"/>
</g>
<!-- src_plotting_plot_error_curve -->
<g id="node18" class="node">
<title>src_plotting_plot_error_curve</title>
<path fill="#f8fafc" stroke="#334155" d="M436.12,-324C436.12,-324 365.38,-324 365.38,-324 359.38,-324 353.38,-318 353.38,-312 353.38,-312 353.38,-300 353.38,-300 353.38,-294 359.38,-288 365.38,-288 365.38,-288 436.12,-288 436.12,-288 442.12,-288 448.12,-294 448.12,-300 448.12,-300 448.12,-312 448.12,-312 448.12,-318 442.12,-324 436.12,-324"/>
<text xml:space="preserve" text-anchor="middle" x="400.75" y="-301.55" font-family="Helvetica,sans-Serif" font-size="11.00">plot_error_curve</text>
</g>
<!-- src_experiments_run_square_well&#45;&gt;src_plotting_plot_error_curve -->
<g id="edge17" class="edge">
<title>src_experiments_run_square_well&#45;&gt;src_plotting_plot_error_curve</title>
<path fill="none" stroke="#64748b" d="M657.19,-431.76C652.06,-411.43 640.6,-378.14 617.75,-360 560.66,-314.68 528.27,-342.43 457.75,-324 457.38,-323.9 457,-323.8 456.62,-323.7"/>
<polygon fill="#64748b" stroke="#64748b" points="457.44,-321.39 450.04,-321.92 456.15,-326.12 457.44,-321.39"/>
</g>
<!-- src_plotting_plot_potential_and_states -->
<g id="node19" class="node">
<title>src_plotting_plot_potential_and_states</title>
<path fill="#f8fafc" stroke="#334155" d="M592.88,-324C592.88,-324 478.62,-324 478.62,-324 472.62,-324 466.62,-318 466.62,-312 466.62,-312 466.62,-300 466.62,-300 466.62,-294 472.62,-288 478.62,-288 478.62,-288 592.88,-288 592.88,-288 598.88,-288 604.88,-294 604.88,-300 604.88,-300 604.88,-312 604.88,-312 604.88,-318 598.88,-324 592.88,-324"/>
<text xml:space="preserve" text-anchor="middle" x="535.75" y="-301.55" font-family="Helvetica,sans-Serif" font-size="11.00">plot_potential_and_states</text>
</g>
<!-- src_experiments_run_square_well&#45;&gt;src_plotting_plot_potential_and_states -->
<g id="edge18" class="edge">
<title>src_experiments_run_square_well&#45;&gt;src_plotting_plot_potential_and_states</title>
<path fill="none" stroke="#64748b" d="M664.75,-431.57C668.13,-412.27 670.37,-381.12 655.75,-360 645.3,-344.9 629.52,-334.05 612.81,-326.28"/>
<polygon fill="#64748b" stroke="#64748b" points="613.87,-324.07 606.47,-323.52 611.91,-328.56 613.87,-324.07"/>
</g>
<!-- src_plotting_plot_probability_densities -->
<g id="node20" class="node">
<title>src_plotting_plot_probability_densities</title>
<path fill="#f8fafc" stroke="#334155" d="M746.75,-324C746.75,-324 634.75,-324 634.75,-324 628.75,-324 622.75,-318 622.75,-312 622.75,-312 622.75,-300 622.75,-300 622.75,-294 628.75,-288 634.75,-288 634.75,-288 746.75,-288 746.75,-288 752.75,-288 758.75,-294 758.75,-300 758.75,-300 758.75,-312 758.75,-312 758.75,-318 752.75,-324 746.75,-324"/>
<text xml:space="preserve" text-anchor="middle" x="690.75" y="-301.55" font-family="Helvetica,sans-Serif" font-size="11.00">plot_probability_densities</text>
</g>
<!-- src_experiments_run_square_well&#45;&gt;src_plotting_plot_probability_densities -->
<g id="edge19" class="edge">
<title>src_experiments_run_square_well&#45;&gt;src_plotting_plot_probability_densities</title>
<path fill="none" stroke="#64748b" d="M675.08,-431.57C682.2,-421.76 690.06,-408.92 693.75,-396 699.67,-375.31 698.26,-350.8 695.75,-332.75"/>
<polygon fill="#64748b" stroke="#64748b" points="698.19,-332.48 694.68,-325.94 693.34,-333.24 698.19,-332.48"/>
</g>
<!-- src_experiments_run_square_well&#45;&gt;src_potentials_infinite_square_well_numeric -->
<g id="edge20" class="edge">
<title>src_experiments_run_square_well&#45;&gt;src_potentials_infinite_square_well_numeric</title>
<path fill="none" stroke="#64748b" d="M708.74,-449.68C770.34,-448.58 878.79,-439.8 958.75,-396 986.94,-380.56 1010.71,-351.8 1025.29,-331.14"/>
<polygon fill="#64748b" stroke="#64748b" points="1027.25,-332.61 1029.2,-325.46 1023.21,-329.84 1027.25,-332.61"/>
</g>
<!-- src_shooting_solve_symmetric_potential_outward_shooting -->
<g id="node34" class="node">
<title>src_shooting_solve_symmetric_potential_outward_shooting</title>
<path fill="#f8fafc" stroke="#334155" d="M1259.5,-396C1259.5,-396 1050,-396 1050,-396 1044,-396 1038,-390 1038,-384 1038,-384 1038,-372 1038,-372 1038,-366 1044,-360 1050,-360 1050,-360 1259.5,-360 1259.5,-360 1265.5,-360 1271.5,-366 1271.5,-372 1271.5,-372 1271.5,-384 1271.5,-384 1271.5,-390 1265.5,-396 1259.5,-396"/>
<text xml:space="preserve" text-anchor="middle" x="1154.75" y="-373.55" font-family="Helvetica,sans-Serif" font-size="11.00">solve_symmetric_potential_outward_shooting</text>
</g>
<!-- src_experiments_run_square_well&#45;&gt;src_shooting_solve_symmetric_potential_outward_shooting -->
<g id="edge21" class="edge">
<title>src_experiments_run_square_well&#45;&gt;src_shooting_solve_symmetric_potential_outward_shooting</title>
<path fill="none" stroke="#64748b" d="M708.57,-442.22C781.94,-431.83 924.77,-411.59 1029.13,-396.8"/>
<polygon fill="#64748b" stroke="#64748b" points="1029.43,-399.23 1036.02,-395.82 1028.74,-394.38 1029.43,-399.23"/>
</g>
<!-- src_numerov_derivative_at_right_edge -->
<g id="node11" class="node">
<title>src_numerov_derivative_at_right_edge</title>
<path fill="#f8fafc" stroke="#334155" d="M1639.62,-108C1639.62,-108 1529.88,-108 1529.88,-108 1523.88,-108 1517.88,-102 1517.88,-96 1517.88,-96 1517.88,-84 1517.88,-84 1517.88,-78 1523.88,-72 1529.88,-72 1529.88,-72 1639.62,-72 1639.62,-72 1645.62,-72 1651.62,-78 1651.62,-84 1651.62,-84 1651.62,-96 1651.62,-96 1651.62,-102 1645.62,-108 1639.62,-108"/>
<text xml:space="preserve" text-anchor="middle" x="1584.75" y="-85.55" font-family="Helvetica,sans-Serif" font-size="11.00">derivative_at_right_edge</text>
</g>
<!-- src_numerov_normalize_wavefunction -->
<g id="node12" class="node">
<title>src_numerov_normalize_wavefunction</title>
<path fill="#f8fafc" stroke="#334155" d="M1900.5,-252C1900.5,-252 1793,-252 1793,-252 1787,-252 1781,-246 1781,-240 1781,-240 1781,-228 1781,-228 1781,-222 1787,-216 1793,-216 1793,-216 1900.5,-216 1900.5,-216 1906.5,-216 1912.5,-222 1912.5,-228 1912.5,-228 1912.5,-240 1912.5,-240 1912.5,-246 1906.5,-252 1900.5,-252"/>
<text xml:space="preserve" text-anchor="middle" x="1846.75" y="-229.55" font-family="Helvetica,sans-Serif" font-size="11.00">normalize_wavefunction</text>
</g>
<!-- src_numerov_numerov_march -->
<g id="node13" class="node">
<title>src_numerov_numerov_march</title>
<path fill="#f8fafc" stroke="#334155" d="M1308.75,-36C1308.75,-36 1238.75,-36 1238.75,-36 1232.75,-36 1226.75,-30 1226.75,-24 1226.75,-24 1226.75,-12 1226.75,-12 1226.75,-6 1232.75,0 1238.75,0 1238.75,0 1308.75,0 1308.75,0 1314.75,0 1320.75,-6 1320.75,-12 1320.75,-12 1320.75,-24 1320.75,-24 1320.75,-30 1314.75,-36 1308.75,-36"/>
<text xml:space="preserve" text-anchor="middle" x="1273.75" y="-13.55" font-family="Helvetica,sans-Serif" font-size="11.00">numerov_march</text>
</g>
<!-- src_numerov_q_from_energy -->
<g id="node14" class="node">
<title>src_numerov_q_from_energy</title>
<path fill="#f8fafc" stroke="#334155" d="M1415.12,-36C1415.12,-36 1350.38,-36 1350.38,-36 1344.38,-36 1338.38,-30 1338.38,-24 1338.38,-24 1338.38,-12 1338.38,-12 1338.38,-6 1344.38,0 1350.38,0 1350.38,0 1415.12,0 1415.12,0 1421.12,0 1427.12,-6 1427.12,-12 1427.12,-12 1427.12,-24 1427.12,-24 1427.12,-30 1421.12,-36 1415.12,-36"/>
<text xml:space="preserve" text-anchor="middle" x="1382.75" y="-13.55" font-family="Helvetica,sans-Serif" font-size="11.00">q_from_energy</text>
</g>
<!-- src_plotting__ensure_parent -->
<g id="node15" class="node">
<title>src_plotting__ensure_parent</title>
<path fill="#f8fafc" stroke="#334155" d="M466.62,-180C466.62,-180 398.88,-180 398.88,-180 392.88,-180 386.88,-174 386.88,-168 386.88,-168 386.88,-156 386.88,-156 386.88,-150 392.88,-144 398.88,-144 398.88,-144 466.62,-144 466.62,-144 472.62,-144 478.62,-150 478.62,-156 478.62,-156 478.62,-168 478.62,-168 478.62,-174 472.62,-180 466.62,-180"/>
<text xml:space="preserve" text-anchor="middle" x="432.75" y="-157.55" font-family="Helvetica,sans-Serif" font-size="11.00">_ensure_parent</text>
</g>
<!-- src_plotting__symlog_linthresh -->
<g id="node16" class="node">
<title>src_plotting__symlog_linthresh</title>
<path fill="#f8fafc" stroke="#334155" d="M593.88,-180C593.88,-180 515.62,-180 515.62,-180 509.62,-180 503.62,-174 503.62,-168 503.62,-168 503.62,-156 503.62,-156 503.62,-150 509.62,-144 515.62,-144 515.62,-144 593.88,-144 593.88,-144 599.88,-144 605.88,-150 605.88,-156 605.88,-156 605.88,-168 605.88,-168 605.88,-174 599.88,-180 593.88,-180"/>
<text xml:space="preserve" text-anchor="middle" x="554.75" y="-157.55" font-family="Helvetica,sans-Serif" font-size="11.00">_symlog_linthresh</text>
</g>
<!-- src_plotting_plot_energy_comparison&#45;&gt;src_plotting__ensure_parent -->
<g id="edge22" class="edge">
<title>src_plotting_plot_energy_comparison&#45;&gt;src_plotting__ensure_parent</title>
<path fill="none" stroke="#64748b" d="M288.86,-287.59C318.45,-261.97 373.74,-214.09 406.5,-185.73"/>
<polygon fill="#64748b" stroke="#64748b" points="407.9,-187.76 411.59,-181.32 404.69,-184.05 407.9,-187.76"/>
</g>
<!-- src_plotting_plot_error_curve&#45;&gt;src_plotting__ensure_parent -->
<g id="edge23" class="edge">
<title>src_plotting_plot_error_curve&#45;&gt;src_plotting__ensure_parent</title>
<path fill="none" stroke="#64748b" d="M396.25,-287.82C392.28,-269.57 388.18,-240.06 395.75,-216 399.04,-205.53 405.23,-195.32 411.61,-186.7"/>
<polygon fill="#64748b" stroke="#64748b" points="413.41,-188.37 415.78,-181.35 409.54,-185.36 413.41,-188.37"/>
</g>
<!-- src_plotting_plot_potential_and_states&#45;&gt;src_plotting__ensure_parent -->
<g id="edge24" class="edge">
<title>src_plotting_plot_potential_and_states&#45;&gt;src_plotting__ensure_parent</title>
<path fill="none" stroke="#64748b" d="M476.98,-287.51C460.11,-279.49 443.63,-268.06 433.75,-252 422.1,-233.05 423.23,-207.27 426.46,-188.33"/>
<polygon fill="#64748b" stroke="#64748b" points="428.83,-188.99 427.76,-181.65 424.02,-188.05 428.83,-188.99"/>
</g>
<!-- src_plotting_plot_probability_densities&#45;&gt;src_plotting__ensure_parent -->
<g id="edge25" class="edge">
<title>src_plotting_plot_probability_densities&#45;&gt;src_plotting__ensure_parent</title>
<path fill="none" stroke="#64748b" d="M622.35,-289.62C557.59,-274.93 469.78,-254.65 466.75,-252 448.35,-235.89 439.86,-208.69 435.97,-188.6"/>
<polygon fill="#64748b" stroke="#64748b" points="438.43,-188.44 434.83,-181.96 433.6,-189.28 438.43,-188.44"/>
</g>
<!-- src_plotting_plot_root_finding_diagnostic&#45;&gt;src_plotting__ensure_parent -->
<g id="edge26" class="edge">
<title>src_plotting_plot_root_finding_diagnostic&#45;&gt;src_plotting__ensure_parent</title>
<path fill="none" stroke="#64748b" d="M763.69,-217.57C760.67,-217.02 757.68,-216.5 754.75,-216 639.75,-196.42 609.02,-203.47 494.75,-180 492.18,-179.47 489.56,-178.9 486.92,-178.29"/>
<polygon fill="#64748b" stroke="#64748b" points="487.82,-175.99 480.44,-176.73 486.68,-180.75 487.82,-175.99"/>
</g>
<!-- src_plotting_plot_root_finding_diagnostic&#45;&gt;src_plotting__symlog_linthresh -->
<g id="edge27" class="edge">
<title>src_plotting_plot_root_finding_diagnostic&#45;&gt;src_plotting__symlog_linthresh</title>
<path fill="none" stroke="#64748b" d="M767.82,-215.52C720.49,-203.85 658.97,-188.69 614.21,-177.66"/>
<polygon fill="#64748b" stroke="#64748b" points="614.91,-175.3 607.52,-176.01 613.73,-180.06 614.91,-175.3"/>
</g>
<!-- src_plotting_plot_root_finding_zoom&#45;&gt;src_plotting__ensure_parent -->
<g id="edge28" class="edge">
<title>src_plotting_plot_root_finding_zoom&#45;&gt;src_plotting__ensure_parent</title>
<path fill="none" stroke="#64748b" d="M513.03,-215.52C498.75,-206.18 481.04,-194.59 465.89,-184.68"/>
<polygon fill="#64748b" stroke="#64748b" points="467.6,-182.87 460.4,-181.09 464.92,-186.97 467.6,-182.87"/>
</g>
<!-- src_plotting_plot_root_finding_zoom&#45;&gt;src_plotting__symlog_linthresh -->
<g id="edge29" class="edge">
<title>src_plotting_plot_root_finding_zoom&#45;&gt;src_plotting__symlog_linthresh</title>
<path fill="none" stroke="#64748b" d="M543.46,-215.7C545.22,-207.47 547.36,-197.48 549.3,-188.42"/>
<polygon fill="#64748b" stroke="#64748b" points="551.7,-188.94 550.77,-181.58 546.91,-187.92 551.7,-188.94"/>
</g>
<!-- src_shooting_bisect_energy_outward_shooting -->
<g id="node24" class="node">
<title>src_shooting_bisect_energy_outward_shooting</title>
<path fill="#f8fafc" stroke="#334155" d="M1750.88,-252C1750.88,-252 1600.62,-252 1600.62,-252 1594.62,-252 1588.62,-246 1588.62,-240 1588.62,-240 1588.62,-228 1588.62,-228 1588.62,-222 1594.62,-216 1600.62,-216 1600.62,-216 1750.88,-216 1750.88,-216 1756.88,-216 1762.88,-222 1762.88,-228 1762.88,-228 1762.88,-240 1762.88,-240 1762.88,-246 1756.88,-252 1750.88,-252"/>
<text xml:space="preserve" text-anchor="middle" x="1675.75" y="-229.55" font-family="Helvetica,sans-Serif" font-size="11.00">bisect_energy_outward_shooting</text>
</g>
<!-- src_shooting_boundary_mismatch_outward_shooting -->
<g id="node26" class="node">
<title>src_shooting_boundary_mismatch_outward_shooting</title>
<path fill="#f8fafc" stroke="#334155" d="M1573.88,-180C1573.88,-180 1393.62,-180 1393.62,-180 1387.62,-180 1381.62,-174 1381.62,-168 1381.62,-168 1381.62,-156 1381.62,-156 1381.62,-150 1387.62,-144 1393.62,-144 1393.62,-144 1573.88,-144 1573.88,-144 1579.88,-144 1585.88,-150 1585.88,-156 1585.88,-156 1585.88,-168 1585.88,-168 1585.88,-174 1579.88,-180 1573.88,-180"/>
<text xml:space="preserve" text-anchor="middle" x="1483.75" y="-157.55" font-family="Helvetica,sans-Serif" font-size="11.00">boundary_mismatch_outward_shooting</text>
</g>
<!-- src_shooting_bisect_energy_outward_shooting&#45;&gt;src_shooting_boundary_mismatch_outward_shooting -->
<g id="edge30" class="edge">
<title>src_shooting_bisect_energy_outward_shooting&#45;&gt;src_shooting_boundary_mismatch_outward_shooting</title>
<path fill="none" stroke="#64748b" d="M1627.8,-215.52C1600.89,-205.71 1567.2,-193.43 1539.17,-183.21"/>
<polygon fill="#64748b" stroke="#64748b" points="1540.26,-181 1532.85,-180.9 1538.58,-185.6 1540.26,-181"/>
</g>
<!-- src_shooting_bisection_history_outward_shooting&#45;&gt;src_shooting_boundary_mismatch_outward_shooting -->
<g id="edge31" class="edge">
<title>src_shooting_bisection_history_outward_shooting&#45;&gt;src_shooting_boundary_mismatch_outward_shooting</title>
<path fill="none" stroke="#64748b" d="M1118.49,-217.46C1121.61,-216.96 1124.71,-216.48 1127.75,-216 1236.05,-199.07 1263.34,-196.23 1371.75,-180 1372.14,-179.94 1372.53,-179.88 1372.92,-179.82"/>
<polygon fill="#64748b" stroke="#64748b" points="1373.16,-182.27 1379.72,-178.81 1372.43,-177.42 1373.16,-182.27"/>
</g>
<!-- src_shooting_diagnostic_mismatch_outward_shooting -->
<g id="node28" class="node">
<title>src_shooting_diagnostic_mismatch_outward_shooting</title>
<path fill="#f8fafc" stroke="#334155" d="M1350.38,-180C1350.38,-180 1167.12,-180 1167.12,-180 1161.12,-180 1155.12,-174 1155.12,-168 1155.12,-168 1155.12,-156 1155.12,-156 1155.12,-150 1161.12,-144 1167.12,-144 1167.12,-144 1350.38,-144 1350.38,-144 1356.38,-144 1362.38,-150 1362.38,-156 1362.38,-156 1362.38,-168 1362.38,-168 1362.38,-174 1356.38,-180 1350.38,-180"/>
<text xml:space="preserve" text-anchor="middle" x="1258.75" y="-157.55" font-family="Helvetica,sans-Serif" font-size="11.00">diagnostic_mismatch_outward_shooting</text>
</g>
<!-- src_shooting_bisection_history_outward_shooting&#45;&gt;src_shooting_diagnostic_mismatch_outward_shooting -->
<g id="edge32" class="edge">
<title>src_shooting_bisection_history_outward_shooting&#45;&gt;src_shooting_diagnostic_mismatch_outward_shooting</title>
<path fill="none" stroke="#64748b" d="M1083.19,-215.52C1116.4,-205.58 1158.1,-193.11 1192.52,-182.81"/>
<polygon fill="#64748b" stroke="#64748b" points="1193.19,-185.17 1199.2,-180.82 1191.79,-180.47 1193.19,-185.17"/>
</g>
<!-- src_shooting_boundary_mismatch_outward_shooting&#45;&gt;src_numerov_derivative_at_right_edge -->
<g id="edge33" class="edge">
<title>src_shooting_boundary_mismatch_outward_shooting&#45;&gt;src_numerov_derivative_at_right_edge</title>
<path fill="none" stroke="#64748b" d="M1508.98,-143.52C1522.33,-134.26 1538.87,-122.8 1553.08,-112.95"/>
<polygon fill="#64748b" stroke="#64748b" points="1554.24,-115.12 1558.6,-109.12 1551.45,-111.1 1554.24,-115.12"/>
</g>
<!-- src_shooting_half_domain_wavefunction_outward_shooting -->
<g id="node30" class="node">
<title>src_shooting_half_domain_wavefunction_outward_shooting</title>
<path fill="#f8fafc" stroke="#334155" d="M1488.25,-108C1488.25,-108 1277.25,-108 1277.25,-108 1271.25,-108 1265.25,-102 1265.25,-96 1265.25,-96 1265.25,-84 1265.25,-84 1265.25,-78 1271.25,-72 1277.25,-72 1277.25,-72 1488.25,-72 1488.25,-72 1494.25,-72 1500.25,-78 1500.25,-84 1500.25,-84 1500.25,-96 1500.25,-96 1500.25,-102 1494.25,-108 1488.25,-108"/>
<text xml:space="preserve" text-anchor="middle" x="1382.75" y="-85.55" font-family="Helvetica,sans-Serif" font-size="11.00">half_domain_wavefunction_outward_shooting</text>
</g>
<!-- src_shooting_boundary_mismatch_outward_shooting&#45;&gt;src_shooting_half_domain_wavefunction_outward_shooting -->
<g id="edge34" class="edge">
<title>src_shooting_boundary_mismatch_outward_shooting&#45;&gt;src_shooting_half_domain_wavefunction_outward_shooting</title>
<path fill="none" stroke="#64748b" d="M1458.52,-143.52C1445.17,-134.26 1428.63,-122.8 1414.42,-112.95"/>
<polygon fill="#64748b" stroke="#64748b" points="1416.05,-111.1 1408.9,-109.12 1413.26,-115.12 1416.05,-111.1"/>
</g>
<!-- src_shooting_build_full_wavefunction -->
<g id="node27" class="node">
<title>src_shooting_build_full_wavefunction</title>
<path fill="#f8fafc" stroke="#334155" d="M2045.25,-252C2045.25,-252 1942.25,-252 1942.25,-252 1936.25,-252 1930.25,-246 1930.25,-240 1930.25,-240 1930.25,-228 1930.25,-228 1930.25,-222 1936.25,-216 1942.25,-216 1942.25,-216 2045.25,-216 2045.25,-216 2051.25,-216 2057.25,-222 2057.25,-228 2057.25,-228 2057.25,-240 2057.25,-240 2057.25,-246 2051.25,-252 2045.25,-252"/>
<text xml:space="preserve" text-anchor="middle" x="1993.75" y="-229.55" font-family="Helvetica,sans-Serif" font-size="11.00">build_full_wavefunction</text>
</g>
<!-- src_shooting_diagnostic_mismatch_outward_shooting&#45;&gt;src_shooting_half_domain_wavefunction_outward_shooting -->
<g id="edge35" class="edge">
<title>src_shooting_diagnostic_mismatch_outward_shooting&#45;&gt;src_shooting_half_domain_wavefunction_outward_shooting</title>
<path fill="none" stroke="#64748b" d="M1289.72,-143.52C1306.42,-134.09 1327.16,-122.38 1344.82,-112.41"/>
<polygon fill="#64748b" stroke="#64748b" points="1345.96,-114.58 1350.86,-109 1343.56,-110.31 1345.96,-114.58"/>
</g>
<!-- src_shooting_find_brackets_outward_shooting&#45;&gt;src_shooting_boundary_mismatch_outward_shooting -->
<g id="edge36" class="edge">
<title>src_shooting_find_brackets_outward_shooting&#45;&gt;src_shooting_boundary_mismatch_outward_shooting</title>
<path fill="none" stroke="#64748b" d="M1484.5,-215.7C1484.39,-207.47 1484.24,-197.48 1484.11,-188.42"/>
<polygon fill="#64748b" stroke="#64748b" points="1486.57,-188.58 1484.02,-181.62 1481.67,-188.65 1486.57,-188.58"/>
</g>
<!-- src_shooting_half_domain_wavefunction_outward_shooting&#45;&gt;src_numerov_numerov_march -->
<g id="edge37" class="edge">
<title>src_shooting_half_domain_wavefunction_outward_shooting&#45;&gt;src_numerov_numerov_march</title>
<path fill="none" stroke="#64748b" d="M1355.53,-71.52C1340.98,-62.18 1322.94,-50.59 1307.51,-40.68"/>
<polygon fill="#64748b" stroke="#64748b" points="1309.11,-38.8 1301.9,-37.08 1306.47,-42.92 1309.11,-38.8"/>
</g>
<!-- src_shooting_half_domain_wavefunction_outward_shooting&#45;&gt;src_numerov_q_from_energy -->
<g id="edge38" class="edge">
<title>src_shooting_half_domain_wavefunction_outward_shooting&#45;&gt;src_numerov_q_from_energy</title>
<path fill="none" stroke="#64748b" d="M1382.75,-71.7C1382.75,-63.47 1382.75,-53.48 1382.75,-44.42"/>
<polygon fill="#64748b" stroke="#64748b" points="1385.2,-44.62 1382.75,-37.62 1380.3,-44.62 1385.2,-44.62"/>
</g>
<!-- src_shooting_initial_conditions_outward_shooting -->
<g id="node31" class="node">
<title>src_shooting_initial_conditions_outward_shooting</title>
<path fill="#f8fafc" stroke="#334155" d="M1618.5,-36C1618.5,-36 1457,-36 1457,-36 1451,-36 1445,-30 1445,-24 1445,-24 1445,-12 1445,-12 1445,-6 1451,0 1457,0 1457,0 1618.5,0 1618.5,0 1624.5,0 1630.5,-6 1630.5,-12 1630.5,-12 1630.5,-24 1630.5,-24 1630.5,-30 1624.5,-36 1618.5,-36"/>
<text xml:space="preserve" text-anchor="middle" x="1537.75" y="-13.55" font-family="Helvetica,sans-Serif" font-size="11.00">initial_conditions_outward_shooting</text>
</g>
<!-- src_shooting_half_domain_wavefunction_outward_shooting&#45;&gt;src_shooting_initial_conditions_outward_shooting -->
<g id="edge39" class="edge">
<title>src_shooting_half_domain_wavefunction_outward_shooting&#45;&gt;src_shooting_initial_conditions_outward_shooting</title>
<path fill="none" stroke="#64748b" d="M1421.46,-71.52C1442.72,-61.92 1469.22,-49.95 1491.55,-39.86"/>
<polygon fill="#64748b" stroke="#64748b" points="1492.51,-42.12 1497.88,-37 1490.49,-37.65 1492.51,-42.12"/>
</g>
<!-- src_shooting_sample_boundary_mismatch_outward_shooting&#45;&gt;src_shooting_boundary_mismatch_outward_shooting -->
<g id="edge40" class="edge">
<title>src_shooting_sample_boundary_mismatch_outward_shooting&#45;&gt;src_shooting_boundary_mismatch_outward_shooting</title>
<path fill="none" stroke="#64748b" d="M1314.95,-215.52C1346.88,-205.58 1386.97,-193.11 1420.06,-182.81"/>
<polygon fill="#64748b" stroke="#64748b" points="1420.48,-185.25 1426.44,-180.83 1419.02,-180.57 1420.48,-185.25"/>
</g>
<!-- src_shooting_sample_boundary_mismatch_outward_shooting&#45;&gt;src_shooting_diagnostic_mismatch_outward_shooting -->
<g id="edge41" class="edge">
<title>src_shooting_sample_boundary_mismatch_outward_shooting&#45;&gt;src_shooting_diagnostic_mismatch_outward_shooting</title>
<path fill="none" stroke="#64748b" d="M1258.75,-215.7C1258.75,-207.47 1258.75,-197.48 1258.75,-188.42"/>
<polygon fill="#64748b" stroke="#64748b" points="1261.2,-188.62 1258.75,-181.62 1256.3,-188.62 1261.2,-188.62"/>
</g>
<!-- src_shooting_solve_state_from_bracket_outward_shooting -->
<g id="node33" class="node">
<title>src_shooting_solve_state_from_bracket_outward_shooting</title>
<path fill="#f8fafc" stroke="#334155" d="M1950,-324C1950,-324 1743.5,-324 1743.5,-324 1737.5,-324 1731.5,-318 1731.5,-312 1731.5,-312 1731.5,-300 1731.5,-300 1731.5,-294 1737.5,-288 1743.5,-288 1743.5,-288 1950,-288 1950,-288 1956,-288 1962,-294 1962,-300 1962,-300 1962,-312 1962,-312 1962,-318 1956,-324 1950,-324"/>
<text xml:space="preserve" text-anchor="middle" x="1846.75" y="-301.55" font-family="Helvetica,sans-Serif" font-size="11.00">solve_state_from_bracket_outward_shooting</text>
</g>
<!-- src_shooting_solve_state_from_bracket_outward_shooting&#45;&gt;src_numerov_normalize_wavefunction -->
<g id="edge42" class="edge">
<title>src_shooting_solve_state_from_bracket_outward_shooting&#45;&gt;src_numerov_normalize_wavefunction</title>
<path fill="none" stroke="#64748b" d="M1846.75,-287.7C1846.75,-279.47 1846.75,-269.48 1846.75,-260.42"/>
<polygon fill="#64748b" stroke="#64748b" points="1849.2,-260.62 1846.75,-253.62 1844.3,-260.62 1849.2,-260.62"/>
</g>
<!-- src_shooting_solve_state_from_bracket_outward_shooting&#45;&gt;src_shooting_bisect_energy_outward_shooting -->
<g id="edge43" class="edge">
<title>src_shooting_solve_state_from_bracket_outward_shooting&#45;&gt;src_shooting_bisect_energy_outward_shooting</title>
<path fill="none" stroke="#64748b" d="M1804.04,-287.52C1780.39,-277.83 1750.84,-265.74 1726.07,-255.6"/>
<polygon fill="#64748b" stroke="#64748b" points="1727.02,-253.34 1719.61,-252.96 1725.16,-257.87 1727.02,-253.34"/>
</g>
<!-- src_shooting_solve_state_from_bracket_outward_shooting&#45;&gt;src_shooting_build_full_wavefunction -->
<g id="edge44" class="edge">
<title>src_shooting_solve_state_from_bracket_outward_shooting&#45;&gt;src_shooting_build_full_wavefunction</title>
<path fill="none" stroke="#64748b" d="M1883.47,-287.52C1903.54,-277.96 1928.54,-266.05 1949.66,-256"/>
<polygon fill="#64748b" stroke="#64748b" points="1950.62,-258.25 1955.88,-253.03 1948.51,-253.83 1950.62,-258.25"/>
</g>
<!-- src_shooting_solve_state_from_bracket_outward_shooting&#45;&gt;src_shooting_half_domain_wavefunction_outward_shooting -->
<g id="edge45" class="edge">
<title>src_shooting_solve_state_from_bracket_outward_shooting&#45;&gt;src_shooting_half_domain_wavefunction_outward_shooting</title>
<path fill="none" stroke="#64748b" d="M1962.2,-294.33C2033.19,-283.17 2104.02,-260.7 2066.75,-216 2048.9,-194.59 1700.68,-139 1508.15,-109.7"/>
<polygon fill="#64748b" stroke="#64748b" points="1508.74,-107.31 1501.45,-108.68 1508,-112.15 1508.74,-107.31"/>
</g>
<!-- src_shooting_solve_symmetric_potential_outward_shooting&#45;&gt;src_shooting_find_brackets_outward_shooting -->
<g id="edge46" class="edge">
<title>src_shooting_solve_symmetric_potential_outward_shooting&#45;&gt;src_shooting_find_brackets_outward_shooting</title>
<path fill="none" stroke="#64748b" d="M1195.21,-359.59C1256.16,-333.36 1371.3,-283.82 1436.51,-255.76"/>
<polygon fill="#64748b" stroke="#64748b" points="1437.36,-258.06 1442.82,-253.04 1435.42,-253.56 1437.36,-258.06"/>
</g>
<!-- src_shooting_solve_symmetric_potential_outward_shooting&#45;&gt;src_shooting_solve_state_from_bracket_outward_shooting -->
<g id="edge47" class="edge">
<title>src_shooting_solve_symmetric_potential_outward_shooting&#45;&gt;src_shooting_solve_state_from_bracket_outward_shooting</title>
<path fill="none" stroke="#64748b" d="M1271.77,-361.05C1274.79,-360.69 1277.79,-360.34 1280.75,-360 1432.77,-342.63 1608.23,-326.87 1723,-317.13"/>
<polygon fill="#64748b" stroke="#64748b" points="1722.88,-319.6 1729.65,-316.56 1722.47,-314.71 1722.88,-319.6"/>
</g>
</g>
</svg>
