<?xml version="1.0" encoding="UTF-8" standalone="no"?>
<!DOCTYPE svg PUBLIC "-//W3C//DTD SVG 1.1//EN"
 "http://www.w3.org/Graphics/SVG/1.1/DTD/svg11.dtd">
<!-- Generated by graphviz version 14.1.5 (20260411.2331)
 -->
<!-- Title: G Pages: 1 -->
<svg width="2574pt" height="433pt"
 viewBox="0.00 0.00 2574.00 433.00" xmlns="http://www.w3.org/2000/svg" xmlns:xlink="http://www.w3.org/1999/xlink">
<g id="graph0" class="graph" transform="scale(1 1) rotate(0) translate(4 429)">
<title>G</title>
<polygon fill="white" stroke="none" points="-4,4 -4,-429 2570.38,-429 2570.38,4 -4,4"/>
<text xml:space="preserve" text-anchor="middle" x="155.38" y="-402" font-family="Helvetica,sans-Serif" font-size="20.00">Bound&#45;State and Scattering Core</text>
<!-- src_numerov_derivative_at_right_edge -->
<g id="node1" class="node">
<title>src_numerov_derivative_at_right_edge</title>
<path fill="#f8fafc" stroke="#334155" d="M955.38,-108C955.38,-108 845.62,-108 845.62,-108 839.62,-108 833.62,-102 833.62,-96 833.62,-96 833.62,-84 833.62,-84 833.62,-78 839.62,-72 845.62,-72 845.62,-72 955.38,-72 955.38,-72 961.38,-72 967.38,-78 967.38,-84 967.38,-84 967.38,-96 967.38,-96 967.38,-102 961.38,-108 955.38,-108"/>
<text xml:space="preserve" text-anchor="middle" x="900.5" y="-85.55" font-family="Helvetica,sans-Serif" font-size="11.00">derivative_at_right_edge</text>
</g>
<!-- src_numerov_normalize_wavefunction -->
<g id="node2" class="node">
<title>src_numerov_normalize_wavefunction</title>
<path fill="#f8fafc" stroke="#334155" d="M746.25,-252C746.25,-252 638.75,-252 638.75,-252 632.75,-252 626.75,-246 626.75,-240 626.75,-240 626.75,-228 626.75,-228 626.75,-222 632.75,-216 638.75,-216 638.75,-216 746.25,-216 746.25,-216 752.25,-216 758.25,-222 758.25,-228 758.25,-228 758.25,-240 758.25,-240 758.25,-246 752.25,-252 746.25,-252"/>
<text xml:space="preserve" text-anchor="middle" x="692.5" y="-229.55" font-family="Helvetica,sans-Serif" font-size="11.00">normalize_wavefunction</text>
</g>
<!-- src_numerov_numerov_outward -->
<g id="node3" class="node">
<title>src_numerov_numerov_outward</title>
<path fill="#f8fafc" stroke="#334155" d="M966,-36C966,-36 887,-36 887,-36 881,-36 875,-30 875,-24 875,-24 875,-12 875,-12 875,-6 881,0 887,0 887,0 966,0 966,0 972,0 978,-6 978,-12 978,-12 978,-24 978,-24 978,-30 972,-36 966,-36"/>
<text xml:space="preserve" text-anchor="middle" x="926.5" y="-13.55" font-family="Helvetica,sans-Serif" font-size="11.00">numerov_outward</text>
</g>
<!-- src_numerov_q_from_energy -->
<g id="node4" class="node">
<title>src_numerov_q_from_energy</title>
<path fill="#f8fafc" stroke="#334155" d="M1104.88,-36C1104.88,-36 1040.12,-36 1040.12,-36 1034.12,-36 1028.12,-30 1028.12,-24 1028.12,-24 1028.12,-12 1028.12,-12 1028.12,-6 1034.12,0 1040.12,0 1040.12,0 1104.88,0 1104.88,0 1110.88,0 1116.88,-6 1116.88,-12 1116.88,-12 1116.88,-24 1116.88,-24 1116.88,-30 1110.88,-36 1104.88,-36"/>
<text xml:space="preserve" text-anchor="middle" x="1072.5" y="-13.55" font-family="Helvetica,sans-Serif" font-size="11.00">q_from_energy</text>
</g>
<!-- src_rk4_compare_RK4_bisect_energy -->
<g id="node5" class="node">
<title>src_rk4_compare_RK4_bisect_energy</title>
<path fill="#f8fafc" stroke="#334155" d="M2165.75,-252C2165.75,-252 2079.25,-252 2079.25,-252 2073.25,-252 2067.25,-246 2067.25,-240 2067.25,-240 2067.25,-228 2067.25,-228 2067.25,-222 2073.25,-216 2079.25,-216 2079.25,-216 2165.75,-216 2165.75,-216 2171.75,-216 2177.75,-222 2177.75,-228 2177.75,-228 2177.75,-240 2177.75,-240 2177.75,-246 2171.75,-252 2165.75,-252"/>
<text xml:space="preserve" text-anchor="middle" x="2122.5" y="-229.55" font-family="Helvetica,sans-Serif" font-size="11.00">RK4_bisect_energy</text>
</g>
<!-- src_rk4_compare_RK4_inward_mismatch -->
<g id="node10" class="node">
<title>src_rk4_compare_RK4_inward_mismatch</title>
<path fill="#f8fafc" stroke="#334155" d="M2237.38,-180C2237.38,-180 2133.62,-180 2133.62,-180 2127.62,-180 2121.62,-174 2121.62,-168 2121.62,-168 2121.62,-156 2121.62,-156 2121.62,-150 2127.62,-144 2133.62,-144 2133.62,-144 2237.38,-144 2237.38,-144 2243.38,-144 2249.38,-150 2249.38,-156 2249.38,-156 2249.38,-168 2249.38,-168 2249.38,-174 2243.38,-180 2237.38,-180"/>
<text xml:space="preserve" text-anchor="middle" x="2185.5" y="-157.55" font-family="Helvetica,sans-Serif" font-size="11.00">RK4_inward_mismatch</text>
</g>
<!-- src_rk4_compare_RK4_bisect_energy&#45;&gt;src_rk4_compare_RK4_inward_mismatch -->
<g id="edge1" class="edge">
<title>src_rk4_compare_RK4_bisect_energy&#45;&gt;src_rk4_compare_RK4_inward_mismatch</title>
<path fill="none" stroke="#64748b" d="M2138.07,-215.7C2146.08,-206.8 2155.96,-195.82 2164.62,-186.2"/>
<polygon fill="#64748b" stroke="#64748b" points="2166.23,-188.07 2169.09,-181.23 2162.59,-184.79 2166.23,-188.07"/>
</g>
<!-- src_rk4_compare_RK4_bisection_history -->
<g id="node6" class="node">
<title>src_rk4_compare_RK4_bisection_history</title>
<path fill="#f8fafc" stroke="#334155" d="M2037.12,-252C2037.12,-252 1937.88,-252 1937.88,-252 1931.88,-252 1925.88,-246 1925.88,-240 1925.88,-240 1925.88,-228 1925.88,-228 1925.88,-222 1931.88,-216 1937.88,-216 1937.88,-216 2037.12,-216 2037.12,-216 2043.12,-216 2049.12,-222 2049.12,-228 2049.12,-228 2049.12,-240 2049.12,-240 2049.12,-246 2043.12,-252 2037.12,-252"/>
<text xml:space="preserve" text-anchor="middle" x="1987.5" y="-229.55" font-family="Helvetica,sans-Serif" font-size="11.00">RK4_bisection_history</text>
</g>
<!-- src_rk4_compare_RK4_bisection_history&#45;&gt;src_rk4_compare_RK4_inward_mismatch -->
<g id="edge2" class="edge">
<title>src_rk4_compare_RK4_bisection_history&#45;&gt;src_rk4_compare_RK4_inward_mismatch</title>
<path fill="none" stroke="#64748b" d="M2036.95,-215.52C2064.7,-205.71 2099.44,-193.43 2128.35,-183.21"/>
<polygon fill="#64748b" stroke="#64748b" points="2129.12,-185.53 2134.91,-180.89 2127.49,-180.91 2129.12,-185.53"/>
</g>
<!-- src_rk4_compare_RK4_find_brackets -->
<g id="node7" class="node">
<title>src_rk4_compare_RK4_find_brackets</title>
<path fill="#f8fafc" stroke="#334155" d="M2291.25,-252C2291.25,-252 2207.75,-252 2207.75,-252 2201.75,-252 2195.75,-246 2195.75,-240 2195.75,-240 2195.75,-228 2195.75,-228 2195.75,-222 2201.75,-216 2207.75,-216 2207.75,-216 2291.25,-216 2291.25,-216 2297.25,-216 2303.25,-222 2303.25,-228 2303.25,-228 2303.25,-240 2303.25,-240 2303.25,-246 2297.25,-252 2291.25,-252"/>
<text xml:space="preserve" text-anchor="middle" x="2249.5" y="-229.55" font-family="Helvetica,sans-Serif" font-size="11.00">RK4_find_brackets</text>
</g>
<!-- src_rk4_compare_RK4_find_brackets&#45;&gt;src_rk4_compare_RK4_inward_mismatch -->
<g id="edge3" class="edge">
<title>src_rk4_compare_RK4_find_brackets&#45;&gt;src_rk4_compare_RK4_inward_mismatch</title>
<path fill="none" stroke="#64748b" d="M2233.68,-215.7C2225.54,-206.8 2215.51,-195.82 2206.71,-186.2"/>
<polygon fill="#64748b" stroke="#64748b" points="2208.69,-184.73 2202.16,-181.22 2205.07,-188.04 2208.69,-184.73"/>
</g>
<!-- src_rk4_compare_RK4_harmonic_convergence_vs_box_size_fixed_spacing -->
<g id="node8" class="node">
<title>src_rk4_compare_RK4_harmonic_convergence_vs_box_size_fixed_spacing</title>
<path fill="#f8fafc" stroke="#334155" d="M2188.12,-396C2188.12,-396 1920.88,-396 1920.88,-396 1914.88,-396 1908.88,-390 1908.88,-384 1908.88,-384 1908.88,-372 1908.88,-372 1908.88,-366 1914.88,-360 1920.88,-360 1920.88,-360 2188.12,-360 2188.12,-360 2194.12,-360 2200.12,-366 2200.12,-372 2200.12,-372 2200.12,-384 2200.12,-384 2200.12,-390 2194.12,-396 2188.12,-396"/>
<text xml:space="preserve" text-anchor="middle" x="2054.5" y="-373.55" font-family="Helvetica,sans-Serif" font-size="11.00">RK4_harmonic_convergence_vs_box_size_fixed_spacing</text>
</g>
<!-- src_rk4_compare_RK4_solve_harmonic_oscillator_energies -->
<g id="node12" class="node">
<title>src_rk4_compare_RK4_solve_harmonic_oscillator_energies</title>
<path fill="#f8fafc" stroke="#334155" d="M2280.5,-324C2280.5,-324 2090.5,-324 2090.5,-324 2084.5,-324 2078.5,-318 2078.5,-312 2078.5,-312 2078.5,-300 2078.5,-300 2078.5,-294 2084.5,-288 2090.5,-288 2090.5,-288 2280.5,-288 2280.5,-288 2286.5,-288 2292.5,-294 2292.5,-300 2292.5,-300 2292.5,-312 2292.5,-312 2292.5,-318 2286.5,-324 2280.5,-324"/>
<text xml:space="preserve" text-anchor="middle" x="2185.5" y="-301.55" font-family="Helvetica,sans-Serif" font-size="11.00">RK4_solve_harmonic_oscillator_energies</text>
</g>
<!-- src_rk4_compare_RK4_harmonic_convergence_vs_box_size_fixed_spacing&#45;&gt;src_rk4_compare_RK4_solve_harmonic_oscillator_energies -->
<g id="edge4" class="edge">
<title>src_rk4_compare_RK4_harmonic_convergence_vs_box_size_fixed_spacing&#45;&gt;src_rk4_compare_RK4_solve_harmonic_oscillator_energies</title>
<path fill="none" stroke="#64748b" d="M2087.22,-359.52C2105.02,-350.01 2127.16,-338.17 2145.92,-328.15"/>
<polygon fill="#64748b" stroke="#64748b" points="2146.84,-330.43 2151.86,-324.97 2144.53,-326.11 2146.84,-330.43"/>
</g>
<!-- src_rk4_compare_RK4_harmonic_convergence_vs_grid -->
<g id="node9" class="node">
<title>src_rk4_compare_RK4_harmonic_convergence_vs_grid</title>
<path fill="#f8fafc" stroke="#334155" d="M2402.5,-396C2402.5,-396 2230.5,-396 2230.5,-396 2224.5,-396 2218.5,-390 2218.5,-384 2218.5,-384 2218.5,-372 2218.5,-372 2218.5,-366 2224.5,-360 2230.5,-360 2230.5,-360 2402.5,-360 2402.5,-360 2408.5,-360 2414.5,-366 2414.5,-372 2414.5,-372 2414.5,-384 2414.5,-384 2414.5,-390 2408.5,-396 2402.5,-396"/>
<text xml:space="preserve" text-anchor="middle" x="2316.5" y="-373.55" font-family="Helvetica,sans-Serif" font-size="11.00">RK4_harmonic_convergence_vs_grid</text>
</g>
<!-- src_rk4_compare_RK4_harmonic_convergence_vs_grid&#45;&gt;src_rk4_compare_RK4_solve_harmonic_oscillator_energies -->
<g id="edge5" class="edge">
<title>src_rk4_compare_RK4_harmonic_convergence_vs_grid&#45;&gt;src_rk4_compare_RK4_solve_harmonic_oscillator_energies</title>
<path fill="none" stroke="#64748b" d="M2283.78,-359.52C2265.98,-350.01 2243.84,-338.17 2225.08,-328.15"/>
<polygon fill="#64748b" stroke="#64748b" points="2226.47,-326.11 2219.14,-324.97 2224.16,-330.43 2226.47,-326.11"/>
</g>
<!-- src_rk4_compare_RK4_step -->
<g id="node13" class="node">
<title>src_rk4_compare_RK4_step</title>
<path fill="#f8fafc" stroke="#334155" d="M2205.5,-108C2205.5,-108 2165.5,-108 2165.5,-108 2159.5,-108 2153.5,-102 2153.5,-96 2153.5,-96 2153.5,-84 2153.5,-84 2153.5,-78 2159.5,-72 2165.5,-72 2165.5,-72 2205.5,-72 2205.5,-72 2211.5,-72 2217.5,-78 2217.5,-84 2217.5,-84 2217.5,-96 2217.5,-96 2217.5,-102 2211.5,-108 2205.5,-108"/>
<text xml:space="preserve" text-anchor="middle" x="2185.5" y="-85.55" font-family="Helvetica,sans-Serif" font-size="11.00">RK4_step</text>
</g>
<!-- src_rk4_compare_RK4_inward_mismatch&#45;&gt;src_rk4_compare_RK4_step -->
<g id="edge6" class="edge">
<title>src_rk4_compare_RK4_inward_mismatch&#45;&gt;src_rk4_compare_RK4_step</title>
<path fill="none" stroke="#64748b" d="M2185.5,-143.7C2185.5,-135.47 2185.5,-125.48 2185.5,-116.42"/>
<polygon fill="#64748b" stroke="#64748b" points="2187.95,-116.62 2185.5,-109.62 2183.05,-116.62 2187.95,-116.62"/>
</g>
<!-- src_rk4_compare_RK4_sample_mismatch -->
<g id="node11" class="node">
<title>src_rk4_compare_RK4_sample_mismatch</title>
<path fill="#f8fafc" stroke="#334155" d="M2439.5,-252C2439.5,-252 2333.5,-252 2333.5,-252 2327.5,-252 2321.5,-246 2321.5,-240 2321.5,-240 2321.5,-228 2321.5,-228 2321.5,-222 2327.5,-216 2333.5,-216 2333.5,-216 2439.5,-216 2439.5,-216 2445.5,-216 2451.5,-222 2451.5,-228 2451.5,-228 2451.5,-240 2451.5,-240 2451.5,-246 2445.5,-252 2439.5,-252"/>
<text xml:space="preserve" text-anchor="middle" x="2386.5" y="-229.55" font-family="Helvetica,sans-Serif" font-size="11.00">RK4_sample_mismatch</text>
</g>
<!-- src_rk4_compare_RK4_sample_mismatch&#45;&gt;src_rk4_compare_RK4_inward_mismatch -->
<g id="edge7" class="edge">
<title>src_rk4_compare_RK4_sample_mismatch&#45;&gt;src_rk4_compare_RK4_inward_mismatch</title>
<path fill="none" stroke="#64748b" d="M2336.3,-215.52C2308.01,-205.67 2272.56,-193.32 2243.14,-183.07"/>
<polygon fill="#64748b" stroke="#64748b" points="2244.26,-180.87 2236.84,-180.88 2242.64,-185.5 2244.26,-180.87"/>
</g>
<!-- src_rk4_compare_RK4_solve_harmonic_oscillator_energies&#45;&gt;src_rk4_compare_RK4_bisect_energy -->
<g id="edge8" class="edge">
<title>src_rk4_compare_RK4_solve_harmonic_oscillator_energies&#45;&gt;src_rk4_compare_RK4_bisect_energy</title>
<path fill="none" stroke="#64748b" d="M2169.93,-287.7C2161.92,-278.8 2152.04,-267.82 2143.38,-258.2"/>
<polygon fill="#64748b" stroke="#64748b" points="2145.41,-256.79 2138.91,-253.23 2141.77,-260.07 2145.41,-256.79"/>
</g>
<!-- src_rk4_compare_RK4_solve_harmonic_oscillator_energies&#45;&gt;src_rk4_compare_RK4_find_brackets -->
<g id="edge9" class="edge">
<title>src_rk4_compare_RK4_solve_harmonic_oscillator_energies&#45;&gt;src_rk4_compare_RK4_find_brackets</title>
<path fill="none" stroke="#64748b" d="M2201.32,-287.7C2209.46,-278.8 2219.49,-267.82 2228.29,-258.2"/>
<polygon fill="#64748b" stroke="#64748b" points="2229.93,-260.04 2232.84,-253.22 2226.31,-256.73 2229.93,-260.04"/>
</g>
<!-- src_rk4_compare__harmonic_rhs -->
<g id="node14" class="node">
<title>src_rk4_compare__harmonic_rhs</title>
<path fill="#f8fafc" stroke="#334155" d="M2217.12,-36C2217.12,-36 2153.88,-36 2153.88,-36 2147.88,-36 2141.88,-30 2141.88,-24 2141.88,-24 2141.88,-12 2141.88,-12 2141.88,-6 2147.88,0 2153.88,0 2153.88,0 2217.12,0 2217.12,0 2223.12,0 2229.12,-6 2229.12,-12 2229.12,-12 2229.12,-24 2229.12,-24 2229.12,-30 2223.12,-36 2217.12,-36"/>
<text xml:space="preserve" text-anchor="middle" x="2185.5" y="-13.55" font-family="Helvetica,sans-Serif" font-size="11.00">_harmonic_rhs</text>
</g>
<!-- src_rk4_compare_RK4_step&#45;&gt;src_rk4_compare__harmonic_rhs -->
<g id="edge10" class="edge">
<title>src_rk4_compare_RK4_step&#45;&gt;src_rk4_compare__harmonic_rhs</title>
<path fill="none" stroke="#64748b" d="M2185.5,-71.7C2185.5,-63.47 2185.5,-53.48 2185.5,-44.42"/>
<polygon fill="#64748b" stroke="#64748b" points="2187.95,-44.62 2185.5,-37.62 2183.05,-44.62 2187.95,-44.62"/>
</g>
<!-- src_scattering_decompose_left_asymptotic -->
<g id="node15" class="node">
<title>src_scattering_decompose_left_asymptotic</title>
<path fill="#f8fafc" stroke="#334155" d="M1907.88,-108C1907.88,-108 1783.12,-108 1783.12,-108 1777.12,-108 1771.12,-102 1771.12,-96 1771.12,-96 1771.12,-84 1771.12,-84 1771.12,-78 1777.12,-72 1783.12,-72 1783.12,-72 1907.88,-72 1907.88,-72 1913.88,-72 1919.88,-78 1919.88,-84 1919.88,-84 1919.88,-96 1919.88,-96 1919.88,-102 1913.88,-108 1907.88,-108"/>
<text xml:space="preserve" text-anchor="middle" x="1845.5" y="-85.55" font-family="Helvetica,sans-Serif" font-size="11.00">decompose_left_asymptotic</text>
</g>
<!-- src_scattering_find_transmission_peaks -->
<g id="node16" class="node">
<title>src_scattering_find_transmission_peaks</title>
<path fill="#f8fafc" stroke="#334155" d="M2554.38,-396C2554.38,-396 2444.62,-396 2444.62,-396 2438.62,-396 2432.62,-390 2432.62,-384 2432.62,-384 2432.62,-372 2432.62,-372 2432.62,-366 2438.62,-360 2444.62,-360 2444.62,-360 2554.38,-360 2554.38,-360 2560.38,-360 2566.38,-366 2566.38,-372 2566.38,-372 2566.38,-384 2566.38,-384 2566.38,-390 2560.38,-396 2554.38,-396"/>
<text xml:space="preserve" text-anchor="middle" x="2499.5" y="-373.55" font-family="Helvetica,sans-Serif" font-size="11.00">find_transmission_peaks</text>
</g>
<!-- src_scattering_integrate_from_right -->
<g id="node17" class="node">
<title>src_scattering_integrate_from_right</title>
<path fill="#f8fafc" stroke="#334155" d="M1740.88,-108C1740.88,-108 1652.12,-108 1652.12,-108 1646.12,-108 1640.12,-102 1640.12,-96 1640.12,-96 1640.12,-84 1640.12,-84 1640.12,-78 1646.12,-72 1652.12,-72 1652.12,-72 1740.88,-72 1740.88,-72 1746.88,-72 1752.88,-78 1752.88,-84 1752.88,-84 1752.88,-96 1752.88,-96 1752.88,-102 1746.88,-108 1740.88,-108"/>
<text xml:space="preserve" text-anchor="middle" x="1696.5" y="-85.55" font-family="Helvetica,sans-Serif" font-size="11.00">integrate_from_right</text>
</g>
<!-- src_scattering_integrate_from_right&#45;&gt;src_numerov_q_from_energy -->
<g id="edge11" class="edge">
<title>src_scattering_integrate_from_right&#45;&gt;src_numerov_q_from_energy</title>
<path fill="none" stroke="#64748b" d="M1639.98,-87.82C1536.78,-84.77 1311.32,-73.95 1125.5,-36 1125.41,-35.98 1125.33,-35.96 1125.24,-35.95"/>
<polygon fill="#64748b" stroke="#64748b" points="1125.98,-33.6 1118.61,-34.41 1124.88,-38.38 1125.98,-33.6"/>
</g>
<!-- src_scattering_numerov_outward_complex -->
<g id="node18" class="node">
<title>src_scattering_numerov_outward_complex</title>
<path fill="#f8fafc" stroke="#334155" d="M1758.88,-36C1758.88,-36 1634.12,-36 1634.12,-36 1628.12,-36 1622.12,-30 1622.12,-24 1622.12,-24 1622.12,-12 1622.12,-12 1622.12,-6 1628.12,0 1634.12,0 1634.12,0 1758.88,0 1758.88,0 1764.88,0 1770.88,-6 1770.88,-12 1770.88,-12 1770.88,-24 1770.88,-24 1770.88,-30 1764.88,-36 1758.88,-36"/>
<text xml:space="preserve" text-anchor="middle" x="1696.5" y="-13.55" font-family="Helvetica,sans-Serif" font-size="11.00">numerov_outward_complex</text>
</g>
<!-- src_scattering_integrate_from_right&#45;&gt;src_scattering_numerov_outward_complex -->
<g id="edge12" class="edge">
<title>src_scattering_integrate_from_right&#45;&gt;src_scattering_numerov_outward_complex</title>
<path fill="none" stroke="#64748b" d="M1696.5,-71.7C1696.5,-63.47 1696.5,-53.48 1696.5,-44.42"/>
<polygon fill="#64748b" stroke="#64748b" points="1698.95,-44.62 1696.5,-37.62 1694.05,-44.62 1698.95,-44.62"/>
</g>
<!-- src_scattering_scattering_wavefunction -->
<g id="node19" class="node">
<title>src_scattering_scattering_wavefunction</title>
<path fill="#f8fafc" stroke="#334155" d="M1777.25,-252C1777.25,-252 1669.75,-252 1669.75,-252 1663.75,-252 1657.75,-246 1657.75,-240 1657.75,-240 1657.75,-228 1657.75,-228 1657.75,-222 1663.75,-216 1669.75,-216 1669.75,-216 1777.25,-216 1777.25,-216 1783.25,-216 1789.25,-222 1789.25,-228 1789.25,-228 1789.25,-240 1789.25,-240 1789.25,-246 1783.25,-252 1777.25,-252"/>
<text xml:space="preserve" text-anchor="middle" x="1723.5" y="-229.55" font-family="Helvetica,sans-Serif" font-size="11.00">scattering_wavefunction</text>
</g>
<!-- src_scattering_scattering_wavefunction&#45;&gt;src_scattering_integrate_from_right -->
<g id="edge13" class="edge">
<title>src_scattering_scattering_wavefunction&#45;&gt;src_scattering_integrate_from_right</title>
<path fill="none" stroke="#64748b" d="M1720.19,-215.59C1715.47,-190.76 1706.77,-145.01 1701.33,-116.4"/>
<polygon fill="#64748b" stroke="#64748b" points="1703.75,-116.02 1700.04,-109.6 1698.94,-116.93 1703.75,-116.02"/>
</g>
<!-- src_scattering_solve_scattering -->
<g id="node20" class="node">
<title>src_scattering_solve_scattering</title>
<path fill="#f8fafc" stroke="#334155" d="M1859.12,-180C1859.12,-180 1789.88,-180 1789.88,-180 1783.88,-180 1777.88,-174 1777.88,-168 1777.88,-168 1777.88,-156 1777.88,-156 1777.88,-150 1783.88,-144 1789.88,-144 1789.88,-144 1859.12,-144 1859.12,-144 1865.12,-144 1871.12,-150 1871.12,-156 1871.12,-156 1871.12,-168 1871.12,-168 1871.12,-174 1865.12,-180 1859.12,-180"/>
<text xml:space="preserve" text-anchor="middle" x="1824.5" y="-157.55" font-family="Helvetica,sans-Serif" font-size="11.00">solve_scattering</text>
</g>
<!-- src_scattering_scattering_wavefunction&#45;&gt;src_scattering_solve_scattering -->
<g id="edge14" class="edge">
<title>src_scattering_scattering_wavefunction&#45;&gt;src_scattering_solve_scattering</title>
<path fill="none" stroke="#64748b" d="M1748.73,-215.52C1762.08,-206.26 1778.62,-194.8 1792.83,-184.95"/>
<polygon fill="#64748b" stroke="#64748b" points="1793.99,-187.12 1798.35,-181.12 1791.2,-183.1 1793.99,-187.12"/>
</g>
<!-- src_scattering_solve_scattering&#45;&gt;src_scattering_decompose_left_asymptotic -->
<g id="edge15" class="edge">
<title>src_scattering_solve_scattering&#45;&gt;src_scattering_decompose_left_asymptotic</title>
<path fill="none" stroke="#64748b" d="M1829.69,-143.7C1832.18,-135.39 1835.22,-125.28 1837.96,-116.14"/>
<polygon fill="#64748b" stroke="#64748b" points="1840.27,-116.96 1839.93,-109.55 1835.58,-115.55 1840.27,-116.96"/>
</g>
<!-- src_scattering_solve_scattering&#45;&gt;src_scattering_integrate_from_right -->
<g id="edge16" class="edge">
<title>src_scattering_solve_scattering&#45;&gt;src_scattering_integrate_from_right</title>
<path fill="none" stroke="#64748b" d="M1792.53,-143.52C1775.14,-134.01 1753.5,-122.17 1735.17,-112.15"/>
<polygon fill="#64748b" stroke="#64748b" points="1736.71,-110.2 1729.39,-108.99 1734.36,-114.5 1736.71,-110.2"/>
</g>
<!-- src_scattering_sweep_scattering -->
<g id="node21" class="node">
<title>src_scattering_sweep_scattering</title>
<path fill="#f8fafc" stroke="#334155" d="M1895.5,-252C1895.5,-252 1819.5,-252 1819.5,-252 1813.5,-252 1807.5,-246 1807.5,-240 1807.5,-240 1807.5,-228 1807.5,-228 1807.5,-222 1813.5,-216 1819.5,-216 1819.5,-216 1895.5,-216 1895.5,-216 1901.5,-216 1907.5,-222 1907.5,-228 1907.5,-228 1907.5,-240 1907.5,-240 1907.5,-246 1901.5,-252 1895.5,-252"/>
<text xml:space="preserve" text-anchor="middle" x="1857.5" y="-229.55" font-family="Helvetica,sans-Serif" font-size="11.00">sweep_scattering</text>
</g>
<!-- src_scattering_sweep_scattering&#45;&gt;src_scattering_solve_scattering -->
<g id="edge17" class="edge">
<title>src_scattering_sweep_scattering&#45;&gt;src_scattering_solve_scattering</title>
<path fill="none" stroke="#64748b" d="M1849.34,-215.7C1845.35,-207.22 1840.46,-196.86 1836.09,-187.58"/>
<polygon fill="#64748b" stroke="#64748b" points="1838.41,-186.76 1833.21,-181.47 1833.98,-188.85 1838.41,-186.76"/>
</g>
<!-- src_shooting_bisect_energy_inward_shooting -->
<g id="node22" class="node">
<title>src_shooting_bisect_energy_inward_shooting</title>
<path fill="#f8fafc" stroke="#334155" d="M360.25,-252C360.25,-252 216.75,-252 216.75,-252 210.75,-252 204.75,-246 204.75,-240 204.75,-240 204.75,-228 204.75,-228 204.75,-222 210.75,-216 216.75,-216 216.75,-216 360.25,-216 360.25,-216 366.25,-216 372.25,-222 372.25,-228 372.25,-228 372.25,-240 372.25,-240 372.25,-246 366.25,-252 360.25,-252"/>
<text xml:space="preserve" text-anchor="middle" x="288.5" y="-229.55" font-family="Helvetica,sans-Serif" font-size="11.00">bisect_energy_inward_shooting</text>
</g>
<!-- src_shooting_boundary_mismatch_inward_shooting -->
<g id="node26" class="node">
<title>src_shooting_boundary_mismatch_inward_shooting</title>
<path fill="#f8fafc" stroke="#334155" d="M558.25,-180C558.25,-180 384.75,-180 384.75,-180 378.75,-180 372.75,-174 372.75,-168 372.75,-168 372.75,-156 372.75,-156 372.75,-150 378.75,-144 384.75,-144 384.75,-144 558.25,-144 558.25,-144 564.25,-144 570.25,-150 570.25,-156 570.25,-156 570.25,-168 570.25,-168 570.25,-174 564.25,-180 558.25,-180"/>
<text xml:space="preserve" text-anchor="middle" x="471.5" y="-157.55" font-family="Helvetica,sans-Serif" font-size="11.00">boundary_mismatch_inward_shooting</text>
</g>
<!-- src_shooting_bisect_energy_inward_shooting&#45;&gt;src_shooting_boundary_mismatch_inward_shooting -->
<g id="edge18" class="edge">
<title>src_shooting_bisect_energy_inward_shooting&#45;&gt;src_shooting_boundary_mismatch_inward_shooting</title>
<path fill="none" stroke="#64748b" d="M334.21,-215.52C359.74,-205.75 391.68,-193.53 418.33,-183.34"/>
<polygon fill="#64748b" stroke="#64748b" points="418.98,-185.71 424.65,-180.92 417.23,-181.14 418.98,-185.71"/>
</g>
<!-- src_shooting_bisect_energy_outward_shooting -->
<g id="node23" class="node">
<title>src_shooting_bisect_energy_outward_shooting</title>
<path fill="#f8fafc" stroke="#334155" d="M1589.62,-252C1589.62,-252 1439.38,-252 1439.38,-252 1433.38,-252 1427.38,-246 1427.38,-240 1427.38,-240 1427.38,-228 1427.38,-228 1427.38,-222 1433.38,-216 1439.38,-216 1439.38,-216 1589.62,-216 1589.62,-216 1595.62,-216 1601.62,-222 1601.62,-228 1601.62,-228 1601.62,-240 1601.62,-240 1601.62,-246 1595.62,-252 1589.62,-252"/>
<text xml:space="preserve" text-anchor="middle" x="1514.5" y="-229.55" font-family="Helvetica,sans-Serif" font-size="11.00">bisect_energy_outward_shooting</text>
</g>
<!-- src_shooting_boundary_mismatch_outward_shooting -->
<g id="node27" class="node">
<title>src_shooting_boundary_mismatch_outward_shooting</title>
<path fill="#f8fafc" stroke="#334155" d="M1226.62,-180C1226.62,-180 1046.38,-180 1046.38,-180 1040.38,-180 1034.38,-174 1034.38,-168 1034.38,-168 1034.38,-156 1034.38,-156 1034.38,-150 1040.38,-144 1046.38,-144 1046.38,-144 1226.62,-144 1226.62,-144 1232.62,-144 1238.62,-150 1238.62,-156 1238.62,-156 1238.62,-168 1238.62,-168 1238.62,-174 1232.62,-180 1226.62,-180"/>
<text xml:space="preserve" text-anchor="middle" x="1136.5" y="-157.55" font-family="Helvetica,sans-Serif" font-size="11.00">boundary_mismatch_outward_shooting</text>
</g>
<!-- src_shooting_bisect_energy_outward_shooting&#45;&gt;src_shooting_boundary_mismatch_outward_shooting -->
<g id="edge19" class="edge">
<title>src_shooting_bisect_energy_outward_shooting&#45;&gt;src_shooting_boundary_mismatch_outward_shooting</title>
<path fill="none" stroke="#64748b" d="M1427.3,-216.85C1371.18,-206.46 1298,-192.91 1239.08,-182"/>
<polygon fill="#64748b" stroke="#64748b" points="1239.68,-179.62 1232.36,-180.75 1238.79,-184.43 1239.68,-179.62"/>
</g>
<!-- src_shooting_bisection_history_inward_shooting -->
<g id="node24" class="node">
<title>src_shooting_bisection_history_inward_shooting</title>
<path fill="#f8fafc" stroke="#334155" d="M558.62,-252C558.62,-252 402.38,-252 402.38,-252 396.38,-252 390.38,-246 390.38,-240 390.38,-240 390.38,-228 390.38,-228 390.38,-222 396.38,-216 402.38,-216 402.38,-216 558.62,-216 558.62,-216 564.62,-216 570.62,-222 570.62,-228 570.62,-228 570.62,-240 570.62,-240 570.62,-246 564.62,-252 558.62,-252"/>
<text xml:space="preserve" text-anchor="middle" x="480.5" y="-229.55" font-family="Helvetica,sans-Serif" font-size="11.00">bisection_history_inward_shooting</text>
</g>
<!-- src_shooting_bisection_history_inward_shooting&#45;&gt;src_shooting_boundary_mismatch_inward_shooting -->
<g id="edge20" class="edge">
<title>src_shooting_bisection_history_inward_shooting&#45;&gt;src_shooting_boundary_mismatch_inward_shooting</title>
<path fill="none" stroke="#64748b" d="M478.28,-215.7C477.22,-207.47 475.93,-197.48 474.77,-188.42"/>
<polygon fill="#64748b" stroke="#64748b" points="477.21,-188.24 473.89,-181.61 472.35,-188.86 477.21,-188.24"/>
</g>
<!-- src_shooting_bisection_history_outward_shooting -->
<g id="node25" class="node">
<title>src_shooting_bisection_history_outward_shooting</title>
<path fill="#f8fafc" stroke="#334155" d="M951,-252C951,-252 788,-252 788,-252 782,-252 776,-246 776,-240 776,-240 776,-228 776,-228 776,-222 782,-216 788,-216 788,-216 951,-216 951,-216 957,-216 963,-222 963,-228 963,-228 963,-240 963,-240 963,-246 957,-252 951,-252"/>
<text xml:space="preserve" text-anchor="middle" x="869.5" y="-229.55" font-family="Helvetica,sans-Serif" font-size="11.00">bisection_history_outward_shooting</text>
</g>
<!-- src_shooting_bisection_history_outward_shooting&#45;&gt;src_shooting_boundary_mismatch_outward_shooting -->
<g id="edge21" class="edge">
<title>src_shooting_bisection_history_outward_shooting&#45;&gt;src_shooting_boundary_mismatch_outward_shooting</title>
<path fill="none" stroke="#64748b" d="M936.19,-215.52C974.56,-205.46 1022.86,-192.79 1062.41,-182.42"/>
<polygon fill="#64748b" stroke="#64748b" points="1062.59,-184.91 1068.74,-180.77 1061.34,-180.17 1062.59,-184.91"/>
</g>
<!-- src_shooting_boundary_mismatch_inward_shooting&#45;&gt;src_numerov_derivative_at_right_edge -->
<g id="edge22" class="edge">
<title>src_shooting_boundary_mismatch_inward_shooting&#45;&gt;src_numerov_derivative_at_right_edge</title>
<path fill="none" stroke="#64748b" d="M570.73,-144.81C648.3,-132.15 754.47,-114.83 825.16,-103.29"/>
<polygon fill="#64748b" stroke="#64748b" points="825.17,-105.77 831.68,-102.23 824.38,-100.94 825.17,-105.77"/>
</g>
<!-- src_shooting_half_domain_wavefunction_inward_shooting -->
<g id="node31" class="node">
<title>src_shooting_half_domain_wavefunction_inward_shooting</title>
<path fill="#f8fafc" stroke="#334155" d="M735.62,-108C735.62,-108 531.38,-108 531.38,-108 525.38,-108 519.38,-102 519.38,-96 519.38,-96 519.38,-84 519.38,-84 519.38,-78 525.38,-72 531.38,-72 531.38,-72 735.62,-72 735.62,-72 741.62,-72 747.62,-78 747.62,-84 747.62,-84 747.62,-96 747.62,-96 747.62,-102 741.62,-108 735.62,-108"/>
<text xml:space="preserve" text-anchor="middle" x="633.5" y="-85.55" font-family="Helvetica,sans-Serif" font-size="11.00">half_domain_wavefunction_inward_shooting</text>
</g>
<!-- src_shooting_boundary_mismatch_inward_shooting&#45;&gt;src_shooting_half_domain_wavefunction_inward_shooting -->
<g id="edge23" class="edge">
<title>src_shooting_boundary_mismatch_inward_shooting&#45;&gt;src_shooting_half_domain_wavefunction_inward_shooting</title>
<path fill="none" stroke="#64748b" d="M511.96,-143.52C534.27,-133.88 562.12,-121.84 585.52,-111.73"/>
<polygon fill="#64748b" stroke="#64748b" points="586.43,-114.01 591.88,-108.98 584.49,-109.51 586.43,-114.01"/>
</g>
<!-- src_shooting_boundary_mismatch_outward_shooting&#45;&gt;src_numerov_derivative_at_right_edge -->
<g id="edge24" class="edge">
<title>src_shooting_boundary_mismatch_outward_shooting&#45;&gt;src_numerov_derivative_at_right_edge</title>
<path fill="none" stroke="#64748b" d="M1077.56,-143.52C1043.92,-133.54 1001.66,-121 966.86,-110.68"/>
<polygon fill="#64748b" stroke="#64748b" points="967.96,-108.45 960.55,-108.81 966.57,-113.15 967.96,-108.45"/>
</g>
<!-- src_shooting_half_domain_wavefunction_outward_shooting -->
<g id="node32" class="node">
<title>src_shooting_half_domain_wavefunction_outward_shooting</title>
<path fill="#f8fafc" stroke="#334155" d="M1242,-108C1242,-108 1031,-108 1031,-108 1025,-108 1019,-102 1019,-96 1019,-96 1019,-84 1019,-84 1019,-78 1025,-72 1031,-72 1031,-72 1242,-72 1242,-72 1248,-72 1254,-78 1254,-84 1254,-84 1254,-96 1254,-96 1254,-102 1248,-108 1242,-108"/>
<text xml:space="preserve" text-anchor="middle" x="1136.5" y="-85.55" font-family="Helvetica,sans-Serif" font-size="11.00">half_domain_wavefunction_outward_shooting</text>
</g>
<!-- src_shooting_boundary_mismatch_outward_shooting&#45;&gt;src_shooting_half_domain_wavefunction_outward_shooting -->
<g id="edge25" class="edge">
<title>src_shooting_boundary_mismatch_outward_shooting&#45;&gt;src_shooting_half_domain_wavefunction_outward_shooting</title>
<path fill="none" stroke="#64748b" d="M1136.5,-143.7C1136.5,-135.47 1136.5,-125.48 1136.5,-116.42"/>
<polygon fill="#64748b" stroke="#64748b" points="1138.95,-116.62 1136.5,-109.62 1134.05,-116.62 1138.95,-116.62"/>
</g>
<!-- src_shooting_build_full_wavefunction -->
<g id="node28" class="node">
<title>src_shooting_build_full_wavefunction</title>
<path fill="#f8fafc" stroke="#334155" d="M1096,-252C1096,-252 993,-252 993,-252 987,-252 981,-246 981,-240 981,-240 981,-228 981,-228 981,-222 987,-216 993,-216 993,-216 1096,-216 1096,-216 1102,-216 1108,-222 1108,-228 1108,-228 1108,-240 1108,-240 1108,-246 1102,-252 1096,-252"/>
<text xml:space="preserve" text-anchor="middle" x="1044.5" y="-229.55" font-family="Helvetica,sans-Serif" font-size="11.00">build_full_wavefunction</text>
</g>
<!-- src_shooting_find_brackets_inward_shooting -->
<g id="node29" class="node">
<title>src_shooting_find_brackets_inward_shooting</title>
<path fill="#f8fafc" stroke="#334155" d="M310.75,-324C310.75,-324 170.25,-324 170.25,-324 164.25,-324 158.25,-318 158.25,-312 158.25,-312 158.25,-300 158.25,-300 158.25,-294 164.25,-288 170.25,-288 170.25,-288 310.75,-288 310.75,-288 316.75,-288 322.75,-294 322.75,-300 322.75,-300 322.75,-312 322.75,-312 322.75,-318 316.75,-324 310.75,-324"/>
<text xml:space="preserve" text-anchor="middle" x="240.5" y="-301.55" font-family="Helvetica,sans-Serif" font-size="11.00">find_brackets_inward_shooting</text>
</g>
<!-- src_shooting_sample_mismatch_inward_shooting -->
<g id="node36" class="node">
<title>src_shooting_sample_mismatch_inward_shooting</title>
<path fill="#f8fafc" stroke="#334155" d="M175,-252C175,-252 12,-252 12,-252 6,-252 0,-246 0,-240 0,-240 0,-228 0,-228 0,-222 6,-216 12,-216 12,-216 175,-216 175,-216 181,-216 187,-222 187,-228 187,-228 187,-240 187,-240 187,-246 181,-252 175,-252"/>
<text xml:space="preserve" text-anchor="middle" x="93.5" y="-229.55" font-family="Helvetica,sans-Serif" font-size="11.00">sample_mismatch_inward_shooting</text>
</g>
<!-- src_shooting_find_brackets_inward_shooting&#45;&gt;src_shooting_sample_mismatch_inward_shooting -->
<g id="edge26" class="edge">
<title>src_shooting_find_brackets_inward_shooting&#45;&gt;src_shooting_sample_mismatch_inward_shooting</title>
<path fill="none" stroke="#64748b" d="M203.78,-287.52C183.71,-277.96 158.71,-266.05 137.59,-256"/>
<polygon fill="#64748b" stroke="#64748b" points="138.74,-253.83 131.37,-253.03 136.63,-258.25 138.74,-253.83"/>
</g>
<!-- src_shooting_find_brackets_outward_shooting -->
<g id="node30" class="node">
<title>src_shooting_find_brackets_outward_shooting</title>
<path fill="#f8fafc" stroke="#334155" d="M1210.12,-324C1210.12,-324 1062.88,-324 1062.88,-324 1056.88,-324 1050.88,-318 1050.88,-312 1050.88,-312 1050.88,-300 1050.88,-300 1050.88,-294 1056.88,-288 1062.88,-288 1062.88,-288 1210.12,-288 1210.12,-288 1216.12,-288 1222.12,-294 1222.12,-300 1222.12,-300 1222.12,-312 1222.12,-312 1222.12,-318 1216.12,-324 1210.12,-324"/>
<text xml:space="preserve" text-anchor="middle" x="1136.5" y="-301.55" font-family="Helvetica,sans-Serif" font-size="11.00">find_brackets_outward_shooting</text>
</g>
<!-- src_shooting_find_brackets_outward_shooting&#45;&gt;src_shooting_boundary_mismatch_outward_shooting -->
<g id="edge27" class="edge">
<title>src_shooting_find_brackets_outward_shooting&#45;&gt;src_shooting_boundary_mismatch_outward_shooting</title>
<path fill="none" stroke="#64748b" d="M1136.5,-287.59C1136.5,-262.76 1136.5,-217.01 1136.5,-188.4"/>
<polygon fill="#64748b" stroke="#64748b" points="1138.95,-188.62 1136.5,-181.62 1134.05,-188.62 1138.95,-188.62"/>
</g>
<!-- src_shooting_half_domain_wavefunction_inward_shooting&#45;&gt;src_numerov_numerov_outward -->
<g id="edge28" class="edge">
<title>src_shooting_half_domain_wavefunction_inward_shooting&#45;&gt;src_numerov_numerov_outward</title>
<path fill="none" stroke="#64748b" d="M706.68,-71.52C756.09,-59.71 820.49,-44.33 866.8,-33.26"/>
<polygon fill="#64748b" stroke="#64748b" points="867.22,-35.68 873.46,-31.67 866.09,-30.91 867.22,-35.68"/>
</g>
<!-- src_shooting_half_domain_wavefunction_inward_shooting&#45;&gt;src_numerov_q_from_energy -->
<g id="edge29" class="edge">
<title>src_shooting_half_domain_wavefunction_inward_shooting&#45;&gt;src_numerov_q_from_energy</title>
<path fill="none" stroke="#64748b" d="M747.78,-73.2C816.99,-63.3 906.97,-49.82 986.5,-36 997.25,-34.13 1008.73,-31.97 1019.68,-29.84"/>
<polygon fill="#64748b" stroke="#64748b" points="1020.06,-32.26 1026.45,-28.51 1019.11,-27.46 1020.06,-32.26"/>
</g>
<!-- src_shooting_initial_conditions_inward_shooting -->
<g id="node33" class="node">
<title>src_shooting_initial_conditions_inward_shooting</title>
<path fill="#f8fafc" stroke="#334155" d="M710.88,-36C710.88,-36 556.12,-36 556.12,-36 550.12,-36 544.12,-30 544.12,-24 544.12,-24 544.12,-12 544.12,-12 544.12,-6 550.12,0 556.12,0 556.12,0 710.88,0 710.88,0 716.88,0 722.88,-6 722.88,-12 722.88,-12 722.88,-24 722.88,-24 722.88,-30 716.88,-36 710.88,-36"/>
<text xml:space="preserve" text-anchor="middle" x="633.5" y="-13.55" font-family="Helvetica,sans-Serif" font-size="11.00">initial_conditions_inward_shooting</text>
</g>
<!-- src_shooting_half_domain_wavefunction_inward_shooting&#45;&gt;src_shooting_initial_conditions_inward_shooting -->
<g id="edge30" class="edge">
<title>src_shooting_half_domain_wavefunction_inward_shooting&#45;&gt;src_shooting_initial_conditions_inward_shooting</title>
<path fill="none" stroke="#64748b" d="M633.5,-71.7C633.5,-63.47 633.5,-53.48 633.5,-44.42"/>
<polygon fill="#64748b" stroke="#64748b" points="635.95,-44.62 633.5,-37.62 631.05,-44.62 635.95,-44.62"/>
</g>
<!-- src_shooting_half_domain_wavefunction_outward_shooting&#45;&gt;src_numerov_numerov_outward -->
<g id="edge31" class="edge">
<title>src_shooting_half_domain_wavefunction_outward_shooting&#45;&gt;src_numerov_numerov_outward</title>
<path fill="none" stroke="#64748b" d="M1084.05,-71.52C1054.26,-61.59 1016.86,-49.12 985.98,-38.83"/>
<polygon fill="#64748b" stroke="#64748b" points="987.13,-36.63 979.72,-36.74 985.58,-41.28 987.13,-36.63"/>
</g>
<!-- src_shooting_half_domain_wavefunction_outward_shooting&#45;&gt;src_numerov_q_from_energy -->
<g id="edge32" class="edge">
<title>src_shooting_half_domain_wavefunction_outward_shooting&#45;&gt;src_numerov_q_from_energy</title>
<path fill="none" stroke="#64748b" d="M1120.68,-71.7C1112.54,-62.8 1102.51,-51.82 1093.71,-42.2"/>
<polygon fill="#64748b" stroke="#64748b" points="1095.69,-40.73 1089.16,-37.22 1092.07,-44.04 1095.69,-40.73"/>
</g>
<!-- src_shooting_initial_conditions_outward_shooting -->
<g id="node34" class="node">
<title>src_shooting_initial_conditions_outward_shooting</title>
<path fill="#f8fafc" stroke="#334155" d="M1308.25,-36C1308.25,-36 1146.75,-36 1146.75,-36 1140.75,-36 1134.75,-30 1134.75,-24 1134.75,-24 1134.75,-12 1134.75,-12 1134.75,-6 1140.75,0 1146.75,0 1146.75,0 1308.25,0 1308.25,0 1314.25,0 1320.25,-6 1320.25,-12 1320.25,-12 1320.25,-24 1320.25,-24 1320.25,-30 1314.25,-36 1308.25,-36"/>
<text xml:space="preserve" text-anchor="middle" x="1227.5" y="-13.55" font-family="Helvetica,sans-Serif" font-size="11.00">initial_conditions_outward_shooting</text>
</g>
<!-- src_shooting_half_domain_wavefunction_outward_shooting&#45;&gt;src_shooting_initial_conditions_outward_shooting -->
<g id="edge33" class="edge">
<title>src_shooting_half_domain_wavefunction_outward_shooting&#45;&gt;src_shooting_initial_conditions_outward_shooting</title>
<path fill="none" stroke="#64748b" d="M1158.99,-71.7C1170.92,-62.53 1185.7,-51.16 1198.48,-41.33"/>
<polygon fill="#64748b" stroke="#64748b" points="1199.69,-43.48 1203.75,-37.27 1196.71,-39.6 1199.69,-43.48"/>
</g>
<!-- src_shooting_sample_boundary_mismatch_outward_shooting -->
<g id="node35" class="node">
<title>src_shooting_sample_boundary_mismatch_outward_shooting</title>
<path fill="#f8fafc" stroke="#334155" d="M1396.88,-252C1396.88,-252 1176.12,-252 1176.12,-252 1170.12,-252 1164.12,-246 1164.12,-240 1164.12,-240 1164.12,-228 1164.12,-228 1164.12,-222 1170.12,-216 1176.12,-216 1176.12,-216 1396.88,-216 1396.88,-216 1402.88,-216 1408.88,-222 1408.88,-228 1408.88,-228 1408.88,-240 1408.88,-240 1408.88,-246 1402.88,-252 1396.88,-252"/>
<text xml:space="preserve" text-anchor="middle" x="1286.5" y="-229.55" font-family="Helvetica,sans-Serif" font-size="11.00">sample_boundary_mismatch_outward_shooting</text>
</g>
<!-- src_shooting_sample_boundary_mismatch_outward_shooting&#45;&gt;src_shooting_boundary_mismatch_outward_shooting -->
<g id="edge34" class="edge">
<title>src_shooting_sample_boundary_mismatch_outward_shooting&#45;&gt;src_shooting_boundary_mismatch_outward_shooting</title>
<path fill="none" stroke="#64748b" d="M1249.04,-215.52C1228.47,-205.92 1202.82,-193.95 1181.21,-183.86"/>
<polygon fill="#64748b" stroke="#64748b" points="1182.5,-181.76 1175.12,-181.02 1180.43,-186.2 1182.5,-181.76"/>
</g>
<!-- src_shooting_sample_mismatch_inward_shooting&#45;&gt;src_shooting_boundary_mismatch_inward_shooting -->
<g id="edge35" class="edge">
<title>src_shooting_sample_mismatch_inward_shooting&#45;&gt;src_shooting_boundary_mismatch_inward_shooting</title>
<path fill="none" stroke="#64748b" d="M187.42,-215.61C242.55,-205.4 312.26,-192.49 368.83,-182.01"/>
<polygon fill="#64748b" stroke="#64748b" points="369.15,-184.45 375.59,-180.76 368.26,-179.63 369.15,-184.45"/>
</g>
<!-- src_shooting_solve_state_from_bracket_inward_shooting -->
<g id="node37" class="node">
<title>src_shooting_solve_state_from_bracket_inward_shooting</title>
<path fill="#f8fafc" stroke="#334155" d="M698.38,-324C698.38,-324 498.62,-324 498.62,-324 492.62,-324 486.62,-318 486.62,-312 486.62,-312 486.62,-300 486.62,-300 486.62,-294 492.62,-288 498.62,-288 498.62,-288 698.38,-288 698.38,-288 704.38,-288 710.38,-294 710.38,-300 710.38,-300 710.38,-312 710.38,-312 710.38,-318 704.38,-324 698.38,-324"/>
<text xml:space="preserve" text-anchor="middle" x="598.5" y="-301.55" font-family="Helvetica,sans-Serif" font-size="11.00">solve_state_from_bracket_inward_shooting</text>
</g>
<!-- src_shooting_solve_state_from_bracket_inward_shooting&#45;&gt;src_numerov_normalize_wavefunction -->
<g id="edge36" class="edge">
<title>src_shooting_solve_state_from_bracket_inward_shooting&#45;&gt;src_numerov_normalize_wavefunction</title>
<path fill="none" stroke="#64748b" d="M621.74,-287.7C634.05,-278.53 649.32,-267.16 662.52,-257.33"/>
<polygon fill="#64748b" stroke="#64748b" points="663.84,-259.4 667.99,-253.25 660.91,-255.47 663.84,-259.4"/>
</g>
<!-- src_shooting_solve_state_from_bracket_inward_shooting&#45;&gt;src_shooting_bisect_energy_inward_shooting -->
<g id="edge37" class="edge">
<title>src_shooting_solve_state_from_bracket_inward_shooting&#45;&gt;src_shooting_bisect_energy_inward_shooting</title>
<path fill="none" stroke="#64748b" d="M521.07,-287.52C476.33,-277.41 419.96,-264.68 373.92,-254.29"/>
<polygon fill="#64748b" stroke="#64748b" points="374.59,-251.93 367.22,-252.78 373.51,-256.71 374.59,-251.93"/>
</g>
<!-- src_shooting_solve_state_from_bracket_inward_shooting&#45;&gt;src_shooting_build_full_wavefunction -->
<g id="edge38" class="edge">
<title>src_shooting_solve_state_from_bracket_inward_shooting&#45;&gt;src_shooting_build_full_wavefunction</title>
<path fill="none" stroke="#64748b" d="M710.72,-291.66C784.99,-282.19 884.38,-268.3 971.5,-252 971.88,-251.93 972.27,-251.86 972.65,-251.78"/>
<polygon fill="#64748b" stroke="#64748b" points="972.99,-254.21 979.38,-250.46 972.04,-249.41 972.99,-254.21"/>
</g>
<!-- src_shooting_solve_state_from_bracket_inward_shooting&#45;&gt;src_shooting_half_domain_wavefunction_inward_shooting -->
<g id="edge39" class="edge">
<title>src_shooting_solve_state_from_bracket_inward_shooting&#45;&gt;src_shooting_half_domain_wavefunction_inward_shooting</title>
<path fill="none" stroke="#64748b" d="M601.31,-287.85C607.45,-250.28 622.12,-160.58 629.34,-116.43"/>
<polygon fill="#64748b" stroke="#64748b" points="631.73,-117.03 630.44,-109.73 626.89,-116.24 631.73,-117.03"/>
</g>
<!-- src_shooting_solve_state_from_bracket_outward_shooting -->
<g id="node38" class="node">
<title>src_shooting_solve_state_from_bracket_outward_shooting</title>
<path fill="#f8fafc" stroke="#334155" d="M1458.75,-324C1458.75,-324 1252.25,-324 1252.25,-324 1246.25,-324 1240.25,-318 1240.25,-312 1240.25,-312 1240.25,-300 1240.25,-300 1240.25,-294 1246.25,-288 1252.25,-288 1252.25,-288 1458.75,-288 1458.75,-288 1464.75,-288 1470.75,-294 1470.75,-300 1470.75,-300 1470.75,-312 1470.75,-312 1470.75,-318 1464.75,-324 1458.75,-324"/>
<text xml:space="preserve" text-anchor="middle" x="1355.5" y="-301.55" font-family="Helvetica,sans-Serif" font-size="11.00">solve_state_from_bracket_outward_shooting</text>
</g>
<!-- src_shooting_solve_state_from_bracket_outward_shooting&#45;&gt;src_numerov_normalize_wavefunction -->
<g id="edge40" class="edge">
<title>src_shooting_solve_state_from_bracket_outward_shooting&#45;&gt;src_numerov_normalize_wavefunction</title>
<path fill="none" stroke="#64748b" d="M1240.02,-288.94C1237.15,-288.62 1234.31,-288.3 1231.5,-288 1028.11,-266.2 972.86,-282.84 766.91,-251.95"/>
<polygon fill="#64748b" stroke="#64748b" points="767.36,-249.54 760.07,-250.92 766.62,-254.39 767.36,-249.54"/>
</g>
<!-- src_shooting_solve_state_from_bracket_outward_shooting&#45;&gt;src_shooting_bisect_energy_outward_shooting -->
<g id="edge41" class="edge">
<title>src_shooting_solve_state_from_bracket_outward_shooting&#45;&gt;src_shooting_bisect_energy_outward_shooting</title>
<path fill="none" stroke="#64748b" d="M1395.21,-287.52C1417.11,-277.88 1444.44,-265.84 1467.41,-255.73"/>
<polygon fill="#64748b" stroke="#64748b" points="1468.21,-258.05 1473.63,-252.99 1466.24,-253.57 1468.21,-258.05"/>
</g>
<!-- src_shooting_solve_state_from_bracket_outward_shooting&#45;&gt;src_shooting_build_full_wavefunction -->
<g id="edge42" class="edge">
<title>src_shooting_solve_state_from_bracket_outward_shooting&#45;&gt;src_shooting_build_full_wavefunction</title>
<path fill="none" stroke="#64748b" d="M1277.82,-287.52C1228.42,-276.4 1164.89,-262.1 1116.6,-251.23"/>
<polygon fill="#64748b" stroke="#64748b" points="1117.22,-248.86 1109.85,-249.71 1116.14,-253.64 1117.22,-248.86"/>
</g>
<!-- src_shooting_solve_state_from_bracket_outward_shooting&#45;&gt;src_shooting_half_domain_wavefunction_outward_shooting -->
<g id="edge43" class="edge">
<title>src_shooting_solve_state_from_bracket_outward_shooting&#45;&gt;src_shooting_half_domain_wavefunction_outward_shooting</title>
<path fill="none" stroke="#64748b" d="M1471.24,-300.63C1557.55,-292.9 1653.64,-271.99 1610.5,-216 1568.22,-161.12 1388.02,-125.49 1262.42,-106.82"/>
<polygon fill="#64748b" stroke="#64748b" points="1263,-104.43 1255.72,-105.83 1262.29,-109.28 1263,-104.43"/>
</g>
<!-- src_shooting_solve_symmetric_potential_inward_shooting -->
<g id="node39" class="node">
<title>src_shooting_solve_symmetric_potential_inward_shooting</title>
<path fill="#f8fafc" stroke="#334155" d="M520.88,-396C520.88,-396 318.12,-396 318.12,-396 312.12,-396 306.12,-390 306.12,-384 306.12,-384 306.12,-372 306.12,-372 306.12,-366 312.12,-360 318.12,-360 318.12,-360 520.88,-360 520.88,-360 526.88,-360 532.88,-366 532.88,-372 532.88,-372 532.88,-384 532.88,-384 532.88,-390 526.88,-396 520.88,-396"/>
<text xml:space="preserve" text-anchor="middle" x="419.5" y="-373.55" font-family="Helvetica,sans-Serif" font-size="11.00">solve_symmetric_potential_inward_shooting</text>
</g>
<!-- src_shooting_solve_symmetric_potential_inward_shooting&#45;&gt;src_shooting_find_brackets_inward_shooting -->
<g id="edge44" class="edge">
<title>src_shooting_solve_symmetric_potential_inward_shooting&#45;&gt;src_shooting_find_brackets_inward_shooting</title>
<path fill="none" stroke="#64748b" d="M374.79,-359.52C349.92,-349.79 318.84,-337.64 292.84,-327.47"/>
<polygon fill="#64748b" stroke="#64748b" points="293.77,-325.2 286.36,-324.93 291.98,-329.76 293.77,-325.2"/>
</g>
<!-- src_shooting_solve_symmetric_potential_inward_shooting&#45;&gt;src_shooting_solve_state_from_bracket_inward_shooting -->
<g id="edge45" class="edge">
<title>src_shooting_solve_symmetric_potential_inward_shooting&#45;&gt;src_shooting_solve_state_from_bracket_inward_shooting</title>
<path fill="none" stroke="#64748b" d="M464.21,-359.52C489.08,-349.79 520.16,-337.64 546.16,-327.47"/>
<polygon fill="#64748b" stroke="#64748b" points="547.02,-329.76 552.64,-324.93 545.23,-325.2 547.02,-329.76"/>
</g>
<!-- src_shooting_solve_symmetric_potential_outward_shooting -->
<g id="node40" class="node">
<title>src_shooting_solve_symmetric_potential_outward_shooting</title>
<path fill="#f8fafc" stroke="#334155" d="M1350.25,-396C1350.25,-396 1140.75,-396 1140.75,-396 1134.75,-396 1128.75,-390 1128.75,-384 1128.75,-384 1128.75,-372 1128.75,-372 1128.75,-366 1134.75,-360 1140.75,-360 1140.75,-360 1350.25,-360 1350.25,-360 1356.25,-360 1362.25,-366 1362.25,-372 1362.25,-372 1362.25,-384 1362.25,-384 1362.25,-390 1356.25,-396 1350.25,-396"/>
<text xml:space="preserve" text-anchor="middle" x="1245.5" y="-373.55" font-family="Helvetica,sans-Serif" font-size="11.00">solve_symmetric_potential_outward_shooting</text>
</g>
<!-- src_shooting_solve_symmetric_potential_outward_shooting&#45;&gt;src_shooting_find_brackets_outward_shooting -->
<g id="edge46" class="edge">
<title>src_shooting_solve_symmetric_potential_outward_shooting&#45;&gt;src_shooting_find_brackets_outward_shooting</title>
<path fill="none" stroke="#64748b" d="M1218.28,-359.52C1203.73,-350.18 1185.69,-338.59 1170.26,-328.68"/>
<polygon fill="#64748b" stroke="#64748b" points="1171.86,-326.8 1164.65,-325.08 1169.22,-330.92 1171.86,-326.8"/>
</g>
<!-- src_shooting_solve_symmetric_potential_outward_shooting&#45;&gt;src_shooting_solve_state_from_bracket_outward_shooting -->
<g id="edge47" class="edge">
<title>src_shooting_solve_symmetric_potential_outward_shooting&#45;&gt;src_shooting_solve_state_from_bracket_outward_shooting</title>
<path fill="none" stroke="#64748b" d="M1272.97,-359.52C1287.65,-350.18 1305.86,-338.59 1321.43,-328.68"/>
<polygon fill="#64748b" stroke="#64748b" points="1322.51,-330.9 1327.1,-325.07 1319.88,-326.76 1322.51,-330.9"/>
</g>
</g>
</svg>
