<?xml version="1.0" encoding="UTF-8" standalone="no"?>
<!DOCTYPE svg PUBLIC "-//W3C//DTD SVG 1.1//EN"
 "http://www.w3.org/Graphics/SVG/1.1/DTD/svg11.dtd">
<!-- Generated by graphviz version 14.1.5 (20260411.2331)
 -->
<!-- Title: G Pages: 1 -->
<svg width="1504pt" height="577pt"
 viewBox="0.00 0.00 1504.00 577.00" xmlns="http://www.w3.org/2000/svg" xmlns:xlink="http://www.w3.org/1999/xlink">
<g id="graph0" class="graph" transform="scale(1 1) rotate(0) translate(4 573)">
<title>G</title>
<polygon fill="white" stroke="none" points="-4,4 -4,-573 1500.12,-573 1500.12,4 -4,4"/>
<text xml:space="preserve" text-anchor="middle" x="150.88" y="-546" font-family="Helvetica,sans-Serif" font-size="20.00">Quartic Double&#45;Well Experiment</text>
<!-- src_analysis_convergence_vs_box_size_fixed_spacing -->
<g id="node1" class="node">
<title>src_analysis_convergence_vs_box_size_fixed_spacing</title>
<path fill="#f8fafc" stroke="#334155" d="M412.38,-468C412.38,-468 223.12,-468 223.12,-468 217.12,-468 211.12,-462 211.12,-456 211.12,-456 211.12,-444 211.12,-444 211.12,-438 217.12,-432 223.12,-432 223.12,-432 412.38,-432 412.38,-432 418.38,-432 424.38,-438 424.38,-444 424.38,-444 424.38,-456 424.38,-456 424.38,-462 418.38,-468 412.38,-468"/>
<text xml:space="preserve" text-anchor="middle" x="317.75" y="-445.55" font-family="Helvetica,sans-Serif" font-size="11.00">convergence_vs_box_size_fixed_spacing</text>
</g>
<!-- src_analysis_energies_from_states -->
<g id="node3" class="node">
<title>src_analysis_energies_from_states</title>
<path fill="#f8fafc" stroke="#334155" d="M259.5,-396C259.5,-396 164,-396 164,-396 158,-396 152,-390 152,-384 152,-384 152,-372 152,-372 152,-366 158,-360 164,-360 164,-360 259.5,-360 259.5,-360 265.5,-360 271.5,-366 271.5,-372 271.5,-372 271.5,-384 271.5,-384 271.5,-390 265.5,-396 259.5,-396"/>
<text xml:space="preserve" text-anchor="middle" x="211.75" y="-373.55" font-family="Helvetica,sans-Serif" font-size="11.00">energies_from_states</text>
</g>
<!-- src_analysis_convergence_vs_box_size_fixed_spacing&#45;&gt;src_analysis_energies_from_states -->
<g id="edge1" class="edge">
<title>src_analysis_convergence_vs_box_size_fixed_spacing&#45;&gt;src_analysis_energies_from_states</title>
<path fill="none" stroke="#64748b" d="M291.28,-431.52C277.26,-422.26 259.9,-410.8 244.99,-400.95"/>
<polygon fill="#64748b" stroke="#64748b" points="246.34,-398.91 239.15,-397.09 243.64,-403 246.34,-398.91"/>
</g>
<!-- src_analysis_convergence_vs_grid_successive -->
<g id="node2" class="node">
<title>src_analysis_convergence_vs_grid_successive</title>
<path fill="#f8fafc" stroke="#334155" d="M180.62,-468C180.62,-468 28.88,-468 28.88,-468 22.88,-468 16.88,-462 16.88,-456 16.88,-456 16.88,-444 16.88,-444 16.88,-438 22.88,-432 28.88,-432 28.88,-432 180.62,-432 180.62,-432 186.62,-432 192.62,-438 192.62,-444 192.62,-444 192.62,-456 192.62,-456 192.62,-462 186.62,-468 180.62,-468"/>
<text xml:space="preserve" text-anchor="middle" x="104.75" y="-445.55" font-family="Helvetica,sans-Serif" font-size="11.00">convergence_vs_grid_successive</text>
</g>
<!-- src_analysis_convergence_vs_grid_successive&#45;&gt;src_analysis_energies_from_states -->
<g id="edge2" class="edge">
<title>src_analysis_convergence_vs_grid_successive&#45;&gt;src_analysis_energies_from_states</title>
<path fill="none" stroke="#64748b" d="M131.47,-431.52C145.75,-422.18 163.46,-410.59 178.61,-400.68"/>
<polygon fill="#64748b" stroke="#64748b" points="179.58,-402.97 184.1,-397.09 176.9,-398.87 179.58,-402.97"/>
</g>
<!-- src_analysis_estimate_convergence_slopes -->
<g id="node4" class="node">
<title>src_analysis_estimate_convergence_slopes</title>
<path fill="#f8fafc" stroke="#334155" d="M591.12,-468C591.12,-468 454.38,-468 454.38,-468 448.38,-468 442.38,-462 442.38,-456 442.38,-456 442.38,-444 442.38,-444 442.38,-438 448.38,-432 454.38,-432 454.38,-432 591.12,-432 591.12,-432 597.12,-432 603.12,-438 603.12,-444 603.12,-444 603.12,-456 603.12,-456 603.12,-462 597.12,-468 591.12,-468"/>
<text xml:space="preserve" text-anchor="middle" x="522.75" y="-445.55" font-family="Helvetica,sans-Serif" font-size="11.00">estimate_convergence_slopes</text>
</g>
<!-- src_analysis_save_csv_rows -->
<g id="node5" class="node">
<title>src_analysis_save_csv_rows</title>
<path fill="#f8fafc" stroke="#334155" d="M698.5,-468C698.5,-468 633,-468 633,-468 627,-468 621,-462 621,-456 621,-456 621,-444 621,-444 621,-438 627,-432 633,-432 633,-432 698.5,-432 698.5,-432 704.5,-432 710.5,-438 710.5,-444 710.5,-444 710.5,-456 710.5,-456 710.5,-462 704.5,-468 698.5,-468"/>
<text xml:space="preserve" text-anchor="middle" x="665.75" y="-445.55" font-family="Helvetica,sans-Serif" font-size="11.00">save_csv_rows</text>
</g>
<!-- src_analysis_splitting_vs_parameter -->
<g id="node6" class="node">
<title>src_analysis_splitting_vs_parameter</title>
<path fill="#f8fafc" stroke="#334155" d="M878.75,-468C878.75,-468 778.75,-468 778.75,-468 772.75,-468 766.75,-462 766.75,-456 766.75,-456 766.75,-444 766.75,-444 766.75,-438 772.75,-432 778.75,-432 778.75,-432 878.75,-432 878.75,-432 884.75,-432 890.75,-438 890.75,-444 890.75,-444 890.75,-456 890.75,-456 890.75,-462 884.75,-468 878.75,-468"/>
<text xml:space="preserve" text-anchor="middle" x="828.75" y="-445.55" font-family="Helvetica,sans-Serif" font-size="11.00">splitting_vs_parameter</text>
</g>
<!-- src_shooting_solve_symmetric_potential_outward_shooting -->
<g id="node35" class="node">
<title>src_shooting_solve_symmetric_potential_outward_shooting</title>
<path fill="#f8fafc" stroke="#334155" d="M688.5,-396C688.5,-396 479,-396 479,-396 473,-396 467,-390 467,-384 467,-384 467,-372 467,-372 467,-366 473,-360 479,-360 479,-360 688.5,-360 688.5,-360 694.5,-360 700.5,-366 700.5,-372 700.5,-372 700.5,-384 700.5,-384 700.5,-390 694.5,-396 688.5,-396"/>
<text xml:space="preserve" text-anchor="middle" x="583.75" y="-373.55" font-family="Helvetica,sans-Serif" font-size="11.00">solve_symmetric_potential_outward_shooting</text>
</g>
<!-- src_analysis_splitting_vs_parameter&#45;&gt;src_shooting_solve_symmetric_potential_outward_shooting -->
<g id="edge3" class="edge">
<title>src_analysis_splitting_vs_parameter&#45;&gt;src_shooting_solve_symmetric_potential_outward_shooting</title>
<path fill="none" stroke="#64748b" d="M767.56,-431.52C732.64,-421.54 688.77,-409 652.64,-398.68"/>
<polygon fill="#64748b" stroke="#64748b" points="653.45,-396.36 646.04,-396.8 652.1,-401.08 653.45,-396.36"/>
</g>
<!-- src_diagnostics__diagnostic_label_slug -->
<g id="node7" class="node">
<title>src_diagnostics__diagnostic_label_slug</title>
<path fill="#f8fafc" stroke="#334155" d="M864.75,-324C864.75,-324 764.75,-324 764.75,-324 758.75,-324 752.75,-318 752.75,-312 752.75,-312 752.75,-300 752.75,-300 752.75,-294 758.75,-288 764.75,-288 764.75,-288 864.75,-288 864.75,-288 870.75,-288 876.75,-294 876.75,-300 876.75,-300 876.75,-312 876.75,-312 876.75,-318 870.75,-324 864.75,-324"/>
<text xml:space="preserve" text-anchor="middle" x="814.75" y="-301.55" font-family="Helvetica,sans-Serif" font-size="11.00">_diagnostic_label_slug</text>
</g>
<!-- src_diagnostics__plot_outward_root_diagnostics -->
<g id="node8" class="node">
<title>src_diagnostics__plot_outward_root_diagnostics</title>
<path fill="#f8fafc" stroke="#334155" d="M886.88,-396C886.88,-396 742.62,-396 742.62,-396 736.62,-396 730.62,-390 730.62,-384 730.62,-384 730.62,-372 730.62,-372 730.62,-366 736.62,-360 742.62,-360 742.62,-360 886.88,-360 886.88,-360 892.88,-360 898.88,-366 898.88,-372 898.88,-372 898.88,-384 898.88,-384 898.88,-390 892.88,-396 886.88,-396"/>
<text xml:space="preserve" text-anchor="middle" x="814.75" y="-373.55" font-family="Helvetica,sans-Serif" font-size="11.00">_plot_outward_root_diagnostics</text>
</g>
<!-- src_diagnostics__plot_outward_root_diagnostics&#45;&gt;src_diagnostics__diagnostic_label_slug -->
<g id="edge4" class="edge">
<title>src_diagnostics__plot_outward_root_diagnostics&#45;&gt;src_diagnostics__diagnostic_label_slug</title>
<path fill="none" stroke="#64748b" d="M814.75,-359.7C814.75,-351.47 814.75,-341.48 814.75,-332.42"/>
<polygon fill="#64748b" stroke="#64748b" points="817.2,-332.62 814.75,-325.62 812.3,-332.62 817.2,-332.62"/>
</g>
<!-- src_plotting_plot_root_finding_diagnostic -->
<g id="node21" class="node">
<title>src_plotting_plot_root_finding_diagnostic</title>
<path fill="#f8fafc" stroke="#334155" d="M1032.5,-324C1032.5,-324 907,-324 907,-324 901,-324 895,-318 895,-312 895,-312 895,-300 895,-300 895,-294 901,-288 907,-288 907,-288 1032.5,-288 1032.5,-288 1038.5,-288 1044.5,-294 1044.5,-300 1044.5,-300 1044.5,-312 1044.5,-312 1044.5,-318 1038.5,-324 1032.5,-324"/>
<text xml:space="preserve" text-anchor="middle" x="969.75" y="-301.55" font-family="Helvetica,sans-Serif" font-size="11.00">plot_root_finding_diagnostic</text>
</g>
<!-- src_diagnostics__plot_outward_root_diagnostics&#45;&gt;src_plotting_plot_root_finding_diagnostic -->
<g id="edge5" class="edge">
<title>src_diagnostics__plot_outward_root_diagnostics&#45;&gt;src_plotting_plot_root_finding_diagnostic</title>
<path fill="none" stroke="#64748b" d="M853.46,-359.52C874.72,-349.92 901.22,-337.95 923.55,-327.86"/>
<polygon fill="#64748b" stroke="#64748b" points="924.51,-330.12 929.88,-325 922.49,-325.65 924.51,-330.12"/>
</g>
<!-- src_plotting_plot_root_finding_zoom -->
<g id="node22" class="node">
<title>src_plotting_plot_root_finding_zoom</title>
<path fill="#f8fafc" stroke="#334155" d="M1178.62,-324C1178.62,-324 1074.88,-324 1074.88,-324 1068.88,-324 1062.88,-318 1062.88,-312 1062.88,-312 1062.88,-300 1062.88,-300 1062.88,-294 1068.88,-288 1074.88,-288 1074.88,-288 1178.62,-288 1178.62,-288 1184.62,-288 1190.62,-294 1190.62,-300 1190.62,-300 1190.62,-312 1190.62,-312 1190.62,-318 1184.62,-324 1178.62,-324"/>
<text xml:space="preserve" text-anchor="middle" x="1126.75" y="-301.55" font-family="Helvetica,sans-Serif" font-size="11.00">plot_root_finding_zoom</text>
</g>
<!-- src_diagnostics__plot_outward_root_diagnostics&#45;&gt;src_plotting_plot_root_finding_zoom -->
<g id="edge6" class="edge">
<title>src_diagnostics__plot_outward_root_diagnostics&#45;&gt;src_plotting_plot_root_finding_zoom</title>
<path fill="none" stroke="#64748b" d="M894.46,-359.54C940.95,-349.31 1000.7,-336.06 1053.75,-324 1054.02,-323.94 1054.3,-323.88 1054.57,-323.81"/>
<polygon fill="#64748b" stroke="#64748b" points="1054.91,-326.25 1061.19,-322.3 1053.82,-321.47 1054.91,-326.25"/>
</g>
<!-- src_shooting_bisection_history_outward_shooting -->
<g id="node26" class="node">
<title>src_shooting_bisection_history_outward_shooting</title>
<path fill="#f8fafc" stroke="#334155" d="M911.25,-252C911.25,-252 748.25,-252 748.25,-252 742.25,-252 736.25,-246 736.25,-240 736.25,-240 736.25,-228 736.25,-228 736.25,-222 742.25,-216 748.25,-216 748.25,-216 911.25,-216 911.25,-216 917.25,-216 923.25,-222 923.25,-228 923.25,-228 923.25,-240 923.25,-240 923.25,-246 917.25,-252 911.25,-252"/>
<text xml:space="preserve" text-anchor="middle" x="829.75" y="-229.55" font-family="Helvetica,sans-Serif" font-size="11.00">bisection_history_outward_shooting</text>
</g>
<!-- src_diagnostics__plot_outward_root_diagnostics&#45;&gt;src_shooting_bisection_history_outward_shooting -->
<g id="edge7" class="edge">
<title>src_diagnostics__plot_outward_root_diagnostics&#45;&gt;src_shooting_bisection_history_outward_shooting</title>
<path fill="none" stroke="#64748b" d="M779.21,-359.71C765.51,-351.04 751.33,-339.13 743.75,-324 736.58,-309.7 735.95,-301.97 743.75,-288 751.18,-274.69 763.48,-264.31 776.48,-256.4"/>
<polygon fill="#64748b" stroke="#64748b" points="777.56,-258.61 782.43,-253.01 775.14,-254.35 777.56,-258.61"/>
</g>
<!-- src_shooting_find_brackets_outward_shooting -->
<g id="node30" class="node">
<title>src_shooting_find_brackets_outward_shooting</title>
<path fill="#f8fafc" stroke="#334155" d="M646.38,-324C646.38,-324 499.12,-324 499.12,-324 493.12,-324 487.12,-318 487.12,-312 487.12,-312 487.12,-300 487.12,-300 487.12,-294 493.12,-288 499.12,-288 499.12,-288 646.38,-288 646.38,-288 652.38,-288 658.38,-294 658.38,-300 658.38,-300 658.38,-312 658.38,-312 658.38,-318 652.38,-324 646.38,-324"/>
<text xml:space="preserve" text-anchor="middle" x="572.75" y="-301.55" font-family="Helvetica,sans-Serif" font-size="11.00">find_brackets_outward_shooting</text>
</g>
<!-- src_diagnostics__plot_outward_root_diagnostics&#45;&gt;src_shooting_find_brackets_outward_shooting -->
<g id="edge8" class="edge">
<title>src_diagnostics__plot_outward_root_diagnostics&#45;&gt;src_shooting_find_brackets_outward_shooting</title>
<path fill="none" stroke="#64748b" d="M754.31,-359.52C719.82,-349.54 676.48,-337 640.8,-326.68"/>
<polygon fill="#64748b" stroke="#64748b" points="641.7,-324.39 634.29,-324.8 640.34,-329.1 641.7,-324.39"/>
</g>
<!-- src_shooting_sample_mismatch_outward_shooting -->
<g id="node33" class="node">
<title>src_shooting_sample_mismatch_outward_shooting</title>
<path fill="#f8fafc" stroke="#334155" d="M706.62,-252C706.62,-252 536.88,-252 536.88,-252 530.88,-252 524.88,-246 524.88,-240 524.88,-240 524.88,-228 524.88,-228 524.88,-222 530.88,-216 536.88,-216 536.88,-216 706.62,-216 706.62,-216 712.62,-216 718.62,-222 718.62,-228 718.62,-228 718.62,-240 718.62,-240 718.62,-246 712.62,-252 706.62,-252"/>
<text xml:space="preserve" text-anchor="middle" x="621.75" y="-229.55" font-family="Helvetica,sans-Serif" font-size="11.00">sample_mismatch_outward_shooting</text>
</g>
<!-- src_diagnostics__plot_outward_root_diagnostics&#45;&gt;src_shooting_sample_mismatch_outward_shooting -->
<g id="edge9" class="edge">
<title>src_diagnostics__plot_outward_root_diagnostics&#45;&gt;src_shooting_sample_mismatch_outward_shooting</title>
<path fill="none" stroke="#64748b" d="M786.96,-359.71C771.12,-349.64 751.05,-336.5 733.75,-324 703.88,-302.43 671.02,-275.97 648.66,-257.53"/>
<polygon fill="#64748b" stroke="#64748b" points="650.48,-255.86 643.53,-253.28 647.36,-259.63 650.48,-255.86"/>
</g>
<!-- src_diagnostics_plot_double_well_root_diagnostics -->
<g id="node9" class="node">
<title>src_diagnostics_plot_double_well_root_diagnostics</title>
<path fill="#f8fafc" stroke="#334155" d="M1076.88,-468C1076.88,-468 920.62,-468 920.62,-468 914.62,-468 908.62,-462 908.62,-456 908.62,-456 908.62,-444 908.62,-444 908.62,-438 914.62,-432 920.62,-432 920.62,-432 1076.88,-432 1076.88,-432 1082.88,-432 1088.88,-438 1088.88,-444 1088.88,-444 1088.88,-456 1088.88,-456 1088.88,-462 1082.88,-468 1076.88,-468"/>
<text xml:space="preserve" text-anchor="middle" x="998.75" y="-445.55" font-family="Helvetica,sans-Serif" font-size="11.00">plot_double_well_root_diagnostics</text>
</g>
<!-- src_diagnostics_plot_double_well_root_diagnostics&#45;&gt;src_diagnostics__plot_outward_root_diagnostics -->
<g id="edge10" class="edge">
<title>src_diagnostics_plot_double_well_root_diagnostics&#45;&gt;src_diagnostics__plot_outward_root_diagnostics</title>
<path fill="none" stroke="#64748b" d="M952.79,-431.52C927.12,-421.75 895,-409.53 868.21,-399.34"/>
<polygon fill="#64748b" stroke="#64748b" points="869.27,-397.12 861.85,-396.92 867.53,-401.7 869.27,-397.12"/>
</g>
<!-- src_potentials_quartic_double_well -->
<g id="node24" class="node">
<title>src_potentials_quartic_double_well</title>
<path fill="#f8fafc" stroke="#334155" d="M1045.38,-396C1045.38,-396 958.12,-396 958.12,-396 952.12,-396 946.12,-390 946.12,-384 946.12,-384 946.12,-372 946.12,-372 946.12,-366 952.12,-360 958.12,-360 958.12,-360 1045.38,-360 1045.38,-360 1051.38,-360 1057.38,-366 1057.38,-372 1057.38,-372 1057.38,-384 1057.38,-384 1057.38,-390 1051.38,-396 1045.38,-396"/>
<text xml:space="preserve" text-anchor="middle" x="1001.75" y="-373.55" font-family="Helvetica,sans-Serif" font-size="11.00">quartic_double_well</text>
</g>
<!-- src_diagnostics_plot_double_well_root_diagnostics&#45;&gt;src_potentials_quartic_double_well -->
<g id="edge11" class="edge">
<title>src_diagnostics_plot_double_well_root_diagnostics&#45;&gt;src_potentials_quartic_double_well</title>
<path fill="none" stroke="#64748b" d="M999.49,-431.7C999.84,-423.47 1000.27,-413.48 1000.66,-404.42"/>
<polygon fill="#64748b" stroke="#64748b" points="1003.1,-404.72 1000.95,-397.62 998.2,-404.51 1003.1,-404.72"/>
</g>
<!-- src_experiments__experiment_results_dir -->
<g id="node10" class="node">
<title>src_experiments__experiment_results_dir</title>
<path fill="#f8fafc" stroke="#334155" d="M1470.12,-468C1470.12,-468 1363.38,-468 1363.38,-468 1357.38,-468 1351.38,-462 1351.38,-456 1351.38,-456 1351.38,-444 1351.38,-444 1351.38,-438 1357.38,-432 1363.38,-432 1363.38,-432 1470.12,-432 1470.12,-432 1476.12,-432 1482.12,-438 1482.12,-444 1482.12,-444 1482.12,-456 1482.12,-456 1482.12,-462 1476.12,-468 1470.12,-468"/>
<text xml:space="preserve" text-anchor="middle" x="1416.75" y="-445.55" font-family="Helvetica,sans-Serif" font-size="11.00">_experiment_results_dir</text>
</g>
<!-- src_experiments_run_quartic_double_well -->
<g id="node11" class="node">
<title>src_experiments_run_quartic_double_well</title>
<path fill="#f8fafc" stroke="#334155" d="M1053.25,-540C1053.25,-540 944.25,-540 944.25,-540 938.25,-540 932.25,-534 932.25,-528 932.25,-528 932.25,-516 932.25,-516 932.25,-510 938.25,-504 944.25,-504 944.25,-504 1053.25,-504 1053.25,-504 1059.25,-504 1065.25,-510 1065.25,-516 1065.25,-516 1065.25,-528 1065.25,-528 1065.25,-534 1059.25,-540 1053.25,-540"/>
<text xml:space="preserve" text-anchor="middle" x="998.75" y="-517.55" font-family="Helvetica,sans-Serif" font-size="11.00">run_quartic_double_well</text>
</g>
<!-- src_experiments_run_quartic_double_well&#45;&gt;src_analysis_convergence_vs_box_size_fixed_spacing -->
<g id="edge12" class="edge">
<title>src_experiments_run_quartic_double_well&#45;&gt;src_analysis_convergence_vs_box_size_fixed_spacing</title>
<path fill="none" stroke="#64748b" d="M932.09,-515.88C826.29,-507.49 613.49,-489.59 433.75,-468 433.57,-467.98 433.38,-467.96 433.2,-467.93"/>
<polygon fill="#64748b" stroke="#64748b" points="433.6,-465.51 426.35,-467.09 433,-470.38 433.6,-465.51"/>
</g>
<!-- src_experiments_run_quartic_double_well&#45;&gt;src_analysis_convergence_vs_grid_successive -->
<g id="edge13" class="edge">
<title>src_experiments_run_quartic_double_well&#45;&gt;src_analysis_convergence_vs_grid_successive</title>
<path fill="none" stroke="#64748b" d="M931.88,-518.97C794.6,-514.28 471.25,-500.48 201.75,-468 201.57,-467.98 201.39,-467.96 201.21,-467.93"/>
<polygon fill="#64748b" stroke="#64748b" points="201.73,-465.53 194.48,-467.07 201.11,-470.39 201.73,-465.53"/>
</g>
<!-- src_experiments_run_quartic_double_well&#45;&gt;src_analysis_estimate_convergence_slopes -->
<g id="edge14" class="edge">
<title>src_experiments_run_quartic_double_well&#45;&gt;src_analysis_estimate_convergence_slopes</title>
<path fill="none" stroke="#64748b" d="M931.82,-512.92C854.54,-503.34 723.68,-486.34 611.75,-468 611.66,-467.99 611.58,-467.97 611.49,-467.96"/>
<polygon fill="#64748b" stroke="#64748b" points="612.05,-465.57 604.74,-466.82 611.24,-470.4 612.05,-465.57"/>
</g>
<!-- src_experiments_run_quartic_double_well&#45;&gt;src_analysis_save_csv_rows -->
<g id="edge15" class="edge">
<title>src_experiments_run_quartic_double_well&#45;&gt;src_analysis_save_csv_rows</title>
<path fill="none" stroke="#64748b" d="M931.95,-509.8C876.25,-500.05 794.94,-484.87 724.75,-468 722.75,-467.52 720.73,-467.02 718.68,-466.5"/>
<polygon fill="#64748b" stroke="#64748b" points="719.59,-464.2 712.2,-464.8 718.35,-468.94 719.59,-464.2"/>
</g>
<!-- src_experiments_run_quartic_double_well&#45;&gt;src_analysis_splitting_vs_parameter -->
<g id="edge16" class="edge">
<title>src_experiments_run_quartic_double_well&#45;&gt;src_analysis_splitting_vs_parameter</title>
<path fill="none" stroke="#64748b" d="M956.29,-503.52C932.77,-493.83 903.4,-481.74 878.78,-471.6"/>
<polygon fill="#64748b" stroke="#64748b" points="879.77,-469.36 872.36,-468.96 877.9,-473.89 879.77,-469.36"/>
</g>
<!-- src_experiments_run_quartic_double_well&#45;&gt;src_diagnostics_plot_double_well_root_diagnostics -->
<g id="edge17" class="edge">
<title>src_experiments_run_quartic_double_well&#45;&gt;src_diagnostics_plot_double_well_root_diagnostics</title>
<path fill="none" stroke="#64748b" d="M998.75,-503.7C998.75,-495.47 998.75,-485.48 998.75,-476.42"/>
<polygon fill="#64748b" stroke="#64748b" points="1001.2,-476.62 998.75,-469.62 996.3,-476.62 1001.2,-476.62"/>
</g>
<!-- src_experiments_run_quartic_double_well&#45;&gt;src_experiments__experiment_results_dir -->
<g id="edge18" class="edge">
<title>src_experiments_run_quartic_double_well&#45;&gt;src_experiments__experiment_results_dir</title>
<path fill="none" stroke="#64748b" d="M1065.52,-511.71C1134.02,-501.9 1243.6,-485.48 1337.75,-468 1339.54,-467.67 1341.36,-467.32 1343.19,-466.97"/>
<polygon fill="#64748b" stroke="#64748b" points="1343.4,-469.43 1349.8,-465.68 1342.46,-464.62 1343.4,-469.43"/>
</g>
<!-- src_plotting_plot_error_curve -->
<g id="node18" class="node">
<title>src_plotting_plot_error_curve</title>
<path fill="#f8fafc" stroke="#334155" d="M1484.12,-396C1484.12,-396 1413.38,-396 1413.38,-396 1407.38,-396 1401.38,-390 1401.38,-384 1401.38,-384 1401.38,-372 1401.38,-372 1401.38,-366 1407.38,-360 1413.38,-360 1413.38,-360 1484.12,-360 1484.12,-360 1490.12,-360 1496.12,-366 1496.12,-372 1496.12,-372 1496.12,-384 1496.12,-384 1496.12,-390 1490.12,-396 1484.12,-396"/>
<text xml:space="preserve" text-anchor="middle" x="1448.75" y="-373.55" font-family="Helvetica,sans-Serif" font-size="11.00">plot_error_curve</text>
</g>
<!-- src_experiments_run_quartic_double_well&#45;&gt;src_plotting_plot_error_curve -->
<g id="edge19" class="edge">
<title>src_experiments_run_quartic_double_well&#45;&gt;src_plotting_plot_error_curve</title>
<path fill="none" stroke="#64748b" d="M1065.67,-517.62C1127.13,-512.55 1219.64,-499.83 1293.75,-468 1318.58,-457.33 1319.69,-446.09 1342.75,-432 1361.65,-420.45 1383.4,-409.24 1402.26,-400.13"/>
<polygon fill="#64748b" stroke="#64748b" points="1403.26,-402.37 1408.52,-397.14 1401.14,-397.95 1403.26,-402.37"/>
</g>
<!-- src_plotting_plot_potential_and_states -->
<g id="node19" class="node">
<title>src_plotting_plot_potential_and_states</title>
<path fill="#f8fafc" stroke="#334155" d="M1207.88,-396C1207.88,-396 1093.62,-396 1093.62,-396 1087.62,-396 1081.62,-390 1081.62,-384 1081.62,-384 1081.62,-372 1081.62,-372 1081.62,-366 1087.62,-360 1093.62,-360 1093.62,-360 1207.88,-360 1207.88,-360 1213.88,-360 1219.88,-366 1219.88,-372 1219.88,-372 1219.88,-384 1219.88,-384 1219.88,-390 1213.88,-396 1207.88,-396"/>
<text xml:space="preserve" text-anchor="middle" x="1150.75" y="-373.55" font-family="Helvetica,sans-Serif" font-size="11.00">plot_potential_and_states</text>
</g>
<!-- src_experiments_run_quartic_double_well&#45;&gt;src_plotting_plot_potential_and_states -->
<g id="edge20" class="edge">
<title>src_experiments_run_quartic_double_well&#45;&gt;src_plotting_plot_potential_and_states</title>
<path fill="none" stroke="#64748b" d="M1059.03,-503.52C1078.82,-495.35 1099.6,-483.84 1114.75,-468 1131.51,-450.48 1140.85,-424.13 1145.79,-404.65"/>
<polygon fill="#64748b" stroke="#64748b" points="1148.14,-405.35 1147.35,-397.97 1143.37,-404.23 1148.14,-405.35"/>
</g>
<!-- src_plotting_plot_probability_densities -->
<g id="node20" class="node">
<title>src_plotting_plot_probability_densities</title>
<path fill="#f8fafc" stroke="#334155" d="M1370.75,-324C1370.75,-324 1258.75,-324 1258.75,-324 1252.75,-324 1246.75,-318 1246.75,-312 1246.75,-312 1246.75,-300 1246.75,-300 1246.75,-294 1252.75,-288 1258.75,-288 1258.75,-288 1370.75,-288 1370.75,-288 1376.75,-288 1382.75,-294 1382.75,-300 1382.75,-300 1382.75,-312 1382.75,-312 1382.75,-318 1376.75,-324 1370.75,-324"/>
<text xml:space="preserve" text-anchor="middle" x="1314.75" y="-301.55" font-family="Helvetica,sans-Serif" font-size="11.00">plot_probability_densities</text>
</g>
<!-- src_experiments_run_quartic_double_well&#45;&gt;src_plotting_plot_probability_densities -->
<g id="edge21" class="edge">
<title>src_experiments_run_quartic_double_well&#45;&gt;src_plotting_plot_probability_densities</title>
<path fill="none" stroke="#64748b" d="M1057.58,-503.6C1083.63,-494.73 1114.1,-482.68 1139.75,-468 1183.91,-442.73 1191.22,-430.36 1228.75,-396 1251.96,-374.75 1276.76,-348.69 1293.73,-330.27"/>
<polygon fill="#64748b" stroke="#64748b" points="1295.22,-332.27 1298.15,-325.45 1291.61,-328.96 1295.22,-332.27"/>
</g>
<!-- src_plotting_plot_splitting_curve -->
<g id="node23" class="node">
<title>src_plotting_plot_splitting_curve</title>
<path fill="#f8fafc" stroke="#334155" d="M1371.5,-396C1371.5,-396 1288,-396 1288,-396 1282,-396 1276,-390 1276,-384 1276,-384 1276,-372 1276,-372 1276,-366 1282,-360 1288,-360 1288,-360 1371.5,-360 1371.5,-360 1377.5,-360 1383.5,-366 1383.5,-372 1383.5,-372 1383.5,-384 1383.5,-384 1383.5,-390 1377.5,-396 1371.5,-396"/>
<text xml:space="preserve" text-anchor="middle" x="1329.75" y="-373.55" font-family="Helvetica,sans-Serif" font-size="11.00">plot_splitting_curve</text>
</g>
<!-- src_experiments_run_quartic_double_well&#45;&gt;src_plotting_plot_splitting_curve -->
<g id="edge22" class="edge">
<title>src_experiments_run_quartic_double_well&#45;&gt;src_plotting_plot_splitting_curve</title>
<path fill="none" stroke="#64748b" d="M1065.65,-520.35C1121.86,-516.94 1202.31,-505.15 1261.75,-468 1286.61,-452.46 1305.77,-424.37 1317.32,-403.89"/>
<polygon fill="#64748b" stroke="#64748b" points="1319.45,-405.1 1320.65,-397.78 1315.15,-402.75 1319.45,-405.1"/>
</g>
<!-- src_experiments_run_quartic_double_well&#45;&gt;src_potentials_quartic_double_well -->
<g id="edge23" class="edge">
<title>src_experiments_run_quartic_double_well&#45;&gt;src_potentials_quartic_double_well</title>
<path fill="none" stroke="#64748b" d="M1055.16,-503.59C1071.81,-495.52 1088.13,-484.06 1097.75,-468 1105.97,-454.27 1105.88,-445.78 1097.75,-432 1089.72,-418.39 1076.8,-408.03 1063,-400.25"/>
<polygon fill="#64748b" stroke="#64748b" points="1064.4,-398.22 1057.07,-397.12 1062.12,-402.55 1064.4,-398.22"/>
</g>
<!-- src_experiments_run_quartic_double_well&#45;&gt;src_shooting_solve_symmetric_potential_outward_shooting -->
<g id="edge24" class="edge">
<title>src_experiments_run_quartic_double_well&#45;&gt;src_shooting_solve_symmetric_potential_outward_shooting</title>
<path fill="none" stroke="#64748b" d="M931.76,-516C881.46,-510 812.16,-496.84 757.75,-468 737.19,-457.1 739.4,-444.46 719.75,-432 698.69,-418.65 673.73,-407.73 650.97,-399.35"/>
<polygon fill="#64748b" stroke="#64748b" points="651.87,-397.07 644.45,-397 650.21,-401.68 651.87,-397.07"/>
</g>
<!-- src_numerov_derivative_at_right_edge -->
<g id="node12" class="node">
<title>src_numerov_derivative_at_right_edge</title>
<path fill="#f8fafc" stroke="#334155" d="M473.62,-108C473.62,-108 363.88,-108 363.88,-108 357.88,-108 351.88,-102 351.88,-96 351.88,-96 351.88,-84 351.88,-84 351.88,-78 357.88,-72 363.88,-72 363.88,-72 473.62,-72 473.62,-72 479.62,-72 485.62,-78 485.62,-84 485.62,-84 485.62,-96 485.62,-96 485.62,-102 479.62,-108 473.62,-108"/>
<text xml:space="preserve" text-anchor="middle" x="418.75" y="-85.55" font-family="Helvetica,sans-Serif" font-size="11.00">derivative_at_right_edge</text>
</g>
<!-- src_numerov_normalize_wavefunction -->
<g id="node13" class="node">
<title>src_numerov_normalize_wavefunction</title>
<path fill="#f8fafc" stroke="#334155" d="M119.5,-252C119.5,-252 12,-252 12,-252 6,-252 0,-246 0,-240 0,-240 0,-228 0,-228 0,-222 6,-216 12,-216 12,-216 119.5,-216 119.5,-216 125.5,-216 131.5,-222 131.5,-228 131.5,-228 131.5,-240 131.5,-240 131.5,-246 125.5,-252 119.5,-252"/>
<text xml:space="preserve" text-anchor="middle" x="65.75" y="-229.55" font-family="Helvetica,sans-Serif" font-size="11.00">normalize_wavefunction</text>
</g>
<!-- src_numerov_numerov_march -->
<g id="node14" class="node">
<title>src_numerov_numerov_march</title>
<path fill="#f8fafc" stroke="#334155" d="M546.75,-36C546.75,-36 476.75,-36 476.75,-36 470.75,-36 464.75,-30 464.75,-24 464.75,-24 464.75,-12 464.75,-12 464.75,-6 470.75,0 476.75,0 476.75,0 546.75,0 546.75,0 552.75,0 558.75,-6 558.75,-12 558.75,-12 558.75,-24 558.75,-24 558.75,-30 552.75,-36 546.75,-36"/>
<text xml:space="preserve" text-anchor="middle" x="511.75" y="-13.55" font-family="Helvetica,sans-Serif" font-size="11.00">numerov_march</text>
</g>
<!-- src_numerov_q_from_energy -->
<g id="node15" class="node">
<title>src_numerov_q_from_energy</title>
<path fill="#f8fafc" stroke="#334155" d="M653.12,-36C653.12,-36 588.38,-36 588.38,-36 582.38,-36 576.38,-30 576.38,-24 576.38,-24 576.38,-12 576.38,-12 576.38,-6 582.38,0 588.38,0 588.38,0 653.12,0 653.12,0 659.12,0 665.12,-6 665.12,-12 665.12,-12 665.12,-24 665.12,-24 665.12,-30 659.12,-36 653.12,-36"/>
<text xml:space="preserve" text-anchor="middle" x="620.75" y="-13.55" font-family="Helvetica,sans-Serif" font-size="11.00">q_from_energy</text>
</g>
<!-- src_plotting__ensure_parent -->
<g id="node16" class="node">
<title>src_plotting__ensure_parent</title>
<path fill="#f8fafc" stroke="#334155" d="M1312.62,-252C1312.62,-252 1244.88,-252 1244.88,-252 1238.88,-252 1232.88,-246 1232.88,-240 1232.88,-240 1232.88,-228 1232.88,-228 1232.88,-222 1238.88,-216 1244.88,-216 1244.88,-216 1312.62,-216 1312.62,-216 1318.62,-216 1324.62,-222 1324.62,-228 1324.62,-228 1324.62,-240 1324.62,-240 1324.62,-246 1318.62,-252 1312.62,-252"/>
<text xml:space="preserve" text-anchor="middle" x="1278.75" y="-229.55" font-family="Helvetica,sans-Serif" font-size="11.00">_ensure_parent</text>
</g>
<!-- src_plotting__symlog_linthresh -->
<g id="node17" class="node">
<title>src_plotting__symlog_linthresh</title>
<path fill="#f8fafc" stroke="#334155" d="M1098.88,-252C1098.88,-252 1020.62,-252 1020.62,-252 1014.62,-252 1008.62,-246 1008.62,-240 1008.62,-240 1008.62,-228 1008.62,-228 1008.62,-222 1014.62,-216 1020.62,-216 1020.62,-216 1098.88,-216 1098.88,-216 1104.88,-216 1110.88,-222 1110.88,-228 1110.88,-228 1110.88,-240 1110.88,-240 1110.88,-246 1104.88,-252 1098.88,-252"/>
<text xml:space="preserve" text-anchor="middle" x="1059.75" y="-229.55" font-family="Helvetica,sans-Serif" font-size="11.00">_symlog_linthresh</text>
</g>
<!-- src_plotting_plot_error_curve&#45;&gt;src_plotting__ensure_parent -->
<g id="edge25" class="edge">
<title>src_plotting_plot_error_curve&#45;&gt;src_plotting__ensure_parent</title>
<path fill="none" stroke="#64748b" d="M1445.08,-359.69C1440.05,-339.92 1429.23,-307.77 1408.75,-288 1388.02,-267.99 1358.72,-255.16 1333.18,-247.14"/>
<polygon fill="#64748b" stroke="#64748b" points="1333.89,-244.8 1326.48,-245.14 1332.49,-249.49 1333.89,-244.8"/>
</g>
<!-- src_plotting_plot_potential_and_states&#45;&gt;src_plotting__ensure_parent -->
<g id="edge26" class="edge">
<title>src_plotting_plot_potential_and_states&#45;&gt;src_plotting__ensure_parent</title>
<path fill="none" stroke="#64748b" d="M1166.73,-359.9C1176.35,-349.55 1188.81,-336.07 1199.75,-324 1219.64,-302.04 1242.03,-276.76 1257.89,-258.77"/>
<polygon fill="#64748b" stroke="#64748b" points="1259.63,-260.5 1262.41,-253.62 1255.95,-257.26 1259.63,-260.5"/>
</g>
<!-- src_plotting_plot_probability_densities&#45;&gt;src_plotting__ensure_parent -->
<g id="edge27" class="edge">
<title>src_plotting_plot_probability_densities&#45;&gt;src_plotting__ensure_parent</title>
<path fill="none" stroke="#64748b" d="M1305.85,-287.7C1301.49,-279.22 1296.17,-268.86 1291.39,-259.58"/>
<polygon fill="#64748b" stroke="#64748b" points="1293.62,-258.55 1288.24,-253.45 1289.26,-260.8 1293.62,-258.55"/>
</g>
<!-- src_plotting_plot_root_finding_diagnostic&#45;&gt;src_plotting__ensure_parent -->
<g id="edge28" class="edge">
<title>src_plotting_plot_root_finding_diagnostic&#45;&gt;src_plotting__ensure_parent</title>
<path fill="none" stroke="#64748b" d="M1044.94,-287.97C1100.45,-275.39 1174.69,-258.57 1224.49,-247.29"/>
<polygon fill="#64748b" stroke="#64748b" points="1224.81,-249.73 1231.09,-245.8 1223.72,-244.95 1224.81,-249.73"/>
</g>
<!-- src_plotting_plot_root_finding_diagnostic&#45;&gt;src_plotting__symlog_linthresh -->
<g id="edge29" class="edge">
<title>src_plotting_plot_root_finding_diagnostic&#45;&gt;src_plotting__symlog_linthresh</title>
<path fill="none" stroke="#64748b" d="M992,-287.7C1003.79,-278.53 1018.41,-267.16 1031.04,-257.33"/>
<polygon fill="#64748b" stroke="#64748b" points="1032.23,-259.51 1036.25,-253.28 1029.22,-255.64 1032.23,-259.51"/>
</g>
<!-- src_plotting_plot_root_finding_zoom&#45;&gt;src_plotting__ensure_parent -->
<g id="edge30" class="edge">
<title>src_plotting_plot_root_finding_zoom&#45;&gt;src_plotting__ensure_parent</title>
<path fill="none" stroke="#64748b" d="M1164.71,-287.52C1185.56,-277.92 1211.55,-265.95 1233.45,-255.86"/>
<polygon fill="#64748b" stroke="#64748b" points="1234.3,-258.17 1239.63,-253.01 1232.25,-253.72 1234.3,-258.17"/>
</g>
<!-- src_plotting_plot_root_finding_zoom&#45;&gt;src_plotting__symlog_linthresh -->
<g id="edge31" class="edge">
<title>src_plotting_plot_root_finding_zoom&#45;&gt;src_plotting__symlog_linthresh</title>
<path fill="none" stroke="#64748b" d="M1110.19,-287.7C1101.67,-278.8 1091.17,-267.82 1081.95,-258.2"/>
<polygon fill="#64748b" stroke="#64748b" points="1083.78,-256.56 1077.17,-253.2 1080.24,-259.95 1083.78,-256.56"/>
</g>
<!-- src_plotting_plot_splitting_curve&#45;&gt;src_plotting__ensure_parent -->
<g id="edge32" class="edge">
<title>src_plotting_plot_splitting_curve&#45;&gt;src_plotting__ensure_parent</title>
<path fill="none" stroke="#64748b" d="M1359.58,-359.7C1371.96,-350.78 1384.99,-338.66 1391.75,-324 1398.45,-309.47 1400.33,-301.5 1391.75,-288 1378.66,-267.4 1355.2,-254.66 1333.04,-246.86"/>
<polygon fill="#64748b" stroke="#64748b" points="1333.81,-244.54 1326.39,-244.68 1332.28,-249.19 1333.81,-244.54"/>
</g>
<!-- src_shooting_bisect_energy_outward_shooting -->
<g id="node25" class="node">
<title>src_shooting_bisect_energy_outward_shooting</title>
<path fill="#f8fafc" stroke="#334155" d="M494.88,-252C494.88,-252 344.62,-252 344.62,-252 338.62,-252 332.62,-246 332.62,-240 332.62,-240 332.62,-228 332.62,-228 332.62,-222 338.62,-216 344.62,-216 344.62,-216 494.88,-216 494.88,-216 500.88,-216 506.88,-222 506.88,-228 506.88,-228 506.88,-240 506.88,-240 506.88,-246 500.88,-252 494.88,-252"/>
<text xml:space="preserve" text-anchor="middle" x="419.75" y="-229.55" font-family="Helvetica,sans-Serif" font-size="11.00">bisect_energy_outward_shooting</text>
</g>
<!-- src_shooting_boundary_mismatch_outward_shooting -->
<g id="node27" class="node">
<title>src_shooting_boundary_mismatch_outward_shooting</title>
<path fill="#f8fafc" stroke="#334155" d="M609.88,-180C609.88,-180 429.62,-180 429.62,-180 423.62,-180 417.62,-174 417.62,-168 417.62,-168 417.62,-156 417.62,-156 417.62,-150 423.62,-144 429.62,-144 429.62,-144 609.88,-144 609.88,-144 615.88,-144 621.88,-150 621.88,-156 621.88,-156 621.88,-168 621.88,-168 621.88,-174 615.88,-180 609.88,-180"/>
<text xml:space="preserve" text-anchor="middle" x="519.75" y="-157.55" font-family="Helvetica,sans-Serif" font-size="11.00">boundary_mismatch_outward_shooting</text>
</g>
<!-- src_shooting_bisect_energy_outward_shooting&#45;&gt;src_shooting_boundary_mismatch_outward_shooting -->
<g id="edge33" class="edge">
<title>src_shooting_bisect_energy_outward_shooting&#45;&gt;src_shooting_boundary_mismatch_outward_shooting</title>
<path fill="none" stroke="#64748b" d="M444.73,-215.52C457.95,-206.26 474.32,-194.8 488.39,-184.95"/>
<polygon fill="#64748b" stroke="#64748b" points="489.52,-187.15 493.85,-181.13 486.71,-183.14 489.52,-187.15"/>
</g>
<!-- src_shooting_bisection_history_outward_shooting&#45;&gt;src_shooting_boundary_mismatch_outward_shooting -->
<g id="edge34" class="edge">
<title>src_shooting_bisection_history_outward_shooting&#45;&gt;src_shooting_boundary_mismatch_outward_shooting</title>
<path fill="none" stroke="#64748b" d="M752.32,-215.52C707.58,-205.41 651.21,-192.68 605.17,-182.29"/>
<polygon fill="#64748b" stroke="#64748b" points="605.84,-179.93 598.47,-180.78 604.76,-184.71 605.84,-179.93"/>
</g>
<!-- src_shooting_diagnostic_mismatch_outward_shooting -->
<g id="node29" class="node">
<title>src_shooting_diagnostic_mismatch_outward_shooting</title>
<path fill="#f8fafc" stroke="#334155" d="M835.38,-180C835.38,-180 652.12,-180 652.12,-180 646.12,-180 640.12,-174 640.12,-168 640.12,-168 640.12,-156 640.12,-156 640.12,-150 646.12,-144 652.12,-144 652.12,-144 835.38,-144 835.38,-144 841.38,-144 847.38,-150 847.38,-156 847.38,-156 847.38,-168 847.38,-168 847.38,-174 841.38,-180 835.38,-180"/>
<text xml:space="preserve" text-anchor="middle" x="743.75" y="-157.55" font-family="Helvetica,sans-Serif" font-size="11.00">diagnostic_mismatch_outward_shooting</text>
</g>
<!-- src_shooting_bisection_history_outward_shooting&#45;&gt;src_shooting_diagnostic_mismatch_outward_shooting -->
<g id="edge35" class="edge">
<title>src_shooting_bisection_history_outward_shooting&#45;&gt;src_shooting_diagnostic_mismatch_outward_shooting</title>
<path fill="none" stroke="#64748b" d="M808.49,-215.7C797.33,-206.61 783.51,-195.36 771.51,-185.6"/>
<polygon fill="#64748b" stroke="#64748b" points="773.21,-183.82 766.24,-181.3 770.12,-187.62 773.21,-183.82"/>
</g>
<!-- src_shooting_boundary_mismatch_outward_shooting&#45;&gt;src_numerov_derivative_at_right_edge -->
<g id="edge36" class="edge">
<title>src_shooting_boundary_mismatch_outward_shooting&#45;&gt;src_numerov_derivative_at_right_edge</title>
<path fill="none" stroke="#64748b" d="M494.52,-143.52C481.17,-134.26 464.63,-122.8 450.42,-112.95"/>
<polygon fill="#64748b" stroke="#64748b" points="452.05,-111.1 444.9,-109.12 449.26,-115.12 452.05,-111.1"/>
</g>
<!-- src_shooting_half_domain_wavefunction_outward_shooting -->
<g id="node31" class="node">
<title>src_shooting_half_domain_wavefunction_outward_shooting</title>
<path fill="#f8fafc" stroke="#334155" d="M726.25,-108C726.25,-108 515.25,-108 515.25,-108 509.25,-108 503.25,-102 503.25,-96 503.25,-96 503.25,-84 503.25,-84 503.25,-78 509.25,-72 515.25,-72 515.25,-72 726.25,-72 726.25,-72 732.25,-72 738.25,-78 738.25,-84 738.25,-84 738.25,-96 738.25,-96 738.25,-102 732.25,-108 726.25,-108"/>
<text xml:space="preserve" text-anchor="middle" x="620.75" y="-85.55" font-family="Helvetica,sans-Serif" font-size="11.00">half_domain_wavefunction_outward_shooting</text>
</g>
<!-- src_shooting_boundary_mismatch_outward_shooting&#45;&gt;src_shooting_half_domain_wavefunction_outward_shooting -->
<g id="edge37" class="edge">
<title>src_shooting_boundary_mismatch_outward_shooting&#45;&gt;src_shooting_half_domain_wavefunction_outward_shooting</title>
<path fill="none" stroke="#64748b" d="M544.98,-143.52C558.33,-134.26 574.87,-122.8 589.08,-112.95"/>
<polygon fill="#64748b" stroke="#64748b" points="590.24,-115.12 594.6,-109.12 587.45,-111.1 590.24,-115.12"/>
</g>
<!-- src_shooting_build_full_wavefunction -->
<g id="node28" class="node">
<title>src_shooting_build_full_wavefunction</title>
<path fill="#f8fafc" stroke="#334155" d="M264.25,-252C264.25,-252 161.25,-252 161.25,-252 155.25,-252 149.25,-246 149.25,-240 149.25,-240 149.25,-228 149.25,-228 149.25,-222 155.25,-216 161.25,-216 161.25,-216 264.25,-216 264.25,-216 270.25,-216 276.25,-222 276.25,-228 276.25,-228 276.25,-240 276.25,-240 276.25,-246 270.25,-252 264.25,-252"/>
<text xml:space="preserve" text-anchor="middle" x="212.75" y="-229.55" font-family="Helvetica,sans-Serif" font-size="11.00">build_full_wavefunction</text>
</g>
<!-- src_shooting_diagnostic_mismatch_outward_shooting&#45;&gt;src_shooting_half_domain_wavefunction_outward_shooting -->
<g id="edge38" class="edge">
<title>src_shooting_diagnostic_mismatch_outward_shooting&#45;&gt;src_shooting_half_domain_wavefunction_outward_shooting</title>
<path fill="none" stroke="#64748b" d="M713.03,-143.52C696.47,-134.09 675.89,-122.38 658.38,-112.41"/>
<polygon fill="#64748b" stroke="#64748b" points="659.69,-110.34 652.39,-109.01 657.27,-114.6 659.69,-110.34"/>
</g>
<!-- src_shooting_find_brackets_outward_shooting&#45;&gt;src_shooting_sample_mismatch_outward_shooting -->
<g id="edge39" class="edge">
<title>src_shooting_find_brackets_outward_shooting&#45;&gt;src_shooting_sample_mismatch_outward_shooting</title>
<path fill="none" stroke="#64748b" d="M584.86,-287.7C590.91,-279.05 598.34,-268.45 604.93,-259.03"/>
<polygon fill="#64748b" stroke="#64748b" points="606.9,-260.48 608.91,-253.34 602.89,-257.67 606.9,-260.48"/>
</g>
<!-- src_shooting_half_domain_wavefunction_outward_shooting&#45;&gt;src_numerov_numerov_march -->
<g id="edge40" class="edge">
<title>src_shooting_half_domain_wavefunction_outward_shooting&#45;&gt;src_numerov_numerov_march</title>
<path fill="none" stroke="#64748b" d="M593.53,-71.52C578.98,-62.18 560.94,-50.59 545.51,-40.68"/>
<polygon fill="#64748b" stroke="#64748b" points="547.11,-38.8 539.9,-37.08 544.47,-42.92 547.11,-38.8"/>
</g>
<!-- src_shooting_half_domain_wavefunction_outward_shooting&#45;&gt;src_numerov_q_from_energy -->
<g id="edge41" class="edge">
<title>src_shooting_half_domain_wavefunction_outward_shooting&#45;&gt;src_numerov_q_from_energy</title>
<path fill="none" stroke="#64748b" d="M620.75,-71.7C620.75,-63.47 620.75,-53.48 620.75,-44.42"/>
<polygon fill="#64748b" stroke="#64748b" points="623.2,-44.62 620.75,-37.62 618.3,-44.62 623.2,-44.62"/>
</g>
<!-- src_shooting_initial_conditions_outward_shooting -->
<g id="node32" class="node">
<title>src_shooting_initial_conditions_outward_shooting</title>
<path fill="#f8fafc" stroke="#334155" d="M856.5,-36C856.5,-36 695,-36 695,-36 689,-36 683,-30 683,-24 683,-24 683,-12 683,-12 683,-6 689,0 695,0 695,0 856.5,0 856.5,0 862.5,0 868.5,-6 868.5,-12 868.5,-12 868.5,-24 868.5,-24 868.5,-30 862.5,-36 856.5,-36"/>
<text xml:space="preserve" text-anchor="middle" x="775.75" y="-13.55" font-family="Helvetica,sans-Serif" font-size="11.00">initial_conditions_outward_shooting</text>
</g>
<!-- src_shooting_half_domain_wavefunction_outward_shooting&#45;&gt;src_shooting_initial_conditions_outward_shooting -->
<g id="edge42" class="edge">
<title>src_shooting_half_domain_wavefunction_outward_shooting&#45;&gt;src_shooting_initial_conditions_outward_shooting</title>
<path fill="none" stroke="#64748b" d="M659.46,-71.52C680.72,-61.92 707.22,-49.95 729.55,-39.86"/>
<polygon fill="#64748b" stroke="#64748b" points="730.51,-42.12 735.88,-37 728.49,-37.65 730.51,-42.12"/>
</g>
<!-- src_shooting_sample_mismatch_outward_shooting&#45;&gt;src_shooting_boundary_mismatch_outward_shooting -->
<g id="edge43" class="edge">
<title>src_shooting_sample_mismatch_outward_shooting&#45;&gt;src_shooting_boundary_mismatch_outward_shooting</title>
<path fill="none" stroke="#64748b" d="M596.27,-215.52C582.79,-206.26 566.09,-194.8 551.73,-184.95"/>
<polygon fill="#64748b" stroke="#64748b" points="553.31,-183.06 546.15,-181.12 550.53,-187.1 553.31,-183.06"/>
</g>
<!-- src_shooting_sample_mismatch_outward_shooting&#45;&gt;src_shooting_diagnostic_mismatch_outward_shooting -->
<g id="edge44" class="edge">
<title>src_shooting_sample_mismatch_outward_shooting&#45;&gt;src_shooting_diagnostic_mismatch_outward_shooting</title>
<path fill="none" stroke="#64748b" d="M652.22,-215.52C668.65,-206.09 689.05,-194.38 706.43,-184.41"/>
<polygon fill="#64748b" stroke="#64748b" points="707.5,-186.62 712.35,-181.01 705.06,-182.37 707.5,-186.62"/>
</g>
<!-- src_shooting_solve_state_from_bracket_outward_shooting -->
<g id="node34" class="node">
<title>src_shooting_solve_state_from_bracket_outward_shooting</title>
<path fill="#f8fafc" stroke="#334155" d="M408,-324C408,-324 201.5,-324 201.5,-324 195.5,-324 189.5,-318 189.5,-312 189.5,-312 189.5,-300 189.5,-300 189.5,-294 195.5,-288 201.5,-288 201.5,-288 408,-288 408,-288 414,-288 420,-294 420,-300 420,-300 420,-312 420,-312 420,-318 414,-324 408,-324"/>
<text xml:space="preserve" text-anchor="middle" x="304.75" y="-301.55" font-family="Helvetica,sans-Serif" font-size="11.00">solve_state_from_bracket_outward_shooting</text>
</g>
<!-- src_shooting_solve_state_from_bracket_outward_shooting&#45;&gt;src_numerov_normalize_wavefunction -->
<g id="edge45" class="edge">
<title>src_shooting_solve_state_from_bracket_outward_shooting&#45;&gt;src_numerov_normalize_wavefunction</title>
<path fill="none" stroke="#64748b" d="M245.06,-287.52C210.99,-277.54 168.2,-265 132.96,-254.68"/>
<polygon fill="#64748b" stroke="#64748b" points="133.96,-252.42 126.55,-252.81 132.58,-257.13 133.96,-252.42"/>
</g>
<!-- src_shooting_solve_state_from_bracket_outward_shooting&#45;&gt;src_shooting_bisect_energy_outward_shooting -->
<g id="edge46" class="edge">
<title>src_shooting_solve_state_from_bracket_outward_shooting&#45;&gt;src_shooting_bisect_energy_outward_shooting</title>
<path fill="none" stroke="#64748b" d="M333.47,-287.52C348.82,-278.18 367.85,-266.59 384.13,-256.68"/>
<polygon fill="#64748b" stroke="#64748b" points="385.39,-258.78 390.1,-253.05 382.85,-254.59 385.39,-258.78"/>
</g>
<!-- src_shooting_solve_state_from_bracket_outward_shooting&#45;&gt;src_shooting_build_full_wavefunction -->
<g id="edge47" class="edge">
<title>src_shooting_solve_state_from_bracket_outward_shooting&#45;&gt;src_shooting_build_full_wavefunction</title>
<path fill="none" stroke="#64748b" d="M282.01,-287.7C269.96,-278.53 255.01,-267.16 242.09,-257.33"/>
<polygon fill="#64748b" stroke="#64748b" points="243.81,-255.55 236.75,-253.26 240.84,-259.45 243.81,-255.55"/>
</g>
<!-- src_shooting_solve_state_from_bracket_outward_shooting&#45;&gt;src_shooting_half_domain_wavefunction_outward_shooting -->
<g id="edge48" class="edge">
<title>src_shooting_solve_state_from_bracket_outward_shooting&#45;&gt;src_shooting_half_domain_wavefunction_outward_shooting</title>
<path fill="none" stroke="#64748b" d="M305.17,-287.74C306.34,-268.88 310.37,-238.37 323.75,-216 349.17,-173.51 364.7,-166.59 408.75,-144 437.77,-129.12 471.21,-118.25 502.82,-110.39"/>
<polygon fill="#64748b" stroke="#64748b" points="503.12,-112.84 509.34,-108.81 501.96,-108.07 503.12,-112.84"/>
</g>
<!-- src_shooting_solve_symmetric_potential_outward_shooting&#45;&gt;src_shooting_find_brackets_outward_shooting -->
<g id="edge49" class="edge">
<title>src_shooting_solve_symmetric_potential_outward_shooting&#45;&gt;src_shooting_find_brackets_outward_shooting</title>
<path fill="none" stroke="#64748b" d="M581.03,-359.7C579.74,-351.47 578.17,-341.48 576.74,-332.42"/>
<polygon fill="#64748b" stroke="#64748b" points="579.18,-332.13 575.67,-325.6 574.34,-332.9 579.18,-332.13"/>
</g>
<!-- src_shooting_solve_symmetric_potential_outward_shooting&#45;&gt;src_shooting_solve_state_from_bracket_outward_shooting -->
<g id="edge50" class="edge">
<title>src_shooting_solve_symmetric_potential_outward_shooting&#45;&gt;src_shooting_solve_state_from_bracket_outward_shooting</title>
<path fill="none" stroke="#64748b" d="M514.07,-359.52C473.97,-349.46 423.5,-336.79 382.17,-326.42"/>
<polygon fill="#64748b" stroke="#64748b" points="382.88,-324.08 375.5,-324.75 381.69,-328.83 382.88,-324.08"/>
</g>
</g>
</svg>
