<?xml version="1.0" encoding="UTF-8" standalone="no"?>
<!DOCTYPE svg PUBLIC "-//W3C//DTD SVG 1.1//EN"
 "http://www.w3.org/Graphics/SVG/1.1/DTD/svg11.dtd">
<!-- Generated by graphviz version 14.1.5 (20260411.2331)
 -->
<!-- Title: G Pages: 1 -->
<svg width="881pt" height="385pt"
 viewBox="0.00 0.00 881.00 385.00" xmlns="http://www.w3.org/2000/svg" xmlns:xlink="http://www.w3.org/1999/xlink">
<g id="graph0" class="graph" transform="scale(1 1) rotate(0) translate(4 381.48)">
<title>G</title>
<polygon fill="white" stroke="none" points="-4,4 -4,-381.48 876.5,-381.48 876.5,4 -4,4"/>
<text xml:space="preserve" text-anchor="middle" x="92" y="-354.48" font-family="Helvetica,sans-Serif" font-size="20.00">Module&#45;Level Flow</text>
<!-- scripts_run_solver -->
<g id="node1" class="node">
<title>scripts_run_solver</title>
<path fill="#eff6ff" stroke="#1d4ed8" d="M97.75,-151.96C97.75,-151.96 12,-151.96 12,-151.96 6,-151.96 0,-145.96 0,-139.96 0,-139.96 0,-127.96 0,-127.96 0,-121.96 6,-115.96 12,-115.96 12,-115.96 97.75,-115.96 97.75,-115.96 103.75,-115.96 109.75,-121.96 109.75,-127.96 109.75,-127.96 109.75,-139.96 109.75,-139.96 109.75,-145.96 103.75,-151.96 97.75,-151.96"/>
<text xml:space="preserve" text-anchor="middle" x="54.88" y="-128.94" font-family="Helvetica,sans-Serif" font-size="12.00">scripts.run_solver</text>
</g>
<!-- src_experiments -->
<g id="node4" class="node">
<title>src_experiments</title>
<path fill="#eff6ff" stroke="#1d4ed8" d="M233.75,-212.96C233.75,-212.96 157.75,-212.96 157.75,-212.96 151.75,-212.96 145.75,-206.96 145.75,-200.96 145.75,-200.96 145.75,-188.96 145.75,-188.96 145.75,-182.96 151.75,-176.96 157.75,-176.96 157.75,-176.96 233.75,-176.96 233.75,-176.96 239.75,-176.96 245.75,-182.96 245.75,-188.96 245.75,-188.96 245.75,-200.96 245.75,-200.96 245.75,-206.96 239.75,-212.96 233.75,-212.96"/>
<text xml:space="preserve" text-anchor="middle" x="195.75" y="-189.94" font-family="Helvetica,sans-Serif" font-size="12.00">src.experiments</text>
</g>
<!-- scripts_run_solver&#45;&gt;src_experiments -->
<g id="edge1" class="edge">
<title>scripts_run_solver&#45;&gt;src_experiments</title>
<path fill="none" stroke="#64748b" d="M97.92,-152.43C112.6,-158.88 129.23,-166.18 144.52,-172.9"/>
<polygon fill="#64748b" stroke="#64748b" points="143.01,-175.29 151.46,-175.95 145.26,-170.17 143.01,-175.29"/>
</g>
<!-- tests_test_solver -->
<g id="node11" class="node">
<title>tests_test_solver</title>
<path fill="#eff6ff" stroke="#1d4ed8" d="M371.25,-67.96C371.25,-67.96 293.75,-67.96 293.75,-67.96 287.75,-67.96 281.75,-61.96 281.75,-55.96 281.75,-55.96 281.75,-43.96 281.75,-43.96 281.75,-37.96 287.75,-31.96 293.75,-31.96 293.75,-31.96 371.25,-31.96 371.25,-31.96 377.25,-31.96 383.25,-37.96 383.25,-43.96 383.25,-43.96 383.25,-55.96 383.25,-55.96 383.25,-61.96 377.25,-67.96 371.25,-67.96"/>
<text xml:space="preserve" text-anchor="middle" x="332.5" y="-44.94" font-family="Helvetica,sans-Serif" font-size="12.00">tests.test_solver</text>
</g>
<!-- scripts_run_solver&#45;&gt;tests_test_solver -->
<g id="edge2" class="edge">
<title>scripts_run_solver&#45;&gt;tests_test_solver</title>
<path fill="none" stroke="#64748b" d="M110,-117.47C156.84,-103.19 224.43,-82.59 272.61,-67.91"/>
<polygon fill="#64748b" stroke="#64748b" points="273.39,-70.6 280.22,-65.59 271.75,-65.24 273.39,-70.6"/>
</g>
<!-- src_analysis -->
<g id="node2" class="node">
<title>src_analysis</title>
<path fill="#eff6ff" stroke="#1d4ed8" d="M626.75,-135.96C626.75,-135.96 571.75,-135.96 571.75,-135.96 565.75,-135.96 559.75,-129.96 559.75,-123.96 559.75,-123.96 559.75,-111.96 559.75,-111.96 559.75,-105.96 565.75,-99.96 571.75,-99.96 571.75,-99.96 626.75,-99.96 626.75,-99.96 632.75,-99.96 638.75,-105.96 638.75,-111.96 638.75,-111.96 638.75,-123.96 638.75,-123.96 638.75,-129.96 632.75,-135.96 626.75,-135.96"/>
<text xml:space="preserve" text-anchor="middle" x="599.25" y="-112.94" font-family="Helvetica,sans-Serif" font-size="12.00">src.analysis</text>
</g>
<!-- src_shooting -->
<g id="node10" class="node">
<title>src_shooting</title>
<path fill="#eff6ff" stroke="#1d4ed8" d="M743.25,-135.96C743.25,-135.96 686.75,-135.96 686.75,-135.96 680.75,-135.96 674.75,-129.96 674.75,-123.96 674.75,-123.96 674.75,-111.96 674.75,-111.96 674.75,-105.96 680.75,-99.96 686.75,-99.96 686.75,-99.96 743.25,-99.96 743.25,-99.96 749.25,-99.96 755.25,-105.96 755.25,-111.96 755.25,-111.96 755.25,-123.96 755.25,-123.96 755.25,-129.96 749.25,-135.96 743.25,-135.96"/>
<text xml:space="preserve" text-anchor="middle" x="715" y="-112.94" font-family="Helvetica,sans-Serif" font-size="12.00">src.shooting</text>
</g>
<!-- src_analysis&#45;&gt;src_shooting -->
<g id="edge3" class="edge">
<title>src_analysis&#45;&gt;src_shooting</title>
<path fill="none" stroke="#64748b" d="M639.08,-117.96C647.49,-117.96 656.49,-117.96 665.23,-117.96"/>
<polygon fill="#64748b" stroke="#64748b" points="665.06,-120.76 673.06,-117.96 665.06,-115.16 665.06,-120.76"/>
</g>
<!-- src_diagnostics -->
<g id="node3" class="node">
<title>src_diagnostics</title>
<path fill="#eff6ff" stroke="#1d4ed8" d="M368.25,-235.96C368.25,-235.96 296.75,-235.96 296.75,-235.96 290.75,-235.96 284.75,-229.96 284.75,-223.96 284.75,-223.96 284.75,-211.96 284.75,-211.96 284.75,-205.96 290.75,-199.96 296.75,-199.96 296.75,-199.96 368.25,-199.96 368.25,-199.96 374.25,-199.96 380.25,-205.96 380.25,-211.96 380.25,-211.96 380.25,-223.96 380.25,-223.96 380.25,-229.96 374.25,-235.96 368.25,-235.96"/>
<text xml:space="preserve" text-anchor="middle" x="332.5" y="-212.94" font-family="Helvetica,sans-Serif" font-size="12.00">src.diagnostics</text>
</g>
<!-- src_plotting -->
<g id="node6" class="node">
<title>src_plotting</title>
<path fill="#eff6ff" stroke="#1d4ed8" d="M496.38,-281.96C496.38,-281.96 446.62,-281.96 446.62,-281.96 440.62,-281.96 434.62,-275.96 434.62,-269.96 434.62,-269.96 434.62,-257.96 434.62,-257.96 434.62,-251.96 440.62,-245.96 446.62,-245.96 446.62,-245.96 496.38,-245.96 496.38,-245.96 502.38,-245.96 508.38,-251.96 508.38,-257.96 508.38,-257.96 508.38,-269.96 508.38,-269.96 508.38,-275.96 502.38,-281.96 496.38,-281.96"/>
<text xml:space="preserve" text-anchor="middle" x="471.5" y="-258.94" font-family="Helvetica,sans-Serif" font-size="12.00">src.plotting</text>
</g>
<!-- src_diagnostics&#45;&gt;src_plotting -->
<g id="edge4" class="edge">
<title>src_diagnostics&#45;&gt;src_plotting</title>
<path fill="none" stroke="#64748b" d="M380.65,-233.79C395.26,-238.7 411.32,-244.09 425.76,-248.94"/>
<polygon fill="#64748b" stroke="#64748b" points="424.61,-251.51 433.09,-251.4 426.39,-246.2 424.61,-251.51"/>
</g>
<!-- src_potentials -->
<g id="node7" class="node">
<title>src_potentials</title>
<path fill="#eff6ff" stroke="#1d4ed8" d="M502.75,-189.96C502.75,-189.96 440.25,-189.96 440.25,-189.96 434.25,-189.96 428.25,-183.96 428.25,-177.96 428.25,-177.96 428.25,-165.96 428.25,-165.96 428.25,-159.96 434.25,-153.96 440.25,-153.96 440.25,-153.96 502.75,-153.96 502.75,-153.96 508.75,-153.96 514.75,-159.96 514.75,-165.96 514.75,-165.96 514.75,-177.96 514.75,-177.96 514.75,-183.96 508.75,-189.96 502.75,-189.96"/>
<text xml:space="preserve" text-anchor="middle" x="471.5" y="-166.94" font-family="Helvetica,sans-Serif" font-size="12.00">src.potentials</text>
</g>
<!-- src_diagnostics&#45;&gt;src_potentials -->
<g id="edge5" class="edge">
<title>src_diagnostics&#45;&gt;src_potentials</title>
<path fill="none" stroke="#64748b" d="M380.65,-202.13C392.98,-197.99 406.34,-193.51 418.89,-189.29"/>
<polygon fill="#64748b" stroke="#64748b" points="419.73,-191.96 426.42,-186.76 417.95,-186.65 419.73,-191.96"/>
</g>
<!-- src_rk4_compare -->
<g id="node8" class="node">
<title>src_rk4_compare</title>
<path fill="#eff6ff" stroke="#1d4ed8" d="M511.75,-135.96C511.75,-135.96 431.25,-135.96 431.25,-135.96 425.25,-135.96 419.25,-129.96 419.25,-123.96 419.25,-123.96 419.25,-111.96 419.25,-111.96 419.25,-105.96 425.25,-99.96 431.25,-99.96 431.25,-99.96 511.75,-99.96 511.75,-99.96 517.75,-99.96 523.75,-105.96 523.75,-111.96 523.75,-111.96 523.75,-123.96 523.75,-123.96 523.75,-129.96 517.75,-135.96 511.75,-135.96"/>
<text xml:space="preserve" text-anchor="middle" x="471.5" y="-112.94" font-family="Helvetica,sans-Serif" font-size="12.00">src.rk4_compare</text>
</g>
<!-- src_diagnostics&#45;&gt;src_rk4_compare -->
<g id="edge6" class="edge">
<title>src_diagnostics&#45;&gt;src_rk4_compare</title>
<path fill="none" stroke="#64748b" d="M352.6,-199.55C369.36,-183.94 394.8,-161.51 419.25,-144.96 421.18,-143.65 423.18,-142.36 425.23,-141.09"/>
<polygon fill="#64748b" stroke="#64748b" points="426.5,-143.59 431.95,-137.11 423.65,-138.78 426.5,-143.59"/>
</g>
<!-- src_diagnostics&#45;&gt;src_shooting -->
<g id="edge7" class="edge">
<title>src_diagnostics&#45;&gt;src_shooting</title>
<path fill="none" stroke="#64748b" d="M380.71,-217.2C419.63,-215.64 476,-211.21 523.75,-198.96 576.61,-185.41 633.77,-159.39 671.49,-140.49"/>
<polygon fill="#64748b" stroke="#64748b" points="672.48,-143.13 678.35,-137.02 669.95,-138.13 672.48,-143.13"/>
</g>
<!-- src_experiments&#45;&gt;src_analysis -->
<g id="edge8" class="edge">
<title>src_experiments&#45;&gt;src_analysis</title>
<path fill="none" stroke="#64748b" d="M212.34,-213.14C228.06,-230.18 253.91,-254.94 281.75,-267.96 379.61,-313.75 433.5,-350.36 523.75,-290.96 573.11,-258.48 589.9,-185.67 595.52,-145.64"/>
<polygon fill="#64748b" stroke="#64748b" points="598.29,-146 596.52,-137.71 592.74,-145.29 598.29,-146"/>
</g>
<!-- src_experiments&#45;&gt;src_diagnostics -->
<g id="edge9" class="edge">
<title>src_experiments&#45;&gt;src_diagnostics</title>
<path fill="none" stroke="#64748b" d="M246.16,-203.4C255.61,-205.01 265.57,-206.71 275.21,-208.35"/>
<polygon fill="#64748b" stroke="#64748b" points="274.49,-211.07 282.85,-209.66 275.43,-205.55 274.49,-211.07"/>
</g>
<!-- src_experiments&#45;&gt;src_plotting -->
<g id="edge10" class="edge">
<title>src_experiments&#45;&gt;src_plotting</title>
<path fill="none" stroke="#64748b" d="M221.41,-213.35C237.68,-224.47 259.94,-237.83 281.75,-244.96 328.93,-260.39 385.99,-264.24 424.93,-264.79"/>
<polygon fill="#64748b" stroke="#64748b" points="424.89,-267.59 432.91,-264.86 424.94,-261.99 424.89,-267.59"/>
</g>
<!-- src_experiments&#45;&gt;src_potentials -->
<g id="edge11" class="edge">
<title>src_experiments&#45;&gt;src_potentials</title>
<path fill="none" stroke="#64748b" d="M246.01,-190.82C294.74,-186.73 369.04,-180.49 418.66,-176.32"/>
<polygon fill="#64748b" stroke="#64748b" points="418.68,-179.13 426.42,-175.67 418.22,-173.55 418.68,-179.13"/>
</g>
<!-- src_experiments&#45;&gt;src_rk4_compare -->
<g id="edge12" class="edge">
<title>src_experiments&#45;&gt;src_rk4_compare</title>
<path fill="none" stroke="#64748b" d="M246.01,-181.11C291.95,-168.19 360.6,-148.87 409.88,-135.01"/>
<polygon fill="#64748b" stroke="#64748b" points="410.45,-137.76 417.39,-132.9 408.93,-132.37 410.45,-137.76"/>
</g>
<!-- src_scattering -->
<g id="node9" class="node">
<title>src_scattering</title>
<path fill="#eff6ff" stroke="#1d4ed8" d="M502.75,-81.96C502.75,-81.96 440.25,-81.96 440.25,-81.96 434.25,-81.96 428.25,-75.96 428.25,-69.96 428.25,-69.96 428.25,-57.96 428.25,-57.96 428.25,-51.96 434.25,-45.96 440.25,-45.96 440.25,-45.96 502.75,-45.96 502.75,-45.96 508.75,-45.96 514.75,-51.96 514.75,-57.96 514.75,-57.96 514.75,-69.96 514.75,-69.96 514.75,-75.96 508.75,-81.96 502.75,-81.96"/>
<text xml:space="preserve" text-anchor="middle" x="471.5" y="-58.94" font-family="Helvetica,sans-Serif" font-size="12.00">src.scattering</text>
</g>
<!-- src_experiments&#45;&gt;src_scattering -->
<g id="edge13" class="edge">
<title>src_experiments&#45;&gt;src_scattering</title>
<path fill="none" stroke="#64748b" d="M221.59,-176.65C238.11,-164.96 260.59,-149.99 281.75,-138.96 326.67,-115.56 380.6,-94.8 419.29,-81.1"/>
<polygon fill="#64748b" stroke="#64748b" points="419.75,-83.9 426.37,-78.61 417.89,-78.62 419.75,-83.9"/>
</g>
<!-- src_experiments&#45;&gt;src_shooting -->
<g id="edge14" class="edge">
<title>src_experiments&#45;&gt;src_shooting</title>
<path fill="none" stroke="#64748b" d="M205.24,-213.32C217.97,-238.51 244.52,-283.03 281.75,-303.96 375.71,-356.79 424.79,-362.7 523.75,-319.96 607.65,-283.73 671.67,-190.28 699.21,-144.3"/>
<polygon fill="#64748b" stroke="#64748b" points="701.51,-145.92 703.15,-137.6 696.68,-143.07 701.51,-145.92"/>
</g>
<!-- src_numerov -->
<g id="node5" class="node">
<title>src_numerov</title>
<path fill="#eff6ff" stroke="#1d4ed8" d="M860.5,-81.96C860.5,-81.96 803.25,-81.96 803.25,-81.96 797.25,-81.96 791.25,-75.96 791.25,-69.96 791.25,-69.96 791.25,-57.96 791.25,-57.96 791.25,-51.96 797.25,-45.96 803.25,-45.96 803.25,-45.96 860.5,-45.96 860.5,-45.96 866.5,-45.96 872.5,-51.96 872.5,-57.96 872.5,-57.96 872.5,-69.96 872.5,-69.96 872.5,-75.96 866.5,-81.96 860.5,-81.96"/>
<text xml:space="preserve" text-anchor="middle" x="831.88" y="-58.94" font-family="Helvetica,sans-Serif" font-size="12.00">src.numerov</text>
</g>
<!-- src_rk4_compare&#45;&gt;src_analysis -->
<g id="edge15" class="edge">
<title>src_rk4_compare&#45;&gt;src_analysis</title>
<path fill="none" stroke="#64748b" d="M524.01,-117.96C532.59,-117.96 541.45,-117.96 549.94,-117.96"/>
<polygon fill="#64748b" stroke="#64748b" points="549.82,-120.76 557.82,-117.96 549.82,-115.16 549.82,-120.76"/>
</g>
<!-- src_scattering&#45;&gt;src_numerov -->
<g id="edge16" class="edge">
<title>src_scattering&#45;&gt;src_numerov</title>
<path fill="none" stroke="#64748b" d="M515.02,-63.96C581.82,-63.96 711.04,-63.96 781.73,-63.96"/>
<polygon fill="#64748b" stroke="#64748b" points="781.37,-66.76 789.37,-63.96 781.37,-61.16 781.37,-66.76"/>
</g>
<!-- src_shooting&#45;&gt;src_numerov -->
<g id="edge17" class="edge">
<title>src_shooting&#45;&gt;src_numerov</title>
<path fill="none" stroke="#64748b" d="M755.21,-99.53C764.27,-95.27 774,-90.7 783.37,-86.29"/>
<polygon fill="#64748b" stroke="#64748b" points="784.42,-88.89 790.47,-82.96 782.04,-83.83 784.42,-88.89"/>
</g>
<!-- tests_test_solver&#45;&gt;src_analysis -->
<g id="edge18" class="edge">
<title>tests_test_solver&#45;&gt;src_analysis</title>
<path fill="none" stroke="#64748b" d="M383.36,-34.26C423.07,-24.59 479.19,-17.4 523.75,-36.96 549.16,-48.12 569.72,-72.69 582.75,-91.86"/>
<polygon fill="#64748b" stroke="#64748b" points="580.32,-93.26 587.04,-98.43 585.01,-90.2 580.32,-93.26"/>
</g>
<!-- tests_test_solver&#45;&gt;src_numerov -->
<g id="edge19" class="edge">
<title>tests_test_solver&#45;&gt;src_numerov</title>
<path fill="none" stroke="#64748b" d="M364.49,-31.49C380.29,-23.14 400.17,-14.19 419.25,-9.96 548.83,18.77 704.98,-21.78 782.43,-46.8"/>
<polygon fill="#64748b" stroke="#64748b" points="781.11,-49.31 789.59,-49.15 782.86,-43.99 781.11,-49.31"/>
</g>
<!-- tests_test_solver&#45;&gt;src_potentials -->
<g id="edge20" class="edge">
<title>tests_test_solver&#45;&gt;src_potentials</title>
<path fill="none" stroke="#64748b" d="M346.76,-68.17C362.39,-88.7 389.95,-122.19 419.25,-144.96 420.83,-146.19 422.48,-147.39 424.16,-148.56"/>
<polygon fill="#64748b" stroke="#64748b" points="422.28,-150.68 430.52,-152.66 425.32,-145.97 422.28,-150.68"/>
</g>
<!-- tests_test_solver&#45;&gt;src_rk4_compare -->
<g id="edge21" class="edge">
<title>tests_test_solver&#45;&gt;src_rk4_compare</title>
<path fill="none" stroke="#64748b" d="M370.57,-68.36C387.33,-76.68 407.28,-86.58 424.94,-95.35"/>
<polygon fill="#64748b" stroke="#64748b" points="423.63,-97.82 432.04,-98.87 426.12,-92.81 423.63,-97.82"/>
</g>
<!-- tests_test_solver&#45;&gt;src_scattering -->
<g id="edge22" class="edge">
<title>tests_test_solver&#45;&gt;src_scattering</title>
<path fill="none" stroke="#64748b" d="M383.74,-55.1C395.07,-56.25 407.13,-57.49 418.53,-58.65"/>
<polygon fill="#64748b" stroke="#64748b" points="418.18,-61.43 426.42,-59.46 418.75,-55.86 418.18,-61.43"/>
</g>
<!-- tests_test_solver&#45;&gt;src_shooting -->
<g id="edge23" class="edge">
<title>tests_test_solver&#45;&gt;src_shooting</title>
<path fill="none" stroke="#64748b" d="M379.08,-31.48C391.86,-27.15 405.91,-23.16 419.25,-20.96 465.08,-13.42 478.59,-10.11 523.75,-20.96 582.4,-35.05 643.34,-70.41 679.98,-94.31"/>
<polygon fill="#64748b" stroke="#64748b" points="678.38,-96.61 686.6,-98.69 681.47,-91.94 678.38,-96.61"/>
</g>
</g>
</svg>
