<?xml version="1.0" encoding="UTF-8" standalone="no"?>
<!DOCTYPE svg PUBLIC "-//W3C//DTD SVG 1.1//EN"
 "http://www.w3.org/Graphics/SVG/1.1/DTD/svg11.dtd">
<!-- Generated by graphviz version 14.1.5 (20260411.2331)
 -->
<!-- Title: G Pages: 1 -->
<svg width="1712pt" height="577pt"
 viewBox="0.00 0.00 1712.00 577.00" xmlns="http://www.w3.org/2000/svg" xmlns:xlink="http://www.w3.org/1999/xlink">
<g id="graph0" class="graph" transform="scale(1 1) rotate(0) translate(4 573)">
<title>G</title>
<polygon fill="white" stroke="none" points="-4,4 -4,-573 1708.25,-573 1708.25,4 -4,4"/>
<text xml:space="preserve" text-anchor="middle" x="147.88" y="-546" font-family="Helvetica,sans-Serif" font-size="20.00">Infinite Square Well Experiment</text>
<!-- src_analysis_convergence_vs_grid -->
<g id="node1" class="node">
<title>src_analysis_convergence_vs_grid</title>
<path fill="#f8fafc" stroke="#334155" d="M106.75,-468C106.75,-468 12.75,-468 12.75,-468 6.75,-468 0.75,-462 0.75,-456 0.75,-456 0.75,-444 0.75,-444 0.75,-438 6.75,-432 12.75,-432 12.75,-432 106.75,-432 106.75,-432 112.75,-432 118.75,-438 118.75,-444 118.75,-444 118.75,-456 118.75,-456 118.75,-462 112.75,-468 106.75,-468"/>
<text xml:space="preserve" text-anchor="middle" x="59.75" y="-445.55" font-family="Helvetica,sans-Serif" font-size="11.00">convergence_vs_grid</text>
</g>
<!-- src_analysis_energies_from_states -->
<g id="node2" class="node">
<title>src_analysis_energies_from_states</title>
<path fill="#f8fafc" stroke="#334155" d="M107.5,-396C107.5,-396 12,-396 12,-396 6,-396 0,-390 0,-384 0,-384 0,-372 0,-372 0,-366 6,-360 12,-360 12,-360 107.5,-360 107.5,-360 113.5,-360 119.5,-366 119.5,-372 119.5,-372 119.5,-384 119.5,-384 119.5,-390 113.5,-396 107.5,-396"/>
<text xml:space="preserve" text-anchor="middle" x="59.75" y="-373.55" font-family="Helvetica,sans-Serif" font-size="11.00">energies_from_states</text>
</g>
<!-- src_analysis_convergence_vs_grid&#45;&gt;src_analysis_energies_from_states -->
<g id="edge1" class="edge">
<title>src_analysis_convergence_vs_grid&#45;&gt;src_analysis_energies_from_states</title>
<path fill="none" stroke="#64748b" d="M59.75,-431.7C59.75,-423.47 59.75,-413.48 59.75,-404.42"/>
<polygon fill="#64748b" stroke="#64748b" points="62.2,-404.62 59.75,-397.62 57.3,-404.62 62.2,-404.62"/>
</g>
<!-- src_analysis_estimate_convergence_slopes -->
<g id="node3" class="node">
<title>src_analysis_estimate_convergence_slopes</title>
<path fill="#f8fafc" stroke="#334155" d="M285.12,-468C285.12,-468 148.38,-468 148.38,-468 142.38,-468 136.38,-462 136.38,-456 136.38,-456 136.38,-444 136.38,-444 136.38,-438 142.38,-432 148.38,-432 148.38,-432 285.12,-432 285.12,-432 291.12,-432 297.12,-438 297.12,-444 297.12,-444 297.12,-456 297.12,-456 297.12,-462 291.12,-468 285.12,-468"/>
<text xml:space="preserve" text-anchor="middle" x="216.75" y="-445.55" font-family="Helvetica,sans-Serif" font-size="11.00">estimate_convergence_slopes</text>
</g>
<!-- src_analysis_exact_square_well_energies -->
<g id="node4" class="node">
<title>src_analysis_exact_square_well_energies</title>
<path fill="#f8fafc" stroke="#334155" d="M456,-468C456,-468 327.5,-468 327.5,-468 321.5,-468 315.5,-462 315.5,-456 315.5,-456 315.5,-444 315.5,-444 315.5,-438 321.5,-432 327.5,-432 327.5,-432 456,-432 456,-432 462,-432 468,-438 468,-444 468,-444 468,-456 468,-456 468,-462 462,-468 456,-468"/>
<text xml:space="preserve" text-anchor="middle" x="391.75" y="-445.55" font-family="Helvetica,sans-Serif" font-size="11.00">exact_square_well_energies</text>
</g>
<!-- src_analysis_save_csv_rows -->
<g id="node5" class="node">
<title>src_analysis_save_csv_rows</title>
<path fill="#f8fafc" stroke="#334155" d="M563.5,-468C563.5,-468 498,-468 498,-468 492,-468 486,-462 486,-456 486,-456 486,-444 486,-444 486,-438 492,-432 498,-432 498,-432 563.5,-432 563.5,-432 569.5,-432 575.5,-438 575.5,-444 575.5,-444 575.5,-456 575.5,-456 575.5,-462 569.5,-468 563.5,-468"/>
<text xml:space="preserve" text-anchor="middle" x="530.75" y="-445.55" font-family="Helvetica,sans-Serif" font-size="11.00">save_csv_rows</text>
</g>
<!-- src_diagnostics__diagnostic_label_slug -->
<g id="node6" class="node">
<title>src_diagnostics__diagnostic_label_slug</title>
<path fill="#f8fafc" stroke="#334155" d="M1020.75,-324C1020.75,-324 920.75,-324 920.75,-324 914.75,-324 908.75,-318 908.75,-312 908.75,-312 908.75,-300 908.75,-300 908.75,-294 914.75,-288 920.75,-288 920.75,-288 1020.75,-288 1020.75,-288 1026.75,-288 1032.75,-294 1032.75,-300 1032.75,-300 1032.75,-312 1032.75,-312 1032.75,-318 1026.75,-324 1020.75,-324"/>
<text xml:space="preserve" text-anchor="middle" x="970.75" y="-301.55" font-family="Helvetica,sans-Serif" font-size="11.00">_diagnostic_label_slug</text>
</g>
<!-- src_diagnostics__plot_outward_root_diagnostics -->
<g id="node7" class="node">
<title>src_diagnostics__plot_outward_root_diagnostics</title>
<path fill="#f8fafc" stroke="#334155" d="M951.88,-396C951.88,-396 807.62,-396 807.62,-396 801.62,-396 795.62,-390 795.62,-384 795.62,-384 795.62,-372 795.62,-372 795.62,-366 801.62,-360 807.62,-360 807.62,-360 951.88,-360 951.88,-360 957.88,-360 963.88,-366 963.88,-372 963.88,-372 963.88,-384 963.88,-384 963.88,-390 957.88,-396 951.88,-396"/>
<text xml:space="preserve" text-anchor="middle" x="879.75" y="-373.55" font-family="Helvetica,sans-Serif" font-size="11.00">_plot_outward_root_diagnostics</text>
</g>
<!-- src_diagnostics__plot_outward_root_diagnostics&#45;&gt;src_diagnostics__diagnostic_label_slug -->
<g id="edge2" class="edge">
<title>src_diagnostics__plot_outward_root_diagnostics&#45;&gt;src_diagnostics__diagnostic_label_slug</title>
<path fill="none" stroke="#64748b" d="M902.24,-359.7C914.17,-350.53 928.95,-339.16 941.73,-329.33"/>
<polygon fill="#64748b" stroke="#64748b" points="942.94,-331.48 947,-325.27 939.96,-327.6 942.94,-331.48"/>
</g>
<!-- src_plotting_plot_root_finding_diagnostic -->
<g id="node21" class="node">
<title>src_plotting_plot_root_finding_diagnostic</title>
<path fill="#f8fafc" stroke="#334155" d="M694.5,-324C694.5,-324 569,-324 569,-324 563,-324 557,-318 557,-312 557,-312 557,-300 557,-300 557,-294 563,-288 569,-288 569,-288 694.5,-288 694.5,-288 700.5,-288 706.5,-294 706.5,-300 706.5,-300 706.5,-312 706.5,-312 706.5,-318 700.5,-324 694.5,-324"/>
<text xml:space="preserve" text-anchor="middle" x="631.75" y="-301.55" font-family="Helvetica,sans-Serif" font-size="11.00">plot_root_finding_diagnostic</text>
</g>
<!-- src_diagnostics__plot_outward_root_diagnostics&#45;&gt;src_plotting_plot_root_finding_diagnostic -->
<g id="edge3" class="edge">
<title>src_diagnostics__plot_outward_root_diagnostics&#45;&gt;src_plotting_plot_root_finding_diagnostic</title>
<path fill="none" stroke="#64748b" d="M817.81,-359.52C782.46,-349.54 738.05,-337 701.49,-326.68"/>
<polygon fill="#64748b" stroke="#64748b" points="702.19,-324.34 694.79,-324.79 700.86,-329.05 702.19,-324.34"/>
</g>
<!-- src_plotting_plot_root_finding_zoom -->
<g id="node22" class="node">
<title>src_plotting_plot_root_finding_zoom</title>
<path fill="#f8fafc" stroke="#334155" d="M840.62,-324C840.62,-324 736.88,-324 736.88,-324 730.88,-324 724.88,-318 724.88,-312 724.88,-312 724.88,-300 724.88,-300 724.88,-294 730.88,-288 736.88,-288 736.88,-288 840.62,-288 840.62,-288 846.62,-288 852.62,-294 852.62,-300 852.62,-300 852.62,-312 852.62,-312 852.62,-318 846.62,-324 840.62,-324"/>
<text xml:space="preserve" text-anchor="middle" x="788.75" y="-301.55" font-family="Helvetica,sans-Serif" font-size="11.00">plot_root_finding_zoom</text>
</g>
<!-- src_diagnostics__plot_outward_root_diagnostics&#45;&gt;src_plotting_plot_root_finding_zoom -->
<g id="edge4" class="edge">
<title>src_diagnostics__plot_outward_root_diagnostics&#45;&gt;src_plotting_plot_root_finding_zoom</title>
<path fill="none" stroke="#64748b" d="M857.26,-359.7C845.33,-350.53 830.55,-339.16 817.77,-329.33"/>
<polygon fill="#64748b" stroke="#64748b" points="819.54,-327.6 812.5,-325.27 816.56,-331.48 819.54,-327.6"/>
</g>
<!-- src_shooting_bisection_history_outward_shooting -->
<g id="node25" class="node">
<title>src_shooting_bisection_history_outward_shooting</title>
<path fill="#f8fafc" stroke="#334155" d="M956.25,-252C956.25,-252 793.25,-252 793.25,-252 787.25,-252 781.25,-246 781.25,-240 781.25,-240 781.25,-228 781.25,-228 781.25,-222 787.25,-216 793.25,-216 793.25,-216 956.25,-216 956.25,-216 962.25,-216 968.25,-222 968.25,-228 968.25,-228 968.25,-240 968.25,-240 968.25,-246 962.25,-252 956.25,-252"/>
<text xml:space="preserve" text-anchor="middle" x="874.75" y="-229.55" font-family="Helvetica,sans-Serif" font-size="11.00">bisection_history_outward_shooting</text>
</g>
<!-- src_diagnostics__plot_outward_root_diagnostics&#45;&gt;src_shooting_bisection_history_outward_shooting -->
<g id="edge5" class="edge">
<title>src_diagnostics__plot_outward_root_diagnostics&#45;&gt;src_shooting_bisection_history_outward_shooting</title>
<path fill="none" stroke="#64748b" d="M879.14,-359.59C878.26,-334.76 876.65,-289.01 875.64,-260.4"/>
<polygon fill="#64748b" stroke="#64748b" points="878.1,-260.53 875.41,-253.62 873.2,-260.71 878.1,-260.53"/>
</g>
<!-- src_shooting_find_brackets_outward_shooting -->
<g id="node29" class="node">
<title>src_shooting_find_brackets_outward_shooting</title>
<path fill="#f8fafc" stroke="#334155" d="M1248.38,-324C1248.38,-324 1101.12,-324 1101.12,-324 1095.12,-324 1089.12,-318 1089.12,-312 1089.12,-312 1089.12,-300 1089.12,-300 1089.12,-294 1095.12,-288 1101.12,-288 1101.12,-288 1248.38,-288 1248.38,-288 1254.38,-288 1260.38,-294 1260.38,-300 1260.38,-300 1260.38,-312 1260.38,-312 1260.38,-318 1254.38,-324 1248.38,-324"/>
<text xml:space="preserve" text-anchor="middle" x="1174.75" y="-301.55" font-family="Helvetica,sans-Serif" font-size="11.00">find_brackets_outward_shooting</text>
</g>
<!-- src_diagnostics__plot_outward_root_diagnostics&#45;&gt;src_shooting_find_brackets_outward_shooting -->
<g id="edge6" class="edge">
<title>src_diagnostics__plot_outward_root_diagnostics&#45;&gt;src_shooting_find_brackets_outward_shooting</title>
<path fill="none" stroke="#64748b" d="M953.43,-359.52C995.92,-349.43 1049.43,-336.74 1093.19,-326.35"/>
<polygon fill="#64748b" stroke="#64748b" points="1093.52,-328.79 1099.77,-324.79 1092.39,-324.02 1093.52,-328.79"/>
</g>
<!-- src_shooting_sample_mismatch_outward_shooting -->
<g id="node32" class="node">
<title>src_shooting_sample_mismatch_outward_shooting</title>
<path fill="#f8fafc" stroke="#334155" d="M1167.62,-252C1167.62,-252 997.88,-252 997.88,-252 991.88,-252 985.88,-246 985.88,-240 985.88,-240 985.88,-228 985.88,-228 985.88,-222 991.88,-216 997.88,-216 997.88,-216 1167.62,-216 1167.62,-216 1173.62,-216 1179.62,-222 1179.62,-228 1179.62,-228 1179.62,-240 1179.62,-240 1179.62,-246 1173.62,-252 1167.62,-252"/>
<text xml:space="preserve" text-anchor="middle" x="1082.75" y="-229.55" font-family="Helvetica,sans-Serif" font-size="11.00">sample_mismatch_outward_shooting</text>
</g>
<!-- src_diagnostics__plot_outward_root_diagnostics&#45;&gt;src_shooting_sample_mismatch_outward_shooting -->
<g id="edge7" class="edge">
<title>src_diagnostics__plot_outward_root_diagnostics&#45;&gt;src_shooting_sample_mismatch_outward_shooting</title>
<path fill="none" stroke="#64748b" d="M951.44,-359.59C988.05,-349.54 1027.77,-336.45 1041.75,-324 1060.54,-307.27 1071.3,-280.17 1077.04,-260.26"/>
<polygon fill="#64748b" stroke="#64748b" points="1079.36,-261.08 1078.81,-253.69 1074.62,-259.81 1079.36,-261.08"/>
</g>
<!-- src_diagnostics_plot_infinite_well_root_diagnostics -->
<g id="node8" class="node">
<title>src_diagnostics_plot_infinite_well_root_diagnostics</title>
<path fill="#f8fafc" stroke="#334155" d="M956.12,-468C956.12,-468 801.38,-468 801.38,-468 795.38,-468 789.38,-462 789.38,-456 789.38,-456 789.38,-444 789.38,-444 789.38,-438 795.38,-432 801.38,-432 801.38,-432 956.12,-432 956.12,-432 962.12,-432 968.12,-438 968.12,-444 968.12,-444 968.12,-456 968.12,-456 968.12,-462 962.12,-468 956.12,-468"/>
<text xml:space="preserve" text-anchor="middle" x="878.75" y="-445.55" font-family="Helvetica,sans-Serif" font-size="11.00">plot_infinite_well_root_diagnostics</text>
</g>
<!-- src_diagnostics_plot_infinite_well_root_diagnostics&#45;&gt;src_diagnostics__plot_outward_root_diagnostics -->
<g id="edge8" class="edge">
<title>src_diagnostics_plot_infinite_well_root_diagnostics&#45;&gt;src_diagnostics__plot_outward_root_diagnostics</title>
<path fill="none" stroke="#64748b" d="M879,-431.7C879.11,-423.47 879.26,-413.48 879.39,-404.42"/>
<polygon fill="#64748b" stroke="#64748b" points="881.83,-404.65 879.48,-397.62 876.93,-404.58 881.83,-404.65"/>
</g>
<!-- src_potentials_infinite_square_well_numeric -->
<g id="node23" class="node">
<title>src_potentials_infinite_square_well_numeric</title>
<path fill="#f8fafc" stroke="#334155" d="M1376.12,-396C1376.12,-396 1245.38,-396 1245.38,-396 1239.38,-396 1233.38,-390 1233.38,-384 1233.38,-384 1233.38,-372 1233.38,-372 1233.38,-366 1239.38,-360 1245.38,-360 1245.38,-360 1376.12,-360 1376.12,-360 1382.12,-360 1388.12,-366 1388.12,-372 1388.12,-372 1388.12,-384 1388.12,-384 1388.12,-390 1382.12,-396 1376.12,-396"/>
<text xml:space="preserve" text-anchor="middle" x="1310.75" y="-373.55" font-family="Helvetica,sans-Serif" font-size="11.00">infinite_square_well_numeric</text>
</g>
<!-- src_diagnostics_plot_infinite_well_root_diagnostics&#45;&gt;src_potentials_infinite_square_well_numeric -->
<g id="edge9" class="edge">
<title>src_diagnostics_plot_infinite_well_root_diagnostics&#45;&gt;src_potentials_infinite_square_well_numeric</title>
<path fill="none" stroke="#64748b" d="M968.62,-434.08C973.06,-433.37 977.45,-432.67 981.75,-432 1086.98,-415.52 1115.77,-414.63 1224.64,-395.98"/>
<polygon fill="#64748b" stroke="#64748b" points="1224.99,-398.41 1231.47,-394.81 1224.16,-393.58 1224.99,-398.41"/>
</g>
<!-- src_experiments__experiment_results_dir -->
<g id="node9" class="node">
<title>src_experiments__experiment_results_dir</title>
<path fill="#f8fafc" stroke="#334155" d="M1142.12,-468C1142.12,-468 1035.38,-468 1035.38,-468 1029.38,-468 1023.38,-462 1023.38,-456 1023.38,-456 1023.38,-444 1023.38,-444 1023.38,-438 1029.38,-432 1035.38,-432 1035.38,-432 1142.12,-432 1142.12,-432 1148.12,-432 1154.12,-438 1154.12,-444 1154.12,-444 1154.12,-456 1154.12,-456 1154.12,-462 1148.12,-468 1142.12,-468"/>
<text xml:space="preserve" text-anchor="middle" x="1088.75" y="-445.55" font-family="Helvetica,sans-Serif" font-size="11.00">_experiment_results_dir</text>
</g>
<!-- src_experiments_run_square_well -->
<g id="node10" class="node">
<title>src_experiments_run_square_well</title>
<path fill="#f8fafc" stroke="#334155" d="M696.5,-540C696.5,-540 625,-540 625,-540 619,-540 613,-534 613,-528 613,-528 613,-516 613,-516 613,-510 619,-504 625,-504 625,-504 696.5,-504 696.5,-504 702.5,-504 708.5,-510 708.5,-516 708.5,-516 708.5,-528 708.5,-528 708.5,-534 702.5,-540 696.5,-540"/>
<text xml:space="preserve" text-anchor="middle" x="660.75" y="-517.55" font-family="Helvetica,sans-Serif" font-size="11.00">run_square_well</text>
</g>
<!-- src_experiments_run_square_well&#45;&gt;src_analysis_convergence_vs_grid -->
<g id="edge10" class="edge">
<title>src_experiments_run_square_well&#45;&gt;src_analysis_convergence_vs_grid</title>
<path fill="none" stroke="#64748b" d="M612.65,-518.57C518.83,-513.32 305.03,-498.8 127.75,-468 127.57,-467.97 127.39,-467.94 127.21,-467.91"/>
<polygon fill="#64748b" stroke="#64748b" points="127.8,-465.52 120.47,-466.63 126.89,-470.34 127.8,-465.52"/>
</g>
<!-- src_experiments_run_square_well&#45;&gt;src_analysis_estimate_convergence_slopes -->
<g id="edge11" class="edge">
<title>src_experiments_run_square_well&#45;&gt;src_analysis_estimate_convergence_slopes</title>
<path fill="none" stroke="#64748b" d="M612.56,-514.38C544.36,-504.87 415.81,-486.46 306.75,-468 306.36,-467.93 305.97,-467.87 305.57,-467.8"/>
<polygon fill="#64748b" stroke="#64748b" points="306,-465.39 298.68,-466.61 305.17,-470.22 306,-465.39"/>
</g>
<!-- src_experiments_run_square_well&#45;&gt;src_analysis_exact_square_well_energies -->
<g id="edge12" class="edge">
<title>src_experiments_run_square_well&#45;&gt;src_analysis_exact_square_well_energies</title>
<path fill="none" stroke="#64748b" d="M612.66,-508.49C572.16,-497.95 513.53,-482.69 466.85,-470.54"/>
<polygon fill="#64748b" stroke="#64748b" points="467.73,-468.24 460.34,-468.85 466.5,-472.98 467.73,-468.24"/>
</g>
<!-- src_experiments_run_square_well&#45;&gt;src_analysis_save_csv_rows -->
<g id="edge13" class="edge">
<title>src_experiments_run_square_well&#45;&gt;src_analysis_save_csv_rows</title>
<path fill="none" stroke="#64748b" d="M628.28,-503.52C610.62,-494.01 588.64,-482.17 570.02,-472.15"/>
<polygon fill="#64748b" stroke="#64748b" points="571.46,-470.14 564.14,-468.98 569.14,-474.45 571.46,-470.14"/>
</g>
<!-- src_experiments_run_square_well&#45;&gt;src_diagnostics_plot_infinite_well_root_diagnostics -->
<g id="edge14" class="edge">
<title>src_experiments_run_square_well&#45;&gt;src_diagnostics_plot_infinite_well_root_diagnostics</title>
<path fill="none" stroke="#64748b" d="M708.86,-505.55C740.55,-495.38 782.35,-481.95 816.56,-470.97"/>
<polygon fill="#64748b" stroke="#64748b" points="817.27,-473.31 823.19,-468.84 815.78,-468.65 817.27,-473.31"/>
</g>
<!-- src_experiments_run_square_well&#45;&gt;src_experiments__experiment_results_dir -->
<g id="edge15" class="edge">
<title>src_experiments_run_square_well&#45;&gt;src_experiments__experiment_results_dir</title>
<path fill="none" stroke="#64748b" d="M708.89,-514.64C776.35,-505.51 902.75,-487.62 1009.75,-468 1011.54,-467.67 1013.36,-467.33 1015.19,-466.98"/>
<polygon fill="#64748b" stroke="#64748b" points="1015.4,-469.44 1021.8,-465.7 1014.46,-464.63 1015.4,-469.44"/>
</g>
<!-- src_plotting_plot_energy_comparison -->
<g id="node17" class="node">
<title>src_plotting_plot_energy_comparison</title>
<path fill="#f8fafc" stroke="#334155" d="M539.62,-396C539.62,-396 429.88,-396 429.88,-396 423.88,-396 417.88,-390 417.88,-384 417.88,-384 417.88,-372 417.88,-372 417.88,-366 423.88,-360 429.88,-360 429.88,-360 539.62,-360 539.62,-360 545.62,-360 551.62,-366 551.62,-372 551.62,-372 551.62,-384 551.62,-384 551.62,-390 545.62,-396 539.62,-396"/>
<text xml:space="preserve" text-anchor="middle" x="484.75" y="-373.55" font-family="Helvetica,sans-Serif" font-size="11.00">plot_energy_comparison</text>
</g>
<!-- src_experiments_run_square_well&#45;&gt;src_plotting_plot_energy_comparison -->
<g id="edge16" class="edge">
<title>src_experiments_run_square_well&#45;&gt;src_plotting_plot_energy_comparison</title>
<path fill="none" stroke="#64748b" d="M656.48,-503.65C650.77,-483.84 638.84,-451.65 617.75,-432 601.54,-416.9 580.5,-405.89 559.96,-397.96"/>
<polygon fill="#64748b" stroke="#64748b" points="560.95,-395.71 553.54,-395.59 559.26,-400.31 560.95,-395.71"/>
</g>
<!-- src_plotting_plot_error_curve -->
<g id="node18" class="node">
<title>src_plotting_plot_error_curve</title>
<path fill="#f8fafc" stroke="#334155" d="M669.12,-396C669.12,-396 598.38,-396 598.38,-396 592.38,-396 586.38,-390 586.38,-384 586.38,-384 586.38,-372 586.38,-372 586.38,-366 592.38,-360 598.38,-360 598.38,-360 669.12,-360 669.12,-360 675.12,-360 681.12,-366 681.12,-372 681.12,-372 681.12,-384 681.12,-384 681.12,-390 675.12,-396 669.12,-396"/>
<text xml:space="preserve" text-anchor="middle" x="633.75" y="-373.55" font-family="Helvetica,sans-Serif" font-size="11.00">plot_error_curve</text>
</g>
<!-- src_experiments_run_square_well&#45;&gt;src_plotting_plot_error_curve -->
<g id="edge17" class="edge">
<title>src_experiments_run_square_well&#45;&gt;src_plotting_plot_error_curve</title>
<path fill="none" stroke="#64748b" d="M661.48,-503.7C661.86,-485.59 661.34,-456.44 655.75,-432 653.57,-422.48 649.84,-412.48 646.06,-403.77"/>
<polygon fill="#64748b" stroke="#64748b" points="648.36,-402.92 643.24,-397.56 643.9,-404.94 648.36,-402.92"/>
</g>
<!-- src_plotting_plot_potential_and_states -->
<g id="node19" class="node">
<title>src_plotting_plot_potential_and_states</title>
<path fill="#f8fafc" stroke="#334155" d="M526.88,-324C526.88,-324 412.62,-324 412.62,-324 406.62,-324 400.62,-318 400.62,-312 400.62,-312 400.62,-300 400.62,-300 400.62,-294 406.62,-288 412.62,-288 412.62,-288 526.88,-288 526.88,-288 532.88,-288 538.88,-294 538.88,-300 538.88,-300 538.88,-312 538.88,-312 538.88,-318 532.88,-324 526.88,-324"/>
<text xml:space="preserve" text-anchor="middle" x="469.75" y="-301.55" font-family="Helvetica,sans-Serif" font-size="11.00">plot_potential_and_states</text>
</g>
<!-- src_experiments_run_square_well&#45;&gt;src_plotting_plot_potential_and_states -->
<g id="edge18" class="edge">
<title>src_experiments_run_square_well&#45;&gt;src_plotting_plot_potential_and_states</title>
<path fill="none" stroke="#64748b" d="M671.75,-503.63C690.48,-471.62 723.4,-402.73 689.75,-360 687.43,-357.05 609.58,-338.76 547.15,-324.48"/>
<polygon fill="#64748b" stroke="#64748b" points="548.08,-322.18 540.71,-323.01 546.98,-326.96 548.08,-322.18"/>
</g>
<!-- src_plotting_plot_probability_densities -->
<g id="node20" class="node">
<title>src_plotting_plot_probability_densities</title>
<path fill="#f8fafc" stroke="#334155" d="M353.75,-396C353.75,-396 241.75,-396 241.75,-396 235.75,-396 229.75,-390 229.75,-384 229.75,-384 229.75,-372 229.75,-372 229.75,-366 235.75,-360 241.75,-360 241.75,-360 353.75,-360 353.75,-360 359.75,-360 365.75,-366 365.75,-372 365.75,-372 365.75,-384 365.75,-384 365.75,-390 359.75,-396 353.75,-396"/>
<text xml:space="preserve" text-anchor="middle" x="297.75" y="-373.55" font-family="Helvetica,sans-Serif" font-size="11.00">plot_probability_densities</text>
</g>
<!-- src_experiments_run_square_well&#45;&gt;src_plotting_plot_probability_densities -->
<g id="edge19" class="edge">
<title>src_experiments_run_square_well&#45;&gt;src_plotting_plot_probability_densities</title>
<path fill="none" stroke="#64748b" d="M646.37,-503.57C625.48,-478.32 588.75,-434.31 584.75,-432 575.59,-426.71 456.23,-405.77 374.35,-391.84"/>
<polygon fill="#64748b" stroke="#64748b" points="374.86,-389.44 367.55,-390.69 374.04,-394.28 374.86,-389.44"/>
</g>
<!-- src_experiments_run_square_well&#45;&gt;src_potentials_infinite_square_well_numeric -->
<g id="edge20" class="edge">
<title>src_experiments_run_square_well&#45;&gt;src_potentials_infinite_square_well_numeric</title>
<path fill="none" stroke="#64748b" d="M708.92,-521.49C773.28,-520.29 889.37,-511.54 976.75,-468 997.57,-457.62 993.95,-442.41 1014.75,-432 1097.11,-390.77 1129.83,-411.94 1224.79,-395.91"/>
<polygon fill="#64748b" stroke="#64748b" points="1224.99,-398.37 1231.46,-394.73 1224.14,-393.54 1224.99,-398.37"/>
</g>
<!-- src_shooting_solve_symmetric_potential_outward_shooting -->
<g id="node34" class="node">
<title>src_shooting_solve_symmetric_potential_outward_shooting</title>
<path fill="#f8fafc" stroke="#334155" d="M1203.5,-396C1203.5,-396 994,-396 994,-396 988,-396 982,-390 982,-384 982,-384 982,-372 982,-372 982,-366 988,-360 994,-360 994,-360 1203.5,-360 1203.5,-360 1209.5,-360 1215.5,-366 1215.5,-372 1215.5,-372 1215.5,-384 1215.5,-384 1215.5,-390 1209.5,-396 1203.5,-396"/>
<text xml:space="preserve" text-anchor="middle" x="1098.75" y="-373.55" font-family="Helvetica,sans-Serif" font-size="11.00">solve_symmetric_potential_outward_shooting</text>
</g>
<!-- src_experiments_run_square_well&#45;&gt;src_shooting_solve_symmetric_potential_outward_shooting -->
<g id="edge21" class="edge">
<title>src_experiments_run_square_well&#45;&gt;src_shooting_solve_symmetric_potential_outward_shooting</title>
<path fill="none" stroke="#64748b" d="M684.13,-503.56C718.65,-477.81 779.38,-432.58 780.75,-432 798.8,-424.33 892.44,-409.17 973.47,-397.02"/>
<polygon fill="#64748b" stroke="#64748b" points="973.71,-399.46 980.28,-396 972.99,-394.61 973.71,-399.46"/>
</g>
<!-- src_numerov_derivative_at_right_edge -->
<g id="node11" class="node">
<title>src_numerov_derivative_at_right_edge</title>
<path fill="#f8fafc" stroke="#334155" d="M1340.62,-108C1340.62,-108 1230.88,-108 1230.88,-108 1224.88,-108 1218.88,-102 1218.88,-96 1218.88,-96 1218.88,-84 1218.88,-84 1218.88,-78 1224.88,-72 1230.88,-72 1230.88,-72 1340.62,-72 1340.62,-72 1346.62,-72 1352.62,-78 1352.62,-84 1352.62,-84 1352.62,-96 1352.62,-96 1352.62,-102 1346.62,-108 1340.62,-108"/>
<text xml:space="preserve" text-anchor="middle" x="1285.75" y="-85.55" font-family="Helvetica,sans-Serif" font-size="11.00">derivative_at_right_edge</text>
</g>
<!-- src_numerov_normalize_wavefunction -->
<g id="node12" class="node">
<title>src_numerov_normalize_wavefunction</title>
<path fill="#f8fafc" stroke="#334155" d="M1547.5,-252C1547.5,-252 1440,-252 1440,-252 1434,-252 1428,-246 1428,-240 1428,-240 1428,-228 1428,-228 1428,-222 1434,-216 1440,-216 1440,-216 1547.5,-216 1547.5,-216 1553.5,-216 1559.5,-222 1559.5,-228 1559.5,-228 1559.5,-240 1559.5,-240 1559.5,-246 1553.5,-252 1547.5,-252"/>
<text xml:space="preserve" text-anchor="middle" x="1493.75" y="-229.55" font-family="Helvetica,sans-Serif" font-size="11.00">normalize_wavefunction</text>
</g>
<!-- src_numerov_numerov_march -->
<g id="node13" class="node">
<title>src_numerov_numerov_march</title>
<path fill="#f8fafc" stroke="#334155" d="M1009.75,-36C1009.75,-36 939.75,-36 939.75,-36 933.75,-36 927.75,-30 927.75,-24 927.75,-24 927.75,-12 927.75,-12 927.75,-6 933.75,0 939.75,0 939.75,0 1009.75,0 1009.75,0 1015.75,0 1021.75,-6 1021.75,-12 1021.75,-12 1021.75,-24 1021.75,-24 1021.75,-30 1015.75,-36 1009.75,-36"/>
<text xml:space="preserve" text-anchor="middle" x="974.75" y="-13.55" font-family="Helvetica,sans-Serif" font-size="11.00">numerov_march</text>
</g>
<!-- src_numerov_q_from_energy -->
<g id="node14" class="node">
<title>src_numerov_q_from_energy</title>
<path fill="#f8fafc" stroke="#334155" d="M1116.12,-36C1116.12,-36 1051.38,-36 1051.38,-36 1045.38,-36 1039.38,-30 1039.38,-24 1039.38,-24 1039.38,-12 1039.38,-12 1039.38,-6 1045.38,0 1051.38,0 1051.38,0 1116.12,0 1116.12,0 1122.12,0 1128.12,-6 1128.12,-12 1128.12,-12 1128.12,-24 1128.12,-24 1128.12,-30 1122.12,-36 1116.12,-36"/>
<text xml:space="preserve" text-anchor="middle" x="1083.75" y="-13.55" font-family="Helvetica,sans-Serif" font-size="11.00">q_from_energy</text>
</g>
<!-- src_plotting__ensure_parent -->
<g id="node15" class="node">
<title>src_plotting__ensure_parent</title>
<path fill="#f8fafc" stroke="#334155" d="M455.62,-252C455.62,-252 387.88,-252 387.88,-252 381.88,-252 375.88,-246 375.88,-240 375.88,-240 375.88,-228 375.88,-228 375.88,-222 381.88,-216 387.88,-216 387.88,-216 455.62,-216 455.62,-216 461.62,-216 467.62,-222 467.62,-228 467.62,-228 467.62,-240 467.62,-240 467.62,-246 461.62,-252 455.62,-252"/>
<text xml:space="preserve" text-anchor="middle" x="421.75" y="-229.55" font-family="Helvetica,sans-Serif" font-size="11.00">_ensure_parent</text>
</g>
<!-- src_plotting__symlog_linthresh -->
<g id="node16" class="node">
<title>src_plotting__symlog_linthresh</title>
<path fill="#f8fafc" stroke="#334155" d="M710.88,-252C710.88,-252 632.62,-252 632.62,-252 626.62,-252 620.62,-246 620.62,-240 620.62,-240 620.62,-228 620.62,-228 620.62,-222 626.62,-216 632.62,-216 632.62,-216 710.88,-216 710.88,-216 716.88,-216 722.88,-222 722.88,-228 722.88,-228 722.88,-240 722.88,-240 722.88,-246 716.88,-252 710.88,-252"/>
<text xml:space="preserve" text-anchor="middle" x="671.75" y="-229.55" font-family="Helvetica,sans-Serif" font-size="11.00">_symlog_linthresh</text>
</g>
<!-- src_plotting_plot_energy_comparison&#45;&gt;src_plotting__ensure_parent -->
<g id="edge22" class="edge">
<title>src_plotting_plot_energy_comparison&#45;&gt;src_plotting__ensure_parent</title>
<path fill="none" stroke="#64748b" d="M417.69,-364.54C395.09,-356.8 372.21,-344.26 358.75,-324 349.9,-310.67 352,-302.51 358.75,-288 364.34,-275.99 374.14,-265.73 384.37,-257.52"/>
<polygon fill="#64748b" stroke="#64748b" points="385.8,-259.52 389.91,-253.34 382.85,-255.6 385.8,-259.52"/>
</g>
<!-- src_plotting_plot_error_curve&#45;&gt;src_plotting__ensure_parent -->
<g id="edge23" class="edge">
<title>src_plotting_plot_error_curve&#45;&gt;src_plotting__ensure_parent</title>
<path fill="none" stroke="#64748b" d="M586.27,-365.8C577.78,-363.84 569.01,-361.84 560.75,-360 485.79,-343.29 440.07,-383.69 391.75,-324 376.58,-305.26 388.94,-278.48 402.09,-259.2"/>
<polygon fill="#64748b" stroke="#64748b" points="403.95,-260.81 406.04,-253.69 399.97,-257.96 403.95,-260.81"/>
</g>
<!-- src_plotting_plot_potential_and_states&#45;&gt;src_plotting__ensure_parent -->
<g id="edge24" class="edge">
<title>src_plotting_plot_potential_and_states&#45;&gt;src_plotting__ensure_parent</title>
<path fill="none" stroke="#64748b" d="M457.88,-287.7C451.96,-279.05 444.69,-268.45 438.23,-259.03"/>
<polygon fill="#64748b" stroke="#64748b" points="440.31,-257.74 434.33,-253.35 436.27,-260.51 440.31,-257.74"/>
</g>
<!-- src_plotting_plot_probability_densities&#45;&gt;src_plotting__ensure_parent -->
<g id="edge25" class="edge">
<title>src_plotting_plot_probability_densities&#45;&gt;src_plotting__ensure_parent</title>
<path fill="none" stroke="#64748b" d="M305.06,-359.55C313.61,-340.52 329.12,-309.87 348.75,-288 359.26,-276.3 372.75,-265.62 385.27,-256.97"/>
<polygon fill="#64748b" stroke="#64748b" points="386.41,-259.16 390.85,-253.22 383.67,-255.09 386.41,-259.16"/>
</g>
<!-- src_plotting_plot_root_finding_diagnostic&#45;&gt;src_plotting__ensure_parent -->
<g id="edge26" class="edge">
<title>src_plotting_plot_root_finding_diagnostic&#45;&gt;src_plotting__ensure_parent</title>
<path fill="none" stroke="#64748b" d="M579.3,-287.52C547.72,-276.99 507.59,-263.61 475.74,-253"/>
<polygon fill="#64748b" stroke="#64748b" points="476.68,-250.73 469.26,-250.84 475.13,-255.37 476.68,-250.73"/>
</g>
<!-- src_plotting_plot_root_finding_diagnostic&#45;&gt;src_plotting__symlog_linthresh -->
<g id="edge27" class="edge">
<title>src_plotting_plot_root_finding_diagnostic&#45;&gt;src_plotting__symlog_linthresh</title>
<path fill="none" stroke="#64748b" d="M641.64,-287.7C646.53,-279.14 652.52,-268.66 657.86,-259.3"/>
<polygon fill="#64748b" stroke="#64748b" points="659.88,-260.71 661.23,-253.42 655.62,-258.28 659.88,-260.71"/>
</g>
<!-- src_plotting_plot_root_finding_zoom&#45;&gt;src_plotting__ensure_parent -->
<g id="edge28" class="edge">
<title>src_plotting_plot_root_finding_zoom&#45;&gt;src_plotting__ensure_parent</title>
<path fill="none" stroke="#64748b" d="M724.7,-289.89C721.67,-289.24 718.68,-288.61 715.75,-288 632.43,-270.8 535.18,-253.88 476.06,-243.95"/>
<polygon fill="#64748b" stroke="#64748b" points="476.77,-241.58 469.47,-242.84 475.96,-246.41 476.77,-241.58"/>
</g>
<!-- src_plotting_plot_root_finding_zoom&#45;&gt;src_plotting__symlog_linthresh -->
<g id="edge29" class="edge">
<title>src_plotting_plot_root_finding_zoom&#45;&gt;src_plotting__symlog_linthresh</title>
<path fill="none" stroke="#64748b" d="M759.53,-287.52C743.77,-278.09 724.2,-266.38 707.54,-256.41"/>
<polygon fill="#64748b" stroke="#64748b" points="709.16,-254.53 701.9,-253.04 706.65,-258.73 709.16,-254.53"/>
</g>
<!-- src_shooting_bisect_energy_outward_shooting -->
<g id="node24" class="node">
<title>src_shooting_bisect_energy_outward_shooting</title>
<path fill="#f8fafc" stroke="#334155" d="M1359.88,-252C1359.88,-252 1209.62,-252 1209.62,-252 1203.62,-252 1197.62,-246 1197.62,-240 1197.62,-240 1197.62,-228 1197.62,-228 1197.62,-222 1203.62,-216 1209.62,-216 1209.62,-216 1359.88,-216 1359.88,-216 1365.88,-216 1371.88,-222 1371.88,-228 1371.88,-228 1371.88,-240 1371.88,-240 1371.88,-246 1365.88,-252 1359.88,-252"/>
<text xml:space="preserve" text-anchor="middle" x="1284.75" y="-229.55" font-family="Helvetica,sans-Serif" font-size="11.00">bisect_energy_outward_shooting</text>
</g>
<!-- src_shooting_boundary_mismatch_outward_shooting -->
<g id="node26" class="node">
<title>src_shooting_boundary_mismatch_outward_shooting</title>
<path fill="#f8fafc" stroke="#334155" d="M1274.88,-180C1274.88,-180 1094.62,-180 1094.62,-180 1088.62,-180 1082.62,-174 1082.62,-168 1082.62,-168 1082.62,-156 1082.62,-156 1082.62,-150 1088.62,-144 1094.62,-144 1094.62,-144 1274.88,-144 1274.88,-144 1280.88,-144 1286.88,-150 1286.88,-156 1286.88,-156 1286.88,-168 1286.88,-168 1286.88,-174 1280.88,-180 1274.88,-180"/>
<text xml:space="preserve" text-anchor="middle" x="1184.75" y="-157.55" font-family="Helvetica,sans-Serif" font-size="11.00">boundary_mismatch_outward_shooting</text>
</g>
<!-- src_shooting_bisect_energy_outward_shooting&#45;&gt;src_shooting_boundary_mismatch_outward_shooting -->
<g id="edge30" class="edge">
<title>src_shooting_bisect_energy_outward_shooting&#45;&gt;src_shooting_boundary_mismatch_outward_shooting</title>
<path fill="none" stroke="#64748b" d="M1259.77,-215.52C1246.55,-206.26 1230.18,-194.8 1216.11,-184.95"/>
<polygon fill="#64748b" stroke="#64748b" points="1217.79,-183.14 1210.65,-181.13 1214.98,-187.15 1217.79,-183.14"/>
</g>
<!-- src_shooting_bisection_history_outward_shooting&#45;&gt;src_shooting_boundary_mismatch_outward_shooting -->
<g id="edge31" class="edge">
<title>src_shooting_bisection_history_outward_shooting&#45;&gt;src_shooting_boundary_mismatch_outward_shooting</title>
<path fill="none" stroke="#64748b" d="M952.18,-215.52C996.92,-205.41 1053.29,-192.68 1099.33,-182.29"/>
<polygon fill="#64748b" stroke="#64748b" points="1099.74,-184.71 1106.03,-180.78 1098.66,-179.93 1099.74,-184.71"/>
</g>
<!-- src_shooting_diagnostic_mismatch_outward_shooting -->
<g id="node28" class="node">
<title>src_shooting_diagnostic_mismatch_outward_shooting</title>
<path fill="#f8fafc" stroke="#334155" d="M1052.38,-180C1052.38,-180 869.12,-180 869.12,-180 863.12,-180 857.12,-174 857.12,-168 857.12,-168 857.12,-156 857.12,-156 857.12,-150 863.12,-144 869.12,-144 869.12,-144 1052.38,-144 1052.38,-144 1058.38,-144 1064.38,-150 1064.38,-156 1064.38,-156 1064.38,-168 1064.38,-168 1064.38,-174 1058.38,-180 1052.38,-180"/>
<text xml:space="preserve" text-anchor="middle" x="960.75" y="-157.55" font-family="Helvetica,sans-Serif" font-size="11.00">diagnostic_mismatch_outward_shooting</text>
</g>
<!-- src_shooting_bisection_history_outward_shooting&#45;&gt;src_shooting_diagnostic_mismatch_outward_shooting -->
<g id="edge32" class="edge">
<title>src_shooting_bisection_history_outward_shooting&#45;&gt;src_shooting_diagnostic_mismatch_outward_shooting</title>
<path fill="none" stroke="#64748b" d="M896.01,-215.7C907.17,-206.61 920.99,-195.36 932.99,-185.6"/>
<polygon fill="#64748b" stroke="#64748b" points="934.38,-187.62 938.26,-181.3 931.29,-183.82 934.38,-187.62"/>
</g>
<!-- src_shooting_boundary_mismatch_outward_shooting&#45;&gt;src_numerov_derivative_at_right_edge -->
<g id="edge33" class="edge">
<title>src_shooting_boundary_mismatch_outward_shooting&#45;&gt;src_numerov_derivative_at_right_edge</title>
<path fill="none" stroke="#64748b" d="M1209.98,-143.52C1223.33,-134.26 1239.87,-122.8 1254.08,-112.95"/>
<polygon fill="#64748b" stroke="#64748b" points="1255.24,-115.12 1259.6,-109.12 1252.45,-111.1 1255.24,-115.12"/>
</g>
<!-- src_shooting_half_domain_wavefunction_outward_shooting -->
<g id="node30" class="node">
<title>src_shooting_half_domain_wavefunction_outward_shooting</title>
<path fill="#f8fafc" stroke="#334155" d="M1189.25,-108C1189.25,-108 978.25,-108 978.25,-108 972.25,-108 966.25,-102 966.25,-96 966.25,-96 966.25,-84 966.25,-84 966.25,-78 972.25,-72 978.25,-72 978.25,-72 1189.25,-72 1189.25,-72 1195.25,-72 1201.25,-78 1201.25,-84 1201.25,-84 1201.25,-96 1201.25,-96 1201.25,-102 1195.25,-108 1189.25,-108"/>
<text xml:space="preserve" text-anchor="middle" x="1083.75" y="-85.55" font-family="Helvetica,sans-Serif" font-size="11.00">half_domain_wavefunction_outward_shooting</text>
</g>
<!-- src_shooting_boundary_mismatch_outward_shooting&#45;&gt;src_shooting_half_domain_wavefunction_outward_shooting -->
<g id="edge34" class="edge">
<title>src_shooting_boundary_mismatch_outward_shooting&#45;&gt;src_shooting_half_domain_wavefunction_outward_shooting</title>
<path fill="none" stroke="#64748b" d="M1159.52,-143.52C1146.17,-134.26 1129.63,-122.8 1115.42,-112.95"/>
<polygon fill="#64748b" stroke="#64748b" points="1117.05,-111.1 1109.9,-109.12 1114.26,-115.12 1117.05,-111.1"/>
</g>
<!-- src_shooting_build_full_wavefunction -->
<g id="node27" class="node">
<title>src_shooting_build_full_wavefunction</title>
<path fill="#f8fafc" stroke="#334155" d="M1692.25,-252C1692.25,-252 1589.25,-252 1589.25,-252 1583.25,-252 1577.25,-246 1577.25,-240 1577.25,-240 1577.25,-228 1577.25,-228 1577.25,-222 1583.25,-216 1589.25,-216 1589.25,-216 1692.25,-216 1692.25,-216 1698.25,-216 1704.25,-222 1704.25,-228 1704.25,-228 1704.25,-240 1704.25,-240 1704.25,-246 1698.25,-252 1692.25,-252"/>
<text xml:space="preserve" text-anchor="middle" x="1640.75" y="-229.55" font-family="Helvetica,sans-Serif" font-size="11.00">build_full_wavefunction</text>
</g>
<!-- src_shooting_diagnostic_mismatch_outward_shooting&#45;&gt;src_shooting_half_domain_wavefunction_outward_shooting -->
<g id="edge35" class="edge">
<title>src_shooting_diagnostic_mismatch_outward_shooting&#45;&gt;src_shooting_half_domain_wavefunction_outward_shooting</title>
<path fill="none" stroke="#64748b" d="M991.47,-143.52C1008.03,-134.09 1028.61,-122.38 1046.12,-112.41"/>
<polygon fill="#64748b" stroke="#64748b" points="1047.23,-114.6 1052.11,-109.01 1044.81,-110.34 1047.23,-114.6"/>
</g>
<!-- src_shooting_find_brackets_outward_shooting&#45;&gt;src_shooting_sample_mismatch_outward_shooting -->
<g id="edge36" class="edge">
<title>src_shooting_find_brackets_outward_shooting&#45;&gt;src_shooting_sample_mismatch_outward_shooting</title>
<path fill="none" stroke="#64748b" d="M1152.01,-287.7C1139.96,-278.53 1125.01,-267.16 1112.09,-257.33"/>
<polygon fill="#64748b" stroke="#64748b" points="1113.81,-255.55 1106.75,-253.26 1110.84,-259.45 1113.81,-255.55"/>
</g>
<!-- src_shooting_half_domain_wavefunction_outward_shooting&#45;&gt;src_numerov_numerov_march -->
<g id="edge37" class="edge">
<title>src_shooting_half_domain_wavefunction_outward_shooting&#45;&gt;src_numerov_numerov_march</title>
<path fill="none" stroke="#64748b" d="M1056.53,-71.52C1041.98,-62.18 1023.94,-50.59 1008.51,-40.68"/>
<polygon fill="#64748b" stroke="#64748b" points="1010.11,-38.8 1002.9,-37.08 1007.47,-42.92 1010.11,-38.8"/>
</g>
<!-- src_shooting_half_domain_wavefunction_outward_shooting&#45;&gt;src_numerov_q_from_energy -->
<g id="edge38" class="edge">
<title>src_shooting_half_domain_wavefunction_outward_shooting&#45;&gt;src_numerov_q_from_energy</title>
<path fill="none" stroke="#64748b" d="M1083.75,-71.7C1083.75,-63.47 1083.75,-53.48 1083.75,-44.42"/>
<polygon fill="#64748b" stroke="#64748b" points="1086.2,-44.62 1083.75,-37.62 1081.3,-44.62 1086.2,-44.62"/>
</g>
<!-- src_shooting_initial_conditions_outward_shooting -->
<g id="node31" class="node">
<title>src_shooting_initial_conditions_outward_shooting</title>
<path fill="#f8fafc" stroke="#334155" d="M1319.5,-36C1319.5,-36 1158,-36 1158,-36 1152,-36 1146,-30 1146,-24 1146,-24 1146,-12 1146,-12 1146,-6 1152,0 1158,0 1158,0 1319.5,0 1319.5,0 1325.5,0 1331.5,-6 1331.5,-12 1331.5,-12 1331.5,-24 1331.5,-24 1331.5,-30 1325.5,-36 1319.5,-36"/>
<text xml:space="preserve" text-anchor="middle" x="1238.75" y="-13.55" font-family="Helvetica,sans-Serif" font-size="11.00">initial_conditions_outward_shooting</text>
</g>
<!-- src_shooting_half_domain_wavefunction_outward_shooting&#45;&gt;src_shooting_initial_conditions_outward_shooting -->
<g id="edge39" class="edge">
<title>src_shooting_half_domain_wavefunction_outward_shooting&#45;&gt;src_shooting_initial_conditions_outward_shooting</title>
<path fill="none" stroke="#64748b" d="M1122.46,-71.52C1143.72,-61.92 1170.22,-49.95 1192.55,-39.86"/>
<polygon fill="#64748b" stroke="#64748b" points="1193.51,-42.12 1198.88,-37 1191.49,-37.65 1193.51,-42.12"/>
</g>
<!-- src_shooting_sample_mismatch_outward_shooting&#45;&gt;src_shooting_boundary_mismatch_outward_shooting -->
<g id="edge40" class="edge">
<title>src_shooting_sample_mismatch_outward_shooting&#45;&gt;src_shooting_boundary_mismatch_outward_shooting</title>
<path fill="none" stroke="#64748b" d="M1108.23,-215.52C1121.71,-206.26 1138.41,-194.8 1152.77,-184.95"/>
<polygon fill="#64748b" stroke="#64748b" points="1153.97,-187.1 1158.35,-181.12 1151.19,-183.06 1153.97,-187.1"/>
</g>
<!-- src_shooting_sample_mismatch_outward_shooting&#45;&gt;src_shooting_diagnostic_mismatch_outward_shooting -->
<g id="edge41" class="edge">
<title>src_shooting_sample_mismatch_outward_shooting&#45;&gt;src_shooting_diagnostic_mismatch_outward_shooting</title>
<path fill="none" stroke="#64748b" d="M1052.28,-215.52C1035.85,-206.09 1015.45,-194.38 998.07,-184.41"/>
<polygon fill="#64748b" stroke="#64748b" points="999.44,-182.37 992.15,-181.01 997,-186.62 999.44,-182.37"/>
</g>
<!-- src_shooting_solve_state_from_bracket_outward_shooting -->
<g id="node33" class="node">
<title>src_shooting_solve_state_from_bracket_outward_shooting</title>
<path fill="#f8fafc" stroke="#334155" d="M1503,-324C1503,-324 1296.5,-324 1296.5,-324 1290.5,-324 1284.5,-318 1284.5,-312 1284.5,-312 1284.5,-300 1284.5,-300 1284.5,-294 1290.5,-288 1296.5,-288 1296.5,-288 1503,-288 1503,-288 1509,-288 1515,-294 1515,-300 1515,-300 1515,-312 1515,-312 1515,-318 1509,-324 1503,-324"/>
<text xml:space="preserve" text-anchor="middle" x="1399.75" y="-301.55" font-family="Helvetica,sans-Serif" font-size="11.00">solve_state_from_bracket_outward_shooting</text>
</g>
<!-- src_shooting_solve_state_from_bracket_outward_shooting&#45;&gt;src_numerov_normalize_wavefunction -->
<g id="edge42" class="edge">
<title>src_shooting_solve_state_from_bracket_outward_shooting&#45;&gt;src_numerov_normalize_wavefunction</title>
<path fill="none" stroke="#64748b" d="M1422.99,-287.7C1435.3,-278.53 1450.57,-267.16 1463.77,-257.33"/>
<polygon fill="#64748b" stroke="#64748b" points="1465.09,-259.4 1469.24,-253.25 1462.16,-255.47 1465.09,-259.4"/>
</g>
<!-- src_shooting_solve_state_from_bracket_outward_shooting&#45;&gt;src_shooting_bisect_energy_outward_shooting -->
<g id="edge43" class="edge">
<title>src_shooting_solve_state_from_bracket_outward_shooting&#45;&gt;src_shooting_bisect_energy_outward_shooting</title>
<path fill="none" stroke="#64748b" d="M1371.03,-287.52C1355.68,-278.18 1336.65,-266.59 1320.37,-256.68"/>
<polygon fill="#64748b" stroke="#64748b" points="1321.65,-254.59 1314.4,-253.05 1319.11,-258.78 1321.65,-254.59"/>
</g>
<!-- src_shooting_solve_state_from_bracket_outward_shooting&#45;&gt;src_shooting_build_full_wavefunction -->
<g id="edge44" class="edge">
<title>src_shooting_solve_state_from_bracket_outward_shooting&#45;&gt;src_shooting_build_full_wavefunction</title>
<path fill="none" stroke="#64748b" d="M1459.94,-287.52C1494.29,-277.54 1537.45,-265 1572.98,-254.68"/>
<polygon fill="#64748b" stroke="#64748b" points="1573.41,-257.11 1579.45,-252.8 1572.05,-252.4 1573.41,-257.11"/>
</g>
<!-- src_shooting_solve_state_from_bracket_outward_shooting&#45;&gt;src_shooting_half_domain_wavefunction_outward_shooting -->
<g id="edge45" class="edge">
<title>src_shooting_solve_state_from_bracket_outward_shooting&#45;&gt;src_shooting_half_domain_wavefunction_outward_shooting</title>
<path fill="none" stroke="#64748b" d="M1399.33,-287.74C1398.16,-268.88 1394.13,-238.37 1380.75,-216 1355.33,-173.51 1339.8,-166.59 1295.75,-144 1266.73,-129.12 1233.29,-118.25 1201.68,-110.39"/>
<polygon fill="#64748b" stroke="#64748b" points="1202.54,-108.07 1195.16,-108.81 1201.38,-112.84 1202.54,-108.07"/>
</g>
<!-- src_shooting_solve_symmetric_potential_outward_shooting&#45;&gt;src_shooting_find_brackets_outward_shooting -->
<g id="edge46" class="edge">
<title>src_shooting_solve_symmetric_potential_outward_shooting&#45;&gt;src_shooting_find_brackets_outward_shooting</title>
<path fill="none" stroke="#64748b" d="M1117.54,-359.7C1127.31,-350.69 1139.39,-339.57 1149.92,-329.87"/>
<polygon fill="#64748b" stroke="#64748b" points="1151.31,-331.92 1154.8,-325.37 1147.99,-328.31 1151.31,-331.92"/>
</g>
<!-- src_shooting_solve_symmetric_potential_outward_shooting&#45;&gt;src_shooting_solve_state_from_bracket_outward_shooting -->
<g id="edge47" class="edge">
<title>src_shooting_solve_symmetric_potential_outward_shooting&#45;&gt;src_shooting_solve_state_from_bracket_outward_shooting</title>
<path fill="none" stroke="#64748b" d="M1173.93,-359.52C1217.29,-349.43 1271.88,-336.74 1316.53,-326.35"/>
<polygon fill="#64748b" stroke="#64748b" points="1317.01,-328.76 1323.27,-324.79 1315.9,-323.98 1317.01,-328.76"/>
</g>
</g>
</svg>
