<?xml version="1.0" encoding="UTF-8" standalone="no"?>
<!DOCTYPE svg PUBLIC "-//W3C//DTD SVG 1.1//EN"
 "http://www.w3.org/Graphics/SVG/1.1/DTD/svg11.dtd">
<!-- Generated by graphviz version 14.1.5 (20260411.2331)
 -->
<!-- Title: G Pages: 1 -->
<svg width="1353pt" height="505pt"
 viewBox="0.00 0.00 1353.00 505.00" xmlns="http://www.w3.org/2000/svg" xmlns:xlink="http://www.w3.org/1999/xlink">
<g id="graph0" class="graph" transform="scale(1 1) rotate(0) translate(4 501)">
<title>G</title>
<polygon fill="white" stroke="none" points="-4,4 -4,-501 1348.5,-501 1348.5,4 -4,4"/>
<text xml:space="preserve" text-anchor="middle" x="143" y="-474" font-family="Helvetica,sans-Serif" font-size="20.00">Finite Square Well Experiment</text>
<!-- src_analysis_save_csv_rows -->
<g id="node1" class="node">
<title>src_analysis_save_csv_rows</title>
<path fill="#f8fafc" stroke="#334155" d="M77.5,-396C77.5,-396 12,-396 12,-396 6,-396 0,-390 0,-384 0,-384 0,-372 0,-372 0,-366 6,-360 12,-360 12,-360 77.5,-360 77.5,-360 83.5,-360 89.5,-366 89.5,-372 89.5,-372 89.5,-384 89.5,-384 89.5,-390 83.5,-396 77.5,-396"/>
<text xml:space="preserve" text-anchor="middle" x="44.75" y="-373.55" font-family="Helvetica,sans-Serif" font-size="11.00">save_csv_rows</text>
</g>
<!-- src_experiments__experiment_results_dir -->
<g id="node2" class="node">
<title>src_experiments__experiment_results_dir</title>
<path fill="#f8fafc" stroke="#334155" d="M226.12,-396C226.12,-396 119.38,-396 119.38,-396 113.38,-396 107.38,-390 107.38,-384 107.38,-384 107.38,-372 107.38,-372 107.38,-366 113.38,-360 119.38,-360 119.38,-360 226.12,-360 226.12,-360 232.12,-360 238.12,-366 238.12,-372 238.12,-372 238.12,-384 238.12,-384 238.12,-390 232.12,-396 226.12,-396"/>
<text xml:space="preserve" text-anchor="middle" x="172.75" y="-373.55" font-family="Helvetica,sans-Serif" font-size="11.00">_experiment_results_dir</text>
</g>
<!-- src_experiments_run_finite_square_well -->
<g id="node3" class="node">
<title>src_experiments_run_finite_square_well</title>
<path fill="#f8fafc" stroke="#334155" d="M452.75,-468C452.75,-468 352.75,-468 352.75,-468 346.75,-468 340.75,-462 340.75,-456 340.75,-456 340.75,-444 340.75,-444 340.75,-438 346.75,-432 352.75,-432 352.75,-432 452.75,-432 452.75,-432 458.75,-432 464.75,-438 464.75,-444 464.75,-444 464.75,-456 464.75,-456 464.75,-462 458.75,-468 452.75,-468"/>
<text xml:space="preserve" text-anchor="middle" x="402.75" y="-445.55" font-family="Helvetica,sans-Serif" font-size="11.00">run_finite_square_well</text>
</g>
<!-- src_experiments_run_finite_square_well&#45;&gt;src_analysis_save_csv_rows -->
<g id="edge1" class="edge">
<title>src_experiments_run_finite_square_well&#45;&gt;src_analysis_save_csv_rows</title>
<path fill="none" stroke="#64748b" d="M340.54,-440.62C278.74,-431.71 181.52,-416.15 98.75,-396 98.47,-395.93 98.19,-395.86 97.92,-395.8"/>
<polygon fill="#64748b" stroke="#64748b" points="98.56,-393.43 91.17,-394.03 97.32,-398.17 98.56,-393.43"/>
</g>
<!-- src_experiments_run_finite_square_well&#45;&gt;src_experiments__experiment_results_dir -->
<g id="edge2" class="edge">
<title>src_experiments_run_finite_square_well&#45;&gt;src_experiments__experiment_results_dir</title>
<path fill="none" stroke="#64748b" d="M345.3,-431.52C312.66,-421.58 271.68,-409.11 237.85,-398.81"/>
<polygon fill="#64748b" stroke="#64748b" points="238.72,-396.52 231.31,-396.82 237.29,-401.2 238.72,-396.52"/>
</g>
<!-- src_plotting_plot_potential_and_states -->
<g id="node9" class="node">
<title>src_plotting_plot_potential_and_states</title>
<path fill="#f8fafc" stroke="#334155" d="M382.88,-396C382.88,-396 268.62,-396 268.62,-396 262.62,-396 256.62,-390 256.62,-384 256.62,-384 256.62,-372 256.62,-372 256.62,-366 262.62,-360 268.62,-360 268.62,-360 382.88,-360 382.88,-360 388.88,-360 394.88,-366 394.88,-372 394.88,-372 394.88,-384 394.88,-384 394.88,-390 388.88,-396 382.88,-396"/>
<text xml:space="preserve" text-anchor="middle" x="325.75" y="-373.55" font-family="Helvetica,sans-Serif" font-size="11.00">plot_potential_and_states</text>
</g>
<!-- src_experiments_run_finite_square_well&#45;&gt;src_plotting_plot_potential_and_states -->
<g id="edge3" class="edge">
<title>src_experiments_run_finite_square_well&#45;&gt;src_plotting_plot_potential_and_states</title>
<path fill="none" stroke="#64748b" d="M383.72,-431.7C373.81,-422.69 361.58,-411.57 350.91,-401.87"/>
<polygon fill="#64748b" stroke="#64748b" points="352.78,-400.26 345.95,-397.37 349.48,-403.89 352.78,-400.26"/>
</g>
<!-- src_plotting_plot_probability_densities -->
<g id="node10" class="node">
<title>src_plotting_plot_probability_densities</title>
<path fill="#f8fafc" stroke="#334155" d="M536.75,-396C536.75,-396 424.75,-396 424.75,-396 418.75,-396 412.75,-390 412.75,-384 412.75,-384 412.75,-372 412.75,-372 412.75,-366 418.75,-360 424.75,-360 424.75,-360 536.75,-360 536.75,-360 542.75,-360 548.75,-366 548.75,-372 548.75,-372 548.75,-384 548.75,-384 548.75,-390 542.75,-396 536.75,-396"/>
<text xml:space="preserve" text-anchor="middle" x="480.75" y="-373.55" font-family="Helvetica,sans-Serif" font-size="11.00">plot_probability_densities</text>
</g>
<!-- src_experiments_run_finite_square_well&#45;&gt;src_plotting_plot_probability_densities -->
<g id="edge4" class="edge">
<title>src_experiments_run_finite_square_well&#45;&gt;src_plotting_plot_probability_densities</title>
<path fill="none" stroke="#64748b" d="M422.03,-431.7C432.06,-422.69 444.46,-411.57 455.27,-401.87"/>
<polygon fill="#64748b" stroke="#64748b" points="456.72,-403.86 460.29,-397.36 453.45,-400.21 456.72,-403.86"/>
</g>
<!-- src_potentials_finite_square_well -->
<g id="node11" class="node">
<title>src_potentials_finite_square_well</title>
<path fill="#f8fafc" stroke="#334155" d="M656.88,-396C656.88,-396 578.62,-396 578.62,-396 572.62,-396 566.62,-390 566.62,-384 566.62,-384 566.62,-372 566.62,-372 566.62,-366 572.62,-360 578.62,-360 578.62,-360 656.88,-360 656.88,-360 662.88,-360 668.88,-366 668.88,-372 668.88,-372 668.88,-384 668.88,-384 668.88,-390 662.88,-396 656.88,-396"/>
<text xml:space="preserve" text-anchor="middle" x="617.75" y="-373.55" font-family="Helvetica,sans-Serif" font-size="11.00">finite_square_well</text>
</g>
<!-- src_experiments_run_finite_square_well&#45;&gt;src_potentials_finite_square_well -->
<g id="edge5" class="edge">
<title>src_experiments_run_finite_square_well&#45;&gt;src_potentials_finite_square_well</title>
<path fill="none" stroke="#64748b" d="M456.45,-431.52C487.41,-421.44 526.39,-408.75 558.27,-398.37"/>
<polygon fill="#64748b" stroke="#64748b" points="558.88,-400.74 564.78,-396.25 557.36,-396.08 558.88,-400.74"/>
</g>
<!-- src_shooting_solve_symmetric_potential_outward_shooting -->
<g id="node19" class="node">
<title>src_shooting_solve_symmetric_potential_outward_shooting</title>
<path fill="#f8fafc" stroke="#334155" d="M908.5,-396C908.5,-396 699,-396 699,-396 693,-396 687,-390 687,-384 687,-384 687,-372 687,-372 687,-366 693,-360 699,-360 699,-360 908.5,-360 908.5,-360 914.5,-360 920.5,-366 920.5,-372 920.5,-372 920.5,-384 920.5,-384 920.5,-390 914.5,-396 908.5,-396"/>
<text xml:space="preserve" text-anchor="middle" x="803.75" y="-373.55" font-family="Helvetica,sans-Serif" font-size="11.00">solve_symmetric_potential_outward_shooting</text>
</g>
<!-- src_experiments_run_finite_square_well&#45;&gt;src_shooting_solve_symmetric_potential_outward_shooting -->
<g id="edge6" class="edge">
<title>src_experiments_run_finite_square_well&#45;&gt;src_shooting_solve_symmetric_potential_outward_shooting</title>
<path fill="none" stroke="#64748b" d="M464.97,-438.14C526.52,-427.39 621.98,-410.73 695.9,-397.83"/>
<polygon fill="#64748b" stroke="#64748b" points="695.92,-400.31 702.4,-396.69 695.08,-395.48 695.92,-400.31"/>
</g>
<!-- src_numerov_derivative_at_right_edge -->
<g id="node4" class="node">
<title>src_numerov_derivative_at_right_edge</title>
<path fill="#f8fafc" stroke="#334155" d="M919.62,-108C919.62,-108 809.88,-108 809.88,-108 803.88,-108 797.88,-102 797.88,-96 797.88,-96 797.88,-84 797.88,-84 797.88,-78 803.88,-72 809.88,-72 809.88,-72 919.62,-72 919.62,-72 925.62,-72 931.62,-78 931.62,-84 931.62,-84 931.62,-96 931.62,-96 931.62,-102 925.62,-108 919.62,-108"/>
<text xml:space="preserve" text-anchor="middle" x="864.75" y="-85.55" font-family="Helvetica,sans-Serif" font-size="11.00">derivative_at_right_edge</text>
</g>
<!-- src_numerov_normalize_wavefunction -->
<g id="node5" class="node">
<title>src_numerov_normalize_wavefunction</title>
<path fill="#f8fafc" stroke="#334155" d="M747.5,-252C747.5,-252 640,-252 640,-252 634,-252 628,-246 628,-240 628,-240 628,-228 628,-228 628,-222 634,-216 640,-216 640,-216 747.5,-216 747.5,-216 753.5,-216 759.5,-222 759.5,-228 759.5,-228 759.5,-240 759.5,-240 759.5,-246 753.5,-252 747.5,-252"/>
<text xml:space="preserve" text-anchor="middle" x="693.75" y="-229.55" font-family="Helvetica,sans-Serif" font-size="11.00">normalize_wavefunction</text>
</g>
<!-- src_numerov_numerov_outward -->
<g id="node6" class="node">
<title>src_numerov_numerov_outward</title>
<path fill="#f8fafc" stroke="#334155" d="M1022.25,-36C1022.25,-36 943.25,-36 943.25,-36 937.25,-36 931.25,-30 931.25,-24 931.25,-24 931.25,-12 931.25,-12 931.25,-6 937.25,0 943.25,0 943.25,0 1022.25,0 1022.25,0 1028.25,0 1034.25,-6 1034.25,-12 1034.25,-12 1034.25,-24 1034.25,-24 1034.25,-30 1028.25,-36 1022.25,-36"/>
<text xml:space="preserve" text-anchor="middle" x="982.75" y="-13.55" font-family="Helvetica,sans-Serif" font-size="11.00">numerov_outward</text>
</g>
<!-- src_numerov_q_from_energy -->
<g id="node7" class="node">
<title>src_numerov_q_from_energy</title>
<path fill="#f8fafc" stroke="#334155" d="M1129.12,-36C1129.12,-36 1064.38,-36 1064.38,-36 1058.38,-36 1052.38,-30 1052.38,-24 1052.38,-24 1052.38,-12 1052.38,-12 1052.38,-6 1058.38,0 1064.38,0 1064.38,0 1129.12,0 1129.12,0 1135.12,0 1141.12,-6 1141.12,-12 1141.12,-12 1141.12,-24 1141.12,-24 1141.12,-30 1135.12,-36 1129.12,-36"/>
<text xml:space="preserve" text-anchor="middle" x="1096.75" y="-13.55" font-family="Helvetica,sans-Serif" font-size="11.00">q_from_energy</text>
</g>
<!-- src_plotting__ensure_parent -->
<g id="node8" class="node">
<title>src_plotting__ensure_parent</title>
<path fill="#f8fafc" stroke="#334155" d="M452.62,-324C452.62,-324 384.88,-324 384.88,-324 378.88,-324 372.88,-318 372.88,-312 372.88,-312 372.88,-300 372.88,-300 372.88,-294 378.88,-288 384.88,-288 384.88,-288 452.62,-288 452.62,-288 458.62,-288 464.62,-294 464.62,-300 464.62,-300 464.62,-312 464.62,-312 464.62,-318 458.62,-324 452.62,-324"/>
<text xml:space="preserve" text-anchor="middle" x="418.75" y="-301.55" font-family="Helvetica,sans-Serif" font-size="11.00">_ensure_parent</text>
</g>
<!-- src_plotting_plot_potential_and_states&#45;&gt;src_plotting__ensure_parent -->
<g id="edge7" class="edge">
<title>src_plotting_plot_potential_and_states&#45;&gt;src_plotting__ensure_parent</title>
<path fill="none" stroke="#64748b" d="M348.74,-359.7C360.92,-350.53 376.03,-339.16 389.09,-329.33"/>
<polygon fill="#64748b" stroke="#64748b" points="390.37,-331.42 394.49,-325.26 387.43,-327.51 390.37,-331.42"/>
</g>
<!-- src_plotting_plot_probability_densities&#45;&gt;src_plotting__ensure_parent -->
<g id="edge8" class="edge">
<title>src_plotting_plot_probability_densities&#45;&gt;src_plotting__ensure_parent</title>
<path fill="none" stroke="#64748b" d="M465.42,-359.7C457.62,-350.88 448.01,-340.03 439.54,-330.47"/>
<polygon fill="#64748b" stroke="#64748b" points="441.38,-328.85 434.9,-325.24 437.71,-332.1 441.38,-328.85"/>
</g>
<!-- src_shooting_bisect_energy_outward_shooting -->
<g id="node12" class="node">
<title>src_shooting_bisect_energy_outward_shooting</title>
<path fill="#f8fafc" stroke="#334155" d="M939.88,-252C939.88,-252 789.62,-252 789.62,-252 783.62,-252 777.62,-246 777.62,-240 777.62,-240 777.62,-228 777.62,-228 777.62,-222 783.62,-216 789.62,-216 789.62,-216 939.88,-216 939.88,-216 945.88,-216 951.88,-222 951.88,-228 951.88,-228 951.88,-240 951.88,-240 951.88,-246 945.88,-252 939.88,-252"/>
<text xml:space="preserve" text-anchor="middle" x="864.75" y="-229.55" font-family="Helvetica,sans-Serif" font-size="11.00">bisect_energy_outward_shooting</text>
</g>
<!-- src_shooting_boundary_mismatch_outward_shooting -->
<g id="node13" class="node">
<title>src_shooting_boundary_mismatch_outward_shooting</title>
<path fill="#f8fafc" stroke="#334155" d="M954.88,-180C954.88,-180 774.62,-180 774.62,-180 768.62,-180 762.62,-174 762.62,-168 762.62,-168 762.62,-156 762.62,-156 762.62,-150 768.62,-144 774.62,-144 774.62,-144 954.88,-144 954.88,-144 960.88,-144 966.88,-150 966.88,-156 966.88,-156 966.88,-168 966.88,-168 966.88,-174 960.88,-180 954.88,-180"/>
<text xml:space="preserve" text-anchor="middle" x="864.75" y="-157.55" font-family="Helvetica,sans-Serif" font-size="11.00">boundary_mismatch_outward_shooting</text>
</g>
<!-- src_shooting_bisect_energy_outward_shooting&#45;&gt;src_shooting_boundary_mismatch_outward_shooting -->
<g id="edge9" class="edge">
<title>src_shooting_bisect_energy_outward_shooting&#45;&gt;src_shooting_boundary_mismatch_outward_shooting</title>
<path fill="none" stroke="#64748b" d="M864.75,-215.7C864.75,-207.47 864.75,-197.48 864.75,-188.42"/>
<polygon fill="#64748b" stroke="#64748b" points="867.2,-188.62 864.75,-181.62 862.3,-188.62 867.2,-188.62"/>
</g>
<!-- src_shooting_boundary_mismatch_outward_shooting&#45;&gt;src_numerov_derivative_at_right_edge -->
<g id="edge10" class="edge">
<title>src_shooting_boundary_mismatch_outward_shooting&#45;&gt;src_numerov_derivative_at_right_edge</title>
<path fill="none" stroke="#64748b" d="M864.75,-143.7C864.75,-135.47 864.75,-125.48 864.75,-116.42"/>
<polygon fill="#64748b" stroke="#64748b" points="867.2,-116.62 864.75,-109.62 862.3,-116.62 867.2,-116.62"/>
</g>
<!-- src_shooting_half_domain_wavefunction_outward_shooting -->
<g id="node16" class="node">
<title>src_shooting_half_domain_wavefunction_outward_shooting</title>
<path fill="#f8fafc" stroke="#334155" d="M1202.25,-108C1202.25,-108 991.25,-108 991.25,-108 985.25,-108 979.25,-102 979.25,-96 979.25,-96 979.25,-84 979.25,-84 979.25,-78 985.25,-72 991.25,-72 991.25,-72 1202.25,-72 1202.25,-72 1208.25,-72 1214.25,-78 1214.25,-84 1214.25,-84 1214.25,-96 1214.25,-96 1214.25,-102 1208.25,-108 1202.25,-108"/>
<text xml:space="preserve" text-anchor="middle" x="1096.75" y="-85.55" font-family="Helvetica,sans-Serif" font-size="11.00">half_domain_wavefunction_outward_shooting</text>
</g>
<!-- src_shooting_boundary_mismatch_outward_shooting&#45;&gt;src_shooting_half_domain_wavefunction_outward_shooting -->
<g id="edge11" class="edge">
<title>src_shooting_boundary_mismatch_outward_shooting&#45;&gt;src_shooting_half_domain_wavefunction_outward_shooting</title>
<path fill="none" stroke="#64748b" d="M922.69,-143.52C955.62,-133.58 996.96,-121.11 1031.08,-110.81"/>
<polygon fill="#64748b" stroke="#64748b" points="1031.7,-113.19 1037.69,-108.82 1030.28,-108.5 1031.7,-113.19"/>
</g>
<!-- src_shooting_build_full_wavefunction -->
<g id="node14" class="node">
<title>src_shooting_build_full_wavefunction</title>
<path fill="#f8fafc" stroke="#334155" d="M1085.25,-252C1085.25,-252 982.25,-252 982.25,-252 976.25,-252 970.25,-246 970.25,-240 970.25,-240 970.25,-228 970.25,-228 970.25,-222 976.25,-216 982.25,-216 982.25,-216 1085.25,-216 1085.25,-216 1091.25,-216 1097.25,-222 1097.25,-228 1097.25,-228 1097.25,-240 1097.25,-240 1097.25,-246 1091.25,-252 1085.25,-252"/>
<text xml:space="preserve" text-anchor="middle" x="1033.75" y="-229.55" font-family="Helvetica,sans-Serif" font-size="11.00">build_full_wavefunction</text>
</g>
<!-- src_shooting_find_brackets_outward_shooting -->
<g id="node15" class="node">
<title>src_shooting_find_brackets_outward_shooting</title>
<path fill="#f8fafc" stroke="#334155" d="M696.38,-324C696.38,-324 549.12,-324 549.12,-324 543.12,-324 537.12,-318 537.12,-312 537.12,-312 537.12,-300 537.12,-300 537.12,-294 543.12,-288 549.12,-288 549.12,-288 696.38,-288 696.38,-288 702.38,-288 708.38,-294 708.38,-300 708.38,-300 708.38,-312 708.38,-312 708.38,-318 702.38,-324 696.38,-324"/>
<text xml:space="preserve" text-anchor="middle" x="622.75" y="-301.55" font-family="Helvetica,sans-Serif" font-size="11.00">find_brackets_outward_shooting</text>
</g>
<!-- src_shooting_find_brackets_outward_shooting&#45;&gt;src_shooting_boundary_mismatch_outward_shooting -->
<g id="edge12" class="edge">
<title>src_shooting_find_brackets_outward_shooting&#45;&gt;src_shooting_boundary_mismatch_outward_shooting</title>
<path fill="none" stroke="#64748b" d="M615.87,-287.85C609.25,-268.23 602.43,-236.22 618.75,-216 636.21,-194.38 697.09,-181.15 753.91,-173.32"/>
<polygon fill="#64748b" stroke="#64748b" points="754.14,-175.76 760.76,-172.41 753.49,-170.91 754.14,-175.76"/>
</g>
<!-- src_shooting_half_domain_wavefunction_outward_shooting&#45;&gt;src_numerov_numerov_outward -->
<g id="edge13" class="edge">
<title>src_shooting_half_domain_wavefunction_outward_shooting&#45;&gt;src_numerov_numerov_outward</title>
<path fill="none" stroke="#64748b" d="M1068.28,-71.52C1053.06,-62.18 1034.2,-50.59 1018.06,-40.68"/>
<polygon fill="#64748b" stroke="#64748b" points="1019.4,-38.63 1012.15,-37.05 1016.83,-42.8 1019.4,-38.63"/>
</g>
<!-- src_shooting_half_domain_wavefunction_outward_shooting&#45;&gt;src_numerov_q_from_energy -->
<g id="edge14" class="edge">
<title>src_shooting_half_domain_wavefunction_outward_shooting&#45;&gt;src_numerov_q_from_energy</title>
<path fill="none" stroke="#64748b" d="M1096.75,-71.7C1096.75,-63.47 1096.75,-53.48 1096.75,-44.42"/>
<polygon fill="#64748b" stroke="#64748b" points="1099.2,-44.62 1096.75,-37.62 1094.3,-44.62 1099.2,-44.62"/>
</g>
<!-- src_shooting_initial_conditions_outward_shooting -->
<g id="node17" class="node">
<title>src_shooting_initial_conditions_outward_shooting</title>
<path fill="#f8fafc" stroke="#334155" d="M1332.5,-36C1332.5,-36 1171,-36 1171,-36 1165,-36 1159,-30 1159,-24 1159,-24 1159,-12 1159,-12 1159,-6 1165,0 1171,0 1171,0 1332.5,0 1332.5,0 1338.5,0 1344.5,-6 1344.5,-12 1344.5,-12 1344.5,-24 1344.5,-24 1344.5,-30 1338.5,-36 1332.5,-36"/>
<text xml:space="preserve" text-anchor="middle" x="1251.75" y="-13.55" font-family="Helvetica,sans-Serif" font-size="11.00">initial_conditions_outward_shooting</text>
</g>
<!-- src_shooting_half_domain_wavefunction_outward_shooting&#45;&gt;src_shooting_initial_conditions_outward_shooting -->
<g id="edge15" class="edge">
<title>src_shooting_half_domain_wavefunction_outward_shooting&#45;&gt;src_shooting_initial_conditions_outward_shooting</title>
<path fill="none" stroke="#64748b" d="M1135.46,-71.52C1156.72,-61.92 1183.22,-49.95 1205.55,-39.86"/>
<polygon fill="#64748b" stroke="#64748b" points="1206.51,-42.12 1211.88,-37 1204.49,-37.65 1206.51,-42.12"/>
</g>
<!-- src_shooting_solve_state_from_bracket_outward_shooting -->
<g id="node18" class="node">
<title>src_shooting_solve_state_from_bracket_outward_shooting</title>
<path fill="#f8fafc" stroke="#334155" d="M968,-324C968,-324 761.5,-324 761.5,-324 755.5,-324 749.5,-318 749.5,-312 749.5,-312 749.5,-300 749.5,-300 749.5,-294 755.5,-288 761.5,-288 761.5,-288 968,-288 968,-288 974,-288 980,-294 980,-300 980,-300 980,-312 980,-312 980,-318 974,-324 968,-324"/>
<text xml:space="preserve" text-anchor="middle" x="864.75" y="-301.55" font-family="Helvetica,sans-Serif" font-size="11.00">solve_state_from_bracket_outward_shooting</text>
</g>
<!-- src_shooting_solve_state_from_bracket_outward_shooting&#45;&gt;src_numerov_normalize_wavefunction -->
<g id="edge16" class="edge">
<title>src_shooting_solve_state_from_bracket_outward_shooting&#45;&gt;src_numerov_normalize_wavefunction</title>
<path fill="none" stroke="#64748b" d="M822.04,-287.52C798.39,-277.83 768.84,-265.74 744.07,-255.6"/>
<polygon fill="#64748b" stroke="#64748b" points="745.02,-253.34 737.61,-252.96 743.16,-257.87 745.02,-253.34"/>
</g>
<!-- src_shooting_solve_state_from_bracket_outward_shooting&#45;&gt;src_shooting_bisect_energy_outward_shooting -->
<g id="edge17" class="edge">
<title>src_shooting_solve_state_from_bracket_outward_shooting&#45;&gt;src_shooting_bisect_energy_outward_shooting</title>
<path fill="none" stroke="#64748b" d="M864.75,-287.7C864.75,-279.47 864.75,-269.48 864.75,-260.42"/>
<polygon fill="#64748b" stroke="#64748b" points="867.2,-260.62 864.75,-253.62 862.3,-260.62 867.2,-260.62"/>
</g>
<!-- src_shooting_solve_state_from_bracket_outward_shooting&#45;&gt;src_shooting_build_full_wavefunction -->
<g id="edge18" class="edge">
<title>src_shooting_solve_state_from_bracket_outward_shooting&#45;&gt;src_shooting_build_full_wavefunction</title>
<path fill="none" stroke="#64748b" d="M906.96,-287.52C930.34,-277.83 959.53,-265.74 984.02,-255.6"/>
<polygon fill="#64748b" stroke="#64748b" points="984.86,-257.9 990.39,-252.96 982.98,-253.38 984.86,-257.9"/>
</g>
<!-- src_shooting_solve_state_from_bracket_outward_shooting&#45;&gt;src_shooting_half_domain_wavefunction_outward_shooting -->
<g id="edge19" class="edge">
<title>src_shooting_solve_state_from_bracket_outward_shooting&#45;&gt;src_shooting_half_domain_wavefunction_outward_shooting</title>
<path fill="none" stroke="#64748b" d="M980.4,-293.49C1034.34,-285.49 1090.27,-272.48 1106.75,-252 1137.96,-213.22 1121.01,-150.67 1107.73,-116.06"/>
<polygon fill="#64748b" stroke="#64748b" points="1110.06,-115.3 1105.19,-109.71 1105.51,-117.12 1110.06,-115.3"/>
</g>
<!-- src_shooting_solve_symmetric_potential_outward_shooting&#45;&gt;src_shooting_find_brackets_outward_shooting -->
<g id="edge20" class="edge">
<title>src_shooting_solve_symmetric_potential_outward_shooting&#45;&gt;src_shooting_find_brackets_outward_shooting</title>
<path fill="none" stroke="#64748b" d="M758.54,-359.52C733.29,-349.75 701.69,-337.53 675.34,-327.34"/>
<polygon fill="#64748b" stroke="#64748b" points="676.52,-325.17 669.11,-324.93 674.75,-329.74 676.52,-325.17"/>
</g>
<!-- src_shooting_solve_symmetric_potential_outward_shooting&#45;&gt;src_shooting_solve_state_from_bracket_outward_shooting -->
<g id="edge21" class="edge">
<title>src_shooting_solve_symmetric_potential_outward_shooting&#45;&gt;src_shooting_solve_state_from_bracket_outward_shooting</title>
<path fill="none" stroke="#64748b" d="M818.83,-359.7C826.51,-350.88 835.96,-340.03 844.29,-330.47"/>
<polygon fill="#64748b" stroke="#64748b" points="846.1,-332.13 848.85,-325.25 842.4,-328.91 846.1,-332.13"/>
</g>
</g>
</svg>
