<?xml version="1.0" encoding="UTF-8" standalone="no"?>
<!DOCTYPE svg PUBLIC "-//W3C//DTD SVG 1.1//EN"
 "http://www.w3.org/Graphics/SVG/1.1/DTD/svg11.dtd">
<!-- Generated by graphviz version 14.1.5 (20260411.2331)
 -->
<!-- Title: G Pages: 1 -->
<svg width="745pt" height="360pt"
 viewBox="0.00 0.00 745.00 360.00" xmlns="http://www.w3.org/2000/svg" xmlns:xlink="http://www.w3.org/1999/xlink">
<g id="graph0" class="graph" transform="scale(1 1) rotate(0) translate(4 355.7)">
<title>G</title>
<polygon fill="white" stroke="none" points="-4,4 -4,-355.7 740.5,-355.7 740.5,4 -4,4"/>
<text xml:space="preserve" text-anchor="middle" x="92" y="-328.7" font-family="Helvetica,sans-Serif" font-size="20.00">Module&#45;Level Flow</text>
<!-- scripts_run_solver -->
<g id="node1" class="node">
<title>scripts_run_solver</title>
<path fill="#eff6ff" stroke="#1d4ed8" d="M97.75,-138.7C97.75,-138.7 12,-138.7 12,-138.7 6,-138.7 0,-132.7 0,-126.7 0,-126.7 0,-114.7 0,-114.7 0,-108.7 6,-102.7 12,-102.7 12,-102.7 97.75,-102.7 97.75,-102.7 103.75,-102.7 109.75,-108.7 109.75,-114.7 109.75,-114.7 109.75,-126.7 109.75,-126.7 109.75,-132.7 103.75,-138.7 97.75,-138.7"/>
<text xml:space="preserve" text-anchor="middle" x="54.88" y="-115.68" font-family="Helvetica,sans-Serif" font-size="12.00">scripts.run_solver</text>
</g>
<!-- src_experiments -->
<g id="node3" class="node">
<title>src_experiments</title>
<path fill="#eff6ff" stroke="#1d4ed8" d="M234.5,-192.7C234.5,-192.7 158.5,-192.7 158.5,-192.7 152.5,-192.7 146.5,-186.7 146.5,-180.7 146.5,-180.7 146.5,-168.7 146.5,-168.7 146.5,-162.7 152.5,-156.7 158.5,-156.7 158.5,-156.7 234.5,-156.7 234.5,-156.7 240.5,-156.7 246.5,-162.7 246.5,-168.7 246.5,-168.7 246.5,-180.7 246.5,-180.7 246.5,-186.7 240.5,-192.7 234.5,-192.7"/>
<text xml:space="preserve" text-anchor="middle" x="196.5" y="-169.68" font-family="Helvetica,sans-Serif" font-size="12.00">src.experiments</text>
</g>
<!-- scripts_run_solver&#45;&gt;src_experiments -->
<g id="edge1" class="edge">
<title>scripts_run_solver&#45;&gt;src_experiments</title>
<path fill="none" stroke="#64748b" d="M103.54,-139.13C115.11,-143.61 127.58,-148.43 139.5,-153.04"/>
<polygon fill="#64748b" stroke="#64748b" points="138.17,-155.53 146.64,-155.8 140.19,-150.31 138.17,-155.53"/>
</g>
<!-- tests_test_solver -->
<g id="node10" class="node">
<title>tests_test_solver</title>
<path fill="#eff6ff" stroke="#1d4ed8" d="M235.25,-84.7C235.25,-84.7 157.75,-84.7 157.75,-84.7 151.75,-84.7 145.75,-78.7 145.75,-72.7 145.75,-72.7 145.75,-60.7 145.75,-60.7 145.75,-54.7 151.75,-48.7 157.75,-48.7 157.75,-48.7 235.25,-48.7 235.25,-48.7 241.25,-48.7 247.25,-54.7 247.25,-60.7 247.25,-60.7 247.25,-72.7 247.25,-72.7 247.25,-78.7 241.25,-84.7 235.25,-84.7"/>
<text xml:space="preserve" text-anchor="middle" x="196.5" y="-61.68" font-family="Helvetica,sans-Serif" font-size="12.00">tests.test_solver</text>
</g>
<!-- scripts_run_solver&#45;&gt;tests_test_solver -->
<g id="edge2" class="edge">
<title>scripts_run_solver&#45;&gt;tests_test_solver</title>
<path fill="none" stroke="#64748b" d="M103.54,-102.27C115.11,-97.79 127.58,-92.97 139.5,-88.36"/>
<polygon fill="#64748b" stroke="#64748b" points="140.19,-91.09 146.64,-85.6 138.17,-85.87 140.19,-91.09"/>
</g>
<!-- src_analysis -->
<g id="node2" class="node">
<title>src_analysis</title>
<path fill="#eff6ff" stroke="#1d4ed8" d="M490.75,-188.7C490.75,-188.7 435.75,-188.7 435.75,-188.7 429.75,-188.7 423.75,-182.7 423.75,-176.7 423.75,-176.7 423.75,-164.7 423.75,-164.7 423.75,-158.7 429.75,-152.7 435.75,-152.7 435.75,-152.7 490.75,-152.7 490.75,-152.7 496.75,-152.7 502.75,-158.7 502.75,-164.7 502.75,-164.7 502.75,-176.7 502.75,-176.7 502.75,-182.7 496.75,-188.7 490.75,-188.7"/>
<text xml:space="preserve" text-anchor="middle" x="463.25" y="-165.68" font-family="Helvetica,sans-Serif" font-size="12.00">src.analysis</text>
</g>
<!-- src_shooting -->
<g id="node9" class="node">
<title>src_shooting</title>
<path fill="#eff6ff" stroke="#1d4ed8" d="M607.25,-186.7C607.25,-186.7 550.75,-186.7 550.75,-186.7 544.75,-186.7 538.75,-180.7 538.75,-174.7 538.75,-174.7 538.75,-162.7 538.75,-162.7 538.75,-156.7 544.75,-150.7 550.75,-150.7 550.75,-150.7 607.25,-150.7 607.25,-150.7 613.25,-150.7 619.25,-156.7 619.25,-162.7 619.25,-162.7 619.25,-174.7 619.25,-174.7 619.25,-180.7 613.25,-186.7 607.25,-186.7"/>
<text xml:space="preserve" text-anchor="middle" x="579" y="-163.68" font-family="Helvetica,sans-Serif" font-size="12.00">src.shooting</text>
</g>
<!-- src_analysis&#45;&gt;src_shooting -->
<g id="edge3" class="edge">
<title>src_analysis&#45;&gt;src_shooting</title>
<path fill="none" stroke="#64748b" d="M503.08,-170.02C511.49,-169.87 520.49,-169.71 529.23,-169.56"/>
<polygon fill="#64748b" stroke="#64748b" points="529.11,-172.36 537.06,-169.42 529.01,-166.76 529.11,-172.36"/>
</g>
<!-- src_experiments&#45;&gt;src_analysis -->
<g id="edge4" class="edge">
<title>src_experiments&#45;&gt;src_analysis</title>
<path fill="none" stroke="#64748b" d="M246.77,-193.03C258.56,-196.62 271.22,-199.85 283.25,-201.7 329.16,-208.76 342.21,-210.8 387.75,-201.7 397.64,-199.73 407.85,-196.41 417.43,-192.67"/>
<polygon fill="#64748b" stroke="#64748b" points="418.29,-195.34 424.62,-189.71 416.16,-190.16 418.29,-195.34"/>
</g>
<!-- src_plotting -->
<g id="node5" class="node">
<title>src_plotting</title>
<path fill="#eff6ff" stroke="#1d4ed8" d="M360.38,-322.7C360.38,-322.7 310.62,-322.7 310.62,-322.7 304.62,-322.7 298.62,-316.7 298.62,-310.7 298.62,-310.7 298.62,-298.7 298.62,-298.7 298.62,-292.7 304.62,-286.7 310.62,-286.7 310.62,-286.7 360.38,-286.7 360.38,-286.7 366.38,-286.7 372.38,-292.7 372.38,-298.7 372.38,-298.7 372.38,-310.7 372.38,-310.7 372.38,-316.7 366.38,-322.7 360.38,-322.7"/>
<text xml:space="preserve" text-anchor="middle" x="335.5" y="-299.68" font-family="Helvetica,sans-Serif" font-size="12.00">src.plotting</text>
</g>
<!-- src_experiments&#45;&gt;src_plotting -->
<g id="edge5" class="edge">
<title>src_experiments&#45;&gt;src_plotting</title>
<path fill="none" stroke="#64748b" d="M210.96,-193.13C226.77,-213.98 254.5,-248.23 283.25,-272.7 286.62,-275.57 290.27,-278.36 294.01,-281.02"/>
<polygon fill="#64748b" stroke="#64748b" points="292.33,-283.26 300.52,-285.43 295.47,-278.62 292.33,-283.26"/>
</g>
<!-- src_potentials -->
<g id="node6" class="node">
<title>src_potentials</title>
<path fill="#eff6ff" stroke="#1d4ed8" d="M366.75,-84.7C366.75,-84.7 304.25,-84.7 304.25,-84.7 298.25,-84.7 292.25,-78.7 292.25,-72.7 292.25,-72.7 292.25,-60.7 292.25,-60.7 292.25,-54.7 298.25,-48.7 304.25,-48.7 304.25,-48.7 366.75,-48.7 366.75,-48.7 372.75,-48.7 378.75,-54.7 378.75,-60.7 378.75,-60.7 378.75,-72.7 378.75,-72.7 378.75,-78.7 372.75,-84.7 366.75,-84.7"/>
<text xml:space="preserve" text-anchor="middle" x="335.5" y="-61.68" font-family="Helvetica,sans-Serif" font-size="12.00">src.potentials</text>
</g>
<!-- src_experiments&#45;&gt;src_potentials -->
<g id="edge6" class="edge">
<title>src_experiments&#45;&gt;src_potentials</title>
<path fill="none" stroke="#64748b" d="M214.01,-156.45C230.44,-138.97 256.93,-112.52 283.25,-93.7 284.94,-92.49 286.7,-91.3 288.5,-90.13"/>
<polygon fill="#64748b" stroke="#64748b" points="289.92,-92.54 295.28,-85.96 286.99,-87.76 289.92,-92.54"/>
</g>
<!-- src_rk4_compare -->
<g id="node7" class="node">
<title>src_rk4_compare</title>
<path fill="#eff6ff" stroke="#1d4ed8" d="M375.75,-192.7C375.75,-192.7 295.25,-192.7 295.25,-192.7 289.25,-192.7 283.25,-186.7 283.25,-180.7 283.25,-180.7 283.25,-168.7 283.25,-168.7 283.25,-162.7 289.25,-156.7 295.25,-156.7 295.25,-156.7 375.75,-156.7 375.75,-156.7 381.75,-156.7 387.75,-162.7 387.75,-168.7 387.75,-168.7 387.75,-180.7 387.75,-180.7 387.75,-186.7 381.75,-192.7 375.75,-192.7"/>
<text xml:space="preserve" text-anchor="middle" x="335.5" y="-169.68" font-family="Helvetica,sans-Serif" font-size="12.00">src.rk4_compare</text>
</g>
<!-- src_experiments&#45;&gt;src_rk4_compare -->
<g id="edge7" class="edge">
<title>src_experiments&#45;&gt;src_rk4_compare</title>
<path fill="none" stroke="#64748b" d="M246.96,-174.7C255.52,-174.7 264.5,-174.7 273.32,-174.7"/>
<polygon fill="#64748b" stroke="#64748b" points="273.29,-177.5 281.29,-174.7 273.29,-171.9 273.29,-177.5"/>
</g>
<!-- src_scattering -->
<g id="node8" class="node">
<title>src_scattering</title>
<path fill="#eff6ff" stroke="#1d4ed8" d="M366.75,-138.7C366.75,-138.7 304.25,-138.7 304.25,-138.7 298.25,-138.7 292.25,-132.7 292.25,-126.7 292.25,-126.7 292.25,-114.7 292.25,-114.7 292.25,-108.7 298.25,-102.7 304.25,-102.7 304.25,-102.7 366.75,-102.7 366.75,-102.7 372.75,-102.7 378.75,-108.7 378.75,-114.7 378.75,-114.7 378.75,-126.7 378.75,-126.7 378.75,-132.7 372.75,-138.7 366.75,-138.7"/>
<text xml:space="preserve" text-anchor="middle" x="335.5" y="-115.68" font-family="Helvetica,sans-Serif" font-size="12.00">src.scattering</text>
</g>
<!-- src_experiments&#45;&gt;src_scattering -->
<g id="edge8" class="edge">
<title>src_experiments&#45;&gt;src_scattering</title>
<path fill="none" stroke="#64748b" d="M244.26,-156.27C256.86,-151.3 270.55,-145.91 283.37,-140.85"/>
<polygon fill="#64748b" stroke="#64748b" points="284.26,-143.51 290.68,-137.97 282.21,-138.3 284.26,-143.51"/>
</g>
<!-- src_experiments&#45;&gt;src_shooting -->
<g id="edge9" class="edge">
<title>src_experiments&#45;&gt;src_shooting</title>
<path fill="none" stroke="#64748b" d="M225.14,-193.16C241.33,-202.84 262.59,-213.71 283.25,-218.7 369.15,-239.45 471.16,-210.48 529.86,-188.75"/>
<polygon fill="#64748b" stroke="#64748b" points="530.64,-191.45 537.14,-186.01 528.66,-186.21 530.64,-191.45"/>
</g>
<!-- src_numerov -->
<g id="node4" class="node">
<title>src_numerov</title>
<path fill="#eff6ff" stroke="#1d4ed8" d="M724.5,-138.7C724.5,-138.7 667.25,-138.7 667.25,-138.7 661.25,-138.7 655.25,-132.7 655.25,-126.7 655.25,-126.7 655.25,-114.7 655.25,-114.7 655.25,-108.7 661.25,-102.7 667.25,-102.7 667.25,-102.7 724.5,-102.7 724.5,-102.7 730.5,-102.7 736.5,-108.7 736.5,-114.7 736.5,-114.7 736.5,-126.7 736.5,-126.7 736.5,-132.7 730.5,-138.7 724.5,-138.7"/>
<text xml:space="preserve" text-anchor="middle" x="695.88" y="-115.68" font-family="Helvetica,sans-Serif" font-size="12.00">src.numerov</text>
</g>
<!-- src_rk4_compare&#45;&gt;src_analysis -->
<g id="edge10" class="edge">
<title>src_rk4_compare&#45;&gt;src_analysis</title>
<path fill="none" stroke="#64748b" d="M388.01,-173.06C396.59,-172.79 405.45,-172.51 413.94,-172.24"/>
<polygon fill="#64748b" stroke="#64748b" points="413.92,-175.04 421.82,-171.99 413.74,-169.44 413.92,-175.04"/>
</g>
<!-- src_scattering&#45;&gt;src_numerov -->
<g id="edge11" class="edge">
<title>src_scattering&#45;&gt;src_numerov</title>
<path fill="none" stroke="#64748b" d="M379.02,-120.7C445.82,-120.7 575.04,-120.7 645.73,-120.7"/>
<polygon fill="#64748b" stroke="#64748b" points="645.37,-123.5 653.37,-120.7 645.37,-117.9 645.37,-123.5"/>
</g>
<!-- src_shooting&#45;&gt;src_numerov -->
<g id="edge12" class="edge">
<title>src_shooting&#45;&gt;src_numerov</title>
<path fill="none" stroke="#64748b" d="M619.53,-152.18C628.1,-148.6 637.26,-144.78 646.13,-141.07"/>
<polygon fill="#64748b" stroke="#64748b" points="647.18,-143.66 653.48,-138 645.02,-138.5 647.18,-143.66"/>
</g>
<!-- tests_test_solver&#45;&gt;src_analysis -->
<g id="edge13" class="edge">
<title>tests_test_solver&#45;&gt;src_analysis</title>
<path fill="none" stroke="#64748b" d="M234.86,-48.24C275.29,-31.12 340.31,-12.11 387.75,-39.7 426.08,-61.99 446.31,-112.18 455.61,-143.56"/>
<polygon fill="#64748b" stroke="#64748b" points="452.89,-144.24 457.74,-151.18 458.28,-142.73 452.89,-144.24"/>
</g>
<!-- tests_test_solver&#45;&gt;src_numerov -->
<g id="edge14" class="edge">
<title>tests_test_solver&#45;&gt;src_numerov</title>
<path fill="none" stroke="#64748b" d="M216.77,-48.3C233.04,-34.12 257.71,-15.64 283.25,-7.7 327.6,6.08 341.61,-2.36 387.75,-7.7 487.27,-19.23 595.4,-68.48 653.07,-98.03"/>
<polygon fill="#64748b" stroke="#64748b" points="651.46,-100.35 659.86,-101.54 654.04,-95.38 651.46,-100.35"/>
</g>
<!-- tests_test_solver&#45;&gt;src_potentials -->
<g id="edge15" class="edge">
<title>tests_test_solver&#45;&gt;src_potentials</title>
<path fill="none" stroke="#64748b" d="M247.74,-66.7C259.07,-66.7 271.13,-66.7 282.53,-66.7"/>
<polygon fill="#64748b" stroke="#64748b" points="282.42,-69.5 290.42,-66.7 282.42,-63.9 282.42,-69.5"/>
</g>
<!-- tests_test_solver&#45;&gt;src_rk4_compare -->
<g id="edge16" class="edge">
<title>tests_test_solver&#45;&gt;src_rk4_compare</title>
<path fill="none" stroke="#64748b" d="M214.01,-84.95C230.44,-102.43 256.93,-128.88 283.25,-147.7 284.94,-148.91 286.7,-150.11 288.5,-151.27"/>
<polygon fill="#64748b" stroke="#64748b" points="286.99,-153.64 295.28,-155.44 289.92,-148.86 286.99,-153.64"/>
</g>
<!-- tests_test_solver&#45;&gt;src_scattering -->
<g id="edge17" class="edge">
<title>tests_test_solver&#45;&gt;src_scattering</title>
<path fill="none" stroke="#64748b" d="M244.26,-85.13C256.86,-90.1 270.55,-95.49 283.37,-100.55"/>
<polygon fill="#64748b" stroke="#64748b" points="282.21,-103.1 290.68,-103.43 284.26,-97.89 282.21,-103.1"/>
</g>
<!-- tests_test_solver&#45;&gt;src_shooting -->
<g id="edge18" class="edge">
<title>tests_test_solver&#45;&gt;src_shooting</title>
<path fill="none" stroke="#64748b" d="M224.32,-48.3C240.58,-38.28 262.19,-26.89 283.25,-21.7 328.35,-10.59 343.8,-6.7 387.75,-21.7 458.67,-45.91 523.69,-108.46 556.2,-143.67"/>
<polygon fill="#64748b" stroke="#64748b" points="553.79,-145.18 561.24,-149.21 557.93,-141.41 553.79,-145.18"/>
</g>
</g>
</svg>
