<?xml version="1.0" encoding="UTF-8" standalone="no"?>
<!DOCTYPE svg PUBLIC "-//W3C//DTD SVG 1.1//EN"
 "http://www.w3.org/Graphics/SVG/1.1/DTD/svg11.dtd">
<!-- Generated by graphviz version 14.1.5 (20260411.2331)
 -->
<!-- Title: G Pages: 1 -->
<svg width="1675pt" height="505pt"
 viewBox="0.00 0.00 1675.00 505.00" xmlns="http://www.w3.org/2000/svg" xmlns:xlink="http://www.w3.org/1999/xlink">
<g id="graph0" class="graph" transform="scale(1 1) rotate(0) translate(4 501)">
<title>G</title>
<polygon fill="white" stroke="none" points="-4,4 -4,-501 1670.84,-501 1670.84,4 -4,4"/>
<text xml:space="preserve" text-anchor="middle" x="143" y="-474" font-family="Helvetica,sans-Serif" font-size="20.00">Finite Square Well Experiment</text>
<!-- src_analysis_save_csv_rows -->
<g id="node1" class="node">
<title>src_analysis_save_csv_rows</title>
<path fill="#f8fafc" stroke="#334155" d="M605.09,-396C605.09,-396 539.59,-396 539.59,-396 533.59,-396 527.59,-390 527.59,-384 527.59,-384 527.59,-372 527.59,-372 527.59,-366 533.59,-360 539.59,-360 539.59,-360 605.09,-360 605.09,-360 611.09,-360 617.09,-366 617.09,-372 617.09,-372 617.09,-384 617.09,-384 617.09,-390 611.09,-396 605.09,-396"/>
<text xml:space="preserve" text-anchor="middle" x="572.34" y="-373.55" font-family="Helvetica,sans-Serif" font-size="11.00">save_csv_rows</text>
</g>
<!-- src_diagnostics__diagnostic_label_slug -->
<g id="node2" class="node">
<title>src_diagnostics__diagnostic_label_slug</title>
<path fill="#f8fafc" stroke="#334155" d="M940.34,-252C940.34,-252 840.34,-252 840.34,-252 834.34,-252 828.34,-246 828.34,-240 828.34,-240 828.34,-228 828.34,-228 828.34,-222 834.34,-216 840.34,-216 840.34,-216 940.34,-216 940.34,-216 946.34,-216 952.34,-222 952.34,-228 952.34,-228 952.34,-240 952.34,-240 952.34,-246 946.34,-252 940.34,-252"/>
<text xml:space="preserve" text-anchor="middle" x="890.34" y="-229.55" font-family="Helvetica,sans-Serif" font-size="11.00">_diagnostic_label_slug</text>
</g>
<!-- src_diagnostics__plot_outward_root_diagnostics -->
<g id="node3" class="node">
<title>src_diagnostics__plot_outward_root_diagnostics</title>
<path fill="#f8fafc" stroke="#334155" d="M760.46,-324C760.46,-324 616.21,-324 616.21,-324 610.21,-324 604.21,-318 604.21,-312 604.21,-312 604.21,-300 604.21,-300 604.21,-294 610.21,-288 616.21,-288 616.21,-288 760.46,-288 760.46,-288 766.46,-288 772.46,-294 772.46,-300 772.46,-300 772.46,-312 772.46,-312 772.46,-318 766.46,-324 760.46,-324"/>
<text xml:space="preserve" text-anchor="middle" x="688.34" y="-301.55" font-family="Helvetica,sans-Serif" font-size="11.00">_plot_outward_root_diagnostics</text>
</g>
<!-- src_diagnostics__plot_outward_root_diagnostics&#45;&gt;src_diagnostics__diagnostic_label_slug -->
<g id="edge1" class="edge">
<title>src_diagnostics__plot_outward_root_diagnostics&#45;&gt;src_diagnostics__diagnostic_label_slug</title>
<path fill="none" stroke="#64748b" d="M738.79,-287.52C767.22,-277.67 802.84,-265.32 832.41,-255.07"/>
<polygon fill="#64748b" stroke="#64748b" points="832.94,-257.48 838.75,-252.88 831.33,-252.85 832.94,-257.48"/>
</g>
<!-- src_plotting_plot_root_finding_diagnostic -->
<g id="node15" class="node">
<title>src_plotting_plot_root_finding_diagnostic</title>
<path fill="#f8fafc" stroke="#334155" d="M185.09,-252C185.09,-252 59.59,-252 59.59,-252 53.59,-252 47.59,-246 47.59,-240 47.59,-240 47.59,-228 47.59,-228 47.59,-222 53.59,-216 59.59,-216 59.59,-216 185.09,-216 185.09,-216 191.09,-216 197.09,-222 197.09,-228 197.09,-228 197.09,-240 197.09,-240 197.09,-246 191.09,-252 185.09,-252"/>
<text xml:space="preserve" text-anchor="middle" x="122.34" y="-229.55" font-family="Helvetica,sans-Serif" font-size="11.00">plot_root_finding_diagnostic</text>
</g>
<!-- src_diagnostics__plot_outward_root_diagnostics&#45;&gt;src_plotting_plot_root_finding_diagnostic -->
<g id="edge2" class="edge">
<title>src_diagnostics__plot_outward_root_diagnostics&#45;&gt;src_plotting_plot_root_finding_diagnostic</title>
<path fill="none" stroke="#64748b" d="M603.96,-296.65C486.78,-284.89 280.79,-263.6 206.34,-252 206.06,-251.96 205.79,-251.91 205.51,-251.87"/>
<polygon fill="#64748b" stroke="#64748b" points="206.18,-249.5 198.88,-250.78 205.39,-254.33 206.18,-249.5"/>
</g>
<!-- src_plotting_plot_root_finding_zoom -->
<g id="node16" class="node">
<title>src_plotting_plot_root_finding_zoom</title>
<path fill="#f8fafc" stroke="#334155" d="M331.21,-252C331.21,-252 227.46,-252 227.46,-252 221.46,-252 215.46,-246 215.46,-240 215.46,-240 215.46,-228 215.46,-228 215.46,-222 221.46,-216 227.46,-216 227.46,-216 331.21,-216 331.21,-216 337.21,-216 343.21,-222 343.21,-228 343.21,-228 343.21,-240 343.21,-240 343.21,-246 337.21,-252 331.21,-252"/>
<text xml:space="preserve" text-anchor="middle" x="279.34" y="-229.55" font-family="Helvetica,sans-Serif" font-size="11.00">plot_root_finding_zoom</text>
</g>
<!-- src_diagnostics__plot_outward_root_diagnostics&#45;&gt;src_plotting_plot_root_finding_zoom -->
<g id="edge3" class="edge">
<title>src_diagnostics__plot_outward_root_diagnostics&#45;&gt;src_plotting_plot_root_finding_zoom</title>
<path fill="none" stroke="#64748b" d="M603.89,-293.53C537.54,-284.1 442.67,-269.68 351.87,-252.05"/>
<polygon fill="#64748b" stroke="#64748b" points="352.49,-249.67 345.15,-250.73 351.55,-254.48 352.49,-249.67"/>
</g>
<!-- src_shooting_bisection_history_outward_shooting -->
<g id="node19" class="node">
<title>src_shooting_bisection_history_outward_shooting</title>
<path fill="#f8fafc" stroke="#334155" d="M535.84,-252C535.84,-252 372.84,-252 372.84,-252 366.84,-252 360.84,-246 360.84,-240 360.84,-240 360.84,-228 360.84,-228 360.84,-222 366.84,-216 372.84,-216 372.84,-216 535.84,-216 535.84,-216 541.84,-216 547.84,-222 547.84,-228 547.84,-228 547.84,-240 547.84,-240 547.84,-246 541.84,-252 535.84,-252"/>
<text xml:space="preserve" text-anchor="middle" x="454.34" y="-229.55" font-family="Helvetica,sans-Serif" font-size="11.00">bisection_history_outward_shooting</text>
</g>
<!-- src_diagnostics__plot_outward_root_diagnostics&#45;&gt;src_shooting_bisection_history_outward_shooting -->
<g id="edge4" class="edge">
<title>src_diagnostics__plot_outward_root_diagnostics&#45;&gt;src_shooting_bisection_history_outward_shooting</title>
<path fill="none" stroke="#64748b" d="M629.89,-287.52C596.68,-277.58 554.99,-265.11 520.57,-254.81"/>
<polygon fill="#64748b" stroke="#64748b" points="521.3,-252.47 513.89,-252.82 519.9,-257.17 521.3,-252.47"/>
</g>
<!-- src_shooting_find_brackets_outward_shooting -->
<g id="node23" class="node">
<title>src_shooting_find_brackets_outward_shooting</title>
<path fill="#f8fafc" stroke="#334155" d="M1129.96,-252C1129.96,-252 982.71,-252 982.71,-252 976.71,-252 970.71,-246 970.71,-240 970.71,-240 970.71,-228 970.71,-228 970.71,-222 976.71,-216 982.71,-216 982.71,-216 1129.96,-216 1129.96,-216 1135.96,-216 1141.96,-222 1141.96,-228 1141.96,-228 1141.96,-240 1141.96,-240 1141.96,-246 1135.96,-252 1129.96,-252"/>
<text xml:space="preserve" text-anchor="middle" x="1056.34" y="-229.55" font-family="Helvetica,sans-Serif" font-size="11.00">find_brackets_outward_shooting</text>
</g>
<!-- src_diagnostics__plot_outward_root_diagnostics&#45;&gt;src_shooting_find_brackets_outward_shooting -->
<g id="edge5" class="edge">
<title>src_diagnostics__plot_outward_root_diagnostics&#45;&gt;src_shooting_find_brackets_outward_shooting</title>
<path fill="none" stroke="#64748b" d="M772.77,-288.94C829.31,-278.18 903.81,-264.01 962.25,-252.9"/>
<polygon fill="#64748b" stroke="#64748b" points="962.49,-255.35 968.9,-251.63 961.57,-250.53 962.49,-255.35"/>
</g>
<!-- src_shooting_sample_boundary_mismatch_outward_shooting -->
<g id="node26" class="node">
<title>src_shooting_sample_boundary_mismatch_outward_shooting</title>
<path fill="#f8fafc" stroke="#334155" d="M798.71,-252C798.71,-252 577.96,-252 577.96,-252 571.96,-252 565.96,-246 565.96,-240 565.96,-240 565.96,-228 565.96,-228 565.96,-222 571.96,-216 577.96,-216 577.96,-216 798.71,-216 798.71,-216 804.71,-216 810.71,-222 810.71,-228 810.71,-228 810.71,-240 810.71,-240 810.71,-246 804.71,-252 798.71,-252"/>
<text xml:space="preserve" text-anchor="middle" x="688.34" y="-229.55" font-family="Helvetica,sans-Serif" font-size="11.00">sample_boundary_mismatch_outward_shooting</text>
</g>
<!-- src_diagnostics__plot_outward_root_diagnostics&#45;&gt;src_shooting_sample_boundary_mismatch_outward_shooting -->
<g id="edge6" class="edge">
<title>src_diagnostics__plot_outward_root_diagnostics&#45;&gt;src_shooting_sample_boundary_mismatch_outward_shooting</title>
<path fill="none" stroke="#64748b" d="M688.34,-287.7C688.34,-279.47 688.34,-269.48 688.34,-260.42"/>
<polygon fill="#64748b" stroke="#64748b" points="690.79,-260.62 688.34,-253.62 685.89,-260.62 690.79,-260.62"/>
</g>
<!-- src_diagnostics_plot_finite_square_well_root_diagnostics -->
<g id="node4" class="node">
<title>src_diagnostics_plot_finite_square_well_root_diagnostics</title>
<path fill="#f8fafc" stroke="#334155" d="M909.09,-396C909.09,-396 723.59,-396 723.59,-396 717.59,-396 711.59,-390 711.59,-384 711.59,-384 711.59,-372 711.59,-372 711.59,-366 717.59,-360 723.59,-360 723.59,-360 909.09,-360 909.09,-360 915.09,-360 921.09,-366 921.09,-372 921.09,-372 921.09,-384 921.09,-384 921.09,-390 915.09,-396 909.09,-396"/>
<text xml:space="preserve" text-anchor="middle" x="816.34" y="-373.55" font-family="Helvetica,sans-Serif" font-size="11.00">plot_finite_square_well_root_diagnostics</text>
</g>
<!-- src_diagnostics_plot_finite_square_well_root_diagnostics&#45;&gt;src_diagnostics__plot_outward_root_diagnostics -->
<g id="edge7" class="edge">
<title>src_diagnostics_plot_finite_square_well_root_diagnostics&#45;&gt;src_diagnostics__plot_outward_root_diagnostics</title>
<path fill="none" stroke="#64748b" d="M784.37,-359.52C766.98,-350.01 745.34,-338.17 727.01,-328.15"/>
<polygon fill="#64748b" stroke="#64748b" points="728.55,-326.2 721.23,-324.99 726.2,-330.5 728.55,-326.2"/>
</g>
<!-- src_potentials_finite_square_well -->
<g id="node17" class="node">
<title>src_potentials_finite_square_well</title>
<path fill="#f8fafc" stroke="#334155" d="M1470.46,-324C1470.46,-324 1392.21,-324 1392.21,-324 1386.21,-324 1380.21,-318 1380.21,-312 1380.21,-312 1380.21,-300 1380.21,-300 1380.21,-294 1386.21,-288 1392.21,-288 1392.21,-288 1470.46,-288 1470.46,-288 1476.46,-288 1482.46,-294 1482.46,-300 1482.46,-300 1482.46,-312 1482.46,-312 1482.46,-318 1476.46,-324 1470.46,-324"/>
<text xml:space="preserve" text-anchor="middle" x="1431.34" y="-301.55" font-family="Helvetica,sans-Serif" font-size="11.00">finite_square_well</text>
</g>
<!-- src_diagnostics_plot_finite_square_well_root_diagnostics&#45;&gt;src_potentials_finite_square_well -->
<g id="edge8" class="edge">
<title>src_diagnostics_plot_finite_square_well_root_diagnostics&#45;&gt;src_potentials_finite_square_well</title>
<path fill="none" stroke="#64748b" d="M921.59,-361.04C924.54,-360.68 927.46,-360.33 930.34,-360 1125.7,-337.49 1177.82,-358.97 1371.34,-324 1371.43,-323.98 1371.51,-323.97 1371.6,-323.95"/>
<polygon fill="#64748b" stroke="#64748b" points="1371.92,-326.39 1378.29,-322.6 1370.95,-321.59 1371.92,-326.39"/>
</g>
<!-- src_experiments__experiment_results_dir -->
<g id="node5" class="node">
<title>src_experiments__experiment_results_dir</title>
<path fill="#f8fafc" stroke="#334155" d="M1347.71,-396C1347.71,-396 1240.96,-396 1240.96,-396 1234.96,-396 1228.96,-390 1228.96,-384 1228.96,-384 1228.96,-372 1228.96,-372 1228.96,-366 1234.96,-360 1240.96,-360 1240.96,-360 1347.71,-360 1347.71,-360 1353.71,-360 1359.71,-366 1359.71,-372 1359.71,-372 1359.71,-384 1359.71,-384 1359.71,-390 1353.71,-396 1347.71,-396"/>
<text xml:space="preserve" text-anchor="middle" x="1294.34" y="-373.55" font-family="Helvetica,sans-Serif" font-size="11.00">_experiment_results_dir</text>
</g>
<!-- src_experiments_run_finite_square_well -->
<g id="node6" class="node">
<title>src_experiments_run_finite_square_well</title>
<path fill="#f8fafc" stroke="#334155" d="M866.34,-468C866.34,-468 766.34,-468 766.34,-468 760.34,-468 754.34,-462 754.34,-456 754.34,-456 754.34,-444 754.34,-444 754.34,-438 760.34,-432 766.34,-432 766.34,-432 866.34,-432 866.34,-432 872.34,-432 878.34,-438 878.34,-444 878.34,-444 878.34,-456 878.34,-456 878.34,-462 872.34,-468 866.34,-468"/>
<text xml:space="preserve" text-anchor="middle" x="816.34" y="-445.55" font-family="Helvetica,sans-Serif" font-size="11.00">run_finite_square_well</text>
</g>
<!-- src_experiments_run_finite_square_well&#45;&gt;src_analysis_save_csv_rows -->
<g id="edge9" class="edge">
<title>src_experiments_run_finite_square_well&#45;&gt;src_analysis_save_csv_rows</title>
<path fill="none" stroke="#64748b" d="M755.51,-431.6C719.41,-421.27 672.76,-407.9 631.34,-396 629.37,-395.43 627.36,-394.86 625.33,-394.27"/>
<polygon fill="#64748b" stroke="#64748b" points="626.29,-392 618.89,-392.42 624.94,-396.71 626.29,-392"/>
</g>
<!-- src_experiments_run_finite_square_well&#45;&gt;src_diagnostics_plot_finite_square_well_root_diagnostics -->
<g id="edge10" class="edge">
<title>src_experiments_run_finite_square_well&#45;&gt;src_diagnostics_plot_finite_square_well_root_diagnostics</title>
<path fill="none" stroke="#64748b" d="M816.34,-431.7C816.34,-423.47 816.34,-413.48 816.34,-404.42"/>
<polygon fill="#64748b" stroke="#64748b" points="818.79,-404.62 816.34,-397.62 813.89,-404.62 818.79,-404.62"/>
</g>
<!-- src_experiments_run_finite_square_well&#45;&gt;src_experiments__experiment_results_dir -->
<g id="edge11" class="edge">
<title>src_experiments_run_finite_square_well&#45;&gt;src_experiments__experiment_results_dir</title>
<path fill="none" stroke="#64748b" d="M878.77,-442.27C957.51,-433.43 1096.92,-416.57 1215.34,-396 1217.14,-395.69 1218.95,-395.36 1220.79,-395.03"/>
<polygon fill="#64748b" stroke="#64748b" points="1220.98,-397.49 1227.41,-393.78 1220.07,-392.67 1220.98,-397.49"/>
</g>
<!-- src_plotting_plot_potential_and_states -->
<g id="node13" class="node">
<title>src_plotting_plot_potential_and_states</title>
<path fill="#f8fafc" stroke="#334155" d="M134.46,-324C134.46,-324 20.21,-324 20.21,-324 14.21,-324 8.21,-318 8.21,-312 8.21,-312 8.21,-300 8.21,-300 8.21,-294 14.21,-288 20.21,-288 20.21,-288 134.46,-288 134.46,-288 140.46,-288 146.46,-294 146.46,-300 146.46,-300 146.46,-312 146.46,-312 146.46,-318 140.46,-324 134.46,-324"/>
<text xml:space="preserve" text-anchor="middle" x="77.34" y="-301.55" font-family="Helvetica,sans-Serif" font-size="11.00">plot_potential_and_states</text>
</g>
<!-- src_experiments_run_finite_square_well&#45;&gt;src_plotting_plot_potential_and_states -->
<g id="edge12" class="edge">
<title>src_experiments_run_finite_square_well&#45;&gt;src_plotting_plot_potential_and_states</title>
<path fill="none" stroke="#64748b" d="M753.84,-435.66C723.67,-427.34 687.91,-414.6 659.34,-396 641.15,-384.16 645.76,-369.69 626.34,-360 585.17,-339.47 296.44,-319.9 155.03,-311.41"/>
<polygon fill="#64748b" stroke="#64748b" points="155.4,-308.98 148.27,-311.01 155.11,-313.87 155.4,-308.98"/>
</g>
<!-- src_plotting_plot_probability_densities -->
<g id="node14" class="node">
<title>src_plotting_plot_probability_densities</title>
<path fill="#f8fafc" stroke="#334155" d="M479.34,-324C479.34,-324 367.34,-324 367.34,-324 361.34,-324 355.34,-318 355.34,-312 355.34,-312 355.34,-300 355.34,-300 355.34,-294 361.34,-288 367.34,-288 367.34,-288 479.34,-288 479.34,-288 485.34,-288 491.34,-294 491.34,-300 491.34,-300 491.34,-312 491.34,-312 491.34,-318 485.34,-324 479.34,-324"/>
<text xml:space="preserve" text-anchor="middle" x="423.34" y="-301.55" font-family="Helvetica,sans-Serif" font-size="11.00">plot_probability_densities</text>
</g>
<!-- src_experiments_run_finite_square_well&#45;&gt;src_plotting_plot_probability_densities -->
<g id="edge13" class="edge">
<title>src_experiments_run_finite_square_well&#45;&gt;src_plotting_plot_probability_densities</title>
<path fill="none" stroke="#64748b" d="M771.9,-431.56C750.21,-422.26 724.17,-409.87 702.34,-396 681.3,-382.63 681.68,-371.04 659.34,-360 609.34,-335.29 547.7,-321.96 499.95,-314.84"/>
<polygon fill="#64748b" stroke="#64748b" points="500.58,-312.46 493.31,-313.88 499.89,-317.31 500.58,-312.46"/>
</g>
<!-- src_experiments_run_finite_square_well&#45;&gt;src_potentials_finite_square_well -->
<g id="edge14" class="edge">
<title>src_experiments_run_finite_square_well&#45;&gt;src_potentials_finite_square_well</title>
<path fill="none" stroke="#64748b" d="M878.71,-444.54C968.74,-437.34 1130.05,-421.33 1182.34,-396 1203.28,-385.86 1199.88,-371.08 1220.34,-360 1281.01,-327.15 1304.58,-341.41 1371.34,-324 1371.52,-323.95 1371.69,-323.91 1371.87,-323.86"/>
<polygon fill="#64748b" stroke="#64748b" points="1372.39,-326.26 1378.53,-322.09 1371.13,-321.52 1372.39,-326.26"/>
</g>
<!-- src_shooting_solve_symmetric_potential_outward_shooting -->
<g id="node28" class="node">
<title>src_shooting_solve_symmetric_potential_outward_shooting</title>
<path fill="#f8fafc" stroke="#334155" d="M1161.09,-396C1161.09,-396 951.59,-396 951.59,-396 945.59,-396 939.59,-390 939.59,-384 939.59,-384 939.59,-372 939.59,-372 939.59,-366 945.59,-360 951.59,-360 951.59,-360 1161.09,-360 1161.09,-360 1167.09,-360 1173.09,-366 1173.09,-372 1173.09,-372 1173.09,-384 1173.09,-384 1173.09,-390 1167.09,-396 1161.09,-396"/>
<text xml:space="preserve" text-anchor="middle" x="1056.34" y="-373.55" font-family="Helvetica,sans-Serif" font-size="11.00">solve_symmetric_potential_outward_shooting</text>
</g>
<!-- src_experiments_run_finite_square_well&#45;&gt;src_shooting_solve_symmetric_potential_outward_shooting -->
<g id="edge15" class="edge">
<title>src_experiments_run_finite_square_well&#45;&gt;src_shooting_solve_symmetric_potential_outward_shooting</title>
<path fill="none" stroke="#64748b" d="M876.28,-431.52C910.49,-421.54 953.47,-409 988.85,-398.68"/>
<polygon fill="#64748b" stroke="#64748b" points="989.26,-401.12 995.29,-396.81 987.89,-396.41 989.26,-401.12"/>
</g>
<!-- src_numerov_derivative_at_right_edge -->
<g id="node7" class="node">
<title>src_numerov_derivative_at_right_edge</title>
<path fill="#f8fafc" stroke="#334155" d="M938.21,-108C938.21,-108 828.46,-108 828.46,-108 822.46,-108 816.46,-102 816.46,-96 816.46,-96 816.46,-84 816.46,-84 816.46,-78 822.46,-72 828.46,-72 828.46,-72 938.21,-72 938.21,-72 944.21,-72 950.21,-78 950.21,-84 950.21,-84 950.21,-96 950.21,-96 950.21,-102 944.21,-108 938.21,-108"/>
<text xml:space="preserve" text-anchor="middle" x="883.34" y="-85.55" font-family="Helvetica,sans-Serif" font-size="11.00">derivative_at_right_edge</text>
</g>
<!-- src_numerov_normalize_wavefunction -->
<g id="node8" class="node">
<title>src_numerov_normalize_wavefunction</title>
<path fill="#f8fafc" stroke="#334155" d="M1510.09,-252C1510.09,-252 1402.59,-252 1402.59,-252 1396.59,-252 1390.59,-246 1390.59,-240 1390.59,-240 1390.59,-228 1390.59,-228 1390.59,-222 1396.59,-216 1402.59,-216 1402.59,-216 1510.09,-216 1510.09,-216 1516.09,-216 1522.09,-222 1522.09,-228 1522.09,-228 1522.09,-240 1522.09,-240 1522.09,-246 1516.09,-252 1510.09,-252"/>
<text xml:space="preserve" text-anchor="middle" x="1456.34" y="-229.55" font-family="Helvetica,sans-Serif" font-size="11.00">normalize_wavefunction</text>
</g>
<!-- src_numerov_numerov_march -->
<g id="node9" class="node">
<title>src_numerov_numerov_march</title>
<path fill="#f8fafc" stroke="#334155" d="M1011.34,-36C1011.34,-36 941.34,-36 941.34,-36 935.34,-36 929.34,-30 929.34,-24 929.34,-24 929.34,-12 929.34,-12 929.34,-6 935.34,0 941.34,0 941.34,0 1011.34,0 1011.34,0 1017.34,0 1023.34,-6 1023.34,-12 1023.34,-12 1023.34,-24 1023.34,-24 1023.34,-30 1017.34,-36 1011.34,-36"/>
<text xml:space="preserve" text-anchor="middle" x="976.34" y="-13.55" font-family="Helvetica,sans-Serif" font-size="11.00">numerov_march</text>
</g>
<!-- src_numerov_q_from_energy -->
<g id="node10" class="node">
<title>src_numerov_q_from_energy</title>
<path fill="#f8fafc" stroke="#334155" d="M1117.71,-36C1117.71,-36 1052.96,-36 1052.96,-36 1046.96,-36 1040.96,-30 1040.96,-24 1040.96,-24 1040.96,-12 1040.96,-12 1040.96,-6 1046.96,0 1052.96,0 1052.96,0 1117.71,0 1117.71,0 1123.71,0 1129.71,-6 1129.71,-12 1129.71,-12 1129.71,-24 1129.71,-24 1129.71,-30 1123.71,-36 1117.71,-36"/>
<text xml:space="preserve" text-anchor="middle" x="1085.34" y="-13.55" font-family="Helvetica,sans-Serif" font-size="11.00">q_from_energy</text>
</g>
<!-- src_plotting__ensure_parent -->
<g id="node11" class="node">
<title>src_plotting__ensure_parent</title>
<path fill="#f8fafc" stroke="#334155" d="M105.21,-180C105.21,-180 37.46,-180 37.46,-180 31.46,-180 25.46,-174 25.46,-168 25.46,-168 25.46,-156 25.46,-156 25.46,-150 31.46,-144 37.46,-144 37.46,-144 105.21,-144 105.21,-144 111.21,-144 117.21,-150 117.21,-156 117.21,-156 117.21,-168 117.21,-168 117.21,-174 111.21,-180 105.21,-180"/>
<text xml:space="preserve" text-anchor="middle" x="71.34" y="-157.55" font-family="Helvetica,sans-Serif" font-size="11.00">_ensure_parent</text>
</g>
<!-- src_plotting__symlog_linthresh -->
<g id="node12" class="node">
<title>src_plotting__symlog_linthresh</title>
<path fill="#f8fafc" stroke="#334155" d="M272.46,-180C272.46,-180 194.21,-180 194.21,-180 188.21,-180 182.21,-174 182.21,-168 182.21,-168 182.21,-156 182.21,-156 182.21,-150 188.21,-144 194.21,-144 194.21,-144 272.46,-144 272.46,-144 278.46,-144 284.46,-150 284.46,-156 284.46,-156 284.46,-168 284.46,-168 284.46,-174 278.46,-180 272.46,-180"/>
<text xml:space="preserve" text-anchor="middle" x="233.34" y="-157.55" font-family="Helvetica,sans-Serif" font-size="11.00">_symlog_linthresh</text>
</g>
<!-- src_plotting_plot_potential_and_states&#45;&gt;src_plotting__ensure_parent -->
<g id="edge16" class="edge">
<title>src_plotting_plot_potential_and_states&#45;&gt;src_plotting__ensure_parent</title>
<path fill="none" stroke="#64748b" d="M40.93,-287.58C27.16,-278.95 12.97,-267.1 5.34,-252 -1.88,-237.72 -1.58,-230.43 5.34,-216 11.23,-203.71 21.52,-193.37 32.24,-185.18"/>
<polygon fill="#64748b" stroke="#64748b" points="33.46,-187.32 37.71,-181.24 30.6,-183.34 33.46,-187.32"/>
</g>
<!-- src_plotting_plot_probability_densities&#45;&gt;src_plotting__ensure_parent -->
<g id="edge17" class="edge">
<title>src_plotting_plot_probability_densities&#45;&gt;src_plotting__ensure_parent</title>
<path fill="none" stroke="#64748b" d="M355.23,-300.43C250.25,-292.68 58.82,-275.49 38.34,-252 22.16,-233.44 36.1,-206.24 50.52,-186.8"/>
<polygon fill="#64748b" stroke="#64748b" points="52.3,-188.5 54.66,-181.46 48.43,-185.49 52.3,-188.5"/>
</g>
<!-- src_plotting_plot_root_finding_diagnostic&#45;&gt;src_plotting__ensure_parent -->
<g id="edge18" class="edge">
<title>src_plotting_plot_root_finding_diagnostic&#45;&gt;src_plotting__ensure_parent</title>
<path fill="none" stroke="#64748b" d="M109.73,-215.7C103.37,-206.97 95.56,-196.24 88.64,-186.75"/>
<polygon fill="#64748b" stroke="#64748b" points="90.79,-185.54 84.69,-181.33 86.83,-188.43 90.79,-185.54"/>
</g>
<!-- src_plotting_plot_root_finding_diagnostic&#45;&gt;src_plotting__symlog_linthresh -->
<g id="edge19" class="edge">
<title>src_plotting_plot_root_finding_diagnostic&#45;&gt;src_plotting__symlog_linthresh</title>
<path fill="none" stroke="#64748b" d="M150.06,-215.52C164.88,-206.18 183.24,-194.59 198.96,-184.68"/>
<polygon fill="#64748b" stroke="#64748b" points="200.07,-186.87 204.69,-181.07 197.46,-182.73 200.07,-186.87"/>
</g>
<!-- src_plotting_plot_root_finding_zoom&#45;&gt;src_plotting__ensure_parent -->
<g id="edge20" class="edge">
<title>src_plotting_plot_root_finding_zoom&#45;&gt;src_plotting__ensure_parent</title>
<path fill="none" stroke="#64748b" d="M227.39,-215.52C196.33,-205.06 156.92,-191.8 125.48,-181.22"/>
<polygon fill="#64748b" stroke="#64748b" points="126.52,-178.99 119.11,-179.08 124.96,-183.63 126.52,-178.99"/>
</g>
<!-- src_plotting_plot_root_finding_zoom&#45;&gt;src_plotting__symlog_linthresh -->
<g id="edge21" class="edge">
<title>src_plotting_plot_root_finding_zoom&#45;&gt;src_plotting__symlog_linthresh</title>
<path fill="none" stroke="#64748b" d="M267.97,-215.7C262.29,-207.05 255.32,-196.45 249.13,-187.03"/>
<polygon fill="#64748b" stroke="#64748b" points="251.3,-185.87 245.41,-181.37 247.21,-188.56 251.3,-185.87"/>
</g>
<!-- src_shooting_bisect_energy_outward_shooting -->
<g id="node18" class="node">
<title>src_shooting_bisect_energy_outward_shooting</title>
<path fill="#f8fafc" stroke="#334155" d="M1322.46,-252C1322.46,-252 1172.21,-252 1172.21,-252 1166.21,-252 1160.21,-246 1160.21,-240 1160.21,-240 1160.21,-228 1160.21,-228 1160.21,-222 1166.21,-216 1172.21,-216 1172.21,-216 1322.46,-216 1322.46,-216 1328.46,-216 1334.46,-222 1334.46,-228 1334.46,-228 1334.46,-240 1334.46,-240 1334.46,-246 1328.46,-252 1322.46,-252"/>
<text xml:space="preserve" text-anchor="middle" x="1247.34" y="-229.55" font-family="Helvetica,sans-Serif" font-size="11.00">bisect_energy_outward_shooting</text>
</g>
<!-- src_shooting_boundary_mismatch_outward_shooting -->
<g id="node20" class="node">
<title>src_shooting_boundary_mismatch_outward_shooting</title>
<path fill="#f8fafc" stroke="#334155" d="M1074.46,-180C1074.46,-180 894.21,-180 894.21,-180 888.21,-180 882.21,-174 882.21,-168 882.21,-168 882.21,-156 882.21,-156 882.21,-150 888.21,-144 894.21,-144 894.21,-144 1074.46,-144 1074.46,-144 1080.46,-144 1086.46,-150 1086.46,-156 1086.46,-156 1086.46,-168 1086.46,-168 1086.46,-174 1080.46,-180 1074.46,-180"/>
<text xml:space="preserve" text-anchor="middle" x="984.34" y="-157.55" font-family="Helvetica,sans-Serif" font-size="11.00">boundary_mismatch_outward_shooting</text>
</g>
<!-- src_shooting_bisect_energy_outward_shooting&#45;&gt;src_shooting_boundary_mismatch_outward_shooting -->
<g id="edge22" class="edge">
<title>src_shooting_bisect_energy_outward_shooting&#45;&gt;src_shooting_boundary_mismatch_outward_shooting</title>
<path fill="none" stroke="#64748b" d="M1181.65,-215.52C1144.01,-205.5 1096.68,-192.9 1057.8,-182.55"/>
<polygon fill="#64748b" stroke="#64748b" points="1058.5,-180.2 1051.11,-180.77 1057.24,-184.94 1058.5,-180.2"/>
</g>
<!-- src_shooting_bisection_history_outward_shooting&#45;&gt;src_shooting_boundary_mismatch_outward_shooting -->
<g id="edge23" class="edge">
<title>src_shooting_bisection_history_outward_shooting&#45;&gt;src_shooting_boundary_mismatch_outward_shooting</title>
<path fill="none" stroke="#64748b" d="M548.06,-217.37C551.19,-216.9 554.29,-216.44 557.34,-216 664.59,-200.5 787.41,-185.55 873.71,-175.5"/>
<polygon fill="#64748b" stroke="#64748b" points="873.77,-177.96 880.44,-174.72 873.21,-173.09 873.77,-177.96"/>
</g>
<!-- src_shooting_diagnostic_mismatch_outward_shooting -->
<g id="node22" class="node">
<title>src_shooting_diagnostic_mismatch_outward_shooting</title>
<path fill="#f8fafc" stroke="#334155" d="M779.96,-180C779.96,-180 596.71,-180 596.71,-180 590.71,-180 584.71,-174 584.71,-168 584.71,-168 584.71,-156 584.71,-156 584.71,-150 590.71,-144 596.71,-144 596.71,-144 779.96,-144 779.96,-144 785.96,-144 791.96,-150 791.96,-156 791.96,-156 791.96,-168 791.96,-168 791.96,-174 785.96,-180 779.96,-180"/>
<text xml:space="preserve" text-anchor="middle" x="688.34" y="-157.55" font-family="Helvetica,sans-Serif" font-size="11.00">diagnostic_mismatch_outward_shooting</text>
</g>
<!-- src_shooting_bisection_history_outward_shooting&#45;&gt;src_shooting_diagnostic_mismatch_outward_shooting -->
<g id="edge24" class="edge">
<title>src_shooting_bisection_history_outward_shooting&#45;&gt;src_shooting_diagnostic_mismatch_outward_shooting</title>
<path fill="none" stroke="#64748b" d="M512.78,-215.52C545.99,-205.58 587.69,-193.11 622.1,-182.81"/>
<polygon fill="#64748b" stroke="#64748b" points="622.78,-185.17 628.78,-180.82 621.38,-180.47 622.78,-185.17"/>
</g>
<!-- src_shooting_boundary_mismatch_outward_shooting&#45;&gt;src_numerov_derivative_at_right_edge -->
<g id="edge25" class="edge">
<title>src_shooting_boundary_mismatch_outward_shooting&#45;&gt;src_numerov_derivative_at_right_edge</title>
<path fill="none" stroke="#64748b" d="M959.11,-143.52C945.76,-134.26 929.22,-122.8 915.01,-112.95"/>
<polygon fill="#64748b" stroke="#64748b" points="916.64,-111.1 909.49,-109.12 913.85,-115.12 916.64,-111.1"/>
</g>
<!-- src_shooting_half_domain_wavefunction_outward_shooting -->
<g id="node24" class="node">
<title>src_shooting_half_domain_wavefunction_outward_shooting</title>
<path fill="#f8fafc" stroke="#334155" d="M1190.84,-108C1190.84,-108 979.84,-108 979.84,-108 973.84,-108 967.84,-102 967.84,-96 967.84,-96 967.84,-84 967.84,-84 967.84,-78 973.84,-72 979.84,-72 979.84,-72 1190.84,-72 1190.84,-72 1196.84,-72 1202.84,-78 1202.84,-84 1202.84,-84 1202.84,-96 1202.84,-96 1202.84,-102 1196.84,-108 1190.84,-108"/>
<text xml:space="preserve" text-anchor="middle" x="1085.34" y="-85.55" font-family="Helvetica,sans-Serif" font-size="11.00">half_domain_wavefunction_outward_shooting</text>
</g>
<!-- src_shooting_boundary_mismatch_outward_shooting&#45;&gt;src_shooting_half_domain_wavefunction_outward_shooting -->
<g id="edge26" class="edge">
<title>src_shooting_boundary_mismatch_outward_shooting&#45;&gt;src_shooting_half_domain_wavefunction_outward_shooting</title>
<path fill="none" stroke="#64748b" d="M1009.57,-143.52C1022.92,-134.26 1039.46,-122.8 1053.67,-112.95"/>
<polygon fill="#64748b" stroke="#64748b" points="1054.83,-115.12 1059.19,-109.12 1052.04,-111.1 1054.83,-115.12"/>
</g>
<!-- src_shooting_build_full_wavefunction -->
<g id="node21" class="node">
<title>src_shooting_build_full_wavefunction</title>
<path fill="#f8fafc" stroke="#334155" d="M1654.84,-252C1654.84,-252 1551.84,-252 1551.84,-252 1545.84,-252 1539.84,-246 1539.84,-240 1539.84,-240 1539.84,-228 1539.84,-228 1539.84,-222 1545.84,-216 1551.84,-216 1551.84,-216 1654.84,-216 1654.84,-216 1660.84,-216 1666.84,-222 1666.84,-228 1666.84,-228 1666.84,-240 1666.84,-240 1666.84,-246 1660.84,-252 1654.84,-252"/>
<text xml:space="preserve" text-anchor="middle" x="1603.34" y="-229.55" font-family="Helvetica,sans-Serif" font-size="11.00">build_full_wavefunction</text>
</g>
<!-- src_shooting_diagnostic_mismatch_outward_shooting&#45;&gt;src_shooting_half_domain_wavefunction_outward_shooting -->
<g id="edge27" class="edge">
<title>src_shooting_diagnostic_mismatch_outward_shooting&#45;&gt;src_shooting_half_domain_wavefunction_outward_shooting</title>
<path fill="none" stroke="#64748b" d="M787.49,-143.52C845.51,-133.29 918.79,-120.37 978.14,-109.9"/>
<polygon fill="#64748b" stroke="#64748b" points="978.46,-112.33 984.93,-108.71 977.61,-107.51 978.46,-112.33"/>
</g>
<!-- src_shooting_find_brackets_outward_shooting&#45;&gt;src_shooting_boundary_mismatch_outward_shooting -->
<g id="edge28" class="edge">
<title>src_shooting_find_brackets_outward_shooting&#45;&gt;src_shooting_boundary_mismatch_outward_shooting</title>
<path fill="none" stroke="#64748b" d="M1038.54,-215.7C1029.37,-206.78 1018.06,-195.78 1008.14,-186.14"/>
<polygon fill="#64748b" stroke="#64748b" points="1009.99,-184.52 1003.27,-181.4 1006.58,-188.04 1009.99,-184.52"/>
</g>
<!-- src_shooting_half_domain_wavefunction_outward_shooting&#45;&gt;src_numerov_numerov_march -->
<g id="edge29" class="edge">
<title>src_shooting_half_domain_wavefunction_outward_shooting&#45;&gt;src_numerov_numerov_march</title>
<path fill="none" stroke="#64748b" d="M1058.11,-71.52C1043.57,-62.18 1025.53,-50.59 1010.1,-40.68"/>
<polygon fill="#64748b" stroke="#64748b" points="1011.7,-38.8 1004.49,-37.08 1009.06,-42.92 1011.7,-38.8"/>
</g>
<!-- src_shooting_half_domain_wavefunction_outward_shooting&#45;&gt;src_numerov_q_from_energy -->
<g id="edge30" class="edge">
<title>src_shooting_half_domain_wavefunction_outward_shooting&#45;&gt;src_numerov_q_from_energy</title>
<path fill="none" stroke="#64748b" d="M1085.34,-71.7C1085.34,-63.47 1085.34,-53.48 1085.34,-44.42"/>
<polygon fill="#64748b" stroke="#64748b" points="1087.79,-44.62 1085.34,-37.62 1082.89,-44.62 1087.79,-44.62"/>
</g>
<!-- src_shooting_initial_conditions_outward_shooting -->
<g id="node25" class="node">
<title>src_shooting_initial_conditions_outward_shooting</title>
<path fill="#f8fafc" stroke="#334155" d="M1321.09,-36C1321.09,-36 1159.59,-36 1159.59,-36 1153.59,-36 1147.59,-30 1147.59,-24 1147.59,-24 1147.59,-12 1147.59,-12 1147.59,-6 1153.59,0 1159.59,0 1159.59,0 1321.09,0 1321.09,0 1327.09,0 1333.09,-6 1333.09,-12 1333.09,-12 1333.09,-24 1333.09,-24 1333.09,-30 1327.09,-36 1321.09,-36"/>
<text xml:space="preserve" text-anchor="middle" x="1240.34" y="-13.55" font-family="Helvetica,sans-Serif" font-size="11.00">initial_conditions_outward_shooting</text>
</g>
<!-- src_shooting_half_domain_wavefunction_outward_shooting&#45;&gt;src_shooting_initial_conditions_outward_shooting -->
<g id="edge31" class="edge">
<title>src_shooting_half_domain_wavefunction_outward_shooting&#45;&gt;src_shooting_initial_conditions_outward_shooting</title>
<path fill="none" stroke="#64748b" d="M1124.05,-71.52C1145.31,-61.92 1171.81,-49.95 1194.14,-39.86"/>
<polygon fill="#64748b" stroke="#64748b" points="1195.1,-42.12 1200.47,-37 1193.08,-37.65 1195.1,-42.12"/>
</g>
<!-- src_shooting_sample_boundary_mismatch_outward_shooting&#45;&gt;src_shooting_boundary_mismatch_outward_shooting -->
<g id="edge32" class="edge">
<title>src_shooting_sample_boundary_mismatch_outward_shooting&#45;&gt;src_shooting_boundary_mismatch_outward_shooting</title>
<path fill="none" stroke="#64748b" d="M762.27,-215.52C804.91,-205.43 858.6,-192.74 902.5,-182.35"/>
<polygon fill="#64748b" stroke="#64748b" points="902.86,-184.79 909.11,-180.79 901.73,-180.02 902.86,-184.79"/>
</g>
<!-- src_shooting_sample_boundary_mismatch_outward_shooting&#45;&gt;src_shooting_diagnostic_mismatch_outward_shooting -->
<g id="edge33" class="edge">
<title>src_shooting_sample_boundary_mismatch_outward_shooting&#45;&gt;src_shooting_diagnostic_mismatch_outward_shooting</title>
<path fill="none" stroke="#64748b" d="M688.34,-215.7C688.34,-207.47 688.34,-197.48 688.34,-188.42"/>
<polygon fill="#64748b" stroke="#64748b" points="690.79,-188.62 688.34,-181.62 685.89,-188.62 690.79,-188.62"/>
</g>
<!-- src_shooting_solve_state_from_bracket_outward_shooting -->
<g id="node27" class="node">
<title>src_shooting_solve_state_from_bracket_outward_shooting</title>
<path fill="#f8fafc" stroke="#334155" d="M1350.59,-324C1350.59,-324 1144.09,-324 1144.09,-324 1138.09,-324 1132.09,-318 1132.09,-312 1132.09,-312 1132.09,-300 1132.09,-300 1132.09,-294 1138.09,-288 1144.09,-288 1144.09,-288 1350.59,-288 1350.59,-288 1356.59,-288 1362.59,-294 1362.59,-300 1362.59,-300 1362.59,-312 1362.59,-312 1362.59,-318 1356.59,-324 1350.59,-324"/>
<text xml:space="preserve" text-anchor="middle" x="1247.34" y="-301.55" font-family="Helvetica,sans-Serif" font-size="11.00">solve_state_from_bracket_outward_shooting</text>
</g>
<!-- src_shooting_solve_state_from_bracket_outward_shooting&#45;&gt;src_numerov_normalize_wavefunction -->
<g id="edge34" class="edge">
<title>src_shooting_solve_state_from_bracket_outward_shooting&#45;&gt;src_numerov_normalize_wavefunction</title>
<path fill="none" stroke="#64748b" d="M1299.54,-287.52C1328.95,-277.67 1365.81,-265.32 1396.4,-255.07"/>
<polygon fill="#64748b" stroke="#64748b" points="1397.15,-257.41 1403.01,-252.86 1395.59,-252.76 1397.15,-257.41"/>
</g>
<!-- src_shooting_solve_state_from_bracket_outward_shooting&#45;&gt;src_shooting_bisect_energy_outward_shooting -->
<g id="edge35" class="edge">
<title>src_shooting_solve_state_from_bracket_outward_shooting&#45;&gt;src_shooting_bisect_energy_outward_shooting</title>
<path fill="none" stroke="#64748b" d="M1247.34,-287.7C1247.34,-279.47 1247.34,-269.48 1247.34,-260.42"/>
<polygon fill="#64748b" stroke="#64748b" points="1249.79,-260.62 1247.34,-253.62 1244.89,-260.62 1249.79,-260.62"/>
</g>
<!-- src_shooting_solve_state_from_bracket_outward_shooting&#45;&gt;src_shooting_build_full_wavefunction -->
<g id="edge36" class="edge">
<title>src_shooting_solve_state_from_bracket_outward_shooting&#45;&gt;src_shooting_build_full_wavefunction</title>
<path fill="none" stroke="#64748b" d="M1347.46,-287.51C1399.83,-278.07 1465.15,-265.85 1531.31,-251.97"/>
<polygon fill="#64748b" stroke="#64748b" points="1531.56,-254.42 1537.9,-250.58 1530.55,-249.63 1531.56,-254.42"/>
</g>
<!-- src_shooting_solve_state_from_bracket_outward_shooting&#45;&gt;src_shooting_half_domain_wavefunction_outward_shooting -->
<g id="edge37" class="edge">
<title>src_shooting_solve_state_from_bracket_outward_shooting&#45;&gt;src_shooting_half_domain_wavefunction_outward_shooting</title>
<path fill="none" stroke="#64748b" d="M1301.32,-287.59C1317.73,-279.48 1333.9,-267.99 1343.34,-252 1351.47,-238.22 1351.84,-229.56 1343.34,-216 1308.06,-159.71 1239.44,-128.14 1181.83,-110.81"/>
<polygon fill="#64748b" stroke="#64748b" points="1182.64,-108.49 1175.23,-108.88 1181.26,-113.2 1182.64,-108.49"/>
</g>
<!-- src_shooting_solve_symmetric_potential_outward_shooting&#45;&gt;src_shooting_find_brackets_outward_shooting -->
<g id="edge38" class="edge">
<title>src_shooting_solve_symmetric_potential_outward_shooting&#45;&gt;src_shooting_find_brackets_outward_shooting</title>
<path fill="none" stroke="#64748b" d="M1056.34,-359.59C1056.34,-334.76 1056.34,-289.01 1056.34,-260.4"/>
<polygon fill="#64748b" stroke="#64748b" points="1058.79,-260.62 1056.34,-253.62 1053.89,-260.62 1058.79,-260.62"/>
</g>
<!-- src_shooting_solve_symmetric_potential_outward_shooting&#45;&gt;src_shooting_solve_state_from_bracket_outward_shooting -->
<g id="edge39" class="edge">
<title>src_shooting_solve_symmetric_potential_outward_shooting&#45;&gt;src_shooting_solve_state_from_bracket_outward_shooting</title>
<path fill="none" stroke="#64748b" d="M1104.04,-359.52C1130.81,-349.71 1164.32,-337.43 1192.21,-327.21"/>
<polygon fill="#64748b" stroke="#64748b" points="1192.76,-329.61 1198.49,-324.9 1191.08,-325.01 1192.76,-329.61"/>
</g>
</g>
</svg>
