<?xml version="1.0" encoding="UTF-8" standalone="no"?>
<!DOCTYPE svg PUBLIC "-//W3C//DTD SVG 1.1//EN"
 "http://www.w3.org/Graphics/SVG/1.1/DTD/svg11.dtd">
<!-- Generated by graphviz version 14.1.5 (20260411.2331)
 -->
<!-- Title: G Pages: 1 -->
<svg width="1551pt" height="577pt"
 viewBox="0.00 0.00 1551.00 577.00" xmlns="http://www.w3.org/2000/svg" xmlns:xlink="http://www.w3.org/1999/xlink">
<g id="graph0" class="graph" transform="scale(1 1) rotate(0) translate(4 573)">
<title>G</title>
<polygon fill="white" stroke="none" points="-4,4 -4,-573 1546.75,-573 1546.75,4 -4,4"/>
<text xml:space="preserve" text-anchor="middle" x="150.88" y="-546" font-family="Helvetica,sans-Serif" font-size="20.00">Quartic Double&#45;Well Experiment</text>
<!-- src_analysis_convergence_vs_box_size_fixed_spacing -->
<g id="node1" class="node">
<title>src_analysis_convergence_vs_box_size_fixed_spacing</title>
<path fill="#f8fafc" stroke="#334155" d="M201.25,-468C201.25,-468 12,-468 12,-468 6,-468 0,-462 0,-456 0,-456 0,-444 0,-444 0,-438 6,-432 12,-432 12,-432 201.25,-432 201.25,-432 207.25,-432 213.25,-438 213.25,-444 213.25,-444 213.25,-456 213.25,-456 213.25,-462 207.25,-468 201.25,-468"/>
<text xml:space="preserve" text-anchor="middle" x="106.62" y="-445.55" font-family="Helvetica,sans-Serif" font-size="11.00">convergence_vs_box_size_fixed_spacing</text>
</g>
<!-- src_analysis_energies_from_states -->
<g id="node3" class="node">
<title>src_analysis_energies_from_states</title>
<path fill="#f8fafc" stroke="#334155" d="M261.38,-396C261.38,-396 165.88,-396 165.88,-396 159.88,-396 153.88,-390 153.88,-384 153.88,-384 153.88,-372 153.88,-372 153.88,-366 159.88,-360 165.88,-360 165.88,-360 261.38,-360 261.38,-360 267.38,-360 273.38,-366 273.38,-372 273.38,-372 273.38,-384 273.38,-384 273.38,-390 267.38,-396 261.38,-396"/>
<text xml:space="preserve" text-anchor="middle" x="213.62" y="-373.55" font-family="Helvetica,sans-Serif" font-size="11.00">energies_from_states</text>
</g>
<!-- src_analysis_convergence_vs_box_size_fixed_spacing&#45;&gt;src_analysis_energies_from_states -->
<g id="edge1" class="edge">
<title>src_analysis_convergence_vs_box_size_fixed_spacing&#45;&gt;src_analysis_energies_from_states</title>
<path fill="none" stroke="#64748b" d="M133.35,-431.52C147.63,-422.18 165.33,-410.59 180.48,-400.68"/>
<polygon fill="#64748b" stroke="#64748b" points="181.46,-402.97 185.97,-397.09 178.78,-398.87 181.46,-402.97"/>
</g>
<!-- src_analysis_convergence_vs_grid_successive -->
<g id="node2" class="node">
<title>src_analysis_convergence_vs_grid_successive</title>
<path fill="#f8fafc" stroke="#334155" d="M395.5,-468C395.5,-468 243.75,-468 243.75,-468 237.75,-468 231.75,-462 231.75,-456 231.75,-456 231.75,-444 231.75,-444 231.75,-438 237.75,-432 243.75,-432 243.75,-432 395.5,-432 395.5,-432 401.5,-432 407.5,-438 407.5,-444 407.5,-444 407.5,-456 407.5,-456 407.5,-462 401.5,-468 395.5,-468"/>
<text xml:space="preserve" text-anchor="middle" x="319.62" y="-445.55" font-family="Helvetica,sans-Serif" font-size="11.00">convergence_vs_grid_successive</text>
</g>
<!-- src_analysis_convergence_vs_grid_successive&#45;&gt;src_analysis_energies_from_states -->
<g id="edge2" class="edge">
<title>src_analysis_convergence_vs_grid_successive&#45;&gt;src_analysis_energies_from_states</title>
<path fill="none" stroke="#64748b" d="M293.15,-431.52C279.13,-422.26 261.78,-410.8 246.86,-400.95"/>
<polygon fill="#64748b" stroke="#64748b" points="248.22,-398.91 241.03,-397.09 245.52,-403 248.22,-398.91"/>
</g>
<!-- src_analysis_estimate_convergence_slopes -->
<g id="node4" class="node">
<title>src_analysis_estimate_convergence_slopes</title>
<path fill="#f8fafc" stroke="#334155" d="M574,-468C574,-468 437.25,-468 437.25,-468 431.25,-468 425.25,-462 425.25,-456 425.25,-456 425.25,-444 425.25,-444 425.25,-438 431.25,-432 437.25,-432 437.25,-432 574,-432 574,-432 580,-432 586,-438 586,-444 586,-444 586,-456 586,-456 586,-462 580,-468 574,-468"/>
<text xml:space="preserve" text-anchor="middle" x="505.62" y="-445.55" font-family="Helvetica,sans-Serif" font-size="11.00">estimate_convergence_slopes</text>
</g>
<!-- src_analysis_save_csv_rows -->
<g id="node5" class="node">
<title>src_analysis_save_csv_rows</title>
<path fill="#f8fafc" stroke="#334155" d="M681.38,-468C681.38,-468 615.88,-468 615.88,-468 609.88,-468 603.88,-462 603.88,-456 603.88,-456 603.88,-444 603.88,-444 603.88,-438 609.88,-432 615.88,-432 615.88,-432 681.38,-432 681.38,-432 687.38,-432 693.38,-438 693.38,-444 693.38,-444 693.38,-456 693.38,-456 693.38,-462 687.38,-468 681.38,-468"/>
<text xml:space="preserve" text-anchor="middle" x="648.62" y="-445.55" font-family="Helvetica,sans-Serif" font-size="11.00">save_csv_rows</text>
</g>
<!-- src_analysis_splitting_vs_parameter -->
<g id="node6" class="node">
<title>src_analysis_splitting_vs_parameter</title>
<path fill="#f8fafc" stroke="#334155" d="M823.62,-468C823.62,-468 723.62,-468 723.62,-468 717.62,-468 711.62,-462 711.62,-456 711.62,-456 711.62,-444 711.62,-444 711.62,-438 717.62,-432 723.62,-432 723.62,-432 823.62,-432 823.62,-432 829.62,-432 835.62,-438 835.62,-444 835.62,-444 835.62,-456 835.62,-456 835.62,-462 829.62,-468 823.62,-468"/>
<text xml:space="preserve" text-anchor="middle" x="773.62" y="-445.55" font-family="Helvetica,sans-Serif" font-size="11.00">splitting_vs_parameter</text>
</g>
<!-- src_shooting_solve_symmetric_potential_outward_shooting -->
<g id="node35" class="node">
<title>src_shooting_solve_symmetric_potential_outward_shooting</title>
<path fill="#f8fafc" stroke="#334155" d="M720.38,-396C720.38,-396 510.88,-396 510.88,-396 504.88,-396 498.88,-390 498.88,-384 498.88,-384 498.88,-372 498.88,-372 498.88,-366 504.88,-360 510.88,-360 510.88,-360 720.38,-360 720.38,-360 726.38,-360 732.38,-366 732.38,-372 732.38,-372 732.38,-384 732.38,-384 732.38,-390 726.38,-396 720.38,-396"/>
<text xml:space="preserve" text-anchor="middle" x="615.62" y="-373.55" font-family="Helvetica,sans-Serif" font-size="11.00">solve_symmetric_potential_outward_shooting</text>
</g>
<!-- src_analysis_splitting_vs_parameter&#45;&gt;src_shooting_solve_symmetric_potential_outward_shooting -->
<g id="edge3" class="edge">
<title>src_analysis_splitting_vs_parameter&#45;&gt;src_shooting_solve_symmetric_potential_outward_shooting</title>
<path fill="none" stroke="#64748b" d="M734.16,-431.52C712.4,-421.88 685.25,-409.84 662.42,-399.73"/>
<polygon fill="#64748b" stroke="#64748b" points="663.63,-397.59 656.24,-396.99 661.65,-402.07 663.63,-397.59"/>
</g>
<!-- src_diagnostics__diagnostic_label_slug -->
<g id="node7" class="node">
<title>src_diagnostics__diagnostic_label_slug</title>
<path fill="#f8fafc" stroke="#334155" d="M1057.62,-324C1057.62,-324 957.62,-324 957.62,-324 951.62,-324 945.62,-318 945.62,-312 945.62,-312 945.62,-300 945.62,-300 945.62,-294 951.62,-288 957.62,-288 957.62,-288 1057.62,-288 1057.62,-288 1063.62,-288 1069.62,-294 1069.62,-300 1069.62,-300 1069.62,-312 1069.62,-312 1069.62,-318 1063.62,-324 1057.62,-324"/>
<text xml:space="preserve" text-anchor="middle" x="1007.62" y="-301.55" font-family="Helvetica,sans-Serif" font-size="11.00">_diagnostic_label_slug</text>
</g>
<!-- src_diagnostics__plot_outward_root_diagnostics -->
<g id="node8" class="node">
<title>src_diagnostics__plot_outward_root_diagnostics</title>
<path fill="#f8fafc" stroke="#334155" d="M924.75,-396C924.75,-396 780.5,-396 780.5,-396 774.5,-396 768.5,-390 768.5,-384 768.5,-384 768.5,-372 768.5,-372 768.5,-366 774.5,-360 780.5,-360 780.5,-360 924.75,-360 924.75,-360 930.75,-360 936.75,-366 936.75,-372 936.75,-372 936.75,-384 936.75,-384 936.75,-390 930.75,-396 924.75,-396"/>
<text xml:space="preserve" text-anchor="middle" x="852.62" y="-373.55" font-family="Helvetica,sans-Serif" font-size="11.00">_plot_outward_root_diagnostics</text>
</g>
<!-- src_diagnostics__plot_outward_root_diagnostics&#45;&gt;src_diagnostics__diagnostic_label_slug -->
<g id="edge4" class="edge">
<title>src_diagnostics__plot_outward_root_diagnostics&#45;&gt;src_diagnostics__diagnostic_label_slug</title>
<path fill="none" stroke="#64748b" d="M891.34,-359.52C912.59,-349.92 939.09,-337.95 961.43,-327.86"/>
<polygon fill="#64748b" stroke="#64748b" points="962.39,-330.12 967.76,-325 960.37,-325.65 962.39,-330.12"/>
</g>
<!-- src_plotting_plot_root_finding_diagnostic -->
<g id="node21" class="node">
<title>src_plotting_plot_root_finding_diagnostic</title>
<path fill="#f8fafc" stroke="#334155" d="M915.38,-324C915.38,-324 789.88,-324 789.88,-324 783.88,-324 777.88,-318 777.88,-312 777.88,-312 777.88,-300 777.88,-300 777.88,-294 783.88,-288 789.88,-288 789.88,-288 915.38,-288 915.38,-288 921.38,-288 927.38,-294 927.38,-300 927.38,-300 927.38,-312 927.38,-312 927.38,-318 921.38,-324 915.38,-324"/>
<text xml:space="preserve" text-anchor="middle" x="852.62" y="-301.55" font-family="Helvetica,sans-Serif" font-size="11.00">plot_root_finding_diagnostic</text>
</g>
<!-- src_diagnostics__plot_outward_root_diagnostics&#45;&gt;src_plotting_plot_root_finding_diagnostic -->
<g id="edge5" class="edge">
<title>src_diagnostics__plot_outward_root_diagnostics&#45;&gt;src_plotting_plot_root_finding_diagnostic</title>
<path fill="none" stroke="#64748b" d="M852.62,-359.7C852.62,-351.47 852.62,-341.48 852.62,-332.42"/>
<polygon fill="#64748b" stroke="#64748b" points="855.08,-332.62 852.63,-325.62 850.18,-332.62 855.08,-332.62"/>
</g>
<!-- src_plotting_plot_root_finding_zoom -->
<g id="node22" class="node">
<title>src_plotting_plot_root_finding_zoom</title>
<path fill="#f8fafc" stroke="#334155" d="M1203.5,-324C1203.5,-324 1099.75,-324 1099.75,-324 1093.75,-324 1087.75,-318 1087.75,-312 1087.75,-312 1087.75,-300 1087.75,-300 1087.75,-294 1093.75,-288 1099.75,-288 1099.75,-288 1203.5,-288 1203.5,-288 1209.5,-288 1215.5,-294 1215.5,-300 1215.5,-300 1215.5,-312 1215.5,-312 1215.5,-318 1209.5,-324 1203.5,-324"/>
<text xml:space="preserve" text-anchor="middle" x="1151.62" y="-301.55" font-family="Helvetica,sans-Serif" font-size="11.00">plot_root_finding_zoom</text>
</g>
<!-- src_diagnostics__plot_outward_root_diagnostics&#45;&gt;src_plotting_plot_root_finding_zoom -->
<g id="edge6" class="edge">
<title>src_diagnostics__plot_outward_root_diagnostics&#45;&gt;src_plotting_plot_root_finding_zoom</title>
<path fill="none" stroke="#64748b" d="M927.3,-359.52C973.81,-348.63 1033.33,-334.69 1079.37,-323.92"/>
<polygon fill="#64748b" stroke="#64748b" points="1079.78,-326.34 1086.04,-322.35 1078.66,-321.56 1079.78,-326.34"/>
</g>
<!-- src_shooting_bisection_history_outward_shooting -->
<g id="node26" class="node">
<title>src_shooting_bisection_history_outward_shooting</title>
<path fill="#f8fafc" stroke="#334155" d="M797.12,-252C797.12,-252 634.12,-252 634.12,-252 628.12,-252 622.12,-246 622.12,-240 622.12,-240 622.12,-228 622.12,-228 622.12,-222 628.12,-216 634.12,-216 634.12,-216 797.12,-216 797.12,-216 803.12,-216 809.12,-222 809.12,-228 809.12,-228 809.12,-240 809.12,-240 809.12,-246 803.12,-252 797.12,-252"/>
<text xml:space="preserve" text-anchor="middle" x="715.62" y="-229.55" font-family="Helvetica,sans-Serif" font-size="11.00">bisection_history_outward_shooting</text>
</g>
<!-- src_diagnostics__plot_outward_root_diagnostics&#45;&gt;src_shooting_bisection_history_outward_shooting -->
<g id="edge7" class="edge">
<title>src_diagnostics__plot_outward_root_diagnostics&#45;&gt;src_shooting_bisection_history_outward_shooting</title>
<path fill="none" stroke="#64748b" d="M808.53,-359.52C790.99,-350.88 771.68,-339.04 757.62,-324 740.66,-305.84 729.41,-279.58 722.86,-260.29"/>
<polygon fill="#64748b" stroke="#64748b" points="725.21,-259.58 720.73,-253.67 720.55,-261.09 725.21,-259.58"/>
</g>
<!-- src_shooting_find_brackets_outward_shooting -->
<g id="node30" class="node">
<title>src_shooting_find_brackets_outward_shooting</title>
<path fill="#f8fafc" stroke="#334155" d="M671.25,-324C671.25,-324 524,-324 524,-324 518,-324 512,-318 512,-312 512,-312 512,-300 512,-300 512,-294 518,-288 524,-288 524,-288 671.25,-288 671.25,-288 677.25,-288 683.25,-294 683.25,-300 683.25,-300 683.25,-312 683.25,-312 683.25,-318 677.25,-324 671.25,-324"/>
<text xml:space="preserve" text-anchor="middle" x="597.62" y="-301.55" font-family="Helvetica,sans-Serif" font-size="11.00">find_brackets_outward_shooting</text>
</g>
<!-- src_diagnostics__plot_outward_root_diagnostics&#45;&gt;src_shooting_find_brackets_outward_shooting -->
<g id="edge8" class="edge">
<title>src_diagnostics__plot_outward_root_diagnostics&#45;&gt;src_shooting_find_brackets_outward_shooting</title>
<path fill="none" stroke="#64748b" d="M788.94,-359.52C752.44,-349.5 706.54,-336.9 668.86,-326.55"/>
<polygon fill="#64748b" stroke="#64748b" points="669.8,-324.27 662.4,-324.78 668.51,-329 669.8,-324.27"/>
</g>
<!-- src_shooting_sample_boundary_mismatch_outward_shooting -->
<g id="node33" class="node">
<title>src_shooting_sample_boundary_mismatch_outward_shooting</title>
<path fill="#f8fafc" stroke="#334155" d="M1060,-252C1060,-252 839.25,-252 839.25,-252 833.25,-252 827.25,-246 827.25,-240 827.25,-240 827.25,-228 827.25,-228 827.25,-222 833.25,-216 839.25,-216 839.25,-216 1060,-216 1060,-216 1066,-216 1072,-222 1072,-228 1072,-228 1072,-240 1072,-240 1072,-246 1066,-252 1060,-252"/>
<text xml:space="preserve" text-anchor="middle" x="949.62" y="-229.55" font-family="Helvetica,sans-Serif" font-size="11.00">sample_boundary_mismatch_outward_shooting</text>
</g>
<!-- src_diagnostics__plot_outward_root_diagnostics&#45;&gt;src_shooting_sample_boundary_mismatch_outward_shooting -->
<g id="edge9" class="edge">
<title>src_diagnostics__plot_outward_root_diagnostics&#45;&gt;src_shooting_sample_boundary_mismatch_outward_shooting</title>
<path fill="none" stroke="#64748b" d="M807.67,-359.5C792.47,-351.17 777.2,-339.55 768.62,-324 760.9,-309.99 759.03,-300.81 768.62,-288 778.85,-274.35 810.71,-263.04 844.92,-254.42"/>
<polygon fill="#64748b" stroke="#64748b" points="845.49,-256.8 851.71,-252.75 844.32,-252.04 845.49,-256.8"/>
</g>
<!-- src_diagnostics_plot_double_well_root_diagnostics -->
<g id="node9" class="node">
<title>src_diagnostics_plot_double_well_root_diagnostics</title>
<path fill="#f8fafc" stroke="#334155" d="M1059.75,-468C1059.75,-468 903.5,-468 903.5,-468 897.5,-468 891.5,-462 891.5,-456 891.5,-456 891.5,-444 891.5,-444 891.5,-438 897.5,-432 903.5,-432 903.5,-432 1059.75,-432 1059.75,-432 1065.75,-432 1071.75,-438 1071.75,-444 1071.75,-444 1071.75,-456 1071.75,-456 1071.75,-462 1065.75,-468 1059.75,-468"/>
<text xml:space="preserve" text-anchor="middle" x="981.62" y="-445.55" font-family="Helvetica,sans-Serif" font-size="11.00">plot_double_well_root_diagnostics</text>
</g>
<!-- src_diagnostics_plot_double_well_root_diagnostics&#45;&gt;src_diagnostics__plot_outward_root_diagnostics -->
<g id="edge10" class="edge">
<title>src_diagnostics_plot_double_well_root_diagnostics&#45;&gt;src_diagnostics__plot_outward_root_diagnostics</title>
<path fill="none" stroke="#64748b" d="M949.41,-431.52C931.88,-422.01 910.07,-410.17 891.6,-400.15"/>
<polygon fill="#64748b" stroke="#64748b" points="893.09,-398.17 885.76,-396.98 890.75,-402.47 893.09,-398.17"/>
</g>
<!-- src_potentials_quartic_double_well -->
<g id="node24" class="node">
<title>src_potentials_quartic_double_well</title>
<path fill="#f8fafc" stroke="#334155" d="M1075.25,-396C1075.25,-396 988,-396 988,-396 982,-396 976,-390 976,-384 976,-384 976,-372 976,-372 976,-366 982,-360 988,-360 988,-360 1075.25,-360 1075.25,-360 1081.25,-360 1087.25,-366 1087.25,-372 1087.25,-372 1087.25,-384 1087.25,-384 1087.25,-390 1081.25,-396 1075.25,-396"/>
<text xml:space="preserve" text-anchor="middle" x="1031.62" y="-373.55" font-family="Helvetica,sans-Serif" font-size="11.00">quartic_double_well</text>
</g>
<!-- src_diagnostics_plot_double_well_root_diagnostics&#45;&gt;src_potentials_quartic_double_well -->
<g id="edge11" class="edge">
<title>src_diagnostics_plot_double_well_root_diagnostics&#45;&gt;src_potentials_quartic_double_well</title>
<path fill="none" stroke="#64748b" d="M993.98,-431.7C1000.16,-423.05 1007.73,-412.45 1014.46,-403.03"/>
<polygon fill="#64748b" stroke="#64748b" points="1016.45,-404.46 1018.53,-397.34 1012.47,-401.61 1016.45,-404.46"/>
</g>
<!-- src_experiments__experiment_results_dir -->
<g id="node10" class="node">
<title>src_experiments__experiment_results_dir</title>
<path fill="#f8fafc" stroke="#334155" d="M1398,-468C1398,-468 1291.25,-468 1291.25,-468 1285.25,-468 1279.25,-462 1279.25,-456 1279.25,-456 1279.25,-444 1279.25,-444 1279.25,-438 1285.25,-432 1291.25,-432 1291.25,-432 1398,-432 1398,-432 1404,-432 1410,-438 1410,-444 1410,-444 1410,-456 1410,-456 1410,-462 1404,-468 1398,-468"/>
<text xml:space="preserve" text-anchor="middle" x="1344.62" y="-445.55" font-family="Helvetica,sans-Serif" font-size="11.00">_experiment_results_dir</text>
</g>
<!-- src_experiments_run_quartic_double_well -->
<g id="node11" class="node">
<title>src_experiments_run_quartic_double_well</title>
<path fill="#f8fafc" stroke="#334155" d="M1036.12,-540C1036.12,-540 927.12,-540 927.12,-540 921.12,-540 915.12,-534 915.12,-528 915.12,-528 915.12,-516 915.12,-516 915.12,-510 921.12,-504 927.12,-504 927.12,-504 1036.12,-504 1036.12,-504 1042.12,-504 1048.12,-510 1048.12,-516 1048.12,-516 1048.12,-528 1048.12,-528 1048.12,-534 1042.12,-540 1036.12,-540"/>
<text xml:space="preserve" text-anchor="middle" x="981.62" y="-517.55" font-family="Helvetica,sans-Serif" font-size="11.00">run_quartic_double_well</text>
</g>
<!-- src_experiments_run_quartic_double_well&#45;&gt;src_analysis_convergence_vs_box_size_fixed_spacing -->
<g id="edge12" class="edge">
<title>src_experiments_run_quartic_double_well&#45;&gt;src_analysis_convergence_vs_box_size_fixed_spacing</title>
<path fill="none" stroke="#64748b" d="M914.72,-518.04C782.3,-511.79 477.56,-495.54 222.62,-468 222.44,-467.98 222.26,-467.96 222.07,-467.94"/>
<polygon fill="#64748b" stroke="#64748b" points="222.45,-465.52 215.22,-467.17 221.9,-470.39 222.45,-465.52"/>
</g>
<!-- src_experiments_run_quartic_double_well&#45;&gt;src_analysis_convergence_vs_grid_successive -->
<g id="edge13" class="edge">
<title>src_experiments_run_quartic_double_well&#45;&gt;src_analysis_convergence_vs_grid_successive</title>
<path fill="none" stroke="#64748b" d="M914.89,-516.48C808.99,-508.91 596.05,-492.1 416.62,-468 416.44,-467.98 416.26,-467.95 416.08,-467.93"/>
<polygon fill="#64748b" stroke="#64748b" points="416.64,-465.53 409.37,-466.98 415.96,-470.38 416.64,-465.53"/>
</g>
<!-- src_experiments_run_quartic_double_well&#45;&gt;src_analysis_estimate_convergence_slopes -->
<g id="edge14" class="edge">
<title>src_experiments_run_quartic_double_well&#45;&gt;src_analysis_estimate_convergence_slopes</title>
<path fill="none" stroke="#64748b" d="M914.69,-512.92C837.41,-503.34 706.55,-486.34 594.62,-468 594.54,-467.99 594.45,-467.97 594.36,-467.96"/>
<polygon fill="#64748b" stroke="#64748b" points="594.92,-465.57 587.61,-466.82 594.11,-470.4 594.92,-465.57"/>
</g>
<!-- src_experiments_run_quartic_double_well&#45;&gt;src_analysis_save_csv_rows -->
<g id="edge15" class="edge">
<title>src_experiments_run_quartic_double_well&#45;&gt;src_analysis_save_csv_rows</title>
<path fill="none" stroke="#64748b" d="M914.63,-510.54C857.81,-501.13 774.35,-486.04 702.62,-468 702.35,-467.93 702.07,-467.86 701.79,-467.79"/>
<polygon fill="#64748b" stroke="#64748b" points="702.45,-465.43 695.06,-465.98 701.18,-470.16 702.45,-465.43"/>
</g>
<!-- src_experiments_run_quartic_double_well&#45;&gt;src_analysis_splitting_vs_parameter -->
<g id="edge16" class="edge">
<title>src_experiments_run_quartic_double_well&#45;&gt;src_analysis_splitting_vs_parameter</title>
<path fill="none" stroke="#64748b" d="M929.67,-503.52C900.4,-493.67 863.72,-481.32 833.28,-471.07"/>
<polygon fill="#64748b" stroke="#64748b" points="834.12,-468.78 826.71,-468.86 832.56,-473.42 834.12,-468.78"/>
</g>
<!-- src_experiments_run_quartic_double_well&#45;&gt;src_diagnostics_plot_double_well_root_diagnostics -->
<g id="edge17" class="edge">
<title>src_experiments_run_quartic_double_well&#45;&gt;src_diagnostics_plot_double_well_root_diagnostics</title>
<path fill="none" stroke="#64748b" d="M981.62,-503.7C981.62,-495.47 981.62,-485.48 981.62,-476.42"/>
<polygon fill="#64748b" stroke="#64748b" points="984.08,-476.62 981.63,-469.62 979.18,-476.62 984.08,-476.62"/>
</g>
<!-- src_experiments_run_quartic_double_well&#45;&gt;src_experiments__experiment_results_dir -->
<g id="edge18" class="edge">
<title>src_experiments_run_quartic_double_well&#45;&gt;src_experiments__experiment_results_dir</title>
<path fill="none" stroke="#64748b" d="M1048.58,-509.04C1106.19,-498.62 1191.49,-482.89 1265.62,-468 1267.41,-467.64 1269.22,-467.27 1271.05,-466.9"/>
<polygon fill="#64748b" stroke="#64748b" points="1271.28,-469.36 1277.65,-465.54 1270.3,-464.56 1271.28,-469.36"/>
</g>
<!-- src_plotting_plot_error_curve -->
<g id="node18" class="node">
<title>src_plotting_plot_error_curve</title>
<path fill="#f8fafc" stroke="#334155" d="M1374,-396C1374,-396 1303.25,-396 1303.25,-396 1297.25,-396 1291.25,-390 1291.25,-384 1291.25,-384 1291.25,-372 1291.25,-372 1291.25,-366 1297.25,-360 1303.25,-360 1303.25,-360 1374,-360 1374,-360 1380,-360 1386,-366 1386,-372 1386,-372 1386,-384 1386,-384 1386,-390 1380,-396 1374,-396"/>
<text xml:space="preserve" text-anchor="middle" x="1338.62" y="-373.55" font-family="Helvetica,sans-Serif" font-size="11.00">plot_error_curve</text>
</g>
<!-- src_experiments_run_quartic_double_well&#45;&gt;src_plotting_plot_error_curve -->
<g id="edge19" class="edge">
<title>src_experiments_run_quartic_double_well&#45;&gt;src_plotting_plot_error_curve</title>
<path fill="none" stroke="#64748b" d="M1048.62,-508.98C1088.6,-500.44 1139.76,-487.07 1182.62,-468 1209.32,-456.12 1212.44,-446.8 1237.62,-432 1256.61,-420.84 1278.17,-409.37 1296.48,-399.97"/>
<polygon fill="#64748b" stroke="#64748b" points="1297.11,-402.39 1302.23,-397.03 1294.89,-398.03 1297.11,-402.39"/>
</g>
<!-- src_plotting_plot_potential_and_states -->
<g id="node19" class="node">
<title>src_plotting_plot_potential_and_states</title>
<path fill="#f8fafc" stroke="#334155" d="M1530.75,-396C1530.75,-396 1416.5,-396 1416.5,-396 1410.5,-396 1404.5,-390 1404.5,-384 1404.5,-384 1404.5,-372 1404.5,-372 1404.5,-366 1410.5,-360 1416.5,-360 1416.5,-360 1530.75,-360 1530.75,-360 1536.75,-360 1542.75,-366 1542.75,-372 1542.75,-372 1542.75,-384 1542.75,-384 1542.75,-390 1536.75,-396 1530.75,-396"/>
<text xml:space="preserve" text-anchor="middle" x="1473.62" y="-373.55" font-family="Helvetica,sans-Serif" font-size="11.00">plot_potential_and_states</text>
</g>
<!-- src_experiments_run_quartic_double_well&#45;&gt;src_plotting_plot_potential_and_states -->
<g id="edge20" class="edge">
<title>src_experiments_run_quartic_double_well&#45;&gt;src_plotting_plot_potential_and_states</title>
<path fill="none" stroke="#64748b" d="M1048.41,-514.6C1098.74,-507.87 1168.45,-494.4 1224.62,-468 1248.12,-456.96 1247.36,-443.52 1270.62,-432 1292.77,-421.04 1348.44,-406.81 1395.9,-395.86"/>
<polygon fill="#64748b" stroke="#64748b" points="1396.29,-398.28 1402.57,-394.33 1395.19,-393.51 1396.29,-398.28"/>
</g>
<!-- src_plotting_plot_probability_densities -->
<g id="node20" class="node">
<title>src_plotting_plot_probability_densities</title>
<path fill="#f8fafc" stroke="#334155" d="M1357.62,-324C1357.62,-324 1245.62,-324 1245.62,-324 1239.62,-324 1233.62,-318 1233.62,-312 1233.62,-312 1233.62,-300 1233.62,-300 1233.62,-294 1239.62,-288 1245.62,-288 1245.62,-288 1357.62,-288 1357.62,-288 1363.62,-288 1369.62,-294 1369.62,-300 1369.62,-300 1369.62,-312 1369.62,-312 1369.62,-318 1363.62,-324 1357.62,-324"/>
<text xml:space="preserve" text-anchor="middle" x="1301.62" y="-301.55" font-family="Helvetica,sans-Serif" font-size="11.00">plot_probability_densities</text>
</g>
<!-- src_experiments_run_quartic_double_well&#45;&gt;src_plotting_plot_probability_densities -->
<g id="edge21" class="edge">
<title>src_experiments_run_quartic_double_well&#45;&gt;src_plotting_plot_probability_densities</title>
<path fill="none" stroke="#64748b" d="M1038.22,-503.61C1058.68,-495.27 1080.85,-483.62 1097.62,-468 1137.66,-430.73 1115.17,-395.68 1156.62,-360 1168.85,-349.48 1201.6,-337.15 1232.9,-327.02"/>
<polygon fill="#64748b" stroke="#64748b" points="1233.44,-329.42 1239.36,-324.96 1231.95,-324.75 1233.44,-329.42"/>
</g>
<!-- src_plotting_plot_splitting_curve -->
<g id="node23" class="node">
<title>src_plotting_plot_splitting_curve</title>
<path fill="#f8fafc" stroke="#334155" d="M1261.38,-396C1261.38,-396 1177.88,-396 1177.88,-396 1171.88,-396 1165.88,-390 1165.88,-384 1165.88,-384 1165.88,-372 1165.88,-372 1165.88,-366 1171.88,-360 1177.88,-360 1177.88,-360 1261.38,-360 1261.38,-360 1267.38,-360 1273.38,-366 1273.38,-372 1273.38,-372 1273.38,-384 1273.38,-384 1273.38,-390 1267.38,-396 1261.38,-396"/>
<text xml:space="preserve" text-anchor="middle" x="1219.62" y="-373.55" font-family="Helvetica,sans-Serif" font-size="11.00">plot_splitting_curve</text>
</g>
<!-- src_experiments_run_quartic_double_well&#45;&gt;src_plotting_plot_splitting_curve -->
<g id="edge22" class="edge">
<title>src_experiments_run_quartic_double_well&#45;&gt;src_plotting_plot_splitting_curve</title>
<path fill="none" stroke="#64748b" d="M1048.43,-510.12C1081.64,-502.34 1121.1,-489.35 1151.62,-468 1175.5,-451.3 1194.73,-423.65 1206.56,-403.6"/>
<polygon fill="#64748b" stroke="#64748b" points="1208.63,-404.93 1209.98,-397.64 1204.37,-402.49 1208.63,-404.93"/>
</g>
<!-- src_experiments_run_quartic_double_well&#45;&gt;src_potentials_quartic_double_well -->
<g id="edge23" class="edge">
<title>src_experiments_run_quartic_double_well&#45;&gt;src_potentials_quartic_double_well</title>
<path fill="none" stroke="#64748b" d="M1038.03,-503.59C1054.68,-495.52 1071.01,-484.06 1080.62,-468 1088.85,-454.27 1086.46,-446.9 1080.62,-432 1076.21,-420.72 1068.14,-410.4 1059.8,-401.92"/>
<polygon fill="#64748b" stroke="#64748b" points="1061.86,-400.5 1055.12,-397.41 1058.46,-404.03 1061.86,-400.5"/>
</g>
<!-- src_experiments_run_quartic_double_well&#45;&gt;src_shooting_solve_symmetric_potential_outward_shooting -->
<g id="edge24" class="edge">
<title>src_experiments_run_quartic_double_well&#45;&gt;src_shooting_solve_symmetric_potential_outward_shooting</title>
<path fill="none" stroke="#64748b" d="M943.55,-503.61C924.54,-494.19 901.6,-481.69 882.62,-468 863.76,-454.39 865.12,-443.01 844.62,-432 812.79,-414.9 775.58,-403.29 740.52,-395.42"/>
<polygon fill="#64748b" stroke="#64748b" points="741.44,-393.11 734.08,-394.01 740.4,-397.9 741.44,-393.11"/>
</g>
<!-- src_numerov_derivative_at_right_edge -->
<g id="node12" class="node">
<title>src_numerov_derivative_at_right_edge</title>
<path fill="#f8fafc" stroke="#334155" d="M547.5,-108C547.5,-108 437.75,-108 437.75,-108 431.75,-108 425.75,-102 425.75,-96 425.75,-96 425.75,-84 425.75,-84 425.75,-78 431.75,-72 437.75,-72 437.75,-72 547.5,-72 547.5,-72 553.5,-72 559.5,-78 559.5,-84 559.5,-84 559.5,-96 559.5,-96 559.5,-102 553.5,-108 547.5,-108"/>
<text xml:space="preserve" text-anchor="middle" x="492.62" y="-85.55" font-family="Helvetica,sans-Serif" font-size="11.00">derivative_at_right_edge</text>
</g>
<!-- src_numerov_normalize_wavefunction -->
<g id="node13" class="node">
<title>src_numerov_normalize_wavefunction</title>
<path fill="#f8fafc" stroke="#334155" d="M361.38,-252C361.38,-252 253.88,-252 253.88,-252 247.88,-252 241.88,-246 241.88,-240 241.88,-240 241.88,-228 241.88,-228 241.88,-222 247.88,-216 253.88,-216 253.88,-216 361.38,-216 361.38,-216 367.38,-216 373.38,-222 373.38,-228 373.38,-228 373.38,-240 373.38,-240 373.38,-246 367.38,-252 361.38,-252"/>
<text xml:space="preserve" text-anchor="middle" x="307.62" y="-229.55" font-family="Helvetica,sans-Serif" font-size="11.00">normalize_wavefunction</text>
</g>
<!-- src_numerov_numerov_march -->
<g id="node14" class="node">
<title>src_numerov_numerov_march</title>
<path fill="#f8fafc" stroke="#334155" d="M620.62,-36C620.62,-36 550.62,-36 550.62,-36 544.62,-36 538.62,-30 538.62,-24 538.62,-24 538.62,-12 538.62,-12 538.62,-6 544.62,0 550.62,0 550.62,0 620.62,0 620.62,0 626.62,0 632.62,-6 632.62,-12 632.62,-12 632.62,-24 632.62,-24 632.62,-30 626.62,-36 620.62,-36"/>
<text xml:space="preserve" text-anchor="middle" x="585.62" y="-13.55" font-family="Helvetica,sans-Serif" font-size="11.00">numerov_march</text>
</g>
<!-- src_numerov_q_from_energy -->
<g id="node15" class="node">
<title>src_numerov_q_from_energy</title>
<path fill="#f8fafc" stroke="#334155" d="M727,-36C727,-36 662.25,-36 662.25,-36 656.25,-36 650.25,-30 650.25,-24 650.25,-24 650.25,-12 650.25,-12 650.25,-6 656.25,0 662.25,0 662.25,0 727,0 727,0 733,0 739,-6 739,-12 739,-12 739,-24 739,-24 739,-30 733,-36 727,-36"/>
<text xml:space="preserve" text-anchor="middle" x="694.62" y="-13.55" font-family="Helvetica,sans-Serif" font-size="11.00">q_from_energy</text>
</g>
<!-- src_plotting__ensure_parent -->
<g id="node16" class="node">
<title>src_plotting__ensure_parent</title>
<path fill="#f8fafc" stroke="#334155" d="M1383.5,-252C1383.5,-252 1315.75,-252 1315.75,-252 1309.75,-252 1303.75,-246 1303.75,-240 1303.75,-240 1303.75,-228 1303.75,-228 1303.75,-222 1309.75,-216 1315.75,-216 1315.75,-216 1383.5,-216 1383.5,-216 1389.5,-216 1395.5,-222 1395.5,-228 1395.5,-228 1395.5,-240 1395.5,-240 1395.5,-246 1389.5,-252 1383.5,-252"/>
<text xml:space="preserve" text-anchor="middle" x="1349.62" y="-229.55" font-family="Helvetica,sans-Serif" font-size="11.00">_ensure_parent</text>
</g>
<!-- src_plotting__symlog_linthresh -->
<g id="node17" class="node">
<title>src_plotting__symlog_linthresh</title>
<path fill="#f8fafc" stroke="#334155" d="M1185.75,-252C1185.75,-252 1107.5,-252 1107.5,-252 1101.5,-252 1095.5,-246 1095.5,-240 1095.5,-240 1095.5,-228 1095.5,-228 1095.5,-222 1101.5,-216 1107.5,-216 1107.5,-216 1185.75,-216 1185.75,-216 1191.75,-216 1197.75,-222 1197.75,-228 1197.75,-228 1197.75,-240 1197.75,-240 1197.75,-246 1191.75,-252 1185.75,-252"/>
<text xml:space="preserve" text-anchor="middle" x="1146.62" y="-229.55" font-family="Helvetica,sans-Serif" font-size="11.00">_symlog_linthresh</text>
</g>
<!-- src_plotting_plot_error_curve&#45;&gt;src_plotting__ensure_parent -->
<g id="edge25" class="edge">
<title>src_plotting_plot_error_curve&#45;&gt;src_plotting__ensure_parent</title>
<path fill="none" stroke="#64748b" d="M1375.52,-359.69C1389.49,-351.08 1403.87,-339.21 1411.62,-324 1418.89,-309.75 1418.32,-302.53 1411.62,-288 1406.08,-275.97 1396.32,-265.66 1386.15,-257.41"/>
<polygon fill="#64748b" stroke="#64748b" points="1387.71,-255.52 1380.66,-253.22 1384.73,-259.41 1387.71,-255.52"/>
</g>
<!-- src_plotting_plot_potential_and_states&#45;&gt;src_plotting__ensure_parent -->
<g id="edge26" class="edge">
<title>src_plotting_plot_potential_and_states&#45;&gt;src_plotting__ensure_parent</title>
<path fill="none" stroke="#64748b" d="M1467.91,-359.72C1460.93,-340.56 1447.66,-309.53 1428.62,-288 1417.82,-275.78 1403.59,-265.1 1390.19,-256.59"/>
<polygon fill="#64748b" stroke="#64748b" points="1391.81,-254.71 1384.57,-253.13 1389.25,-258.88 1391.81,-254.71"/>
</g>
<!-- src_plotting_plot_probability_densities&#45;&gt;src_plotting__ensure_parent -->
<g id="edge27" class="edge">
<title>src_plotting_plot_probability_densities&#45;&gt;src_plotting__ensure_parent</title>
<path fill="none" stroke="#64748b" d="M1313.49,-287.7C1319.42,-279.05 1326.69,-268.45 1333.15,-259.03"/>
<polygon fill="#64748b" stroke="#64748b" points="1335.1,-260.51 1337.04,-253.35 1331.06,-257.74 1335.1,-260.51"/>
</g>
<!-- src_plotting_plot_root_finding_diagnostic&#45;&gt;src_plotting__ensure_parent -->
<g id="edge28" class="edge">
<title>src_plotting_plot_root_finding_diagnostic&#45;&gt;src_plotting__ensure_parent</title>
<path fill="none" stroke="#64748b" d="M927.68,-289.53C930.7,-289 933.69,-288.48 936.62,-288 1004.39,-276.81 1199.09,-253.03 1294.96,-241.52"/>
<polygon fill="#64748b" stroke="#64748b" points="1295.2,-243.96 1301.86,-240.69 1294.62,-239.09 1295.2,-243.96"/>
</g>
<!-- src_plotting_plot_root_finding_diagnostic&#45;&gt;src_plotting__symlog_linthresh -->
<g id="edge29" class="edge">
<title>src_plotting_plot_root_finding_diagnostic&#45;&gt;src_plotting__symlog_linthresh</title>
<path fill="none" stroke="#64748b" d="M927.69,-288.02C972.21,-277.83 1029.71,-264.47 1080.62,-252 1082.69,-251.49 1084.78,-250.98 1086.9,-250.45"/>
<polygon fill="#64748b" stroke="#64748b" points="1087.47,-252.83 1093.66,-248.76 1086.28,-248.08 1087.47,-252.83"/>
</g>
<!-- src_plotting_plot_root_finding_zoom&#45;&gt;src_plotting__ensure_parent -->
<g id="edge30" class="edge">
<title>src_plotting_plot_root_finding_zoom&#45;&gt;src_plotting__ensure_parent</title>
<path fill="none" stroke="#64748b" d="M1201.08,-287.52C1229.89,-277.33 1266.24,-264.48 1295.77,-254.04"/>
<polygon fill="#64748b" stroke="#64748b" points="1296.31,-256.45 1302.09,-251.81 1294.67,-251.83 1296.31,-256.45"/>
</g>
<!-- src_plotting_plot_root_finding_zoom&#45;&gt;src_plotting__symlog_linthresh -->
<g id="edge31" class="edge">
<title>src_plotting_plot_root_finding_zoom&#45;&gt;src_plotting__symlog_linthresh</title>
<path fill="none" stroke="#64748b" d="M1150.39,-287.7C1149.8,-279.47 1149.09,-269.48 1148.44,-260.42"/>
<polygon fill="#64748b" stroke="#64748b" points="1150.9,-260.42 1147.95,-253.61 1146.01,-260.77 1150.9,-260.42"/>
</g>
<!-- src_plotting_plot_splitting_curve&#45;&gt;src_plotting__ensure_parent -->
<g id="edge32" class="edge">
<title>src_plotting_plot_splitting_curve&#45;&gt;src_plotting__ensure_parent</title>
<path fill="none" stroke="#64748b" d="M1273.83,-362.31C1317.32,-349.97 1372.16,-332.97 1378.62,-324 1392.53,-304.71 1381.07,-278.4 1368.69,-259.39"/>
<polygon fill="#64748b" stroke="#64748b" points="1370.8,-258.13 1364.81,-253.74 1366.76,-260.9 1370.8,-258.13"/>
</g>
<!-- src_shooting_bisect_energy_outward_shooting -->
<g id="node25" class="node">
<title>src_shooting_bisect_energy_outward_shooting</title>
<path fill="#f8fafc" stroke="#334155" d="M553.75,-252C553.75,-252 403.5,-252 403.5,-252 397.5,-252 391.5,-246 391.5,-240 391.5,-240 391.5,-228 391.5,-228 391.5,-222 397.5,-216 403.5,-216 403.5,-216 553.75,-216 553.75,-216 559.75,-216 565.75,-222 565.75,-228 565.75,-228 565.75,-240 565.75,-240 565.75,-246 559.75,-252 553.75,-252"/>
<text xml:space="preserve" text-anchor="middle" x="478.62" y="-229.55" font-family="Helvetica,sans-Serif" font-size="11.00">bisect_energy_outward_shooting</text>
</g>
<!-- src_shooting_boundary_mismatch_outward_shooting -->
<g id="node27" class="node">
<title>src_shooting_boundary_mismatch_outward_shooting</title>
<path fill="#f8fafc" stroke="#334155" d="M683.75,-180C683.75,-180 503.5,-180 503.5,-180 497.5,-180 491.5,-174 491.5,-168 491.5,-168 491.5,-156 491.5,-156 491.5,-150 497.5,-144 503.5,-144 503.5,-144 683.75,-144 683.75,-144 689.75,-144 695.75,-150 695.75,-156 695.75,-156 695.75,-168 695.75,-168 695.75,-174 689.75,-180 683.75,-180"/>
<text xml:space="preserve" text-anchor="middle" x="593.62" y="-157.55" font-family="Helvetica,sans-Serif" font-size="11.00">boundary_mismatch_outward_shooting</text>
</g>
<!-- src_shooting_bisect_energy_outward_shooting&#45;&gt;src_shooting_boundary_mismatch_outward_shooting -->
<g id="edge33" class="edge">
<title>src_shooting_bisect_energy_outward_shooting&#45;&gt;src_shooting_boundary_mismatch_outward_shooting</title>
<path fill="none" stroke="#64748b" d="M507.35,-215.52C522.69,-206.18 541.72,-194.59 558,-184.68"/>
<polygon fill="#64748b" stroke="#64748b" points="559.27,-186.78 563.98,-181.05 556.72,-182.59 559.27,-186.78"/>
</g>
<!-- src_shooting_bisection_history_outward_shooting&#45;&gt;src_shooting_boundary_mismatch_outward_shooting -->
<g id="edge34" class="edge">
<title>src_shooting_bisection_history_outward_shooting&#45;&gt;src_shooting_boundary_mismatch_outward_shooting</title>
<path fill="none" stroke="#64748b" d="M685.15,-215.52C668.73,-206.09 648.32,-194.38 630.95,-184.41"/>
<polygon fill="#64748b" stroke="#64748b" points="632.31,-182.37 625.02,-181.01 629.87,-186.62 632.31,-182.37"/>
</g>
<!-- src_shooting_diagnostic_mismatch_outward_shooting -->
<g id="node29" class="node">
<title>src_shooting_diagnostic_mismatch_outward_shooting</title>
<path fill="#f8fafc" stroke="#334155" d="M909.25,-180C909.25,-180 726,-180 726,-180 720,-180 714,-174 714,-168 714,-168 714,-156 714,-156 714,-150 720,-144 726,-144 726,-144 909.25,-144 909.25,-144 915.25,-144 921.25,-150 921.25,-156 921.25,-156 921.25,-168 921.25,-168 921.25,-174 915.25,-180 909.25,-180"/>
<text xml:space="preserve" text-anchor="middle" x="817.62" y="-157.55" font-family="Helvetica,sans-Serif" font-size="11.00">diagnostic_mismatch_outward_shooting</text>
</g>
<!-- src_shooting_bisection_history_outward_shooting&#45;&gt;src_shooting_diagnostic_mismatch_outward_shooting -->
<g id="edge35" class="edge">
<title>src_shooting_bisection_history_outward_shooting&#45;&gt;src_shooting_diagnostic_mismatch_outward_shooting</title>
<path fill="none" stroke="#64748b" d="M741.1,-215.52C754.59,-206.26 771.29,-194.8 785.64,-184.95"/>
<polygon fill="#64748b" stroke="#64748b" points="786.84,-187.1 791.23,-181.12 784.07,-183.06 786.84,-187.1"/>
</g>
<!-- src_shooting_boundary_mismatch_outward_shooting&#45;&gt;src_numerov_derivative_at_right_edge -->
<g id="edge36" class="edge">
<title>src_shooting_boundary_mismatch_outward_shooting&#45;&gt;src_numerov_derivative_at_right_edge</title>
<path fill="none" stroke="#64748b" d="M568.4,-143.52C555.04,-134.26 538.51,-122.8 524.3,-112.95"/>
<polygon fill="#64748b" stroke="#64748b" points="525.92,-111.1 518.77,-109.12 523.13,-115.12 525.92,-111.1"/>
</g>
<!-- src_shooting_half_domain_wavefunction_outward_shooting -->
<g id="node31" class="node">
<title>src_shooting_half_domain_wavefunction_outward_shooting</title>
<path fill="#f8fafc" stroke="#334155" d="M800.12,-108C800.12,-108 589.12,-108 589.12,-108 583.12,-108 577.12,-102 577.12,-96 577.12,-96 577.12,-84 577.12,-84 577.12,-78 583.12,-72 589.12,-72 589.12,-72 800.12,-72 800.12,-72 806.12,-72 812.12,-78 812.12,-84 812.12,-84 812.12,-96 812.12,-96 812.12,-102 806.12,-108 800.12,-108"/>
<text xml:space="preserve" text-anchor="middle" x="694.62" y="-85.55" font-family="Helvetica,sans-Serif" font-size="11.00">half_domain_wavefunction_outward_shooting</text>
</g>
<!-- src_shooting_boundary_mismatch_outward_shooting&#45;&gt;src_shooting_half_domain_wavefunction_outward_shooting -->
<g id="edge37" class="edge">
<title>src_shooting_boundary_mismatch_outward_shooting&#45;&gt;src_shooting_half_domain_wavefunction_outward_shooting</title>
<path fill="none" stroke="#64748b" d="M618.85,-143.52C632.21,-134.26 648.74,-122.8 662.95,-112.95"/>
<polygon fill="#64748b" stroke="#64748b" points="664.12,-115.12 668.48,-109.12 661.33,-111.1 664.12,-115.12"/>
</g>
<!-- src_shooting_build_full_wavefunction -->
<g id="node28" class="node">
<title>src_shooting_build_full_wavefunction</title>
<path fill="#f8fafc" stroke="#334155" d="M173.12,-252C173.12,-252 70.12,-252 70.12,-252 64.12,-252 58.12,-246 58.12,-240 58.12,-240 58.12,-228 58.12,-228 58.12,-222 64.12,-216 70.12,-216 70.12,-216 173.12,-216 173.12,-216 179.12,-216 185.12,-222 185.12,-228 185.12,-228 185.12,-240 185.12,-240 185.12,-246 179.12,-252 173.12,-252"/>
<text xml:space="preserve" text-anchor="middle" x="121.62" y="-229.55" font-family="Helvetica,sans-Serif" font-size="11.00">build_full_wavefunction</text>
</g>
<!-- src_shooting_diagnostic_mismatch_outward_shooting&#45;&gt;src_shooting_half_domain_wavefunction_outward_shooting -->
<g id="edge38" class="edge">
<title>src_shooting_diagnostic_mismatch_outward_shooting&#45;&gt;src_shooting_half_domain_wavefunction_outward_shooting</title>
<path fill="none" stroke="#64748b" d="M786.9,-143.52C770.34,-134.09 749.77,-122.38 732.25,-112.41"/>
<polygon fill="#64748b" stroke="#64748b" points="733.57,-110.34 726.27,-109.01 731.14,-114.6 733.57,-110.34"/>
</g>
<!-- src_shooting_find_brackets_outward_shooting&#45;&gt;src_shooting_boundary_mismatch_outward_shooting -->
<g id="edge39" class="edge">
<title>src_shooting_find_brackets_outward_shooting&#45;&gt;src_shooting_boundary_mismatch_outward_shooting</title>
<path fill="none" stroke="#64748b" d="M597.13,-287.59C596.44,-262.76 595.15,-217.01 594.34,-188.4"/>
<polygon fill="#64748b" stroke="#64748b" points="596.8,-188.55 594.15,-181.62 591.9,-188.69 596.8,-188.55"/>
</g>
<!-- src_shooting_half_domain_wavefunction_outward_shooting&#45;&gt;src_numerov_numerov_march -->
<g id="edge40" class="edge">
<title>src_shooting_half_domain_wavefunction_outward_shooting&#45;&gt;src_numerov_numerov_march</title>
<path fill="none" stroke="#64748b" d="M667.4,-71.52C652.86,-62.18 634.82,-50.59 619.39,-40.68"/>
<polygon fill="#64748b" stroke="#64748b" points="620.99,-38.8 613.78,-37.08 618.34,-42.92 620.99,-38.8"/>
</g>
<!-- src_shooting_half_domain_wavefunction_outward_shooting&#45;&gt;src_numerov_q_from_energy -->
<g id="edge41" class="edge">
<title>src_shooting_half_domain_wavefunction_outward_shooting&#45;&gt;src_numerov_q_from_energy</title>
<path fill="none" stroke="#64748b" d="M694.62,-71.7C694.62,-63.47 694.62,-53.48 694.62,-44.42"/>
<polygon fill="#64748b" stroke="#64748b" points="697.08,-44.62 694.63,-37.62 692.18,-44.62 697.08,-44.62"/>
</g>
<!-- src_shooting_initial_conditions_outward_shooting -->
<g id="node32" class="node">
<title>src_shooting_initial_conditions_outward_shooting</title>
<path fill="#f8fafc" stroke="#334155" d="M930.38,-36C930.38,-36 768.88,-36 768.88,-36 762.88,-36 756.88,-30 756.88,-24 756.88,-24 756.88,-12 756.88,-12 756.88,-6 762.88,0 768.88,0 768.88,0 930.38,0 930.38,0 936.38,0 942.38,-6 942.38,-12 942.38,-12 942.38,-24 942.38,-24 942.38,-30 936.38,-36 930.38,-36"/>
<text xml:space="preserve" text-anchor="middle" x="849.62" y="-13.55" font-family="Helvetica,sans-Serif" font-size="11.00">initial_conditions_outward_shooting</text>
</g>
<!-- src_shooting_half_domain_wavefunction_outward_shooting&#45;&gt;src_shooting_initial_conditions_outward_shooting -->
<g id="edge42" class="edge">
<title>src_shooting_half_domain_wavefunction_outward_shooting&#45;&gt;src_shooting_initial_conditions_outward_shooting</title>
<path fill="none" stroke="#64748b" d="M733.34,-71.52C754.59,-61.92 781.09,-49.95 803.43,-39.86"/>
<polygon fill="#64748b" stroke="#64748b" points="804.39,-42.12 809.76,-37 802.37,-37.65 804.39,-42.12"/>
</g>
<!-- src_shooting_sample_boundary_mismatch_outward_shooting&#45;&gt;src_shooting_boundary_mismatch_outward_shooting -->
<g id="edge43" class="edge">
<title>src_shooting_sample_boundary_mismatch_outward_shooting&#45;&gt;src_shooting_boundary_mismatch_outward_shooting</title>
<path fill="none" stroke="#64748b" d="M860.71,-215.52C808.9,-205.33 743.51,-192.47 690.41,-182.03"/>
<polygon fill="#64748b" stroke="#64748b" points="691.16,-179.68 683.82,-180.73 690.21,-184.49 691.16,-179.68"/>
</g>
<!-- src_shooting_sample_boundary_mismatch_outward_shooting&#45;&gt;src_shooting_diagnostic_mismatch_outward_shooting -->
<g id="edge44" class="edge">
<title>src_shooting_sample_boundary_mismatch_outward_shooting&#45;&gt;src_shooting_diagnostic_mismatch_outward_shooting</title>
<path fill="none" stroke="#64748b" d="M916.66,-215.52C898.72,-206.01 876.41,-194.17 857.5,-184.15"/>
<polygon fill="#64748b" stroke="#64748b" points="858.84,-182.08 851.51,-180.97 856.55,-186.41 858.84,-182.08"/>
</g>
<!-- src_shooting_solve_state_from_bracket_outward_shooting -->
<g id="node34" class="node">
<title>src_shooting_solve_state_from_bracket_outward_shooting</title>
<path fill="#f8fafc" stroke="#334155" d="M410.88,-324C410.88,-324 204.38,-324 204.38,-324 198.38,-324 192.38,-318 192.38,-312 192.38,-312 192.38,-300 192.38,-300 192.38,-294 198.38,-288 204.38,-288 204.38,-288 410.88,-288 410.88,-288 416.88,-288 422.88,-294 422.88,-300 422.88,-300 422.88,-312 422.88,-312 422.88,-318 416.88,-324 410.88,-324"/>
<text xml:space="preserve" text-anchor="middle" x="307.62" y="-301.55" font-family="Helvetica,sans-Serif" font-size="11.00">solve_state_from_bracket_outward_shooting</text>
</g>
<!-- src_shooting_solve_state_from_bracket_outward_shooting&#45;&gt;src_numerov_normalize_wavefunction -->
<g id="edge45" class="edge">
<title>src_shooting_solve_state_from_bracket_outward_shooting&#45;&gt;src_numerov_normalize_wavefunction</title>
<path fill="none" stroke="#64748b" d="M307.62,-287.7C307.62,-279.47 307.62,-269.48 307.62,-260.42"/>
<polygon fill="#64748b" stroke="#64748b" points="310.08,-260.62 307.63,-253.62 305.18,-260.62 310.08,-260.62"/>
</g>
<!-- src_shooting_solve_state_from_bracket_outward_shooting&#45;&gt;src_shooting_bisect_energy_outward_shooting -->
<g id="edge46" class="edge">
<title>src_shooting_solve_state_from_bracket_outward_shooting&#45;&gt;src_shooting_bisect_energy_outward_shooting</title>
<path fill="none" stroke="#64748b" d="M350.33,-287.52C373.99,-277.83 403.53,-265.74 428.3,-255.6"/>
<polygon fill="#64748b" stroke="#64748b" points="429.21,-257.87 434.76,-252.96 427.36,-253.34 429.21,-257.87"/>
</g>
<!-- src_shooting_solve_state_from_bracket_outward_shooting&#45;&gt;src_shooting_build_full_wavefunction -->
<g id="edge47" class="edge">
<title>src_shooting_solve_state_from_bracket_outward_shooting&#45;&gt;src_shooting_build_full_wavefunction</title>
<path fill="none" stroke="#64748b" d="M261.17,-287.52C235.22,-277.75 202.75,-265.53 175.66,-255.34"/>
<polygon fill="#64748b" stroke="#64748b" points="176.64,-253.09 169.23,-252.91 174.92,-257.67 176.64,-253.09"/>
</g>
<!-- src_shooting_solve_state_from_bracket_outward_shooting&#45;&gt;src_shooting_half_domain_wavefunction_outward_shooting -->
<g id="edge48" class="edge">
<title>src_shooting_solve_state_from_bracket_outward_shooting&#45;&gt;src_shooting_half_domain_wavefunction_outward_shooting</title>
<path fill="none" stroke="#64748b" d="M269.35,-287.67C255.13,-279.11 240.54,-267.29 232.62,-252 225.27,-237.79 223,-228.78 232.62,-216 254.97,-186.31 471.66,-137.08 600.19,-110.11"/>
<polygon fill="#64748b" stroke="#64748b" points="600.31,-112.59 606.66,-108.76 599.31,-107.8 600.31,-112.59"/>
</g>
<!-- src_shooting_solve_symmetric_potential_outward_shooting&#45;&gt;src_shooting_find_brackets_outward_shooting -->
<g id="edge49" class="edge">
<title>src_shooting_solve_symmetric_potential_outward_shooting&#45;&gt;src_shooting_find_brackets_outward_shooting</title>
<path fill="none" stroke="#64748b" d="M611.18,-359.7C609.04,-351.39 606.44,-341.28 604.09,-332.14"/>
<polygon fill="#64748b" stroke="#64748b" points="606.52,-331.74 602.4,-325.57 601.77,-332.96 606.52,-331.74"/>
</g>
<!-- src_shooting_solve_symmetric_potential_outward_shooting&#45;&gt;src_shooting_solve_state_from_bracket_outward_shooting -->
<g id="edge50" class="edge">
<title>src_shooting_solve_symmetric_potential_outward_shooting&#45;&gt;src_shooting_solve_state_from_bracket_outward_shooting</title>
<path fill="none" stroke="#64748b" d="M538.7,-359.52C494.24,-349.41 438.23,-336.68 392.49,-326.29"/>
<polygon fill="#64748b" stroke="#64748b" points="393.22,-323.94 385.85,-324.78 392.13,-328.72 393.22,-323.94"/>
</g>
</g>
</svg>
