<?xml version="1.0" encoding="UTF-8" standalone="no"?>
<!DOCTYPE svg PUBLIC "-//W3C//DTD SVG 1.1//EN"
 "http://www.w3.org/Graphics/SVG/1.1/DTD/svg11.dtd">
<!-- Generated by graphviz version 14.1.5 (20260411.2331)
 -->
<!-- Title: G Pages: 1 -->
<svg width="1785pt" height="577pt"
 viewBox="0.00 0.00 1785.00 577.00" xmlns="http://www.w3.org/2000/svg" xmlns:xlink="http://www.w3.org/1999/xlink">
<g id="graph0" class="graph" transform="scale(1 1) rotate(0) translate(4 573)">
<title>G</title>
<polygon fill="white" stroke="none" points="-4,4 -4,-573 1781.38,-573 1781.38,4 -4,4"/>
<text xml:space="preserve" text-anchor="middle" x="150.88" y="-546" font-family="Helvetica,sans-Serif" font-size="20.00">Quartic Double&#45;Well Experiment</text>
<!-- src_analysis_convergence_vs_box_size_fixed_spacing -->
<g id="node1" class="node">
<title>src_analysis_convergence_vs_box_size_fixed_spacing</title>
<path fill="#f8fafc" stroke="#334155" d="M201.25,-468C201.25,-468 12,-468 12,-468 6,-468 0,-462 0,-456 0,-456 0,-444 0,-444 0,-438 6,-432 12,-432 12,-432 201.25,-432 201.25,-432 207.25,-432 213.25,-438 213.25,-444 213.25,-444 213.25,-456 213.25,-456 213.25,-462 207.25,-468 201.25,-468"/>
<text xml:space="preserve" text-anchor="middle" x="106.62" y="-445.55" font-family="Helvetica,sans-Serif" font-size="11.00">convergence_vs_box_size_fixed_spacing</text>
</g>
<!-- src_analysis_energies_from_states -->
<g id="node3" class="node">
<title>src_analysis_energies_from_states</title>
<path fill="#f8fafc" stroke="#334155" d="M261.38,-396C261.38,-396 165.88,-396 165.88,-396 159.88,-396 153.88,-390 153.88,-384 153.88,-384 153.88,-372 153.88,-372 153.88,-366 159.88,-360 165.88,-360 165.88,-360 261.38,-360 261.38,-360 267.38,-360 273.38,-366 273.38,-372 273.38,-372 273.38,-384 273.38,-384 273.38,-390 267.38,-396 261.38,-396"/>
<text xml:space="preserve" text-anchor="middle" x="213.62" y="-373.55" font-family="Helvetica,sans-Serif" font-size="11.00">energies_from_states</text>
</g>
<!-- src_analysis_convergence_vs_box_size_fixed_spacing&#45;&gt;src_analysis_energies_from_states -->
<g id="edge1" class="edge">
<title>src_analysis_convergence_vs_box_size_fixed_spacing&#45;&gt;src_analysis_energies_from_states</title>
<path fill="none" stroke="#64748b" d="M133.35,-431.52C147.63,-422.18 165.33,-410.59 180.48,-400.68"/>
<polygon fill="#64748b" stroke="#64748b" points="181.46,-402.97 185.97,-397.09 178.78,-398.87 181.46,-402.97"/>
</g>
<!-- src_analysis_convergence_vs_grid_successive -->
<g id="node2" class="node">
<title>src_analysis_convergence_vs_grid_successive</title>
<path fill="#f8fafc" stroke="#334155" d="M395.5,-468C395.5,-468 243.75,-468 243.75,-468 237.75,-468 231.75,-462 231.75,-456 231.75,-456 231.75,-444 231.75,-444 231.75,-438 237.75,-432 243.75,-432 243.75,-432 395.5,-432 395.5,-432 401.5,-432 407.5,-438 407.5,-444 407.5,-444 407.5,-456 407.5,-456 407.5,-462 401.5,-468 395.5,-468"/>
<text xml:space="preserve" text-anchor="middle" x="319.62" y="-445.55" font-family="Helvetica,sans-Serif" font-size="11.00">convergence_vs_grid_successive</text>
</g>
<!-- src_analysis_convergence_vs_grid_successive&#45;&gt;src_analysis_energies_from_states -->
<g id="edge2" class="edge">
<title>src_analysis_convergence_vs_grid_successive&#45;&gt;src_analysis_energies_from_states</title>
<path fill="none" stroke="#64748b" d="M293.15,-431.52C279.13,-422.26 261.78,-410.8 246.86,-400.95"/>
<polygon fill="#64748b" stroke="#64748b" points="248.22,-398.91 241.03,-397.09 245.52,-403 248.22,-398.91"/>
</g>
<!-- src_analysis_estimate_convergence_slopes -->
<g id="node4" class="node">
<title>src_analysis_estimate_convergence_slopes</title>
<path fill="#f8fafc" stroke="#334155" d="M574,-468C574,-468 437.25,-468 437.25,-468 431.25,-468 425.25,-462 425.25,-456 425.25,-456 425.25,-444 425.25,-444 425.25,-438 431.25,-432 437.25,-432 437.25,-432 574,-432 574,-432 580,-432 586,-438 586,-444 586,-444 586,-456 586,-456 586,-462 580,-468 574,-468"/>
<text xml:space="preserve" text-anchor="middle" x="505.62" y="-445.55" font-family="Helvetica,sans-Serif" font-size="11.00">estimate_convergence_slopes</text>
</g>
<!-- src_analysis_save_csv_rows -->
<g id="node5" class="node">
<title>src_analysis_save_csv_rows</title>
<path fill="#f8fafc" stroke="#334155" d="M681.38,-468C681.38,-468 615.88,-468 615.88,-468 609.88,-468 603.88,-462 603.88,-456 603.88,-456 603.88,-444 603.88,-444 603.88,-438 609.88,-432 615.88,-432 615.88,-432 681.38,-432 681.38,-432 687.38,-432 693.38,-438 693.38,-444 693.38,-444 693.38,-456 693.38,-456 693.38,-462 687.38,-468 681.38,-468"/>
<text xml:space="preserve" text-anchor="middle" x="648.62" y="-445.55" font-family="Helvetica,sans-Serif" font-size="11.00">save_csv_rows</text>
</g>
<!-- src_analysis_splitting_vs_parameter -->
<g id="node6" class="node">
<title>src_analysis_splitting_vs_parameter</title>
<path fill="#f8fafc" stroke="#334155" d="M823.62,-468C823.62,-468 723.62,-468 723.62,-468 717.62,-468 711.62,-462 711.62,-456 711.62,-456 711.62,-444 711.62,-444 711.62,-438 717.62,-432 723.62,-432 723.62,-432 823.62,-432 823.62,-432 829.62,-432 835.62,-438 835.62,-444 835.62,-444 835.62,-456 835.62,-456 835.62,-462 829.62,-468 823.62,-468"/>
<text xml:space="preserve" text-anchor="middle" x="773.62" y="-445.55" font-family="Helvetica,sans-Serif" font-size="11.00">splitting_vs_parameter</text>
</g>
<!-- src_shooting_solve_symmetric_potential_outward_shooting -->
<g id="node30" class="node">
<title>src_shooting_solve_symmetric_potential_outward_shooting</title>
<path fill="#f8fafc" stroke="#334155" d="M828.38,-396C828.38,-396 618.88,-396 618.88,-396 612.88,-396 606.88,-390 606.88,-384 606.88,-384 606.88,-372 606.88,-372 606.88,-366 612.88,-360 618.88,-360 618.88,-360 828.38,-360 828.38,-360 834.38,-360 840.38,-366 840.38,-372 840.38,-372 840.38,-384 840.38,-384 840.38,-390 834.38,-396 828.38,-396"/>
<text xml:space="preserve" text-anchor="middle" x="723.62" y="-373.55" font-family="Helvetica,sans-Serif" font-size="11.00">solve_symmetric_potential_outward_shooting</text>
</g>
<!-- src_analysis_splitting_vs_parameter&#45;&gt;src_shooting_solve_symmetric_potential_outward_shooting -->
<g id="edge3" class="edge">
<title>src_analysis_splitting_vs_parameter&#45;&gt;src_shooting_solve_symmetric_potential_outward_shooting</title>
<path fill="none" stroke="#64748b" d="M761.27,-431.7C755.09,-423.05 747.52,-412.45 740.79,-403.03"/>
<polygon fill="#64748b" stroke="#64748b" points="742.78,-401.61 736.72,-397.34 738.8,-404.46 742.78,-401.61"/>
</g>
<!-- src_experiments__experiment_results_dir -->
<g id="node7" class="node">
<title>src_experiments__experiment_results_dir</title>
<path fill="#f8fafc" stroke="#334155" d="M972,-468C972,-468 865.25,-468 865.25,-468 859.25,-468 853.25,-462 853.25,-456 853.25,-456 853.25,-444 853.25,-444 853.25,-438 859.25,-432 865.25,-432 865.25,-432 972,-432 972,-432 978,-432 984,-438 984,-444 984,-444 984,-456 984,-456 984,-462 978,-468 972,-468"/>
<text xml:space="preserve" text-anchor="middle" x="918.62" y="-445.55" font-family="Helvetica,sans-Serif" font-size="11.00">_experiment_results_dir</text>
</g>
<!-- src_experiments_plot_double_well_root_diagnostics -->
<g id="node8" class="node">
<title>src_experiments_plot_double_well_root_diagnostics</title>
<path fill="#f8fafc" stroke="#334155" d="M1207.75,-468C1207.75,-468 1051.5,-468 1051.5,-468 1045.5,-468 1039.5,-462 1039.5,-456 1039.5,-456 1039.5,-444 1039.5,-444 1039.5,-438 1045.5,-432 1051.5,-432 1051.5,-432 1207.75,-432 1207.75,-432 1213.75,-432 1219.75,-438 1219.75,-444 1219.75,-444 1219.75,-456 1219.75,-456 1219.75,-462 1213.75,-468 1207.75,-468"/>
<text xml:space="preserve" text-anchor="middle" x="1129.62" y="-445.55" font-family="Helvetica,sans-Serif" font-size="11.00">plot_double_well_root_diagnostics</text>
</g>
<!-- src_plotting_plot_root_finding_diagnostic -->
<g id="node18" class="node">
<title>src_plotting_plot_root_finding_diagnostic</title>
<path fill="#f8fafc" stroke="#334155" d="M1184.38,-396C1184.38,-396 1058.88,-396 1058.88,-396 1052.88,-396 1046.88,-390 1046.88,-384 1046.88,-384 1046.88,-372 1046.88,-372 1046.88,-366 1052.88,-360 1058.88,-360 1058.88,-360 1184.38,-360 1184.38,-360 1190.38,-360 1196.38,-366 1196.38,-372 1196.38,-372 1196.38,-384 1196.38,-384 1196.38,-390 1190.38,-396 1184.38,-396"/>
<text xml:space="preserve" text-anchor="middle" x="1121.62" y="-373.55" font-family="Helvetica,sans-Serif" font-size="11.00">plot_root_finding_diagnostic</text>
</g>
<!-- src_experiments_plot_double_well_root_diagnostics&#45;&gt;src_plotting_plot_root_finding_diagnostic -->
<g id="edge4" class="edge">
<title>src_experiments_plot_double_well_root_diagnostics&#45;&gt;src_plotting_plot_root_finding_diagnostic</title>
<path fill="none" stroke="#64748b" d="M1127.65,-431.7C1126.71,-423.47 1125.57,-413.48 1124.53,-404.42"/>
<polygon fill="#64748b" stroke="#64748b" points="1126.98,-404.28 1123.75,-397.61 1122.11,-404.84 1126.98,-404.28"/>
</g>
<!-- src_potentials_quartic_double_well -->
<g id="node20" class="node">
<title>src_potentials_quartic_double_well</title>
<path fill="#f8fafc" stroke="#334155" d="M1313.25,-396C1313.25,-396 1226,-396 1226,-396 1220,-396 1214,-390 1214,-384 1214,-384 1214,-372 1214,-372 1214,-366 1220,-360 1226,-360 1226,-360 1313.25,-360 1313.25,-360 1319.25,-360 1325.25,-366 1325.25,-372 1325.25,-372 1325.25,-384 1325.25,-384 1325.25,-390 1319.25,-396 1313.25,-396"/>
<text xml:space="preserve" text-anchor="middle" x="1269.62" y="-373.55" font-family="Helvetica,sans-Serif" font-size="11.00">quartic_double_well</text>
</g>
<!-- src_experiments_plot_double_well_root_diagnostics&#45;&gt;src_potentials_quartic_double_well -->
<g id="edge5" class="edge">
<title>src_experiments_plot_double_well_root_diagnostics&#45;&gt;src_potentials_quartic_double_well</title>
<path fill="none" stroke="#64748b" d="M1164.59,-431.52C1183.69,-421.97 1207.49,-410.07 1227.6,-400.01"/>
<polygon fill="#64748b" stroke="#64748b" points="1228.58,-402.26 1233.75,-396.94 1226.39,-397.88 1228.58,-402.26"/>
</g>
<!-- src_shooting_bisection_history_outward_shooting -->
<g id="node22" class="node">
<title>src_shooting_bisection_history_outward_shooting</title>
<path fill="#f8fafc" stroke="#334155" d="M999.12,-324C999.12,-324 836.12,-324 836.12,-324 830.12,-324 824.12,-318 824.12,-312 824.12,-312 824.12,-300 824.12,-300 824.12,-294 830.12,-288 836.12,-288 836.12,-288 999.12,-288 999.12,-288 1005.12,-288 1011.12,-294 1011.12,-300 1011.12,-300 1011.12,-312 1011.12,-312 1011.12,-318 1005.12,-324 999.12,-324"/>
<text xml:space="preserve" text-anchor="middle" x="917.62" y="-301.55" font-family="Helvetica,sans-Serif" font-size="11.00">bisection_history_outward_shooting</text>
</g>
<!-- src_experiments_plot_double_well_root_diagnostics&#45;&gt;src_shooting_bisection_history_outward_shooting -->
<g id="edge6" class="edge">
<title>src_experiments_plot_double_well_root_diagnostics&#45;&gt;src_shooting_bisection_history_outward_shooting</title>
<path fill="none" stroke="#64748b" d="M1075.86,-431.57C1052.84,-422.78 1026.33,-410.82 1004.62,-396 977.96,-377.8 952.79,-350.54 936.45,-330.98"/>
<polygon fill="#64748b" stroke="#64748b" points="938.35,-329.44 932.01,-325.58 934.57,-332.55 938.35,-329.44"/>
</g>
<!-- src_shooting_find_brackets_outward_shooting -->
<g id="node25" class="node">
<title>src_shooting_find_brackets_outward_shooting</title>
<path fill="#f8fafc" stroke="#334155" d="M794.25,-324C794.25,-324 647,-324 647,-324 641,-324 635,-318 635,-312 635,-312 635,-300 635,-300 635,-294 641,-288 647,-288 647,-288 794.25,-288 794.25,-288 800.25,-288 806.25,-294 806.25,-300 806.25,-300 806.25,-312 806.25,-312 806.25,-318 800.25,-324 794.25,-324"/>
<text xml:space="preserve" text-anchor="middle" x="720.62" y="-301.55" font-family="Helvetica,sans-Serif" font-size="11.00">find_brackets_outward_shooting</text>
</g>
<!-- src_experiments_plot_double_well_root_diagnostics&#45;&gt;src_shooting_find_brackets_outward_shooting -->
<g id="edge7" class="edge">
<title>src_experiments_plot_double_well_root_diagnostics&#45;&gt;src_shooting_find_brackets_outward_shooting</title>
<path fill="none" stroke="#64748b" d="M1070.76,-431.51C1037.91,-421.53 996.34,-408.55 959.62,-396 894.93,-373.89 821.34,-346.07 773.11,-327.48"/>
<polygon fill="#64748b" stroke="#64748b" points="774.12,-325.24 766.71,-325.01 772.35,-329.81 774.12,-325.24"/>
</g>
<!-- src_shooting_sample_boundary_mismatch_outward_shooting -->
<g id="node28" class="node">
<title>src_shooting_sample_boundary_mismatch_outward_shooting</title>
<path fill="#f8fafc" stroke="#334155" d="M1150,-252C1150,-252 929.25,-252 929.25,-252 923.25,-252 917.25,-246 917.25,-240 917.25,-240 917.25,-228 917.25,-228 917.25,-222 923.25,-216 929.25,-216 929.25,-216 1150,-216 1150,-216 1156,-216 1162,-222 1162,-228 1162,-228 1162,-240 1162,-240 1162,-246 1156,-252 1150,-252"/>
<text xml:space="preserve" text-anchor="middle" x="1039.62" y="-229.55" font-family="Helvetica,sans-Serif" font-size="11.00">sample_boundary_mismatch_outward_shooting</text>
</g>
<!-- src_experiments_plot_double_well_root_diagnostics&#45;&gt;src_shooting_sample_boundary_mismatch_outward_shooting -->
<g id="edge8" class="edge">
<title>src_experiments_plot_double_well_root_diagnostics&#45;&gt;src_shooting_sample_boundary_mismatch_outward_shooting</title>
<path fill="none" stroke="#64748b" d="M1079.05,-431.72C1062.9,-423.54 1046.85,-411.96 1037.62,-396 1013.12,-353.61 1023.09,-293.86 1031.82,-260.34"/>
<polygon fill="#64748b" stroke="#64748b" points="1034.11,-261.28 1033.6,-253.88 1029.38,-259.98 1034.11,-261.28"/>
</g>
<!-- src_experiments_run_double_well -->
<g id="node9" class="node">
<title>src_experiments_run_double_well</title>
<path fill="#f8fafc" stroke="#334155" d="M1047,-540C1047,-540 976.25,-540 976.25,-540 970.25,-540 964.25,-534 964.25,-528 964.25,-528 964.25,-516 964.25,-516 964.25,-510 970.25,-504 976.25,-504 976.25,-504 1047,-504 1047,-504 1053,-504 1059,-510 1059,-516 1059,-516 1059,-528 1059,-528 1059,-534 1053,-540 1047,-540"/>
<text xml:space="preserve" text-anchor="middle" x="1011.62" y="-517.55" font-family="Helvetica,sans-Serif" font-size="11.00">run_double_well</text>
</g>
<!-- src_experiments_run_double_well&#45;&gt;src_analysis_convergence_vs_box_size_fixed_spacing -->
<g id="edge9" class="edge">
<title>src_experiments_run_double_well&#45;&gt;src_analysis_convergence_vs_box_size_fixed_spacing</title>
<path fill="none" stroke="#64748b" d="M963.93,-519.1C840.9,-513.92 502.82,-497.9 222.62,-468 222.44,-467.98 222.26,-467.96 222.07,-467.94"/>
<polygon fill="#64748b" stroke="#64748b" points="222.45,-465.52 215.22,-467.17 221.9,-470.39 222.45,-465.52"/>
</g>
<!-- src_experiments_run_double_well&#45;&gt;src_analysis_convergence_vs_grid_successive -->
<g id="edge10" class="edge">
<title>src_experiments_run_double_well&#45;&gt;src_analysis_convergence_vs_grid_successive</title>
<path fill="none" stroke="#64748b" d="M964.04,-518.13C862.95,-511.75 619.43,-494.76 416.62,-468 416.44,-467.98 416.26,-467.95 416.08,-467.93"/>
<polygon fill="#64748b" stroke="#64748b" points="416.63,-465.53 409.36,-467 415.96,-470.38 416.63,-465.53"/>
</g>
<!-- src_experiments_run_double_well&#45;&gt;src_analysis_estimate_convergence_slopes -->
<g id="edge11" class="edge">
<title>src_experiments_run_double_well&#45;&gt;src_analysis_estimate_convergence_slopes</title>
<path fill="none" stroke="#64748b" d="M963.96,-515.92C886.36,-507.43 727.96,-489.19 594.62,-468 594.54,-467.99 594.45,-467.97 594.36,-467.96"/>
<polygon fill="#64748b" stroke="#64748b" points="594.91,-465.57 587.61,-466.85 594.12,-470.4 594.91,-465.57"/>
</g>
<!-- src_experiments_run_double_well&#45;&gt;src_analysis_save_csv_rows -->
<g id="edge12" class="edge">
<title>src_experiments_run_double_well&#45;&gt;src_analysis_save_csv_rows</title>
<path fill="none" stroke="#64748b" d="M963.84,-514.85C902.77,-506.52 794.01,-490.12 702.62,-468 702.45,-467.96 702.27,-467.91 702.09,-467.87"/>
<polygon fill="#64748b" stroke="#64748b" points="702.73,-465.5 695.34,-466.11 701.5,-470.25 702.73,-465.5"/>
</g>
<!-- src_experiments_run_double_well&#45;&gt;src_analysis_splitting_vs_parameter -->
<g id="edge13" class="edge">
<title>src_experiments_run_double_well&#45;&gt;src_analysis_splitting_vs_parameter</title>
<path fill="none" stroke="#64748b" d="M964.03,-507C928.68,-496.6 879.98,-482.28 840.68,-470.72"/>
<polygon fill="#64748b" stroke="#64748b" points="841.81,-468.5 834.41,-468.88 840.43,-473.2 841.81,-468.5"/>
</g>
<!-- src_experiments_run_double_well&#45;&gt;src_experiments__experiment_results_dir -->
<g id="edge14" class="edge">
<title>src_experiments_run_double_well&#45;&gt;src_experiments__experiment_results_dir</title>
<path fill="none" stroke="#64748b" d="M988.64,-503.7C976.45,-494.53 961.35,-483.16 948.29,-473.33"/>
<polygon fill="#64748b" stroke="#64748b" points="949.95,-471.51 942.88,-469.26 947,-475.42 949.95,-471.51"/>
</g>
<!-- src_experiments_run_double_well&#45;&gt;src_experiments_plot_double_well_root_diagnostics -->
<g id="edge15" class="edge">
<title>src_experiments_run_double_well&#45;&gt;src_experiments_plot_double_well_root_diagnostics</title>
<path fill="none" stroke="#64748b" d="M1041.1,-503.52C1056.99,-494.09 1076.72,-482.38 1093.53,-472.41"/>
<polygon fill="#64748b" stroke="#64748b" points="1094.46,-474.71 1099.23,-469.03 1091.96,-470.5 1094.46,-474.71"/>
</g>
<!-- src_plotting_plot_error_curve -->
<g id="node15" class="node">
<title>src_plotting_plot_error_curve</title>
<path fill="#f8fafc" stroke="#334155" d="M1426,-396C1426,-396 1355.25,-396 1355.25,-396 1349.25,-396 1343.25,-390 1343.25,-384 1343.25,-384 1343.25,-372 1343.25,-372 1343.25,-366 1349.25,-360 1355.25,-360 1355.25,-360 1426,-360 1426,-360 1432,-360 1438,-366 1438,-372 1438,-372 1438,-384 1438,-384 1438,-390 1432,-396 1426,-396"/>
<text xml:space="preserve" text-anchor="middle" x="1390.62" y="-373.55" font-family="Helvetica,sans-Serif" font-size="11.00">plot_error_curve</text>
</g>
<!-- src_experiments_run_double_well&#45;&gt;src_plotting_plot_error_curve -->
<g id="edge16" class="edge">
<title>src_experiments_run_double_well&#45;&gt;src_plotting_plot_error_curve</title>
<path fill="none" stroke="#64748b" d="M1059.3,-515.81C1109.45,-509.18 1189.92,-495.14 1254.62,-468 1294.99,-451.07 1336.38,-421.97 1362.73,-401.68"/>
<polygon fill="#64748b" stroke="#64748b" points="1364.21,-403.63 1368.22,-397.39 1361.2,-399.76 1364.21,-403.63"/>
</g>
<!-- src_plotting_plot_potential_and_states -->
<g id="node16" class="node">
<title>src_plotting_plot_potential_and_states</title>
<path fill="#f8fafc" stroke="#334155" d="M1582.75,-396C1582.75,-396 1468.5,-396 1468.5,-396 1462.5,-396 1456.5,-390 1456.5,-384 1456.5,-384 1456.5,-372 1456.5,-372 1456.5,-366 1462.5,-360 1468.5,-360 1468.5,-360 1582.75,-360 1582.75,-360 1588.75,-360 1594.75,-366 1594.75,-372 1594.75,-372 1594.75,-384 1594.75,-384 1594.75,-390 1588.75,-396 1582.75,-396"/>
<text xml:space="preserve" text-anchor="middle" x="1525.62" y="-373.55" font-family="Helvetica,sans-Serif" font-size="11.00">plot_potential_and_states</text>
</g>
<!-- src_experiments_run_double_well&#45;&gt;src_plotting_plot_potential_and_states -->
<g id="edge17" class="edge">
<title>src_experiments_run_double_well&#45;&gt;src_plotting_plot_potential_and_states</title>
<path fill="none" stroke="#64748b" d="M1059.42,-515.09C1117.09,-507.29 1216.65,-491.73 1299.62,-468 1364.01,-449.58 1435.49,-419.77 1480.48,-399.78"/>
<polygon fill="#64748b" stroke="#64748b" points="1481.24,-402.12 1486.63,-397.03 1479.24,-397.65 1481.24,-402.12"/>
</g>
<!-- src_plotting_plot_probability_densities -->
<g id="node17" class="node">
<title>src_plotting_plot_probability_densities</title>
<path fill="#f8fafc" stroke="#334155" d="M1736.62,-396C1736.62,-396 1624.62,-396 1624.62,-396 1618.62,-396 1612.62,-390 1612.62,-384 1612.62,-384 1612.62,-372 1612.62,-372 1612.62,-366 1618.62,-360 1624.62,-360 1624.62,-360 1736.62,-360 1736.62,-360 1742.62,-360 1748.62,-366 1748.62,-372 1748.62,-372 1748.62,-384 1748.62,-384 1748.62,-390 1742.62,-396 1736.62,-396"/>
<text xml:space="preserve" text-anchor="middle" x="1680.62" y="-373.55" font-family="Helvetica,sans-Serif" font-size="11.00">plot_probability_densities</text>
</g>
<!-- src_experiments_run_double_well&#45;&gt;src_plotting_plot_probability_densities -->
<g id="edge18" class="edge">
<title>src_experiments_run_double_well&#45;&gt;src_plotting_plot_probability_densities</title>
<path fill="none" stroke="#64748b" d="M1059.22,-515.74C1127.19,-507.79 1255.77,-491.17 1363.62,-468 1453.26,-448.75 1555.01,-418.68 1618.51,-398.91"/>
<polygon fill="#64748b" stroke="#64748b" points="1619.05,-401.31 1625,-396.89 1617.59,-396.63 1619.05,-401.31"/>
</g>
<!-- src_plotting_plot_splitting_curve -->
<g id="node19" class="node">
<title>src_plotting_plot_splitting_curve</title>
<path fill="#f8fafc" stroke="#334155" d="M1765.38,-468C1765.38,-468 1681.88,-468 1681.88,-468 1675.88,-468 1669.88,-462 1669.88,-456 1669.88,-456 1669.88,-444 1669.88,-444 1669.88,-438 1675.88,-432 1681.88,-432 1681.88,-432 1765.38,-432 1765.38,-432 1771.38,-432 1777.38,-438 1777.38,-444 1777.38,-444 1777.38,-456 1777.38,-456 1777.38,-462 1771.38,-468 1765.38,-468"/>
<text xml:space="preserve" text-anchor="middle" x="1723.62" y="-445.55" font-family="Helvetica,sans-Serif" font-size="11.00">plot_splitting_curve</text>
</g>
<!-- src_experiments_run_double_well&#45;&gt;src_plotting_plot_splitting_curve -->
<g id="edge19" class="edge">
<title>src_experiments_run_double_well&#45;&gt;src_plotting_plot_splitting_curve</title>
<path fill="none" stroke="#64748b" d="M1059.12,-517.53C1159.46,-510.01 1400.34,-491.05 1601.62,-468 1621.06,-465.77 1642.18,-462.97 1661.3,-460.28"/>
<polygon fill="#64748b" stroke="#64748b" points="1661.56,-462.72 1668.15,-459.31 1660.87,-457.87 1661.56,-462.72"/>
</g>
<!-- src_experiments_run_double_well&#45;&gt;src_potentials_quartic_double_well -->
<g id="edge20" class="edge">
<title>src_experiments_run_double_well&#45;&gt;src_potentials_quartic_double_well</title>
<path fill="none" stroke="#64748b" d="M1059.19,-520.93C1107.04,-518.44 1180.44,-507.71 1228.62,-468 1248.15,-451.91 1258.83,-424.47 1264.35,-404.3"/>
<polygon fill="#64748b" stroke="#64748b" points="1266.7,-405.01 1266.04,-397.62 1261.95,-403.81 1266.7,-405.01"/>
</g>
<!-- src_experiments_run_double_well&#45;&gt;src_shooting_solve_symmetric_potential_outward_shooting -->
<g id="edge21" class="edge">
<title>src_experiments_run_double_well&#45;&gt;src_shooting_solve_symmetric_potential_outward_shooting</title>
<path fill="none" stroke="#64748b" d="M1013.13,-503.64C1013.84,-483.52 1011.65,-450.73 992.62,-432 981.71,-421.25 913.74,-407.91 848.86,-397.3"/>
<polygon fill="#64748b" stroke="#64748b" points="849.35,-394.9 842.05,-396.2 848.57,-399.74 849.35,-394.9"/>
</g>
<!-- src_numerov_derivative_at_right_edge -->
<g id="node10" class="node">
<title>src_numerov_derivative_at_right_edge</title>
<path fill="#f8fafc" stroke="#334155" d="M906.5,-108C906.5,-108 796.75,-108 796.75,-108 790.75,-108 784.75,-102 784.75,-96 784.75,-96 784.75,-84 784.75,-84 784.75,-78 790.75,-72 796.75,-72 796.75,-72 906.5,-72 906.5,-72 912.5,-72 918.5,-78 918.5,-84 918.5,-84 918.5,-96 918.5,-96 918.5,-102 912.5,-108 906.5,-108"/>
<text xml:space="preserve" text-anchor="middle" x="851.62" y="-85.55" font-family="Helvetica,sans-Serif" font-size="11.00">derivative_at_right_edge</text>
</g>
<!-- src_numerov_normalize_wavefunction -->
<g id="node11" class="node">
<title>src_numerov_normalize_wavefunction</title>
<path fill="#f8fafc" stroke="#334155" d="M619.38,-252C619.38,-252 511.88,-252 511.88,-252 505.88,-252 499.88,-246 499.88,-240 499.88,-240 499.88,-228 499.88,-228 499.88,-222 505.88,-216 511.88,-216 511.88,-216 619.38,-216 619.38,-216 625.38,-216 631.38,-222 631.38,-228 631.38,-228 631.38,-240 631.38,-240 631.38,-246 625.38,-252 619.38,-252"/>
<text xml:space="preserve" text-anchor="middle" x="565.62" y="-229.55" font-family="Helvetica,sans-Serif" font-size="11.00">normalize_wavefunction</text>
</g>
<!-- src_numerov_numerov_outward -->
<g id="node12" class="node">
<title>src_numerov_numerov_outward</title>
<path fill="#f8fafc" stroke="#334155" d="M486.12,-36C486.12,-36 407.12,-36 407.12,-36 401.12,-36 395.12,-30 395.12,-24 395.12,-24 395.12,-12 395.12,-12 395.12,-6 401.12,0 407.12,0 407.12,0 486.12,0 486.12,0 492.12,0 498.12,-6 498.12,-12 498.12,-12 498.12,-24 498.12,-24 498.12,-30 492.12,-36 486.12,-36"/>
<text xml:space="preserve" text-anchor="middle" x="446.62" y="-13.55" font-family="Helvetica,sans-Serif" font-size="11.00">numerov_outward</text>
</g>
<!-- src_numerov_q_from_energy -->
<g id="node13" class="node">
<title>src_numerov_q_from_energy</title>
<path fill="#f8fafc" stroke="#334155" d="M593,-36C593,-36 528.25,-36 528.25,-36 522.25,-36 516.25,-30 516.25,-24 516.25,-24 516.25,-12 516.25,-12 516.25,-6 522.25,0 528.25,0 528.25,0 593,0 593,0 599,0 605,-6 605,-12 605,-12 605,-24 605,-24 605,-30 599,-36 593,-36"/>
<text xml:space="preserve" text-anchor="middle" x="560.62" y="-13.55" font-family="Helvetica,sans-Serif" font-size="11.00">q_from_energy</text>
</g>
<!-- src_plotting__ensure_parent -->
<g id="node14" class="node">
<title>src_plotting__ensure_parent</title>
<path fill="#f8fafc" stroke="#334155" d="M1559.5,-324C1559.5,-324 1491.75,-324 1491.75,-324 1485.75,-324 1479.75,-318 1479.75,-312 1479.75,-312 1479.75,-300 1479.75,-300 1479.75,-294 1485.75,-288 1491.75,-288 1491.75,-288 1559.5,-288 1559.5,-288 1565.5,-288 1571.5,-294 1571.5,-300 1571.5,-300 1571.5,-312 1571.5,-312 1571.5,-318 1565.5,-324 1559.5,-324"/>
<text xml:space="preserve" text-anchor="middle" x="1525.62" y="-301.55" font-family="Helvetica,sans-Serif" font-size="11.00">_ensure_parent</text>
</g>
<!-- src_plotting_plot_error_curve&#45;&gt;src_plotting__ensure_parent -->
<g id="edge22" class="edge">
<title>src_plotting_plot_error_curve&#45;&gt;src_plotting__ensure_parent</title>
<path fill="none" stroke="#64748b" d="M1424.34,-359.52C1442.68,-350.01 1465.5,-338.17 1484.84,-328.15"/>
<polygon fill="#64748b" stroke="#64748b" points="1485.91,-330.35 1490.99,-324.96 1483.65,-326 1485.91,-330.35"/>
</g>
<!-- src_plotting_plot_potential_and_states&#45;&gt;src_plotting__ensure_parent -->
<g id="edge23" class="edge">
<title>src_plotting_plot_potential_and_states&#45;&gt;src_plotting__ensure_parent</title>
<path fill="none" stroke="#64748b" d="M1525.62,-359.7C1525.62,-351.47 1525.62,-341.48 1525.62,-332.42"/>
<polygon fill="#64748b" stroke="#64748b" points="1528.08,-332.62 1525.63,-325.62 1523.18,-332.62 1528.08,-332.62"/>
</g>
<!-- src_plotting_plot_probability_densities&#45;&gt;src_plotting__ensure_parent -->
<g id="edge24" class="edge">
<title>src_plotting_plot_probability_densities&#45;&gt;src_plotting__ensure_parent</title>
<path fill="none" stroke="#64748b" d="M1641.91,-359.52C1620.66,-349.92 1594.16,-337.95 1571.82,-327.86"/>
<polygon fill="#64748b" stroke="#64748b" points="1572.88,-325.65 1565.49,-325 1570.86,-330.12 1572.88,-325.65"/>
</g>
<!-- src_plotting_plot_root_finding_diagnostic&#45;&gt;src_plotting__ensure_parent -->
<g id="edge25" class="edge">
<title>src_plotting_plot_root_finding_diagnostic&#45;&gt;src_plotting__ensure_parent</title>
<path fill="none" stroke="#64748b" d="M1196.7,-361.49C1199.37,-360.98 1202.02,-360.48 1204.62,-360 1297.91,-342.75 1406.97,-325.32 1470.94,-315.37"/>
<polygon fill="#64748b" stroke="#64748b" points="1471.24,-317.81 1477.78,-314.31 1470.49,-312.96 1471.24,-317.81"/>
</g>
<!-- src_plotting_plot_splitting_curve&#45;&gt;src_plotting__ensure_parent -->
<g id="edge26" class="edge">
<title>src_plotting_plot_splitting_curve&#45;&gt;src_plotting__ensure_parent</title>
<path fill="none" stroke="#64748b" d="M1739.62,-431.69C1755.36,-412.52 1774.74,-381.47 1757.62,-360 1735.85,-332.7 1641.67,-318.34 1580.2,-311.74"/>
<polygon fill="#64748b" stroke="#64748b" points="1580.48,-309.31 1573.26,-311.02 1579.97,-314.18 1580.48,-309.31"/>
</g>
<!-- src_shooting_bisect_energy_outward_shooting -->
<g id="node21" class="node">
<title>src_shooting_bisect_energy_outward_shooting</title>
<path fill="#f8fafc" stroke="#334155" d="M811.75,-252C811.75,-252 661.5,-252 661.5,-252 655.5,-252 649.5,-246 649.5,-240 649.5,-240 649.5,-228 649.5,-228 649.5,-222 655.5,-216 661.5,-216 661.5,-216 811.75,-216 811.75,-216 817.75,-216 823.75,-222 823.75,-228 823.75,-228 823.75,-240 823.75,-240 823.75,-246 817.75,-252 811.75,-252"/>
<text xml:space="preserve" text-anchor="middle" x="736.62" y="-229.55" font-family="Helvetica,sans-Serif" font-size="11.00">bisect_energy_outward_shooting</text>
</g>
<!-- src_shooting_boundary_mismatch_outward_shooting -->
<g id="node23" class="node">
<title>src_shooting_boundary_mismatch_outward_shooting</title>
<path fill="#f8fafc" stroke="#334155" d="M941.75,-180C941.75,-180 761.5,-180 761.5,-180 755.5,-180 749.5,-174 749.5,-168 749.5,-168 749.5,-156 749.5,-156 749.5,-150 755.5,-144 761.5,-144 761.5,-144 941.75,-144 941.75,-144 947.75,-144 953.75,-150 953.75,-156 953.75,-156 953.75,-168 953.75,-168 953.75,-174 947.75,-180 941.75,-180"/>
<text xml:space="preserve" text-anchor="middle" x="851.62" y="-157.55" font-family="Helvetica,sans-Serif" font-size="11.00">boundary_mismatch_outward_shooting</text>
</g>
<!-- src_shooting_bisect_energy_outward_shooting&#45;&gt;src_shooting_boundary_mismatch_outward_shooting -->
<g id="edge27" class="edge">
<title>src_shooting_bisect_energy_outward_shooting&#45;&gt;src_shooting_boundary_mismatch_outward_shooting</title>
<path fill="none" stroke="#64748b" d="M765.35,-215.52C780.69,-206.18 799.72,-194.59 816,-184.68"/>
<polygon fill="#64748b" stroke="#64748b" points="817.27,-186.78 821.98,-181.05 814.72,-182.59 817.27,-186.78"/>
</g>
<!-- src_shooting_bisection_history_outward_shooting&#45;&gt;src_shooting_boundary_mismatch_outward_shooting -->
<g id="edge28" class="edge">
<title>src_shooting_bisection_history_outward_shooting&#45;&gt;src_shooting_boundary_mismatch_outward_shooting</title>
<path fill="none" stroke="#64748b" d="M909.53,-287.59C897.89,-262.54 876.36,-216.22 863.09,-187.66"/>
<polygon fill="#64748b" stroke="#64748b" points="865.39,-186.8 860.22,-181.48 860.94,-188.86 865.39,-186.8"/>
</g>
<!-- src_shooting_boundary_mismatch_outward_shooting&#45;&gt;src_numerov_derivative_at_right_edge -->
<g id="edge29" class="edge">
<title>src_shooting_boundary_mismatch_outward_shooting&#45;&gt;src_numerov_derivative_at_right_edge</title>
<path fill="none" stroke="#64748b" d="M851.62,-143.7C851.62,-135.47 851.62,-125.48 851.62,-116.42"/>
<polygon fill="#64748b" stroke="#64748b" points="854.08,-116.62 851.63,-109.62 849.18,-116.62 854.08,-116.62"/>
</g>
<!-- src_shooting_half_domain_wavefunction_outward_shooting -->
<g id="node26" class="node">
<title>src_shooting_half_domain_wavefunction_outward_shooting</title>
<path fill="#f8fafc" stroke="#334155" d="M666.12,-108C666.12,-108 455.12,-108 455.12,-108 449.12,-108 443.12,-102 443.12,-96 443.12,-96 443.12,-84 443.12,-84 443.12,-78 449.12,-72 455.12,-72 455.12,-72 666.12,-72 666.12,-72 672.12,-72 678.12,-78 678.12,-84 678.12,-84 678.12,-96 678.12,-96 678.12,-102 672.12,-108 666.12,-108"/>
<text xml:space="preserve" text-anchor="middle" x="560.62" y="-85.55" font-family="Helvetica,sans-Serif" font-size="11.00">half_domain_wavefunction_outward_shooting</text>
</g>
<!-- src_shooting_boundary_mismatch_outward_shooting&#45;&gt;src_shooting_half_domain_wavefunction_outward_shooting -->
<g id="edge30" class="edge">
<title>src_shooting_boundary_mismatch_outward_shooting&#45;&gt;src_shooting_half_domain_wavefunction_outward_shooting</title>
<path fill="none" stroke="#64748b" d="M778.94,-143.52C737.11,-133.45 684.46,-120.79 641.35,-110.42"/>
<polygon fill="#64748b" stroke="#64748b" points="641.99,-108.05 634.61,-108.8 640.84,-112.82 641.99,-108.05"/>
</g>
<!-- src_shooting_build_full_wavefunction -->
<g id="node24" class="node">
<title>src_shooting_build_full_wavefunction</title>
<path fill="#f8fafc" stroke="#334155" d="M431.12,-252C431.12,-252 328.12,-252 328.12,-252 322.12,-252 316.12,-246 316.12,-240 316.12,-240 316.12,-228 316.12,-228 316.12,-222 322.12,-216 328.12,-216 328.12,-216 431.12,-216 431.12,-216 437.12,-216 443.12,-222 443.12,-228 443.12,-228 443.12,-240 443.12,-240 443.12,-246 437.12,-252 431.12,-252"/>
<text xml:space="preserve" text-anchor="middle" x="379.62" y="-229.55" font-family="Helvetica,sans-Serif" font-size="11.00">build_full_wavefunction</text>
</g>
<!-- src_shooting_find_brackets_outward_shooting&#45;&gt;src_shooting_boundary_mismatch_outward_shooting -->
<g id="edge31" class="edge">
<title>src_shooting_find_brackets_outward_shooting&#45;&gt;src_shooting_boundary_mismatch_outward_shooting</title>
<path fill="none" stroke="#64748b" d="M782.46,-287.62C801.05,-279.57 819.87,-268.11 832.62,-252 846.83,-234.06 851.04,-207.93 852.02,-188.63"/>
<polygon fill="#64748b" stroke="#64748b" points="854.47,-188.87 852.23,-181.8 849.57,-188.73 854.47,-188.87"/>
</g>
<!-- src_shooting_half_domain_wavefunction_outward_shooting&#45;&gt;src_numerov_numerov_outward -->
<g id="edge32" class="edge">
<title>src_shooting_half_domain_wavefunction_outward_shooting&#45;&gt;src_numerov_numerov_outward</title>
<path fill="none" stroke="#64748b" d="M532.15,-71.52C516.94,-62.18 498.07,-50.59 481.94,-40.68"/>
<polygon fill="#64748b" stroke="#64748b" points="483.27,-38.63 476.02,-37.05 480.71,-42.8 483.27,-38.63"/>
</g>
<!-- src_shooting_half_domain_wavefunction_outward_shooting&#45;&gt;src_numerov_q_from_energy -->
<g id="edge33" class="edge">
<title>src_shooting_half_domain_wavefunction_outward_shooting&#45;&gt;src_numerov_q_from_energy</title>
<path fill="none" stroke="#64748b" d="M560.62,-71.7C560.62,-63.47 560.62,-53.48 560.62,-44.42"/>
<polygon fill="#64748b" stroke="#64748b" points="563.08,-44.62 560.63,-37.62 558.18,-44.62 563.08,-44.62"/>
</g>
<!-- src_shooting_initial_conditions_outward_shooting -->
<g id="node27" class="node">
<title>src_shooting_initial_conditions_outward_shooting</title>
<path fill="#f8fafc" stroke="#334155" d="M796.38,-36C796.38,-36 634.88,-36 634.88,-36 628.88,-36 622.88,-30 622.88,-24 622.88,-24 622.88,-12 622.88,-12 622.88,-6 628.88,0 634.88,0 634.88,0 796.38,0 796.38,0 802.38,0 808.38,-6 808.38,-12 808.38,-12 808.38,-24 808.38,-24 808.38,-30 802.38,-36 796.38,-36"/>
<text xml:space="preserve" text-anchor="middle" x="715.62" y="-13.55" font-family="Helvetica,sans-Serif" font-size="11.00">initial_conditions_outward_shooting</text>
</g>
<!-- src_shooting_half_domain_wavefunction_outward_shooting&#45;&gt;src_shooting_initial_conditions_outward_shooting -->
<g id="edge34" class="edge">
<title>src_shooting_half_domain_wavefunction_outward_shooting&#45;&gt;src_shooting_initial_conditions_outward_shooting</title>
<path fill="none" stroke="#64748b" d="M599.34,-71.52C620.59,-61.92 647.09,-49.95 669.43,-39.86"/>
<polygon fill="#64748b" stroke="#64748b" points="670.39,-42.12 675.76,-37 668.37,-37.65 670.39,-42.12"/>
</g>
<!-- src_shooting_sample_boundary_mismatch_outward_shooting&#45;&gt;src_shooting_boundary_mismatch_outward_shooting -->
<g id="edge35" class="edge">
<title>src_shooting_sample_boundary_mismatch_outward_shooting&#45;&gt;src_shooting_boundary_mismatch_outward_shooting</title>
<path fill="none" stroke="#64748b" d="M992.67,-215.52C966.44,-205.75 933.62,-193.53 906.24,-183.34"/>
<polygon fill="#64748b" stroke="#64748b" points="907.14,-181.06 899.73,-180.91 905.43,-185.65 907.14,-181.06"/>
</g>
<!-- src_shooting_solve_state_from_bracket_outward_shooting -->
<g id="node29" class="node">
<title>src_shooting_solve_state_from_bracket_outward_shooting</title>
<path fill="#f8fafc" stroke="#334155" d="M604.88,-324C604.88,-324 398.38,-324 398.38,-324 392.38,-324 386.38,-318 386.38,-312 386.38,-312 386.38,-300 386.38,-300 386.38,-294 392.38,-288 398.38,-288 398.38,-288 604.88,-288 604.88,-288 610.88,-288 616.88,-294 616.88,-300 616.88,-300 616.88,-312 616.88,-312 616.88,-318 610.88,-324 604.88,-324"/>
<text xml:space="preserve" text-anchor="middle" x="501.62" y="-301.55" font-family="Helvetica,sans-Serif" font-size="11.00">solve_state_from_bracket_outward_shooting</text>
</g>
<!-- src_shooting_solve_state_from_bracket_outward_shooting&#45;&gt;src_numerov_normalize_wavefunction -->
<g id="edge36" class="edge">
<title>src_shooting_solve_state_from_bracket_outward_shooting&#45;&gt;src_numerov_normalize_wavefunction</title>
<path fill="none" stroke="#64748b" d="M517.45,-287.7C525.58,-278.8 535.62,-267.82 544.41,-258.2"/>
<polygon fill="#64748b" stroke="#64748b" points="546.05,-260.04 548.97,-253.22 542.43,-256.73 546.05,-260.04"/>
</g>
<!-- src_shooting_solve_state_from_bracket_outward_shooting&#45;&gt;src_shooting_bisect_energy_outward_shooting -->
<g id="edge37" class="edge">
<title>src_shooting_solve_state_from_bracket_outward_shooting&#45;&gt;src_shooting_bisect_energy_outward_shooting</title>
<path fill="none" stroke="#64748b" d="M560.32,-287.52C593.81,-277.54 635.89,-265 670.54,-254.68"/>
<polygon fill="#64748b" stroke="#64748b" points="670.81,-257.16 676.82,-252.81 669.41,-252.46 670.81,-257.16"/>
</g>
<!-- src_shooting_solve_state_from_bracket_outward_shooting&#45;&gt;src_shooting_build_full_wavefunction -->
<g id="edge38" class="edge">
<title>src_shooting_solve_state_from_bracket_outward_shooting&#45;&gt;src_shooting_build_full_wavefunction</title>
<path fill="none" stroke="#64748b" d="M471.15,-287.52C454.73,-278.09 434.32,-266.38 416.95,-256.41"/>
<polygon fill="#64748b" stroke="#64748b" points="418.31,-254.37 411.02,-253.01 415.87,-258.62 418.31,-254.37"/>
</g>
<!-- src_shooting_solve_state_from_bracket_outward_shooting&#45;&gt;src_shooting_half_domain_wavefunction_outward_shooting -->
<g id="edge39" class="edge">
<title>src_shooting_solve_state_from_bracket_outward_shooting&#45;&gt;src_shooting_half_domain_wavefunction_outward_shooting</title>
<path fill="none" stroke="#64748b" d="M495.69,-287.68C490.35,-269.56 484.26,-240.4 490.62,-216 500.57,-177.89 525,-139.09 542.19,-115.04"/>
<polygon fill="#64748b" stroke="#64748b" points="544.02,-116.7 546.15,-109.59 540.05,-113.81 544.02,-116.7"/>
</g>
<!-- src_shooting_solve_symmetric_potential_outward_shooting&#45;&gt;src_shooting_find_brackets_outward_shooting -->
<g id="edge40" class="edge">
<title>src_shooting_solve_symmetric_potential_outward_shooting&#45;&gt;src_shooting_find_brackets_outward_shooting</title>
<path fill="none" stroke="#64748b" d="M722.88,-359.7C722.53,-351.47 722.1,-341.48 721.71,-332.42"/>
<polygon fill="#64748b" stroke="#64748b" points="724.17,-332.51 721.42,-325.62 719.27,-332.72 724.17,-332.51"/>
</g>
<!-- src_shooting_solve_symmetric_potential_outward_shooting&#45;&gt;src_shooting_solve_state_from_bracket_outward_shooting -->
<g id="edge41" class="edge">
<title>src_shooting_solve_symmetric_potential_outward_shooting&#45;&gt;src_shooting_solve_state_from_bracket_outward_shooting</title>
<path fill="none" stroke="#64748b" d="M668.18,-359.52C636.67,-349.58 597.12,-337.11 564.46,-326.81"/>
<polygon fill="#64748b" stroke="#64748b" points="565.61,-324.61 558.19,-324.84 564.13,-329.28 565.61,-324.61"/>
</g>
</g>
</svg>
