<?xml version="1.0" encoding="UTF-8" standalone="no"?>
<!DOCTYPE svg PUBLIC "-//W3C//DTD SVG 1.1//EN"
 "http://www.w3.org/Graphics/SVG/1.1/DTD/svg11.dtd">
<!-- Generated by graphviz version 14.1.5 (20260411.2331)
 -->
<!-- Title: G Pages: 1 -->
<svg width="798pt" height="361pt"
 viewBox="0.00 0.00 798.00 361.00" xmlns="http://www.w3.org/2000/svg" xmlns:xlink="http://www.w3.org/1999/xlink">
<g id="graph0" class="graph" transform="scale(1 1) rotate(0) translate(4 357)">
<title>G</title>
<polygon fill="white" stroke="none" points="-4,4 -4,-357 794.12,-357 794.12,4 -4,4"/>
<text xml:space="preserve" text-anchor="middle" x="206" y="-330" font-family="Helvetica,sans-Serif" font-size="20.00">Single Square&#45;Barrier Scattering Experiment</text>
<!-- src_analysis_save_csv_rows -->
<g id="node1" class="node">
<title>src_analysis_save_csv_rows</title>
<path fill="#f8fafc" stroke="#334155" d="M77.5,-252C77.5,-252 12,-252 12,-252 6,-252 0,-246 0,-240 0,-240 0,-228 0,-228 0,-222 6,-216 12,-216 12,-216 77.5,-216 77.5,-216 83.5,-216 89.5,-222 89.5,-228 89.5,-228 89.5,-240 89.5,-240 89.5,-246 83.5,-252 77.5,-252"/>
<text xml:space="preserve" text-anchor="middle" x="44.75" y="-229.55" font-family="Helvetica,sans-Serif" font-size="11.00">save_csv_rows</text>
</g>
<!-- src_experiments__experiment_results_dir -->
<g id="node2" class="node">
<title>src_experiments__experiment_results_dir</title>
<path fill="#f8fafc" stroke="#334155" d="M226.12,-252C226.12,-252 119.38,-252 119.38,-252 113.38,-252 107.38,-246 107.38,-240 107.38,-240 107.38,-228 107.38,-228 107.38,-222 113.38,-216 119.38,-216 119.38,-216 226.12,-216 226.12,-216 232.12,-216 238.12,-222 238.12,-228 238.12,-228 238.12,-240 238.12,-240 238.12,-246 232.12,-252 226.12,-252"/>
<text xml:space="preserve" text-anchor="middle" x="172.75" y="-229.55" font-family="Helvetica,sans-Serif" font-size="11.00">_experiment_results_dir</text>
</g>
<!-- src_experiments_run_scattering -->
<g id="node3" class="node">
<title>src_experiments_run_scattering</title>
<path fill="#f8fafc" stroke="#334155" d="M358.88,-324C358.88,-324 298.62,-324 298.62,-324 292.62,-324 286.62,-318 286.62,-312 286.62,-312 286.62,-300 286.62,-300 286.62,-294 292.62,-288 298.62,-288 298.62,-288 358.88,-288 358.88,-288 364.88,-288 370.88,-294 370.88,-300 370.88,-300 370.88,-312 370.88,-312 370.88,-318 364.88,-324 358.88,-324"/>
<text xml:space="preserve" text-anchor="middle" x="328.75" y="-301.55" font-family="Helvetica,sans-Serif" font-size="11.00">run_scattering</text>
</g>
<!-- src_experiments_run_scattering&#45;&gt;src_analysis_save_csv_rows -->
<g id="edge1" class="edge">
<title>src_experiments_run_scattering&#45;&gt;src_analysis_save_csv_rows</title>
<path fill="none" stroke="#64748b" d="M286.53,-296.31C240.21,-286.54 163.79,-269.7 98.75,-252 98.47,-251.92 98.2,-251.85 97.92,-251.77"/>
<polygon fill="#64748b" stroke="#64748b" points="98.61,-249.42 91.21,-249.87 97.28,-254.14 98.61,-249.42"/>
</g>
<!-- src_experiments_run_scattering&#45;&gt;src_experiments__experiment_results_dir -->
<g id="edge2" class="edge">
<title>src_experiments_run_scattering&#45;&gt;src_experiments__experiment_results_dir</title>
<path fill="none" stroke="#64748b" d="M289.79,-287.52C268.39,-277.92 241.72,-265.95 219.25,-255.86"/>
<polygon fill="#64748b" stroke="#64748b" points="220.26,-253.63 212.87,-253 218.25,-258.1 220.26,-253.63"/>
</g>
<!-- src_plotting_plot_scattering_coefficients -->
<g id="node6" class="node">
<title>src_plotting_plot_scattering_coefficients</title>
<path fill="#f8fafc" stroke="#334155" d="M389.25,-252C389.25,-252 268.25,-252 268.25,-252 262.25,-252 256.25,-246 256.25,-240 256.25,-240 256.25,-228 256.25,-228 256.25,-222 262.25,-216 268.25,-216 268.25,-216 389.25,-216 389.25,-216 395.25,-216 401.25,-222 401.25,-228 401.25,-228 401.25,-240 401.25,-240 401.25,-246 395.25,-252 389.25,-252"/>
<text xml:space="preserve" text-anchor="middle" x="328.75" y="-229.55" font-family="Helvetica,sans-Serif" font-size="11.00">plot_scattering_coefficients</text>
</g>
<!-- src_experiments_run_scattering&#45;&gt;src_plotting_plot_scattering_coefficients -->
<g id="edge3" class="edge">
<title>src_experiments_run_scattering&#45;&gt;src_plotting_plot_scattering_coefficients</title>
<path fill="none" stroke="#64748b" d="M328.75,-287.7C328.75,-279.47 328.75,-269.48 328.75,-260.42"/>
<polygon fill="#64748b" stroke="#64748b" points="331.2,-260.62 328.75,-253.62 326.3,-260.62 331.2,-260.62"/>
</g>
<!-- src_potentials_square_barrier -->
<g id="node7" class="node">
<title>src_potentials_square_barrier</title>
<path fill="#f8fafc" stroke="#334155" d="M494,-252C494,-252 431.5,-252 431.5,-252 425.5,-252 419.5,-246 419.5,-240 419.5,-240 419.5,-228 419.5,-228 419.5,-222 425.5,-216 431.5,-216 431.5,-216 494,-216 494,-216 500,-216 506,-222 506,-228 506,-228 506,-240 506,-240 506,-246 500,-252 494,-252"/>
<text xml:space="preserve" text-anchor="middle" x="462.75" y="-229.55" font-family="Helvetica,sans-Serif" font-size="11.00">square_barrier</text>
</g>
<!-- src_experiments_run_scattering&#45;&gt;src_potentials_square_barrier -->
<g id="edge4" class="edge">
<title>src_experiments_run_scattering&#45;&gt;src_potentials_square_barrier</title>
<path fill="none" stroke="#64748b" d="M362.22,-287.52C380.42,-278.01 403.08,-266.17 422.27,-256.15"/>
<polygon fill="#64748b" stroke="#64748b" points="423.3,-258.37 428.37,-252.96 421.03,-254.03 423.3,-258.37"/>
</g>
<!-- src_scattering_sweep_scattering -->
<g id="node12" class="node">
<title>src_scattering_sweep_scattering</title>
<path fill="#f8fafc" stroke="#334155" d="M611.75,-252C611.75,-252 535.75,-252 535.75,-252 529.75,-252 523.75,-246 523.75,-240 523.75,-240 523.75,-228 523.75,-228 523.75,-222 529.75,-216 535.75,-216 535.75,-216 611.75,-216 611.75,-216 617.75,-216 623.75,-222 623.75,-228 623.75,-228 623.75,-240 623.75,-240 623.75,-246 617.75,-252 611.75,-252"/>
<text xml:space="preserve" text-anchor="middle" x="573.75" y="-229.55" font-family="Helvetica,sans-Serif" font-size="11.00">sweep_scattering</text>
</g>
<!-- src_experiments_run_scattering&#45;&gt;src_scattering_sweep_scattering -->
<g id="edge5" class="edge">
<title>src_experiments_run_scattering&#45;&gt;src_scattering_sweep_scattering</title>
<path fill="none" stroke="#64748b" d="M371.24,-292.93C408.94,-282.21 465.53,-266.1 514.75,-252 515.02,-251.92 515.29,-251.85 515.56,-251.77"/>
<polygon fill="#64748b" stroke="#64748b" points="516.03,-254.18 522.09,-249.9 514.68,-249.47 516.03,-254.18"/>
</g>
<!-- src_numerov_q_from_energy -->
<g id="node4" class="node">
<title>src_numerov_q_from_energy</title>
<path fill="#f8fafc" stroke="#334155" d="M611.12,-36C611.12,-36 546.38,-36 546.38,-36 540.38,-36 534.38,-30 534.38,-24 534.38,-24 534.38,-12 534.38,-12 534.38,-6 540.38,0 546.38,0 546.38,0 611.12,0 611.12,0 617.12,0 623.12,-6 623.12,-12 623.12,-12 623.12,-24 623.12,-24 623.12,-30 617.12,-36 611.12,-36"/>
<text xml:space="preserve" text-anchor="middle" x="578.75" y="-13.55" font-family="Helvetica,sans-Serif" font-size="11.00">q_from_energy</text>
</g>
<!-- src_plotting__ensure_parent -->
<g id="node5" class="node">
<title>src_plotting__ensure_parent</title>
<path fill="#f8fafc" stroke="#334155" d="M362.62,-180C362.62,-180 294.88,-180 294.88,-180 288.88,-180 282.88,-174 282.88,-168 282.88,-168 282.88,-156 282.88,-156 282.88,-150 288.88,-144 294.88,-144 294.88,-144 362.62,-144 362.62,-144 368.62,-144 374.62,-150 374.62,-156 374.62,-156 374.62,-168 374.62,-168 374.62,-174 368.62,-180 362.62,-180"/>
<text xml:space="preserve" text-anchor="middle" x="328.75" y="-157.55" font-family="Helvetica,sans-Serif" font-size="11.00">_ensure_parent</text>
</g>
<!-- src_plotting_plot_scattering_coefficients&#45;&gt;src_plotting__ensure_parent -->
<g id="edge6" class="edge">
<title>src_plotting_plot_scattering_coefficients&#45;&gt;src_plotting__ensure_parent</title>
<path fill="none" stroke="#64748b" d="M328.75,-215.7C328.75,-207.47 328.75,-197.48 328.75,-188.42"/>
<polygon fill="#64748b" stroke="#64748b" points="331.2,-188.62 328.75,-181.62 326.3,-188.62 331.2,-188.62"/>
</g>
<!-- src_scattering_decompose_left_asymptotic -->
<g id="node8" class="node">
<title>src_scattering_decompose_left_asymptotic</title>
<path fill="#f8fafc" stroke="#334155" d="M561.12,-108C561.12,-108 436.38,-108 436.38,-108 430.38,-108 424.38,-102 424.38,-96 424.38,-96 424.38,-84 424.38,-84 424.38,-78 430.38,-72 436.38,-72 436.38,-72 561.12,-72 561.12,-72 567.12,-72 573.12,-78 573.12,-84 573.12,-84 573.12,-96 573.12,-96 573.12,-102 567.12,-108 561.12,-108"/>
<text xml:space="preserve" text-anchor="middle" x="498.75" y="-85.55" font-family="Helvetica,sans-Serif" font-size="11.00">decompose_left_asymptotic</text>
</g>
<!-- src_scattering_integrate_from_right -->
<g id="node9" class="node">
<title>src_scattering_integrate_from_right</title>
<path fill="#f8fafc" stroke="#334155" d="M692.12,-108C692.12,-108 603.38,-108 603.38,-108 597.38,-108 591.38,-102 591.38,-96 591.38,-96 591.38,-84 591.38,-84 591.38,-78 597.38,-72 603.38,-72 603.38,-72 692.12,-72 692.12,-72 698.12,-72 704.12,-78 704.12,-84 704.12,-84 704.12,-96 704.12,-96 704.12,-102 698.12,-108 692.12,-108"/>
<text xml:space="preserve" text-anchor="middle" x="647.75" y="-85.55" font-family="Helvetica,sans-Serif" font-size="11.00">integrate_from_right</text>
</g>
<!-- src_scattering_integrate_from_right&#45;&gt;src_numerov_q_from_energy -->
<g id="edge7" class="edge">
<title>src_scattering_integrate_from_right&#45;&gt;src_numerov_q_from_energy</title>
<path fill="none" stroke="#64748b" d="M630.69,-71.7C621.84,-62.71 610.9,-51.61 601.35,-41.92"/>
<polygon fill="#64748b" stroke="#64748b" points="603.33,-40.45 596.67,-37.18 599.84,-43.89 603.33,-40.45"/>
</g>
<!-- src_scattering_numerov_outward_complex -->
<g id="node10" class="node">
<title>src_scattering_numerov_outward_complex</title>
<path fill="#f8fafc" stroke="#334155" d="M778.12,-36C778.12,-36 653.38,-36 653.38,-36 647.38,-36 641.38,-30 641.38,-24 641.38,-24 641.38,-12 641.38,-12 641.38,-6 647.38,0 653.38,0 653.38,0 778.12,0 778.12,0 784.12,0 790.12,-6 790.12,-12 790.12,-12 790.12,-24 790.12,-24 790.12,-30 784.12,-36 778.12,-36"/>
<text xml:space="preserve" text-anchor="middle" x="715.75" y="-13.55" font-family="Helvetica,sans-Serif" font-size="11.00">numerov_outward_complex</text>
</g>
<!-- src_scattering_integrate_from_right&#45;&gt;src_scattering_numerov_outward_complex -->
<g id="edge8" class="edge">
<title>src_scattering_integrate_from_right&#45;&gt;src_scattering_numerov_outward_complex</title>
<path fill="none" stroke="#64748b" d="M664.56,-71.7C673.21,-62.8 683.86,-51.82 693.21,-42.2"/>
<polygon fill="#64748b" stroke="#64748b" points="694.96,-43.92 698.08,-37.19 691.44,-40.5 694.96,-43.92"/>
</g>
<!-- src_scattering_solve_scattering -->
<g id="node11" class="node">
<title>src_scattering_solve_scattering</title>
<path fill="#f8fafc" stroke="#334155" d="M608.38,-180C608.38,-180 539.12,-180 539.12,-180 533.12,-180 527.12,-174 527.12,-168 527.12,-168 527.12,-156 527.12,-156 527.12,-150 533.12,-144 539.12,-144 539.12,-144 608.38,-144 608.38,-144 614.38,-144 620.38,-150 620.38,-156 620.38,-156 620.38,-168 620.38,-168 620.38,-174 614.38,-180 608.38,-180"/>
<text xml:space="preserve" text-anchor="middle" x="573.75" y="-157.55" font-family="Helvetica,sans-Serif" font-size="11.00">solve_scattering</text>
</g>
<!-- src_scattering_solve_scattering&#45;&gt;src_scattering_decompose_left_asymptotic -->
<g id="edge9" class="edge">
<title>src_scattering_solve_scattering&#45;&gt;src_scattering_decompose_left_asymptotic</title>
<path fill="none" stroke="#64748b" d="M555.21,-143.7C545.66,-134.78 533.87,-123.78 523.54,-114.14"/>
<polygon fill="#64748b" stroke="#64748b" points="525.23,-112.36 518.44,-109.38 521.89,-115.95 525.23,-112.36"/>
</g>
<!-- src_scattering_solve_scattering&#45;&gt;src_scattering_integrate_from_right -->
<g id="edge10" class="edge">
<title>src_scattering_solve_scattering&#45;&gt;src_scattering_integrate_from_right</title>
<path fill="none" stroke="#64748b" d="M592.04,-143.7C601.47,-134.78 613.1,-123.78 623.29,-114.14"/>
<polygon fill="#64748b" stroke="#64748b" points="624.91,-115.98 628.31,-109.39 621.54,-112.42 624.91,-115.98"/>
</g>
<!-- src_scattering_sweep_scattering&#45;&gt;src_scattering_solve_scattering -->
<g id="edge11" class="edge">
<title>src_scattering_sweep_scattering&#45;&gt;src_scattering_solve_scattering</title>
<path fill="none" stroke="#64748b" d="M573.75,-215.7C573.75,-207.47 573.75,-197.48 573.75,-188.42"/>
<polygon fill="#64748b" stroke="#64748b" points="576.2,-188.62 573.75,-181.62 571.3,-188.62 576.2,-188.62"/>
</g>
</g>
</svg>
